<svg width="210" height="57" viewBox="0 0 210 57" fill="none" xmlns="http://www.w3.org/2000/svg">
<g id="Layer_1" clip-path="url(#clip0_623_244)">
<path id="Vector" d="M156 3.0799C156.183 5.06482 156.348 6.8447 156.509 8.59842C154.023 9.13064 118.528 4.70273 117.549 3.66883C118.071 3.45507 118.52 3.11043 118.968 3.10607C131.247 3.07553 143.525 3.08426 156 3.08426V3.0799Z" fill="#27AAE1"/>
<path id="Vector_2" d="M171.54 8.94742V3.15843C172.197 3.12789 172.768 3.0799 173.338 3.0799C184.898 3.0799 196.459 3.0799 208.019 3.0799C208.311 3.0799 208.633 3.00574 208.894 3.10172C209.286 3.24132 209.63 3.4987 209.996 3.7081C209.639 4.01347 209.316 4.52824 208.925 4.59368C206.926 4.91214 204.91 5.10845 202.898 5.34839C198.135 5.92423 193.372 6.51317 188.608 7.0672C185.216 7.45982 181.816 7.80009 178.419 8.17527C176.181 8.41956 173.948 8.68131 171.54 8.95179V8.94742Z" fill="#27AAE1"/>
<path id="Vector_3" d="M38.4775 3.0799C38.6255 5.06046 38.7605 6.84034 38.9216 8.98668C25.9289 7.46418 13.0145 5.9504 0.100145 4.43662C0.0653121 4.2185 0.0348331 4.00474 0 3.78662C0.509434 3.55104 1.01887 3.10607 1.53266 3.10607C13.7983 3.06681 26.0595 3.07553 38.4775 3.07553V3.0799Z" fill="#27AAE1"/>
<path id="Vector_4" d="M92.5733 4.41918C79.8113 5.92423 67.0494 7.43365 54.1263 8.96051V3.2893C58.2061 2.53023 91.4499 2.97957 92.5298 3.80407C92.5428 4.00911 92.5559 4.21414 92.569 4.41482L92.5733 4.41918Z" fill="#27AAE1"/>
<path id="Vector_5" d="M50.8998 2.696H48.0087C47.9434 1.697 47.8824 0.850681 47.8258 0H44.8345C44.7779 0.937931 44.73 1.77989 44.6691 2.77453H41.6734V16.0975H50.8998V2.696Z" fill="white"/>
<path id="Vector_6" d="M168.801 2.68292H165.927C165.866 1.68392 165.814 0.837597 165.762 0.00872803H162.814C162.766 0.951021 162.727 1.79734 162.675 2.78762H159.714V16.0975H168.797V2.68292H168.801Z" fill="white"/>
<path id="Vector_7" d="M96.357 12.4941H106.293V46.7482H96.357V12.4941ZM108.383 12.4941H120.009V20.111H108.383V12.4941ZM108.383 26.6329H118.171V34.2497H108.383V26.6329Z" fill="white"/>
<path id="Vector_8" d="M121.933 12.5508H130.432V19.1774H121.933V12.5508ZM121.933 23.2738H130.432V46.7482H121.933V23.2738Z" fill="white"/>
<path id="Vector_9" d="M138.762 46.373C137.025 45.8583 135.723 45.0381 134.861 43.9082C134.099 42.9136 133.602 41.6746 133.372 40.2001C133.141 38.7256 133.023 36.6883 133.023 34.1014C133.023 31.7108 133.106 29.8131 133.271 28.3997C133.437 26.9906 133.785 25.7865 134.316 24.7919C134.913 23.6969 135.832 22.8419 137.073 22.2268C138.313 21.6117 140.012 21.2234 142.167 21.0576V36.0907C142.167 37.2206 142.215 38.0233 142.315 38.5031C142.415 38.983 142.646 39.3407 143.012 39.5719C143.408 39.838 144.022 39.9864 144.849 40.0213C145.907 40.0867 147.035 40.1216 148.228 40.1216C150.348 40.1216 151.89 40.0736 152.848 39.9733L155.382 39.7726V46.1942C154.058 46.5911 152.234 46.8573 149.917 46.9925C148.79 47.0928 147.466 47.1408 145.942 47.1408C142.894 47.1408 140.499 46.8834 138.762 46.3687V46.373ZM144.253 31.5624H147.731C147.731 29.704 147.549 28.5087 147.183 27.9765C146.983 27.6755 146.717 27.4879 146.386 27.405C146.055 27.3221 145.572 27.2785 144.945 27.2785H144.248V20.9573H144.945C147.792 20.9573 149.987 21.1885 151.528 21.6553C153.07 22.1221 154.202 22.8855 154.933 23.9456C155.595 24.8748 156 26.0701 156.152 27.5315C156.3 28.993 156.374 31.1829 156.374 34.1014V36.0907H144.248V31.5581L144.253 31.5624Z" fill="white"/>
<path id="Vector_10" d="M159.657 9.75447H168.849V46.7438H159.657V9.75447Z" fill="white"/>
<path id="Vector_11" d="M175.385 46.4472C174.44 46.0153 173.687 45.3173 173.125 44.3576C172.493 43.3629 172.041 42.0367 171.758 40.3746C171.475 38.7169 171.335 36.6404 171.335 34.1494C171.335 29.2722 171.932 25.852 173.125 23.8932C174.253 21.9694 176.138 21.0053 178.79 21.0053C179.983 21.0053 180.958 21.0969 181.72 21.2801C182.482 21.4633 183.192 21.8211 183.858 22.3489V28.6701H183.309C182.582 28.6701 182.06 28.7138 181.746 28.7966C181.433 28.8795 181.193 29.0715 181.028 29.3681C180.862 29.7346 180.762 30.2624 180.732 30.9604C180.697 31.4577 180.684 32.4873 180.684 34.0491C180.684 35.6108 180.701 36.636 180.732 37.1377C180.762 37.8357 180.862 38.3592 181.028 38.7038C181.193 39.0528 181.459 39.2578 181.824 39.3276C182.286 39.3931 182.787 39.428 183.314 39.428H183.862V45.7492C183.2 46.2465 182.464 46.5955 181.65 46.7962C180.836 46.9969 179.887 47.0928 178.794 47.0928C177.47 47.0928 176.334 46.8747 175.389 46.4472H175.385ZM185.943 9.75447H195.135V46.7438H185.943V9.75447Z" fill="white"/>
<path id="Vector_12" d="M28.5152 36.6404C28.5152 35.9424 28.4673 35.4363 28.3672 35.1222C28.267 34.8081 28.1016 34.59 27.8708 34.4766C27.64 34.3588 27.2395 34.2715 26.6778 34.2017L20.5646 33.4558C16.955 33.0588 14.521 31.8809 13.2583 29.9222C12.6967 29.0933 12.3135 28.0812 12.1176 26.8859C11.9173 25.6906 11.8215 24.2291 11.8215 22.506C11.8215 18.824 12.7663 16.1673 14.6517 14.5401C16.1756 13.2139 18.5617 12.433 21.8055 12.2018V22.2093C21.8055 22.6412 21.8229 23.0077 21.8534 23.3043C21.8882 23.6053 21.9535 23.8365 22.0537 24.0023C22.1538 24.203 22.3193 24.3426 22.5501 24.4255C22.7808 24.5083 23.1292 24.5651 23.5951 24.6L30.4528 25.4463C31.8766 25.6469 33.0348 25.8956 33.9318 26.1923C34.8244 26.4889 35.5863 26.9557 36.2177 27.5882C37.7068 29.15 38.4514 31.9202 38.4514 35.9031C38.4514 40.1173 37.5239 43.0706 35.6691 44.7633C34.8418 45.5267 33.8403 46.0807 32.6647 46.4297C31.4891 46.7787 30.1045 47.0012 28.5152 47.1016V36.6491V36.6404ZM16.6371 46.6959C14.9477 46.5301 13.672 46.3643 12.8099 46.1985V38.9307C14.7649 39.0964 16.9985 39.2622 19.5196 39.428C21.1088 39.4934 22.2366 39.5283 22.8984 39.5283C24.6879 39.5283 25.8636 39.4803 26.4252 39.38V47.1452H25.881C22.5675 47.1452 19.4891 46.9969 16.6371 46.6959ZM30.9492 19.8143C29.4252 19.7489 28.1974 19.714 27.2743 19.714C26.0813 19.714 24.9535 19.7489 23.8955 19.8143V12.0971H25.1364C27.8534 12.0971 30.6662 12.2803 33.5834 12.6468C34.5109 12.7777 35.5559 12.9609 36.7141 13.1965V20.364C35.6212 20.2331 33.701 20.0499 30.9492 19.8143Z" fill="white"/>
<path id="Vector_13" d="M50.8737 9.75883H41.6822V46.7482H50.8737V9.75883Z" fill="white"/>
<path id="Vector_14" d="M52.9594 39.476V28.9232L57.283 21.3586H66.9753L59.521 33.4034L67.1234 46.7438H57.0871L52.9594 39.476Z" fill="white"/>
<path id="Vector_15" d="M69.5094 43.8602C69.0435 43.0619 68.7301 42.0934 68.5646 40.9461C68.3991 39.8032 68.3164 38.3984 68.3164 36.7407V21.3586H77.508V32.8581C77.508 34.6162 77.5254 35.781 77.5559 36.3437C77.6212 37.2075 77.7213 37.8051 77.852 38.1367C77.9826 38.5031 78.2003 38.7256 78.4964 38.8085C78.7925 38.8914 79.3237 38.935 80.0856 38.935H80.582V45.1079C79.2584 46.1026 77.5689 46.5999 75.5138 46.5999C72.5312 46.5999 70.5283 45.6881 69.5007 43.8602H69.5094ZM72.8882 56.7034L70.0058 56.4023V49.9808H76.6633C77.8563 49.9808 79.0145 49.9459 80.1422 49.8805C80.9391 49.815 81.5269 49.658 81.9057 49.4093C82.2845 49.1606 82.5109 48.7375 82.5762 48.1398C82.6415 47.3415 82.6764 46.4952 82.6764 45.6009V21.3543H91.8679V43.9562C91.8679 46.613 91.7591 48.6677 91.5457 50.1291C91.328 51.5905 90.8404 52.7989 90.0784 53.763C89.2163 54.858 87.91 55.6694 86.151 56.2017C84.3962 56.7339 81.9928 57 78.9449 57C77.2206 57 75.2003 56.8997 72.8839 56.7034H72.8882Z" fill="white"/>
<path id="Vector_16" d="M142.154 21.0576L144.383 20.9573L145.65 24.5869L144.383 27.2785H141.788L142.154 21.0576Z" fill="white"/>
<path id="Vector_17" d="M108.379 12.4941H106.293V20.111H108.379V12.4941Z" fill="white"/>
<path id="Vector_18" d="M121.929 19.1774V20.111H130.398L130.428 19.1774H121.929Z" fill="white"/>
<path id="Vector_19" d="M108.379 26.6329H105.984V34.2497H109.171L108.379 26.6329Z" fill="white"/>
</g>
<defs>
<clipPath id="clip0_623_244">
<rect width="210" height="57" fill="white"/>
</clipPath>
</defs>
</svg>
