<svg width="50" height="38" viewBox="0 0 50 38" fill="none" xmlns="http://www.w3.org/2000/svg">
<path d="M30.7691 33.7889C34.728 33.7889 38.5266 32.249 41.326 29.5074C44.1253 26.7658 45.6977 23.0455 45.6977 19.1683C45.6977 15.2911 44.1253 11.5708 41.326 8.8292C38.5267 6.08757 34.728 4.54767 30.7691 4.54767C26.8102 4.54767 23.0116 6.08763 20.2123 8.8292C17.4129 11.5708 15.8406 15.2911 15.8406 19.1683C15.8452 23.0455 17.42 26.7617 20.2169 29.5028C23.0161 32.242 26.8102 33.7844 30.7691 33.7889ZM29.8414 6.40523V7.45461C29.8414 7.95658 30.2566 8.36315 30.7691 8.36315C31.2817 8.36315 31.6968 7.95658 31.6968 7.45461V6.40523C34.8115 6.62556 37.7456 7.92932 39.9625 10.0826C42.182 12.2358 43.541 15.0955 43.7938 18.1435H42.6133C42.1008 18.1435 41.6856 18.55 41.6856 19.052C41.6856 19.554 42.1008 19.9606 42.6133 19.9606H43.8077H43.8054C43.6059 23.0541 42.2701 25.9683 40.0437 28.1692C37.8172 30.3701 34.851 31.7057 31.6966 31.9306V30.6768C31.6966 30.1748 31.2815 29.7683 30.7689 29.7683C30.2564 29.7683 29.8413 30.1748 29.8413 30.6768V31.9556V31.9533C26.6825 31.7284 23.7165 30.3906 21.4901 28.1851C19.2636 25.9796 17.9301 23.0564 17.7376 19.9602H18.925C19.4376 19.9602 19.8527 19.5536 19.8527 19.0517C19.8527 18.5497 19.4376 18.1431 18.925 18.1431H17.7492H17.7515C18.0043 15.0949 19.361 12.2377 21.5782 10.0845C23.7977 7.93129 26.7268 6.62782 29.8414 6.40523ZM49.9975 19.1679C49.9928 24.1603 47.9635 28.9482 44.3595 32.4783C40.7555 36.0084 35.8664 37.9955 30.7688 38H10.8722C10.3596 38 9.9445 37.5934 9.9445 37.0915C9.9445 36.5895 10.3596 36.1829 10.8722 36.1829H30.7688C35.377 36.1829 39.795 34.3931 43.0557 31.2018C46.3142 28.0128 48.1463 23.6857 48.1463 19.1724C48.1487 14.6592 46.3188 10.33 43.0603 7.13887C39.8042 3.94759 35.3836 2.15551 30.7776 2.15324C26.1693 2.15324 21.7489 3.94533 18.4906 7.1366C15.2321 10.3279 13.4023 14.655 13.4023 19.1678C13.4023 19.6698 12.9872 20.0763 12.4746 20.0763C11.9621 20.0763 11.5469 19.6698 11.5469 19.1678C11.4542 14.1163 13.4394 9.23978 17.055 5.63525C20.6683 2.03061 25.6128 0 30.771 0C35.9312 0 40.8737 2.03061 44.4888 5.63525C48.1044 9.23989 50.0897 14.1166 49.9969 19.1678L49.9975 19.1679ZM30.057 19.7744C29.9132 19.604 29.8366 19.3882 29.8413 19.1679V11.8565C29.8413 11.3545 30.2564 10.948 30.769 10.948C31.2815 10.948 31.6966 11.3545 31.6966 11.8565V18.8411L34.6467 22.3004C34.8067 22.4844 34.8832 22.7251 34.8601 22.9659C34.8392 23.2066 34.7186 23.4292 34.5284 23.5837C34.3406 23.7381 34.097 23.8154 33.8512 23.7927C33.6077 23.7722 33.3804 23.6541 33.225 23.4679L30.057 19.7744ZM18.09 31.8038C18.6026 31.8038 19.0177 32.2104 19.0177 32.7124C19.0177 33.2143 18.6026 33.6209 18.09 33.6209H17.2853H17.2876C16.775 33.6209 16.3599 33.2143 16.3599 32.7124C16.3599 32.2104 16.775 31.8038 17.2876 31.8038H18.09ZM6.38969 32.7124C6.38969 32.2104 6.80482 31.8038 7.31737 31.8038H14.1196C14.6321 31.8038 15.0472 32.2104 15.0472 32.7124C15.0472 33.2143 14.6321 33.6209 14.1196 33.6209H7.31737C6.80482 33.6209 6.38969 33.2143 6.38969 32.7124ZM15.1838 28.3332C15.1838 28.8352 14.7687 29.2417 14.2561 29.2417H9.09822C8.58567 29.2417 8.17054 28.8352 8.17054 28.3332C8.17054 27.8312 8.58567 27.4246 9.09822 27.4246H14.2561C14.502 27.4246 14.7385 27.52 14.9125 27.6904C15.0864 27.8607 15.1838 28.0924 15.1838 28.3332ZM6.83497 28.3332C6.83497 28.8352 6.41984 29.2417 5.90729 29.2417H3.48375C2.9712 29.2417 2.55607 28.8352 2.55607 28.3332C2.55607 27.8312 2.9712 27.4246 3.48375 27.4246H5.90729C6.15313 27.4246 6.38969 27.52 6.56365 27.6904C6.7376 27.8607 6.83497 28.0924 6.83497 28.3332ZM12.6306 23.954C12.6306 24.456 12.2155 24.8626 11.703 24.8626H9.92645C9.41391 24.8626 8.99877 24.456 8.99877 23.954C8.99877 23.4521 9.41391 23.0455 9.92645 23.0455H11.703C12.2155 23.0455 12.6306 23.4521 12.6306 23.954ZM0 23.954C0 23.4521 0.415138 23.0455 0.92768 23.0455H6.73493C7.24747 23.0455 7.66261 23.4521 7.66261 23.954C7.66261 24.456 7.24747 24.8626 6.73493 24.8626H0.92768C0.415138 24.8626 0 24.456 0 23.954Z" fill="#1262A1"/>
</svg>
