<svg width="47" height="39" viewBox="0 0 47 39" fill="none" xmlns="http://www.w3.org/2000/svg">
<path fill-rule="evenodd" clip-rule="evenodd" d="M19.3077 13.9232C19.047 13.6236 19.074 13.1656 19.3689 12.9002C19.6627 12.6348 20.1131 12.6623 20.3738 12.962L22.1145 14.9621L26.9303 10.6475C27.2258 10.3827 27.6757 10.4121 27.9358 10.7129C28.1953 11.0132 28.1664 11.4718 27.8715 11.7359L22.5217 16.5282C22.2284 16.7915 21.7804 16.7652 21.5192 16.4646L19.3077 13.9232ZM14.1356 14.783C14.2401 16.9721 15.1273 19.0144 16.6607 20.575C19.7785 23.7485 24.7701 24.0409 28.2463 21.1785C32.192 17.9296 32.5438 11.8177 28.9028 8.11165C27.2673 6.44781 25.093 5.53059 22.7811 5.53059C17.8297 5.53059 13.8861 9.74903 14.1356 14.783ZM29.7011 21.8065L29.9101 21.6004C33.8394 17.5989 33.8394 11.0884 29.9101 7.0868C25.9705 3.07666 19.5921 3.07633 15.6534 7.0868C11.7132 11.0988 11.7127 17.5885 15.6534 21.6004C17.5483 23.5295 20.0763 24.6065 22.7811 24.6065C25.3789 24.6065 27.8271 23.6102 29.7011 21.8065ZM45.5097 34.4973L42.5768 37.4837C42.4907 37.5719 42.3462 37.572 42.2591 37.4837L35.8852 30.9941C35.7987 30.9066 35.7987 30.7586 35.8852 30.6706L38.8187 27.6841C38.9054 27.5958 39.0497 27.5959 39.1358 27.6841L45.5097 34.1738C45.5998 34.2626 45.5973 34.4136 45.5097 34.4973ZM32.2952 24.9312L32.8249 24.4108C33.0003 24.3429 33.1763 24.2732 33.3499 24.2017L36.7873 27.7012L35.902 28.6026L32.2952 24.9312ZM13.8215 23.4654C18.7617 28.4949 26.8012 28.4949 31.7414 23.4654C36.6816 18.4354 36.6816 10.2512 31.7414 5.22177C26.8004 0.191524 18.7627 0.191002 13.8215 5.22177C8.88069 10.2512 8.88069 18.4354 13.8215 23.4654ZM1.61001 14.3433C4.11045 11.1037 7.26555 8.49688 10.8574 6.68872C7.97191 11.347 7.97191 17.3402 10.8574 21.9979C7.26555 20.1897 4.11045 17.583 1.61001 14.3433ZM43.9517 14.3433C41.4525 17.583 38.2967 20.1897 34.7055 21.9979C37.5916 17.3402 37.5916 11.347 34.7055 6.68872C38.2979 8.49688 41.4525 11.1043 43.9517 14.3433ZM46.5188 33.1483L40.1437 26.6586C39.4986 26.0019 38.4594 25.9989 37.7946 26.6757L34.7554 23.5816C38.9484 21.59 42.6045 18.5803 45.4197 14.7799C45.6119 14.5219 45.6119 14.1654 45.4197 13.9067C42.181 9.53459 37.8288 6.2075 32.8249 4.27641C32.7991 4.24951 32.7745 4.2226 32.7487 4.19633C27.2523 -1.39878 18.31 -1.39878 12.8142 4.19633C12.7884 4.2226 12.7626 4.24951 12.7374 4.27641C7.73465 6.2075 3.38186 9.53459 0.143236 13.9067C-0.0477452 14.1654 -0.0477452 14.5219 0.143236 14.7799C3.38186 19.1527 7.73465 22.4791 12.7374 24.4108C12.7626 24.4371 12.7884 24.4646 12.8142 24.4909C17.7837 29.5528 25.6415 30.0685 31.1924 25.8594L34.8947 29.628C34.2296 30.3052 34.2324 31.3623 34.8779 32.0195L41.2524 38.5092C41.8951 39.1635 42.9418 39.1637 43.5847 38.5092L46.5188 35.5227C47.1607 34.8706 47.1601 33.7974 46.5188 33.1483Z" fill="#F75D34"/>
</svg>
