<svg width="36" height="42" viewBox="0 0 36 42" fill="none" xmlns="http://www.w3.org/2000/svg">
<path d="M24.9537 17.8965C25.5489 17.3013 25.5489 16.3364 24.9537 15.7413C24.3585 15.1461 23.3937 15.1461 22.7986 15.7413L15.7481 22.7916L12.7618 19.8053C12.1666 19.2102 11.2017 19.2102 10.6065 19.8053C10.0114 20.4005 10.0114 21.3653 10.6065 21.9605L14.6706 26.0245C14.9563 26.3104 15.344 26.4709 15.7481 26.4709C16.1523 26.4709 16.54 26.3104 16.8257 26.0245L24.9537 17.8965Z" fill="#F75D34"/>
<path fill-rule="evenodd" clip-rule="evenodd" d="M22.0965 1.01899C19.3791 -0.339663 16.1808 -0.339663 13.4635 1.01899L3.08896 6.20623C1.19585 7.15279 0 9.08772 0 11.2043V26.5396C0 29.8676 1.71437 32.9607 4.53643 34.7245L14.8183 41.1507C16.6303 42.2831 18.9297 42.2831 20.7416 41.1507L31.0235 34.7245C33.8455 32.9607 35.5599 29.8676 35.5599 26.5396V11.2043C35.5599 9.08772 34.3641 7.15279 32.4709 6.20625L22.0965 1.01899ZM14.8267 3.7452C16.6857 2.8156 18.8742 2.8156 20.7333 3.7452L31.1078 8.93245C31.9684 9.36271 32.5119 10.2422 32.5119 11.2043V26.5396C32.5119 28.8167 31.3389 30.933 29.4081 32.1398L19.1262 38.566C18.3026 39.0807 17.2573 39.0807 16.4338 38.566L6.15187 32.1398C4.22098 30.933 3.04799 28.8167 3.04799 26.5396V11.2043C3.04799 10.2422 3.59155 9.36271 4.45206 8.93245L14.8267 3.7452Z" fill="#F75D34"/>
</svg>
