<svg width="415" height="415" viewBox="0 0 415 415" fill="none" xmlns="http://www.w3.org/2000/svg">
<rect width="415" height="415" rx="20" fill="#F4F4F4"/>
<path d="M401 381C401 392.046 392.046 401 381 401H34C22.9543 401 14 392.046 14 381V34C14 22.9543 22.9543 14 34 14H381C392.046 14 401 22.9543 401 34V381Z" fill="#F4F4F4"/>
<path d="M331.161 92.5927C331.161 101.679 323.795 109.043 314.713 109.043C305.627 109.043 298.263 101.679 298.263 92.5927C298.263 83.5087 305.627 76.1446 314.713 76.1446C323.795 76.1446 331.161 83.5087 331.161 92.5927Z" fill="#1262A1"/>
<path d="M316.405 99.9549V102.23H313.513V100.056C311.463 99.9334 309.472 99.3812 308.243 98.6203L309.8 95.0944C311.154 95.8944 312.957 96.4056 314.538 96.4056C315.913 96.4056 316.405 96.1188 316.405 95.6271C316.405 93.8222 308.47 95.2778 308.47 89.9257C308.47 87.6077 310.151 85.6604 313.513 85.1901V82.9541H316.405V85.1472C317.921 85.2916 319.398 85.6818 320.567 86.3374L319.111 89.8437C317.695 89.1257 316.364 88.7784 315.111 88.7784C313.697 88.7784 313.246 89.1881 313.246 89.6798C313.246 91.4028 321.182 89.9686 321.182 95.2583C321.182 97.471 319.582 99.4007 316.405 99.9549Z" fill="white"/>
<path d="M296.081 114.939C296.081 120.442 291.619 124.904 286.116 124.904C280.613 124.904 276.151 120.442 276.151 114.939C276.151 109.435 280.613 104.973 286.116 104.973C291.619 104.973 296.081 109.435 296.081 114.939Z" fill="#1262A1"/>
<path d="M287.142 119.399V120.777H285.388V119.461C284.146 119.385 282.943 119.051 282.198 118.59L283.14 116.454C283.96 116.939 285.054 117.249 286.01 117.249C286.844 117.249 287.142 117.075 287.142 116.777C287.142 115.684 282.333 116.566 282.333 113.323C282.333 111.92 283.353 110.74 285.388 110.453V109.101H287.142V110.428C288.059 110.515 288.955 110.751 289.663 111.15L288.781 113.275C287.923 112.839 287.116 112.628 286.358 112.628C285.501 112.628 285.228 112.876 285.228 113.174C285.228 114.217 290.034 113.348 290.034 116.552C290.034 117.895 289.067 119.062 287.142 119.399Z" fill="white"/>
<path d="M320.397 121.33C320.397 125.575 316.954 129.017 312.707 129.017C308.461 129.017 305.019 125.575 305.019 121.33C305.019 117.082 308.461 113.64 312.707 113.64C316.954 113.64 320.397 117.082 320.397 121.33Z" fill="#1262A1"/>
<path d="M313.498 124.77V125.834H312.146V124.819C311.188 124.761 310.259 124.501 309.682 124.147L310.412 122.499C311.045 122.872 311.886 123.112 312.626 123.112C313.268 123.112 313.498 122.978 313.498 122.748C313.498 121.904 309.789 122.584 309.789 120.084C309.789 119 310.575 118.089 312.146 117.868V116.823H313.498V117.849C314.207 117.916 314.897 118.098 315.445 118.406L314.764 120.045C314.102 119.708 313.479 119.546 312.895 119.546C312.233 119.546 312.022 119.737 312.022 119.968C312.022 120.773 315.731 120.103 315.731 122.574C315.731 123.609 314.984 124.511 313.498 124.77Z" fill="white"/>
<path d="M281.756 95.8789H280.632V87.8196H281.756V95.8789Z" fill="#1262A1"/>
<path d="M285.224 92.4111H277.165V91.2869H285.224V92.4111Z" fill="#1262A1"/>
<path d="M291.786 78.3577H290.098V66.2534H291.786V78.3577Z" fill="#1262A1"/>
<path d="M296.995 73.1484H284.891V71.4603H296.995V73.1484Z" fill="#1262A1"/>
<path d="M329.747 137.319H328.468V128.155H329.747V137.319Z" fill="#1262A1"/>
<path d="M333.689 133.377H324.524V132.098H333.689V133.377Z" fill="#1262A1"/>
<path d="M177.555 111.464C169.314 111.464 162.633 104.784 162.633 96.5431C162.633 88.302 169.314 81.6204 177.555 81.6204C185.796 81.6204 192.477 88.302 192.477 96.5431C192.477 104.784 185.796 111.464 177.555 111.464Z" fill="#F5F5FF"/>
<path d="M213.168 293.354C203.893 293.354 196.374 285.834 196.374 276.56C196.374 275.35 196.502 274.172 196.744 273.036H229.593C229.834 274.172 229.962 275.35 229.962 276.56C229.962 285.834 222.445 293.354 213.168 293.354Z" fill="#F5F5FF"/>
<path d="M183.625 237.251C182.827 237.212 182.019 237.202 181.225 237.224L181.213 236.74C182.019 236.718 182.839 236.728 183.648 236.767L183.625 237.251ZM176.455 237.707L176.37 237.231C177.164 237.09 177.975 236.976 178.782 236.895L178.831 237.374C178.036 237.456 177.237 237.568 176.455 237.707ZM188.382 237.841C187.604 237.684 186.807 237.554 186.015 237.456L186.074 236.976C186.879 237.075 187.688 237.206 188.478 237.367L188.382 237.841ZM171.813 238.905L171.657 238.448C172.422 238.187 173.207 237.951 173.99 237.75L174.111 238.218C173.34 238.417 172.566 238.648 171.813 238.905ZM192.996 239.143C192.248 238.87 191.48 238.621 190.714 238.404L190.846 237.939C191.624 238.158 192.403 238.412 193.163 238.69L192.996 239.143ZM167.41 240.792L167.186 240.362C167.904 239.989 168.644 239.638 169.385 239.319L169.576 239.764C168.845 240.078 168.117 240.424 167.41 240.792ZM197.363 241.134C196.664 240.749 195.942 240.385 195.218 240.056L195.418 239.615C196.154 239.95 196.887 240.32 197.597 240.71L197.363 241.134ZM163.339 243.323L163.054 242.932C163.706 242.454 164.385 241.997 165.072 241.57L165.327 241.98C164.65 242.402 163.982 242.852 163.339 243.323ZM201.378 243.758C200.747 243.274 200.088 242.806 199.421 242.371L199.685 241.966C200.363 242.409 201.031 242.883 201.673 243.375L201.378 243.758ZM159.693 246.436L159.352 246.094C159.927 245.523 160.529 244.967 161.144 244.443L161.458 244.811C160.852 245.327 160.259 245.875 159.693 246.436ZM204.953 246.957C204.401 246.382 203.82 245.821 203.226 245.291L203.549 244.931C204.151 245.469 204.741 246.037 205.302 246.622L204.953 246.957ZM156.554 250.062L156.166 249.774C156.648 249.126 157.16 248.485 157.69 247.874L158.056 248.191C157.534 248.793 157.029 249.424 156.554 250.062ZM208.008 250.652C207.547 250 207.057 249.36 206.55 248.746L206.923 248.439C207.438 249.062 207.936 249.712 208.402 250.372L208.008 250.652ZM153.994 254.12L153.567 253.894C153.946 253.18 154.357 252.469 154.788 251.784L155.198 252.044C154.772 252.717 154.368 253.416 153.994 254.12ZM210.473 254.762C210.117 254.052 209.728 253.346 209.318 252.661L209.734 252.413C210.15 253.106 210.542 253.824 210.904 254.546L210.473 254.762ZM152.076 258.52L151.619 258.36C151.886 257.595 152.185 256.831 152.508 256.09L152.952 256.283C152.633 257.015 152.339 257.766 152.076 258.52ZM212.286 259.199C212.042 258.441 211.765 257.682 211.463 256.945L211.91 256.761C212.218 257.512 212.499 258.28 212.746 259.05L212.286 259.199ZM150.849 263.155L150.374 263.066C150.521 262.27 150.7 261.471 150.907 260.689L151.375 260.813C151.171 261.583 150.994 262.371 150.849 263.155ZM213.408 263.861C213.282 263.073 213.122 262.282 212.936 261.508L213.406 261.396C213.596 262.181 213.756 262.984 213.886 263.783L213.408 263.861ZM150.336 267.92L149.853 267.905C149.879 267.096 149.936 266.278 150.022 265.477L150.503 265.529C150.418 266.318 150.362 267.123 150.336 267.92ZM213.815 268.638C213.807 267.839 213.768 267.032 213.7 266.241L214.182 266.2C214.252 267.003 214.291 267.822 214.298 268.633L213.815 268.638ZM214.209 271.394L213.727 271.359C213.786 270.566 213.816 269.759 213.816 268.961H214.3C214.3 269.772 214.269 270.591 214.209 271.394ZM150.059 272.77C149.964 271.967 149.899 271.15 149.865 270.341L150.348 270.322C150.382 271.117 150.446 271.922 150.539 272.712L150.059 272.77ZM213.482 276.206L213.01 276.1C213.188 275.324 213.339 274.53 213.458 273.743L213.936 273.814C213.816 274.616 213.662 275.421 213.482 276.206ZM150.992 277.547C150.777 276.767 150.59 275.968 150.435 275.175L150.909 275.082C151.062 275.864 151.247 276.649 151.458 277.417L150.992 277.547ZM212.032 280.858L211.583 280.678C211.878 279.939 212.147 279.176 212.385 278.414L212.847 278.559C212.605 279.331 212.332 280.105 212.032 280.858ZM152.638 282.125C152.308 281.388 152.002 280.628 151.728 279.869L152.184 279.705C152.453 280.453 152.754 281.2 153.08 281.928L152.638 282.125ZM209.896 285.235L209.478 284.991C209.881 284.302 210.264 283.59 210.612 282.874L211.047 283.087C210.691 283.815 210.304 284.536 209.896 285.235ZM154.958 286.402C154.519 285.721 154.101 285.016 153.717 284.308L154.142 284.076C154.521 284.774 154.932 285.469 155.364 286.14L154.958 286.402ZM207.123 289.238L206.747 288.935C207.25 288.313 207.735 287.667 208.188 287.013L208.584 287.29C208.126 287.954 207.632 288.61 207.123 289.238ZM157.895 290.283C157.36 289.676 156.841 289.041 156.353 288.397L156.739 288.104C157.22 288.739 157.731 289.364 158.258 289.962L157.895 290.283ZM203.782 292.781L203.456 292.423C204.044 291.887 204.62 291.32 205.167 290.742L205.519 291.073C204.963 291.661 204.379 292.236 203.782 292.781ZM161.382 293.679C160.762 293.161 160.154 292.611 159.575 292.046L159.912 291.7C160.483 292.255 161.082 292.797 161.693 293.31L161.382 293.679ZM199.95 295.781L199.681 295.378C200.344 294.935 200.998 294.463 201.624 293.971L201.922 294.353C201.286 294.852 200.623 295.332 199.95 295.781ZM165.34 296.518C164.65 296.098 163.966 295.645 163.307 295.173L163.589 294.78C164.238 295.245 164.912 295.69 165.591 296.104L165.34 296.518ZM195.712 298.17L195.506 297.733C196.228 297.394 196.945 297.027 197.638 296.636L197.876 297.056C197.172 297.453 196.444 297.828 195.712 298.17ZM169.682 298.728C168.935 298.416 168.19 298.072 167.469 297.704L167.688 297.273C168.399 297.634 169.132 297.973 169.868 298.281L169.682 298.728ZM191.16 299.893L191.024 299.428C191.788 299.204 192.554 298.946 193.298 298.666L193.47 299.119C192.713 299.403 191.936 299.664 191.16 299.893ZM174.308 300.252C173.521 300.057 172.734 299.831 171.967 299.577L172.118 299.119C172.874 299.368 173.649 299.591 174.424 299.782L174.308 300.252ZM186.399 300.905L186.335 300.425C187.125 300.318 187.92 300.181 188.698 300.014L188.799 300.489C188.009 300.657 187.201 300.796 186.399 300.905ZM179.108 301.057C178.301 300.986 177.488 300.879 176.693 300.746L176.773 300.27C177.556 300.401 178.357 300.504 179.152 300.576L179.108 301.057ZM182.068 301.193C181.891 301.193 181.715 301.191 181.54 301.189L181.548 300.705C182.344 300.717 183.153 300.699 183.947 300.655L183.975 301.137C183.345 301.174 182.703 301.193 182.068 301.193Z" fill="#1262A1"/>
<path d="M152.772 69.9301L152.702 69.4518C153.504 69.3338 154.323 69.2625 155.138 69.2401L155.151 69.7245C154.355 69.7449 153.555 69.8141 152.772 69.9301ZM159.898 70.1621C159.123 69.9952 158.33 69.8731 157.538 69.7999L157.582 69.3195C158.393 69.3948 159.206 69.519 160 69.6899L159.898 70.1621ZM148.175 71.1859L147.992 70.7381C148.745 70.4308 149.524 70.1662 150.308 69.9525L150.436 70.4186C149.671 70.6282 148.91 70.8867 148.175 71.1859ZM164.404 71.7212C163.691 71.3732 162.948 71.0638 162.198 70.8053L162.357 70.3474C163.125 70.614 163.885 70.9295 164.617 71.2856L164.404 71.7212ZM144.014 73.5062L143.729 73.1154C144.387 72.6371 145.08 72.1934 145.79 71.7986L146.025 72.2199C145.333 72.6066 144.656 73.0401 144.014 73.5062ZM168.407 74.3122C167.797 73.8034 167.15 73.3271 166.484 72.8956L166.747 72.4906C167.429 72.9322 168.092 73.4187 168.717 73.9397L168.407 74.3122ZM140.52 76.7485L140.15 76.435C140.676 75.8163 141.245 75.222 141.841 74.6684L142.17 75.0225C141.588 75.5639 141.033 76.144 140.52 76.7485ZM171.681 77.7763C171.209 77.1393 170.694 76.5226 170.148 75.9466L170.5 75.6148C171.058 76.2051 171.586 76.836 172.07 77.4873L171.681 77.7763ZM137.893 80.7276L137.46 80.5118C137.823 79.7852 138.235 79.0728 138.683 78.393L139.087 78.6597C138.649 79.3232 138.247 80.0193 137.893 80.7276ZM174.039 81.9162C173.732 81.1855 173.378 80.465 172.985 79.775L173.405 79.5369C173.807 80.2432 174.171 80.9799 174.485 81.7289L174.039 81.9162ZM136.293 85.2196L135.821 85.1137C135.999 84.3199 136.228 83.5282 136.501 82.7629L136.957 82.9257C136.69 83.6727 136.467 84.4441 136.293 85.2196ZM175.338 86.5018C175.215 85.7182 175.043 84.9326 174.827 84.1693L175.292 84.0391C175.514 84.8186 175.69 85.6226 175.816 86.4285L175.338 86.5018ZM135.328 89.97C135.326 89.8479 135.325 89.7238 135.325 89.6016C135.325 88.9096 135.36 88.2115 135.429 87.5276L135.91 87.5765C135.843 88.2441 135.809 88.9259 135.809 89.6016C135.808 89.7217 135.81 89.8418 135.812 89.9619L135.328 89.97ZM175.917 92.042L175.436 91.985C175.53 91.1994 175.578 90.3975 175.578 89.6016C175.578 89.3615 175.573 89.1193 175.565 88.8791L176.048 88.8608C176.057 89.1071 176.061 89.3554 176.061 89.6016C176.061 90.4158 176.013 91.238 175.917 92.042ZM135.996 94.806C135.789 94.0203 135.628 93.2144 135.517 92.4084L135.996 92.3412C136.104 93.1289 136.262 93.9165 136.464 94.6839L135.996 94.806ZM174.758 96.7864L174.305 96.6154C174.585 95.8725 174.823 95.1052 175.011 94.3338L175.481 94.4478C175.288 95.2395 175.045 96.0252 174.758 96.7864ZM137.801 99.3428C137.411 98.6284 137.062 97.8834 136.761 97.1303L137.211 96.9512C137.504 97.688 137.845 98.4126 138.225 99.1107L137.801 99.3428ZM172.496 101.116L172.098 100.843C172.547 100.187 172.962 99.4995 173.329 98.7952L173.758 99.0191C173.381 99.7396 172.957 100.446 172.496 101.116ZM140.634 103.316C140.087 102.715 139.57 102.076 139.098 101.415L139.492 101.134C139.953 101.779 140.457 102.404 140.992 102.99L140.634 103.316ZM169.272 104.783L168.949 104.423C169.541 103.894 170.106 103.324 170.631 102.728L170.994 103.045C170.457 103.658 169.877 104.242 169.272 104.783ZM144.33 106.507C143.657 106.053 143.003 105.555 142.387 105.023L142.703 104.657C143.304 105.176 143.943 105.665 144.601 106.106L144.33 106.507ZM165.272 107.58L165.044 107.154C165.743 106.782 166.427 106.361 167.079 105.905L167.356 106.302C166.689 106.768 165.988 107.199 165.272 107.58ZM148.68 108.73C147.918 108.451 147.163 108.121 146.438 107.751L146.658 107.319C147.366 107.682 148.102 108.003 148.847 108.276L148.68 108.73ZM160.719 109.344L160.6 108.876C161.369 108.681 162.134 108.437 162.874 108.15L163.049 108.602C162.291 108.895 161.507 109.145 160.719 109.344ZM153.435 109.845C152.626 109.756 151.815 109.617 151.025 109.432L151.135 108.962C151.907 109.141 152.699 109.277 153.488 109.365L153.435 109.845ZM155.877 109.969L155.873 109.485C156.669 109.479 157.47 109.424 158.255 109.322L158.316 109.802C157.513 109.906 156.692 109.961 155.877 109.969Z" fill="#1262A1"/>
<path d="M74.469 200.957C71.1348 200.957 68.4221 203.67 68.4221 207.004C68.4221 210.338 71.1348 213.051 74.469 213.051C77.8032 213.051 80.5159 210.338 80.5159 207.004C80.5159 203.67 77.8032 200.957 74.469 200.957ZM74.469 214.019C70.6013 214.019 67.4546 210.872 67.4546 207.004C67.4546 203.136 70.6013 199.99 74.469 199.99C78.3367 199.99 81.4834 203.136 81.4834 207.004C81.4834 210.872 78.3367 214.019 74.469 214.019Z" fill="#1262A1"/>
<path d="M108.042 272.553H309.088V123.913H108.042V272.553Z" fill="white"/>
<path d="M108.526 272.069H308.605V124.397H108.526V272.069ZM309.572 273.036H107.559V123.429H309.572V273.036Z" fill="#1262A1"/>
<path d="M138.421 256.105H121.974V224.276H138.421V256.105Z" fill="#1262A1"/>
<path d="M164.544 256.105H148.096V208.403H164.544V256.105Z" fill="#1262A1"/>
<path d="M190.667 256.105H174.219V175.667H190.667V256.105Z" fill="#1262A1"/>
<path d="M216.789 256.105H200.342V198.908H216.789V256.105Z" fill="#1262A1"/>
<path d="M242.911 256.105H226.464V173.683H242.911V256.105Z" fill="#1262A1"/>
<path d="M269.034 256.105H252.586V177.989H269.034V256.105Z" fill="#1262A1"/>
<path d="M278.709 256.105H295.156V149.447H278.709V256.105Z" fill="#1262A1"/>
<path d="M126.934 243.475L126.495 242.612L153.966 228.635L182.297 190.047L208.234 217.196L234.898 190.531L260.76 193.674L286.714 163.875L287.442 164.509L261.151 194.695L235.251 191.549L208.219 218.581L182.394 191.549L154.61 229.394L126.934 243.475Z" fill="#324A5E"/>
<path d="M249.039 143.23H168.092V142.263H249.039V143.23Z" fill="#324A5E"/>
<path d="M221.715 153.873H195.415V152.905H221.715V153.873Z" fill="#324A5E"/>
<path d="M104.795 300.974C106.372 292.657 105.346 283.806 101.915 276.146C98.4839 268.485 92.6679 262.057 85.5991 258.113C89.1797 262.655 90.1027 268.888 90.4653 274.799C90.8281 280.712 90.8018 286.817 92.9469 292.286C95.0921 297.754 100.156 302.487 105.694 301.802L104.795 300.974Z" fill="#324A5E"/>
<path d="M104.911 303.072C103.333 294.755 104.36 285.904 107.791 278.244C111.222 270.583 117.038 264.155 124.107 260.209C120.526 264.753 119.603 270.983 119.24 276.897C118.878 282.808 118.904 288.913 116.759 294.381C114.614 299.852 109.55 304.585 104.012 303.898L104.911 303.072Z" fill="#324A5E"/>
<path d="M98.5654 299.114C94.9976 293.177 94.0235 285.555 95.9717 278.822C97.9197 272.088 102.755 266.364 108.846 263.582C107.564 272.098 113.891 280.321 112.761 288.862C112.029 294.389 107.878 299.224 102.765 300.503L98.5654 299.114Z" fill="#1262A1"/>
<path d="M101.162 310.544C101.146 302.059 104.065 293.593 109.35 286.796C114.634 279.998 122.255 274.905 130.729 272.51C125.918 276.217 123.646 282.136 122.046 287.858C120.447 293.582 119.23 299.573 115.787 304.489C112.345 309.406 105.886 312.994 100.018 311.167L101.162 310.544Z" fill="#1262A1"/>
<path d="M103.829 310.999C103.843 302.514 101.163 294.048 96.3113 287.25C91.4596 280.453 84.4628 275.36 76.6837 272.964C81.1006 276.672 83.1867 282.591 84.6552 288.315C86.1236 294.036 87.2403 300.027 90.401 304.944C93.5616 309.861 99.4912 313.448 104.879 311.622L103.829 310.999Z" fill="#1262A1"/>
<path d="M118.062 339.953H87.4159L82.1471 308.042H123.331L118.062 339.953Z" fill="white"/>
<path d="M87.7237 339.589H117.754L122.903 308.405H82.5746L87.7237 339.589ZM118.369 340.315H87.108L81.7194 307.679H123.758L118.369 340.315Z" fill="#1262A1"/>
<path d="M158.653 172.693H65.2736V99.3426H158.653V172.693Z" fill="white"/>
<path d="M65.7574 172.209H158.17V99.826H65.7574V172.209ZM159.137 173.176H64.7899V98.8585H159.137V173.176Z" fill="#1262A1"/>
<path d="M99.02 123.284H77.9592V111.359H99.02V123.284Z" fill="#1262A1"/>
<path d="M146.217 113.017H107.901V112.508H146.217V113.017Z" fill="#1262A1"/>
<path d="M146.217 117.576H107.901V117.069H146.217V117.576Z" fill="#1262A1"/>
<path d="M146.217 122.135H107.901V121.628H146.217V122.135Z" fill="#1262A1"/>
<path d="M92.2556 160.703H87.8572V147.079H92.2556V160.703Z" fill="#1262A1"/>
<path d="M96.6539 160.703H92.2556V140.448H96.6539V160.703Z" fill="#1262A1"/>
<path d="M108.665 160.618H104.266V138.155H108.665V160.618Z" fill="#1262A1"/>
<path d="M113.063 160.618H108.665V152.305H113.063V160.618Z" fill="#1262A1"/>
<path d="M125.074 160.686H120.675V145.131H125.074V160.686Z" fill="#1262A1"/>
<path d="M129.472 160.686H125.074V141.69H129.472V160.686Z" fill="#1262A1"/>
<path d="M141.483 160.585H137.084V149.737H141.483V160.585Z" fill="#1262A1"/>
<path d="M145.881 160.585H141.483V134.702H145.881V160.585Z" fill="#1262A1"/>
<path d="M145.881 160.839H78.1727V133.518H78.6803V160.332H145.881V160.839Z" fill="#1262A1"/>
<path d="M339.344 326.854L342.246 339.831L322.533 339.794L330.757 332.696L330.151 326.249L339.344 326.854Z" fill="#1B1B43"/>
<path d="M333.786 335.719L330.521 332.975L330.988 332.418L334.254 335.162L333.786 335.719Z" fill="#EBEBFF"/>
<path d="M300.522 326.65L301.973 339.831H280.808L290.483 332.696V326.166L300.522 326.65Z" fill="#1B1B43"/>
<path d="M293.516 335.719L290.249 332.975L290.718 332.418L293.982 335.161L293.516 335.719Z" fill="#EBEBFF"/>
<path d="M342.852 328.425L339.706 328.47L330.376 328.596L325.195 328.667C320.115 311.113 315.359 293.905 311.47 277.647C310.705 274.458 309.977 271.304 309.289 268.198C306.729 256.681 304.687 245.723 303.388 235.57C303.107 233.387 302.859 231.245 302.651 229.14C302.482 227.462 302.336 225.808 302.217 224.176L325.437 228.046C325.669 230.248 325.915 232.454 326.175 234.674C329.673 264.653 335.647 296.159 342.852 328.425Z" fill="#324A5E"/>
<path d="M313.1 227.322L312.364 235.217L309.398 266.989L309.288 268.199L303.667 328.426H286.333C286.677 293.586 287.813 260.468 292.38 236.006C292.714 234.201 293.072 232.449 293.444 230.743L302.651 229.141L313.1 227.322Z" fill="#324A5E"/>
<path d="M311.652 279.855L305.04 245.832L305.516 245.739L312.126 279.762L311.652 279.855Z" fill="#1B1B43"/>
<path d="M312.364 235.217L313.098 227.331C315.159 227.395 317.219 227.434 319.28 227.434C319.439 227.434 319.597 227.434 319.756 227.434C319.795 227.432 319.834 227.432 319.874 227.432C320.528 227.432 321.229 227.449 321.956 227.467L325.435 228.047C325.668 230.249 325.913 232.455 326.175 234.675L312.364 235.217Z" fill="#245A85"/>
<path d="M302.651 229.141C302.577 228.417 302.507 227.697 302.444 226.981L304.754 226.96C307.519 227.109 310.286 227.242 313.053 227.329L302.651 229.141Z" fill="#245A85"/>
<path d="M292.38 236.006C292.714 234.201 293.072 232.45 293.444 230.743L302.651 229.141L313.053 227.33C313.069 227.33 313.084 227.331 313.098 227.331L312.364 235.217L303.386 235.571L292.38 236.006Z" fill="#245A85"/>
<path d="M300.338 191.044L309.235 189.931L327.806 193.825L327.912 227.302C327.914 228.219 327.539 229.098 326.871 229.729C326.258 230.309 325.445 230.632 324.601 230.636L293.444 230.743L287.44 212.617L293.223 195.493L300.338 191.044Z" fill="#FFA121"/>
<path d="M311.436 198.379C309.514 198.379 307.653 197.696 306.201 196.332L306.451 196.067C309.214 198.667 313.556 198.664 316.774 196.059L317.003 196.342C315.323 197.7 313.351 198.379 311.436 198.379Z" fill="#1B1B43"/>
<path d="M331.318 196.364C330.64 193.31 328.133 190.999 325.033 190.574L313.177 188.946L320.355 201.2L322.569 208.87L333.743 207.294L331.318 196.364Z" fill="#FFA121"/>
<path d="M336.135 220.405C335.855 224.551 333.348 226.316 330.166 227.042C327.687 227.605 324.799 227.541 322.23 227.475C321.36 227.454 320.526 227.431 319.755 227.435C314.754 227.448 309.751 227.231 304.754 226.961L292.056 227.081L290.605 224.822C292.259 222.485 296.733 219.424 304.55 221.276L324.829 216.68L322.57 208.868L333.746 207.295L336.033 217.615C336.167 218.65 336.197 219.573 336.135 220.405Z" fill="#FFBC96"/>
<path d="M281.656 211.963L289.638 222L291.089 222.364L292.285 210.68L284.117 206.826L281.656 211.963Z" fill="#FFBC96"/>
<path d="M308.262 188.864L296.604 190.708C293.378 191.219 290.607 193.283 289.197 196.23L284.117 206.826L292.285 210.681L293.144 202.287L308.262 188.864Z" fill="#FFA121"/>
<path d="M330.166 227.041C329.532 226.263 329.145 225.266 329.145 224.177C329.145 221.686 331.168 219.662 333.66 219.662C334.574 219.662 335.425 219.939 336.137 220.403C335.856 224.55 333.35 226.315 330.166 227.041Z" fill="#FFA988"/>
<path d="M290.785 224.841L290.423 224.8L292.964 202.267L293.324 202.308L290.785 224.841Z" fill="#1B1B43"/>
<path d="M324.656 216.729L320.182 201.249L320.53 201.149L325.004 216.629L324.656 216.729Z" fill="#1B1B43"/>
<path d="M315.811 162.381C315.747 161.564 315.787 160.725 316.037 159.922C316.285 159.124 316.803 158.379 317.546 157.94C317.914 157.723 318.322 157.576 318.742 157.505C319.162 157.431 319.59 157.431 320.01 157.48C320.849 157.578 321.654 157.882 322.363 158.339C323.069 158.795 323.675 159.43 324.05 160.198C324.431 160.963 324.512 161.88 324.274 162.696C324.04 163.519 323.549 164.227 322.98 164.827C322.399 165.419 321.738 165.918 321.039 166.348L320.962 166.23C321.623 165.761 322.258 165.251 322.794 164.653C323.33 164.06 323.775 163.374 323.969 162.615C324.166 161.86 324.094 161.046 323.738 160.349C323.394 159.649 322.823 159.072 322.165 158.641C321.507 158.207 320.749 157.915 319.969 157.816C319.189 157.716 318.378 157.826 317.699 158.205C317.018 158.586 316.527 159.252 316.271 160.001C316.136 160.374 316.053 160.767 316.002 161.166C315.956 161.564 315.946 161.969 315.952 162.375L315.811 162.381Z" fill="#1B1B43"/>
<path d="M323.647 162.568C323.647 164.71 321.912 166.446 319.77 166.446C317.628 166.446 315.89 164.71 315.89 162.568C315.89 160.426 317.628 158.688 319.77 158.688C321.912 158.688 323.647 160.426 323.647 162.568Z" fill="#1B1B43"/>
<path d="M322.707 184.026L320.627 180.843L321.43 184.365L314.251 186.261L300.764 186.807L301.851 176.102C298.407 174.409 295.965 163.496 309.04 161.657C311.416 161.325 313.854 161.535 316.06 162.47C322.784 165.315 325.058 172.855 325.677 183.242L322.707 184.026Z" fill="#1B1B43"/>
<path d="M311.499 195.353C308.589 195.353 306.23 192.994 306.23 190.084V178.664H316.767V190.084C316.767 192.994 314.408 195.353 311.499 195.353Z" fill="#FFBC96"/>
<path d="M313.365 183.461C312.237 186.787 309.593 188.343 306.229 189.187V184.227L313.365 183.461Z" fill="#1B1B43"/>
<path d="M316.544 167.578L316.203 182.373C316.203 182.373 309.984 186.899 305.631 185.597C304.17 185.162 303.177 183.503 302.505 181.439C302.186 180.456 301.939 179.378 301.745 178.294C301.064 174.399 301.097 170.423 301.097 170.423L316.544 167.578Z" fill="#FFBC96"/>
<path d="M303.819 176.677C303.819 177.118 303.556 177.474 303.229 177.474C302.904 177.474 302.641 177.118 302.641 176.677C302.641 176.238 302.904 175.882 303.229 175.882C303.556 175.882 303.819 176.238 303.819 176.677Z" fill="#1B1B43"/>
<path d="M308.372 176.327C308.372 176.835 308.074 177.25 307.707 177.25C307.339 177.25 307.041 176.835 307.041 176.327C307.041 175.818 307.339 175.405 307.707 175.405C308.074 175.405 308.372 175.818 308.372 176.327Z" fill="#1B1B43"/>
<path d="M309.876 174.449C309.853 174.676 309.096 174.728 308.258 174.581C307.418 174.434 306.703 174.476 306.838 173.919C306.948 173.462 307.612 173.501 308.452 173.648C309.29 173.793 309.897 174.252 309.876 174.449Z" fill="#1B1B43"/>
<path d="M301.67 174.956C301.699 175.181 302.343 175.169 303.049 174.956C303.756 174.742 304.365 174.726 304.228 174.18C304.115 173.735 303.554 173.828 302.848 174.043C302.142 174.258 301.644 174.763 301.67 174.956Z" fill="#1B1B43"/>
<path d="M311.043 179.974C310.091 179.974 309.319 179.202 309.319 178.252C309.319 177.3 310.091 176.528 311.043 176.528C311.995 176.528 312.767 177.3 312.767 178.252C312.767 179.202 311.995 179.974 311.043 179.974Z" fill="#FFA988"/>
<path d="M302.506 181.438C302.186 180.455 301.939 179.378 301.745 178.294C302.606 178.389 303.274 179.12 303.274 180.007C303.274 180.606 302.97 181.127 302.506 181.438Z" fill="#FFA988"/>
<path d="M305.182 177.381C305.201 177.534 305.164 177.693 305.104 177.83C305.044 177.972 304.965 178.092 304.886 178.202C304.727 178.424 304.572 178.616 304.531 178.79C304.51 178.873 304.518 178.962 304.539 179.049C304.559 179.136 304.607 179.214 304.677 179.289C304.816 179.438 305.037 179.551 305.276 179.64L305.259 179.827C304.975 179.86 304.665 179.806 304.398 179.609C304.266 179.512 304.152 179.367 304.092 179.198C304.04 179.034 304.017 178.848 304.065 178.674C304.166 178.328 304.392 178.119 304.568 177.937C304.754 177.751 304.913 177.592 304.992 177.368L305.182 177.381Z" fill="#1B1B43"/>
<path d="M304.723 181.305C305.36 183.331 308.08 182.301 308.291 180.397L304.723 181.305Z" fill="white"/>
<path d="M300.582 172.778C305.135 172.771 308.955 172.353 312.554 170.601C312.943 173.574 314.218 175.007 315.94 175.803L319.568 172.778L317.695 166.671L307.838 166.128L300.218 169.938L300.582 172.778Z" fill="#1B1B43"/>
<path d="M318.787 177.965C317.808 179.359 316.225 179.935 315.255 179.252C314.286 178.571 314.294 176.888 315.275 175.493C316.256 174.099 317.837 173.523 318.806 174.206C319.777 174.887 319.768 176.57 318.787 177.965Z" fill="#FFBC96"/>
<path d="M316.184 177.733C316.114 177.482 316.093 177.217 316.124 176.948C316.153 176.679 316.244 176.402 316.41 176.166C316.577 175.928 316.813 175.744 317.068 175.636C317.324 175.527 317.593 175.485 317.856 175.5L317.889 175.688C317.662 175.793 317.452 175.891 317.266 176.013C317.082 176.133 316.925 176.274 316.803 176.443C316.679 176.611 316.596 176.812 316.529 177.029C316.463 177.246 316.422 177.48 316.374 177.724L316.184 177.733Z" fill="#1B1B43"/>
<path d="M321 166.288C320.497 165.996 320.068 165.657 319.642 165.324L318.415 164.312C318.013 163.979 317.614 163.648 317.2 163.331C316.786 163.008 316.358 162.708 315.88 162.377C316.461 162.315 317.043 162.453 317.577 162.669C318.111 162.894 318.599 163.205 319.034 163.569C319.472 163.935 319.857 164.349 320.19 164.8C320.518 165.256 320.809 165.74 321 166.288Z" fill="#FFA121"/>
<path d="M303.827 230.789H291.008V226.998H303.827V230.789Z" fill="#1B1B43"/>
<path d="M295.12 230.789H266.095L253.356 203.275H282.381L295.12 230.789Z" fill="#EBEBFF"/>
<path d="M284.376 229.558C283.695 229.682 283.289 230.241 283.256 230.905V227.906C283.256 227.3 282.825 226.749 282.225 226.681C281.536 226.602 280.955 227.122 280.924 227.786V226.576C280.924 225.965 280.483 225.408 279.876 225.348C279.175 225.276 278.585 225.824 278.585 226.511V227.786C278.554 227.122 277.974 226.602 277.285 226.681C276.685 226.749 276.253 227.3 276.253 227.906V230.286C276.22 229.676 275.758 228.922 275.125 228.864C273.825 228.742 274.111 231.027 274.111 231.027C274.489 233.337 275.172 233.593 276.557 233.691C278.718 233.846 280.909 233.84 283.123 233.69C284.516 233.597 284.734 233.446 285.344 231.373C285.549 230.481 285.373 229.378 284.376 229.558Z" fill="#FFBC96"/>
<path d="M276.284 228.651C276.381 229.139 276.416 229.628 276.433 230.118C276.441 230.364 276.443 230.609 276.433 230.855C276.424 231.101 276.406 231.347 276.364 231.592L276.222 231.596C276.168 231.352 276.137 231.109 276.114 230.863C276.091 230.619 276.079 230.373 276.073 230.129C276.064 229.638 276.071 229.146 276.141 228.655L276.284 228.651Z" fill="#D28572"/>
<path d="M278.657 227.784C278.753 228.303 278.79 228.823 278.809 229.342C278.817 229.603 278.819 229.865 278.809 230.124C278.802 230.385 278.782 230.646 278.744 230.908L278.6 230.911C278.546 230.652 278.513 230.393 278.492 230.134C278.467 229.874 278.455 229.613 278.448 229.354C278.438 228.833 278.446 228.311 278.515 227.788L278.657 227.784Z" fill="#D28572"/>
<path d="M280.994 227.782C281.099 228.274 281.141 228.765 281.168 229.259C281.18 229.506 281.184 229.754 281.178 230.002C281.172 230.249 281.158 230.497 281.122 230.745L280.979 230.75C280.92 230.507 280.886 230.261 280.861 230.015C280.833 229.768 280.816 229.522 280.806 229.274C280.791 228.781 280.791 228.285 280.853 227.79L280.994 227.782Z" fill="#D28572"/>
<path d="M284.024 229.707C283.914 229.846 283.839 230.017 283.765 230.191C283.693 230.367 283.624 230.547 283.556 230.729C283.488 230.909 283.421 231.092 283.345 231.274C283.272 231.456 283.192 231.636 283.094 231.814L282.958 231.777C282.964 231.572 282.997 231.373 283.041 231.178C283.088 230.982 283.146 230.789 283.219 230.599C283.295 230.411 283.378 230.224 283.49 230.048C283.602 229.875 283.736 229.695 283.943 229.591L284.024 229.707Z" fill="#D28572"/>
<path d="M344.278 167.644V180.928L338.15 185.281H344.278H367.072V167.644H344.278Z" fill="white"/>
<path d="M338.909 185.039H366.831V167.884H344.52V181.052L338.909 185.039ZM367.315 185.522H337.393L344.037 180.803V167.401H367.315V185.522Z" fill="#1262A1"/>
<path d="M355.364 181.151L351.643 177.567L352.315 176.869L355.123 179.575L359.899 170.819L360.748 171.281L355.364 181.151Z" fill="#1262A1"/>
<path d="M367.879 340.314H55.1705V339.589H367.879V340.314Z" fill="#1B1B43"/>
</svg>
