<svg width="415" height="415" viewBox="0 0 415 415" fill="none" xmlns="http://www.w3.org/2000/svg">
<g clip-path="url(#clip0_3844_3582)">
<rect width="415" height="415" rx="20" fill="#F4F4F4"/>
<g clip-path="url(#clip1_3844_3582)">
<rect x="-15" y="46" width="446" height="324" rx="20" fill="white"/>
<path d="M-15 443.933H431V-5.10067H-15V443.933Z" fill="#F4F4F4"/>
<path d="M406.128 347.79C406.128 342.106 320.985 337.499 215.956 337.499C110.926 337.499 25.7832 342.106 25.7832 347.79C25.7832 353.473 110.926 358.08 215.956 358.08C320.985 358.08 406.128 353.473 406.128 347.79Z" fill="#EBF9FE"/>
<path d="M49.4327 342.899C27.2686 342.795 9.29479 324.45 9.88645 302.143C10.2074 290.016 14.7116 278.257 28.3976 271.848C64.4529 254.963 14.143 145.216 77.8688 134.242C141.596 123.266 139.08 39.6905 213.706 102.162C253.538 135.505 275.932 127.002 295.55 118.499C312.688 111.071 327.707 103.643 350.383 124.111C399.016 168.01 318.52 223.728 378.892 252.431C418.702 271.358 405.646 305.334 392.134 326.283C384.802 337.651 372.176 344.422 358.713 344.358L49.4327 342.899Z" fill="#1262A1"/>
<path d="M372.522 341.948H372.521C380.399 339.067 387.284 333.712 392.013 326.469C387.284 333.712 380.399 339.067 372.522 341.948ZM266.245 126.164C277.181 126.107 286.338 122.478 294.934 118.765C286.337 122.479 277.183 126.108 266.245 126.164ZM295.85 118.369C304.58 114.58 312.772 110.834 321.727 110.834C312.773 110.834 304.58 114.58 295.85 118.369ZM213.706 102.162C213.688 102.147 213.668 102.129 213.65 102.114C213.669 102.13 213.687 102.146 213.706 102.162ZM213.64 102.106C211.523 100.335 209.462 98.6773 207.466 97.1371C209.464 98.6782 211.521 100.333 213.64 102.106ZM207.461 97.1326C207.448 97.1228 207.427 97.1066 207.415 97.0967C207.43 97.1093 207.445 97.121 207.461 97.1326ZM207.404 97.0895C207.392 97.0796 207.376 97.0671 207.362 97.0572C207.377 97.0689 207.389 97.0779 207.404 97.0895ZM207.349 97.0464C207.34 97.0401 207.324 97.0275 207.316 97.0213C207.326 97.0293 207.338 97.0383 207.349 97.0464ZM207.293 97.0033C207.284 96.9961 207.28 96.9934 207.271 96.9871C207.277 96.9916 207.286 96.9979 207.293 97.0033Z" fill="#E5F7FC"/>
<path d="M358.909 344.359C363.615 344.357 368.217 343.522 372.521 341.948H372.522C368.217 343.522 363.616 344.358 358.909 344.359ZM358.82 344.358H358.819C358.82 344.358 358.819 344.358 358.82 344.358ZM358.798 344.358C358.796 344.358 358.795 344.358 358.793 344.358C358.794 344.358 358.797 344.358 358.798 344.358Z" fill="#D0F0FB"/>
<path d="M358.902 344.359C358.884 344.359 358.866 344.359 358.847 344.358C358.845 344.358 358.843 344.358 358.841 344.358C358.834 344.358 358.827 344.358 358.82 344.358C358.819 344.358 358.82 344.358 358.819 344.358C358.812 344.358 358.805 344.358 358.798 344.358C358.797 344.358 358.794 344.358 358.793 344.358C358.789 344.358 358.783 344.358 358.778 344.358C358.774 344.358 358.769 344.358 358.765 344.358C358.762 344.358 358.76 344.358 358.757 344.358C358.751 344.358 358.744 344.358 358.737 344.358H358.736C358.728 344.358 358.721 344.358 358.713 344.358L304.49 344.102C320.467 319.042 326.695 287.125 316.475 269.459C318.775 269.142 321.049 268.567 323.254 267.733L325.773 266.722C325.003 264.825 321.124 246.441 324.508 234.971C326.859 227.003 322.577 224.721 320.38 224.084C315.293 221.138 307.089 221.372 304.443 221.313C303.795 221.299 303.204 220.934 302.903 220.356L293.908 202.33C301.866 176.274 310.154 150.95 284.86 150.95C283.668 150.95 282.396 151.007 281.052 151.123C276.741 151.492 272.674 151.67 268.808 151.67C261.545 151.67 255.024 151.036 249.103 149.83C248.29 142.46 242.158 136.706 234.659 136.545C234.658 136.545 234.658 136.545 234.657 136.545C234.634 136.544 234.612 136.544 234.589 136.543C234.588 136.543 234.586 136.543 234.585 136.543C234.563 136.543 234.541 136.543 234.518 136.543C234.516 136.543 234.515 136.543 234.513 136.543C234.491 136.543 234.469 136.542 234.448 136.542C234.445 136.542 234.442 136.542 234.441 136.542C234.43 136.542 234.418 136.542 234.409 136.542H234.408C234.398 136.542 234.386 136.542 234.376 136.542C234.374 136.542 234.371 136.542 234.368 136.542C234.358 136.542 234.347 136.542 234.336 136.542H219.849C205.378 125.397 194.554 108.908 181.038 89.8565C177.829 85.3339 174.272 81.8934 170.499 79.3213C180.312 80.152 192.083 85.2989 207.271 96.9872C207.28 96.9935 207.284 96.9962 207.293 97.0034C207.301 97.0096 207.307 97.0141 207.316 97.0213C207.324 97.0276 207.34 97.0402 207.349 97.0465C207.353 97.0501 207.359 97.0537 207.362 97.0572C207.376 97.0671 207.392 97.0797 207.404 97.0896C207.408 97.0914 207.411 97.095 207.415 97.0968C207.427 97.1066 207.448 97.1228 207.461 97.1327C207.462 97.1336 207.465 97.1363 207.466 97.1372C209.462 98.6773 211.523 100.335 213.64 102.106C213.644 102.109 213.646 102.112 213.65 102.114C213.668 102.13 213.688 102.147 213.706 102.162C213.736 102.186 213.767 102.212 213.796 102.237C213.867 102.296 213.935 102.353 214.006 102.412C214.013 102.418 214.021 102.425 214.028 102.43C235.656 120.455 252.128 126.118 265.811 126.164C265.87 126.165 265.926 126.165 265.985 126.165C266.073 126.165 266.157 126.164 266.245 126.164C277.183 126.108 286.337 122.479 294.934 118.765C295.111 118.689 295.289 118.612 295.465 118.536C295.494 118.524 295.521 118.511 295.55 118.499C295.577 118.487 295.603 118.476 295.63 118.464C295.648 118.456 295.668 118.448 295.685 118.44C295.74 118.417 295.795 118.393 295.85 118.369C304.58 114.58 312.773 110.834 321.727 110.834C321.729 110.834 321.73 110.834 321.731 110.834C321.732 110.834 321.734 110.834 321.735 110.834C330.172 110.834 339.285 114.161 350.158 123.909C350.168 123.918 350.179 123.928 350.189 123.936C350.19 123.938 350.188 123.936 350.19 123.938C350.243 123.985 350.296 124.033 350.349 124.081C350.361 124.091 350.372 124.102 350.383 124.112C362.921 135.429 366.877 147.532 366.876 159.756C366.874 180.66 355.301 201.916 355.301 220.195C355.301 232.684 360.704 243.783 378.892 252.431C398.836 261.913 405.511 275.172 405.508 288.678C405.506 302.131 398.876 315.829 392.134 326.283C392.094 326.345 392.053 326.407 392.013 326.469C387.284 333.712 380.399 339.067 372.521 341.948C368.217 343.522 363.615 344.357 358.909 344.359C358.907 344.359 358.905 344.359 358.902 344.359ZM302.845 258.045C302.036 257.756 301.198 257.5 300.332 257.275C289.615 254.505 286.21 246.654 286.431 236.391C288.91 239.661 291.115 242.115 292.409 242.536C292.531 242.576 292.694 242.595 292.892 242.595C294.198 242.595 297.049 241.776 300.258 240.785C300.542 242.062 301.066 243.348 301.852 244.629C304.096 248.294 303.792 253.534 302.845 258.045ZM292.113 231.588C292.113 231.588 290.135 229.528 287.479 226.759C288.554 220.726 290.337 214.239 292.285 207.696L297.334 226.089C297.7 227.521 298.442 228.748 300.342 228.792C300.537 228.797 300.74 228.805 300.951 228.814L292.113 231.588Z" fill="#BAE8FB"/>
<path d="M161.76 151.002C161.8 150.948 155.021 150.51 148.868 147.447C142.739 144.588 137.239 139.104 140.35 133.69C144.946 126.272 131.874 119.988 136.318 115.861C140.843 112.203 141.792 115.232 140.051 107.051C138.616 98.6997 144.324 96.6943 147.534 89.2233C151.204 81.7083 159.636 87.331 157.549 97.1388C156.601 102.988 157.497 101.963 158.973 100.938C160.051 100.19 161.437 99.4415 162.641 101.367C165.072 105.135 155.496 121.377 159.733 119.906C163.649 118.132 167.023 120.604 166.5 125.14C164.975 135.59 161.568 150.795 161.76 151.002Z" fill="#8FC8EE"/>
<path d="M164.88 155.273L164.765 155.22C159.504 149.03 153.512 139.503 150.557 128.433L150.534 128.347L150.462 128.303C147.719 126.639 145.235 124.331 142.922 121.924C142.158 121.131 141.403 120.32 140.647 119.505L140.622 119.368L140.819 119.274L140.873 119.314C141.611 120.111 142.348 120.904 143.094 121.679C145.225 123.9 147.506 126.044 150.006 127.666C150.144 127.757 150.282 127.846 150.421 127.935C150.378 127.767 150.334 127.598 150.291 127.428C149.107 122.768 148.393 117.845 148.241 112.486L148.238 112.343L148.119 112.289L148.068 112.246C146.109 109.256 144.532 105.856 143.45 102.202L143.48 102.052L143.661 102.02L143.714 102.103C144.703 105.449 146.116 108.59 147.86 111.388C147.981 111.582 148.103 111.777 148.225 111.97C148.221 111.734 148.218 111.498 148.215 111.262C148.165 106.193 148.618 100.921 149.753 95.2808L149.806 95.1964L149.951 95.2224L150.011 95.3903C148.468 103.079 148.181 110.202 148.77 116.833C148.783 116.973 148.795 117.112 148.809 117.251C148.903 117.16 148.998 117.069 149.093 116.978C152.305 113.901 155.036 110.543 157.336 106.941L157.443 106.909L157.542 107.033L157.521 107.159C155.142 110.892 152.304 114.364 148.943 117.535L148.849 117.613L148.861 117.734C149.245 121.452 149.884 124.851 150.747 128.089L150.763 128.146L150.802 128.188L150.835 128.322L150.821 128.38L150.838 128.437C151.618 131.291 152.631 134.225 153.98 137.341C154.055 137.511 154.129 137.68 154.203 137.85C154.251 137.672 154.298 137.494 154.346 137.317C155.705 132.314 157.729 127.669 160.234 123.6L160.389 123.541L160.496 123.626L160.48 123.718C157.844 128.002 155.752 132.904 154.402 138.176L154.383 138.251L154.415 138.324C156.871 143.718 160.14 149.238 165.003 155.071L165.029 155.171L164.88 155.273Z" fill="#5E94D5"/>
<path d="M145.845 176.561C145.785 176.596 146.508 169.167 144.549 162.01C142.787 154.909 138.341 148.082 132.501 150.617C128.508 152.517 125.525 149.751 122.948 146.985C120.323 144.168 118.119 141.352 115.694 143.462C111.336 147.806 114.146 149.308 106.415 146.143C98.466 143.284 95.5277 149.169 87.6523 151.493C79.6546 154.305 83.7373 164.337 93.7143 163.599C103.922 163.395 93.0051 165.977 96.9977 169.787C98.5587 171.322 103.349 170.347 107.712 169.373C112.523 168.299 116.815 167.224 115.681 169.517C113.274 173.492 115.126 177.541 119.665 177.68C130.177 177.652 145.675 176.32 145.845 176.561Z" fill="#8FC8EE"/>
<path d="M149.505 180.613L149.471 180.48C144.294 173.804 135.966 165.814 125.608 160.882L125.527 160.842L125.495 160.758C124.33 157.52 122.488 154.464 120.52 151.577C119.871 150.624 119.204 149.679 118.533 148.73L118.403 148.682C118.325 148.71 118.258 148.796 118.277 148.881L118.308 148.945C118.963 149.871 119.616 150.796 120.25 151.726C122.067 154.386 123.782 157.196 124.949 160.163C125.014 160.328 125.078 160.492 125.142 160.657C124.983 160.583 124.825 160.509 124.667 160.437C120.296 158.425 115.587 156.883 110.355 155.883L110.216 155.857L110.182 155.72L110.149 155.658C107.549 153.065 104.481 150.822 101.08 149.08L100.928 149.089L100.865 149.279L100.939 149.35C104.053 150.945 106.894 152.969 109.342 155.297C109.513 155.459 109.683 155.622 109.851 155.785C109.62 155.744 109.39 155.704 109.158 155.664C104.194 154.819 98.9441 154.49 93.2174 154.845L93.1255 154.889L93.1264 155.052L93.2808 155.142C101.088 154.664 108.125 155.461 114.53 157.134C114.665 157.169 114.8 157.205 114.934 157.241C114.828 157.33 114.723 157.419 114.617 157.508C111.052 160.516 107.292 162.957 103.368 164.895L103.318 165.007L103.424 165.133L103.55 165.129C107.617 163.127 111.507 160.586 115.189 157.432L115.282 157.341L115.4 157.373C118.982 158.37 122.207 159.591 125.238 161.035L125.291 161.06L125.325 161.11L125.452 161.167L125.51 161.16L125.564 161.186C128.231 162.48 130.937 164.036 133.764 165.987C133.918 166.093 134.073 166.2 134.226 166.307C134.043 166.331 133.862 166.355 133.68 166.379C128.54 167.075 123.637 168.55 119.22 170.636L119.135 170.797L119.201 170.925L119.294 170.921C123.945 168.727 129.111 167.219 134.513 166.574L134.59 166.564L134.655 166.611C139.529 170.118 144.39 174.528 149.286 180.717L149.38 180.76L149.505 180.613Z" fill="#5E94D5"/>
<path d="M141.264 161.955C141.182 161.95 146.168 155.218 148.215 146.989C150.436 138.944 149.717 129.403 142.214 128.025C131.667 126.453 136.229 109.146 128.86 110.048C121.863 111.398 123.922 114.701 117.707 106.554C111.092 98.5596 104.689 102.34 95.195 99.42C85.2956 96.8964 83.8122 109.308 94.5813 115.145C105.286 121.651 92.4896 116.986 94.4591 123.303C96.0254 128.59 118.729 132.491 113.992 135.312C109.23 137.587 108.842 142.73 113.471 145.846C124.39 152.722 141.225 161.608 141.264 161.955Z" fill="#5E94D5"/>
<path d="M142.75 168.289L142.791 168.137C141.227 158.261 137.143 145.042 129.211 133.455L129.151 133.364L129.167 133.261C129.803 129.355 129.634 125.181 129.239 121.089C129.11 119.739 128.957 118.382 128.801 117.021L128.694 116.889C128.599 116.866 128.478 116.904 128.45 117.001L128.444 117.082C128.597 118.411 128.748 119.737 128.875 121.056C129.243 124.829 129.419 128.682 128.938 132.325C128.912 132.527 128.884 132.729 128.856 132.93C128.735 132.755 128.612 132.579 128.49 132.404C125.103 127.583 121.098 122.994 116.24 118.589L116.112 118.472L116.156 118.317V118.235C114.938 114.013 113.033 109.822 110.5 105.899L110.337 105.807C110.25 105.814 110.173 105.88 110.163 105.951L110.198 106.067C112.519 109.66 114.312 113.489 115.525 117.355C115.609 117.626 115.692 117.895 115.774 118.163C115.558 117.972 115.343 117.781 115.125 117.591C110.457 113.512 105.199 109.743 99.0574 106.328L98.9361 106.31L98.8451 106.467C98.8397 106.551 98.8754 106.613 98.9539 106.657C107.323 111.32 114.168 116.716 119.859 122.545C119.978 122.667 120.098 122.79 120.216 122.913C120.056 122.93 119.895 122.947 119.735 122.965C114.323 123.541 109.031 123.44 103.856 122.742L103.741 122.817L103.778 123.008L103.912 123.088C109.271 123.818 114.755 123.908 120.372 123.265L120.52 123.238L120.623 123.347C123.771 126.666 126.419 129.969 128.741 133.36L128.781 133.42L128.789 133.491L128.887 133.628L128.952 133.661L128.993 133.722C131.023 136.727 132.942 140.014 134.762 143.763C134.861 143.968 134.96 144.172 135.058 144.378C134.855 144.281 134.653 144.184 134.45 144.09C128.723 141.388 122.797 139.599 117.025 138.721C116.942 138.709 116.882 138.742 116.847 138.821L116.841 138.989L116.939 139.047C123.015 139.972 129.233 141.902 135.204 144.824L135.29 144.867L135.331 144.955C138.387 151.556 140.914 159.026 142.465 168.245C142.478 168.329 142.517 168.342 142.536 168.348L142.75 168.289Z" fill="#407EC9"/>
<path d="M234.336 136.542H149.735C141.529 136.542 134.877 143.238 134.877 151.501V329.372C134.877 337.635 141.529 344.333 149.735 344.333H234.336C242.544 344.333 249.195 337.635 249.195 329.372V151.501C249.195 143.238 242.544 136.542 234.336 136.542Z" fill="#214A7C"/>
<path d="M234.336 136.542H149.735C141.529 136.542 134.877 143.238 134.877 151.501V329.372C134.877 334.167 137.126 338.425 140.611 341.162L247.973 145.565C245.691 140.258 240.447 136.542 234.336 136.542Z" fill="#193651"/>
<path d="M208.554 143.829H177.168C176.305 143.829 175.599 144.54 175.599 145.409C175.599 146.278 176.305 146.99 177.168 146.99H208.554C209.417 146.99 210.123 146.278 210.123 145.409C210.123 144.54 209.417 143.829 208.554 143.829Z" fill="white"/>
<path d="M234.336 142.146H221.922L217.457 150.669C215.787 153.855 212.503 155.848 208.925 155.848H175.147C171.569 155.848 168.285 153.855 166.617 150.669L162.149 142.146H149.735C144.612 142.146 140.444 146.342 140.444 151.502V329.372C140.444 334.53 144.612 338.727 149.735 338.727H234.336C239.46 338.727 243.627 334.53 243.627 329.372V151.502C243.627 146.342 239.46 142.146 234.336 142.146Z" fill="#D0F0FC"/>
<path d="M143.35 336.165C143.013 335.841 142.7 335.494 142.414 335.125C142.7 335.494 143.014 335.841 143.351 336.163L143.35 336.165ZM140.625 331.216C140.507 330.619 140.444 330.001 140.444 329.369V151.502C140.444 150.662 140.555 149.846 140.763 149.07C140.555 149.846 140.444 150.66 140.444 151.502V329.372C140.444 330.003 140.507 330.62 140.625 331.216ZM142.053 146.243C143.728 143.771 146.547 142.144 149.731 142.144H162.148L162.508 142.831L162.149 142.146H149.735C146.547 142.146 143.728 143.772 142.053 146.243ZM240.571 144.571C238.922 143.065 236.734 142.146 234.336 142.146H221.922L220.79 144.307L221.922 142.144H234.34C236.735 142.144 238.922 143.063 240.571 144.571Z" fill="#18324E"/>
<path d="M143.351 336.163C143.014 335.841 142.7 335.494 142.414 335.125C141.543 334.002 140.921 332.679 140.63 331.236C140.629 331.234 140.629 331.231 140.628 331.228C140.627 331.225 140.626 331.221 140.625 331.216C140.507 330.62 140.444 330.003 140.444 329.372V151.502C140.444 150.66 140.555 149.846 140.763 149.07C141.036 148.048 141.477 147.096 142.053 146.243C143.728 143.772 146.547 142.146 149.735 142.146H162.149L162.508 142.831L166.612 150.672C168.288 153.858 171.564 155.849 175.151 155.849H208.929C212.506 155.849 215.783 153.858 217.459 150.672L220.79 144.307L221.922 142.146H234.336C236.734 142.146 238.922 143.065 240.571 144.571C242.446 146.285 243.626 148.758 243.626 151.502V153.477L235.145 168.929H156.554C152.962 168.929 150.049 171.861 150.049 175.477V207.497C150.049 211.113 152.962 214.046 156.554 214.046H210.381L143.35 336.165" fill="#A6DFF8"/>
<path d="M285.062 168.929H156.554C152.962 168.929 150.049 171.861 150.049 175.477V207.497C150.049 211.113 152.962 214.046 156.554 214.046H285.062C288.654 214.046 291.566 211.113 291.566 207.497V175.477C291.566 171.861 288.654 168.929 285.062 168.929Z" fill="white"/>
<path d="M212.566 183.979L213.438 186.68C213.498 186.868 213.672 186.996 213.869 186.996H216.691C217.13 186.996 217.313 187.563 216.957 187.824L214.676 189.493C214.517 189.61 214.449 189.817 214.511 190.004L215.382 192.706C215.519 193.128 215.04 193.478 214.683 193.218L212.401 191.548C212.241 191.431 212.026 191.431 211.867 191.548L209.584 193.218C209.228 193.478 208.748 193.128 208.885 192.706L209.757 190.004C209.818 189.817 209.751 189.61 209.591 189.493L207.31 187.824C206.954 187.563 207.137 186.996 207.576 186.996H210.398C210.594 186.996 210.769 186.868 210.829 186.68L211.701 183.979C211.837 183.557 212.43 183.557 212.566 183.979Z" fill="#F7B829"/>
<path d="M228.217 183.979L229.09 186.68C229.149 186.868 229.324 186.996 229.521 186.996H232.342C232.782 186.996 232.965 187.563 232.609 187.824L230.327 189.493C230.168 189.61 230.1 189.817 230.162 190.004L231.033 192.706C231.17 193.128 230.691 193.478 230.334 193.218L228.051 191.548C227.892 191.431 227.678 191.431 227.518 191.548L225.235 193.218C224.879 193.478 224.4 193.128 224.536 192.706L225.408 190.004C225.469 189.817 225.402 189.61 225.242 189.493L222.96 187.824C222.605 187.563 222.788 186.996 223.227 186.996H226.048C226.246 186.996 226.42 186.868 226.481 186.68L227.352 183.979C227.489 183.557 228.082 183.557 228.217 183.979Z" fill="#F7B829"/>
<path d="M243.868 183.979L244.74 186.68C244.801 186.868 244.975 186.996 245.172 186.996H247.993C248.434 186.996 248.616 187.563 248.26 187.824L245.978 189.493C245.818 189.61 245.752 189.817 245.814 190.004L246.684 192.706C246.821 193.128 246.341 193.478 245.985 193.218L243.702 191.548C243.544 191.431 243.328 191.431 243.169 191.548L240.886 193.218C240.53 193.478 240.051 193.128 240.187 192.706L241.059 190.004C241.12 189.817 241.054 189.61 240.894 189.493L238.612 187.824C238.256 187.563 238.439 186.996 238.878 186.996H241.7C241.897 186.996 242.071 186.868 242.132 186.68L243.004 183.979C243.14 183.557 243.733 183.557 243.868 183.979Z" fill="#F7B829"/>
<path d="M259.519 183.979L260.391 186.68C260.452 186.868 260.626 186.996 260.823 186.996H263.645C264.085 186.996 264.267 187.563 263.911 187.824L261.629 189.493C261.47 189.61 261.403 189.817 261.465 190.004L262.336 192.706C262.472 193.128 261.993 193.478 261.637 193.218L259.354 191.548C259.195 191.431 258.979 191.431 258.82 191.548L256.538 193.218C256.182 193.478 255.702 193.128 255.839 192.706L256.709 190.004C256.771 189.817 256.705 189.61 256.545 189.493L254.263 187.824C253.907 187.563 254.09 186.996 254.53 186.996H257.351C257.548 186.996 257.722 186.868 257.783 186.68L258.655 183.979C258.79 183.557 259.383 183.557 259.519 183.979Z" fill="#F7B829"/>
<path d="M275.171 183.979L276.042 186.68C276.103 186.868 276.278 186.996 276.475 186.996H279.296C279.735 186.996 279.918 187.563 279.563 187.824L277.281 189.493C277.121 189.61 277.054 189.817 277.115 190.004L277.987 192.706C278.123 193.128 277.644 193.478 277.288 193.218L275.005 191.548C274.846 191.431 274.631 191.431 274.472 191.548L272.189 193.218C271.833 193.478 271.353 193.128 271.49 192.706L272.361 190.004C272.423 189.817 272.355 189.61 272.196 189.493L269.914 187.824C269.558 187.563 269.741 186.996 270.181 186.996H273.002C273.199 186.996 273.374 186.868 273.434 186.68L274.306 183.979C274.441 183.557 275.034 183.557 275.171 183.979Z" fill="#B4DEDD"/>
<path d="M252.635 197.741H207.121V199.014H252.635V197.741Z" fill="#B4DEDD"/>
<path d="M252.635 176.791H207.121V179.19H252.635V176.791Z" fill="#5E94D5"/>
<path d="M252.635 202.585H207.121V203.858H252.635V202.585Z" fill="#B4DEDD"/>
<path d="M227.925 207.084H207.121V208.356H227.925V207.084Z" fill="#B4DEDD"/>
<path d="M197.169 192.166C197.169 182.062 189.033 173.871 178.998 173.871C168.962 173.871 160.827 182.062 160.827 192.166C160.827 202.27 168.962 210.46 178.998 210.46C189.033 210.46 197.169 202.27 197.169 192.166Z" fill="#8FC8EE"/>
<mask id="mask0_3844_3582" style="mask-type:luminance" maskUnits="userSpaceOnUse" x="160" y="173" width="38" height="38">
<path d="M197.169 192.166C197.169 182.062 189.033 173.871 178.998 173.871C168.962 173.871 160.827 182.062 160.827 192.166C160.827 202.27 168.962 210.46 178.998 210.46C189.033 210.46 197.169 202.27 197.169 192.166Z" fill="white"/>
</mask>
<g mask="url(#mask0_3844_3582)">
<path d="M188.011 203.242L186.416 186.337C186.416 182.008 184.728 178.027 180.179 179.207C178.122 178.123 175.561 178.374 173.879 179.985C172.1 181.692 171.08 184.286 171.08 186.903L169.298 203.336L188.011 203.242Z" fill="#214A7C"/>
<path d="M181.695 194.558V198.28C181.695 198.28 181.178 201.19 178.746 201.681C176.21 201.011 175.818 198.28 175.818 198.28V194.558H181.695Z" fill="#F79576"/>
<path d="M181.695 194.026V196.395C180.805 196.88 179.795 197.14 178.757 197.14C177.717 197.14 176.708 196.88 175.818 196.395V194.026H181.695Z" fill="#E5674E"/>
<path d="M184.717 186.536C182.015 186.46 180.246 184.354 180.246 184.354C178.601 185.795 172.833 186.536 172.833 186.536L172.794 188.827C172.794 190.554 173.518 192.653 174.677 194.268C175.619 195.581 177.147 196.343 178.756 196.343C180.367 196.343 181.893 195.581 182.836 194.268C183.994 192.653 184.719 190.554 184.719 188.827L184.717 186.536Z" fill="#F79576"/>
<path d="M193.29 204.468C190.988 200.482 181.242 198.28 181.242 198.28L178.679 199.269L176.117 198.28C176.117 198.28 166.371 200.482 164.069 204.468L161.244 225.955L165.726 225.885L168.351 207.946C168.351 207.946 170.008 213.74 169.916 217.124C169.824 220.508 168.778 226.101 168.778 226.101H178.418H178.94H188.581C188.581 226.101 187.535 220.508 187.443 217.124C187.351 213.74 189.008 207.946 189.008 207.946L191.633 225.885L196.114 225.955L193.29 204.468Z" fill="#F79576"/>
<path d="M186.576 199.949C185.799 202.185 183.79 205.604 178.71 205.871C173.613 205.604 171.608 202.163 170.836 199.928C169.347 200.507 167.793 201.238 166.5 202.105L168.251 207.946L168.328 208.098L168.351 207.946C168.351 207.946 168.424 208.202 168.534 208.623L168.588 208.826C169.042 210.574 169.987 214.545 169.916 217.124C169.824 220.508 168.778 226.101 168.778 226.101H178.418H178.94H188.581C188.581 226.101 187.535 220.508 187.443 217.124C187.351 213.74 189.008 207.946 189.008 207.946L189.045 208.193C189.084 208.106 189.124 208.018 189.17 207.946L190.91 202.139C189.622 201.268 188.069 200.534 186.576 199.949Z" fill="#5E94D5"/>
</g>
<path d="M304.443 221.313C303.795 221.299 303.204 220.934 302.903 220.356L293.592 201.697C293.592 201.697 292.478 197.211 291.167 197.211L291.036 203.149L297.334 226.089C297.7 227.521 298.442 228.748 300.342 228.792C304.211 228.883 311.289 230.132 315.901 231.35C320.62 232.597 324.589 231.321 324.589 231.321C324.883 220.83 308.411 221.402 304.443 221.313Z" fill="#F79576"/>
<path d="M318.375 218.967V224.272H310.376V221.284C310.376 221.284 305.117 220.034 305.372 215.253C305.628 210.472 307.856 208.155 309.061 207.788C310.266 207.42 316.074 209.774 316.184 210.067C316.293 210.362 316.915 215.437 316.915 215.437L318.375 218.967Z" fill="#F79576"/>
<path d="M309.974 211.722C309.974 211.722 311.392 209.709 312.714 210.706C314.035 211.703 313.374 213.699 311.723 214.697C311.723 214.697 313.374 220.349 316.677 220.016C319.979 219.684 324.22 216.172 323.855 210.693C323.49 205.213 316.382 201.356 312.494 202.124C308.586 202.896 304.751 207.272 309.974 211.722Z" fill="#314EA8"/>
<path d="M323.818 207.236C323.818 207.236 328.128 201.72 332.438 206.5C336.749 211.281 339.451 216.65 341.424 217.68C343.397 218.709 339.743 221.21 334.995 219.666C330.247 218.121 324.11 212.237 323.818 207.236Z" fill="#314EA8"/>
<path d="M310.376 224.272V221.284C310.376 221.284 313.647 221.413 315.036 220.138C315.036 220.138 314.061 222.417 311.923 222.479V224.272H310.376Z" fill="#ED674B"/>
<path d="M306.863 266.708C306.863 266.708 308.747 296.374 311.146 302.583C313.544 308.793 328.715 337.041 328.715 337.041L336.575 335.298L325.365 301.549C325.279 303.619 323.791 293.889 326.565 284.042C328.192 278.264 327.565 271.959 325.131 266.92L305.492 266.708" fill="#3468BB"/>
<path d="M324.98 265.457C324.98 265.457 324.244 273.699 314.83 283.05C305.321 292.494 301.595 298.833 301.595 298.833L300.181 339.71H292.344C292.344 339.71 287.718 296.633 287.846 295.081C287.975 293.528 300.953 265.457 302.495 262.999C304.036 260.541 324.98 265.457 324.98 265.457Z" fill="#5E94D5"/>
<path d="M319.198 223.846C319.198 223.846 327.604 224.479 324.508 234.971C321.124 246.441 325.003 264.825 325.773 266.722L323.254 267.733C315.702 270.589 307.347 270.407 299.925 267.225H299.924C299.924 267.225 306.606 252.391 301.852 244.629C298.794 239.638 299.696 234.6 303.265 230.141C305.579 227.253 308.494 224.242 309.646 224.188L319.198 223.846Z" fill="#78BFEB"/>
<path d="M292.346 339.713H294.002L290.647 295.395C291.201 294.47 293.12 290.931 298.936 279.658C300.962 275.734 302.381 271.985 303.393 268.469C302.339 268.162 301.296 267.797 300.27 267.37C296.117 275.963 287.948 293.853 287.846 295.083C287.715 296.631 292.346 339.713 292.346 339.713Z" fill="#407EC9"/>
<path d="M308.622 241.839C304.696 243.303 307.613 253.805 303.39 268.466C302.218 268.119 301.06 267.711 299.925 267.225H299.924C299.924 267.225 306.606 252.391 301.852 244.629C300.344 242.17 299.804 239.699 300.065 237.291L316.729 233.478C316.729 233.478 313.961 239.848 308.622 241.839Z" fill="#5BB0E5"/>
<path d="M272.703 215.563C272.703 215.563 287.957 241.086 292.409 242.536C294.388 243.181 306.723 238.33 311.929 237.469C314.74 237.003 316.718 234.43 316.457 231.572C316.159 228.297 312.427 225.511 309.236 226.215L292.113 231.588C292.113 231.588 277.614 216.492 274.384 213.042C274.384 213.042 273.046 208.795 271.056 208.795C269.276 208.795 271.979 214.103 272.703 215.563Z" fill="#F79576"/>
<path d="M284.869 342.325C287.031 341.616 291.076 340.753 292.541 339.716H300.153C300.078 341.252 300.037 342.744 300.016 343.736C300.003 344.403 299.462 344.934 298.8 344.934H283.646C282.654 344.934 282.293 343.628 283.138 343.104C283.578 342.831 284.142 342.563 284.869 342.325Z" fill="#314EA8"/>
<path d="M321.986 341.333C323.934 340.15 327.681 338.39 328.875 337.046L336.289 335.314C336.56 336.827 336.857 338.29 337.059 339.261C337.196 339.914 336.788 340.553 336.143 340.704L321.38 344.152C320.415 344.379 319.77 343.188 320.475 342.486C320.842 342.121 321.332 341.729 321.986 341.333Z" fill="#314EA8"/>
<path d="M309.236 226.215C309.514 226.154 309.795 226.119 310.079 226.109C309.795 226.119 309.513 226.154 309.236 226.215Z" fill="#AA919B"/>
<path d="M292.492 233.817C292.465 233.817 292.438 233.817 292.413 233.816C288.513 233.721 274.384 213.042 274.384 213.042C277.613 216.492 292.113 231.588 292.113 231.588L309.236 226.215C309.513 226.154 309.795 226.119 310.079 226.109C310.138 226.107 310.2 226.106 310.261 226.106C312.895 226.106 315.603 228.18 316.298 230.741C315.475 230.182 314.213 229.957 312.687 229.957C309.526 229.957 305.23 230.922 301.348 231.887C297.466 232.852 293.998 233.817 292.492 233.817Z" fill="#F57A5C"/>
<path d="M323.703 206.909L322.584 207.112C322.584 207.112 324.031 209.476 323.728 211.688L325.177 211.417C325.177 211.417 325.024 207.384 323.703 206.909Z" fill="white"/>
<path d="M223.205 224.502H94.6973C91.1061 224.502 88.1937 227.434 88.1937 231.05V263.069C88.1937 266.687 91.1061 269.618 94.6973 269.618H223.205C226.797 269.618 229.709 266.687 229.709 263.069V231.05C229.709 227.434 226.797 224.502 223.205 224.502Z" fill="white"/>
<path d="M150.71 239.552L151.581 242.253C151.643 242.442 151.817 242.569 152.014 242.569H154.834C155.275 242.569 155.459 243.137 155.102 243.397L152.82 245.067C152.66 245.183 152.593 245.389 152.655 245.578L153.526 248.279C153.662 248.7 153.183 249.051 152.827 248.791L150.544 247.122C150.386 247.005 150.17 247.005 150.01 247.122L147.728 248.791C147.373 249.051 146.893 248.7 147.029 248.279L147.901 245.578C147.961 245.389 147.895 245.183 147.736 245.067L145.453 243.397C145.097 243.137 145.281 242.569 145.721 242.569H148.541C148.738 242.569 148.913 242.442 148.974 242.253L149.845 239.552C149.982 239.131 150.574 239.131 150.71 239.552Z" fill="#F7B829"/>
<path d="M166.361 239.552L167.233 242.253C167.294 242.442 167.468 242.569 167.665 242.569H170.486C170.927 242.569 171.11 243.137 170.753 243.397L168.471 245.067C168.311 245.183 168.245 245.389 168.306 245.578L169.177 248.279C169.313 248.7 168.834 249.051 168.478 248.791L166.195 247.122C166.037 247.005 165.821 247.005 165.662 247.122L163.379 248.791C163.024 249.051 162.545 248.7 162.68 248.279L163.552 245.578C163.612 245.389 163.546 245.183 163.387 245.067L161.105 243.397C160.748 243.137 160.931 242.569 161.372 242.569H164.193C164.389 242.569 164.564 242.442 164.625 242.253L165.497 239.552C165.633 239.131 166.225 239.131 166.361 239.552Z" fill="#F7B829"/>
<path d="M182.012 239.552L182.884 242.253C182.945 242.442 183.119 242.569 183.317 242.569H186.137C186.577 242.569 186.761 243.137 186.405 243.397L184.122 245.067C183.962 245.183 183.896 245.389 183.957 245.578L184.828 248.279C184.965 248.7 184.485 249.051 184.129 248.791L181.847 247.122C181.688 247.005 181.472 247.005 181.313 247.122L179.03 248.791C178.675 249.051 178.195 248.7 178.331 248.279L179.203 245.578C179.264 245.389 179.197 245.183 179.038 245.067L176.756 243.397C176.399 243.137 176.583 242.569 177.023 242.569H179.844C180.041 242.569 180.215 242.442 180.276 242.253L181.147 239.552C181.284 239.131 181.876 239.131 182.012 239.552Z" fill="#F7B829"/>
<path d="M197.664 239.552L198.535 242.253C198.597 242.442 198.77 242.569 198.968 242.569H201.788C202.229 242.569 202.412 243.137 202.055 243.397L199.773 245.067C199.614 245.183 199.547 245.389 199.608 245.578L200.48 248.279C200.616 248.7 200.137 249.051 199.78 248.791L197.499 247.122C197.339 247.005 197.124 247.005 196.964 247.122L194.682 248.791C194.326 249.051 193.847 248.7 193.982 248.279L194.855 245.578C194.915 245.389 194.848 245.183 194.69 245.067L192.407 243.397C192.051 243.137 192.234 242.569 192.674 242.569H195.495C195.692 242.569 195.866 242.442 195.927 242.253L196.799 239.552C196.935 239.131 197.527 239.131 197.664 239.552Z" fill="#F7B829"/>
<path d="M213.314 239.552L214.187 242.253C214.248 242.442 214.421 242.569 214.619 242.569H217.439C217.88 242.569 218.063 243.137 217.707 243.397L215.424 245.067C215.265 245.183 215.198 245.389 215.26 245.578L216.131 248.279C216.267 248.7 215.787 249.051 215.431 248.791L213.149 247.122C212.991 247.005 212.775 247.005 212.615 247.122L210.333 248.791C209.977 249.051 209.498 248.7 209.633 248.279L210.506 245.578C210.566 245.389 210.499 245.183 210.341 245.067L208.058 243.397C207.702 243.137 207.885 242.569 208.326 242.569H211.146C211.343 242.569 211.517 242.442 211.579 242.253L212.45 239.552C212.587 239.131 213.179 239.131 213.314 239.552Z" fill="#F7B829"/>
<path d="M190.778 253.314H145.265V254.586H190.778V253.314Z" fill="#B4DEDD"/>
<path d="M190.778 232.364H145.265V234.763H190.778V232.364Z" fill="#214A7C"/>
<path d="M190.778 258.159H145.265V259.431H190.778V258.159Z" fill="#B4DEDD"/>
<path d="M166.07 262.656H145.265V263.929H166.07V262.656Z" fill="#B4DEDD"/>
<path d="M135.314 247.739C135.314 237.635 127.178 229.445 117.143 229.445C107.107 229.445 98.9717 237.635 98.9717 247.739C98.9717 257.843 107.107 266.033 117.143 266.033C127.178 266.033 135.314 257.843 135.314 247.739Z" fill="#8FC8EE"/>
<path d="M78.3398 317.623C78.3398 317.623 109.155 291.626 114.575 300.819C119.996 310.01 112.007 339.742 112.007 339.742L78.3398 317.623Z" fill="#457DC9"/>
<path d="M94.5108 328.247L112.007 339.742C112.007 339.742 119.31 312.546 115.198 302.139C117.078 315.827 102.659 324.494 94.5108 328.247Z" fill="#3468BB"/>
<path d="M94.1273 314.847C94.1273 314.847 113.211 330.265 114.765 335.816C117.286 344.818 102.342 343.812 95.8872 343.812C89.4318 343.812 48.2936 342.665 48.2936 342.665L48.6661 336.296L86.614 334.476C86.614 334.476 65.595 331.34 66.3738 319.125C67.1528 306.911 94.1273 314.847 94.1273 314.847Z" fill="#5E94D5"/>
<path d="M113.732 340.908C110.249 344.372 100.712 343.809 95.8881 343.809C89.43 343.809 48.2912 342.666 48.2912 342.666L48.6689 336.295L86.6175 334.476C86.6175 334.476 101.736 341.8 113.43 340.943C113.534 340.935 113.637 340.926 113.732 340.908Z" fill="#457DC9"/>
<path d="M48.4877 342.555C48.4877 342.555 46.8114 346.362 48.0954 348.874C49.3794 351.388 43.8159 349.557 42.9239 344.602C42.0322 339.647 42.4605 333.721 48.6661 336.379L48.4877 342.555Z" fill="#314EA8"/>
<path d="M69.8752 276.641C69.8752 276.641 83.7283 236.337 84.1413 236.52C85.7585 237.237 88.6111 237.908 88.6111 237.908L82.905 282.147L69.8752 276.641Z" fill="#214A7C"/>
<path d="M84.1886 272.045C81.0381 270.544 77.1034 268.789 72.4906 269.076C70.5888 274.565 69.8752 276.641 69.8752 276.641L82.905 282.147L84.1886 272.045Z" fill="#193651"/>
<path d="M87.2187 265.982C86.1965 269.787 82.1406 269.077 82.1406 269.077V272.697H75.1437V267.804L75.1767 267.812C78.8143 268.655 82.7614 265.998 81.0184 264.69C79.2835 263.392 78.9062 261.232 79.8116 260.177C80.7241 259.122 82.9122 259.906 82.9122 259.906C85.0066 259.848 86.4481 259.586 87.3784 259.113C87.7388 261.273 87.7637 263.948 87.2187 265.982Z" fill="#F79576"/>
<path d="M82.9077 259.907C82.9077 259.907 80.7241 259.119 79.8152 260.175C78.9062 261.231 79.28 263.392 81.0202 264.694C82.7588 265.995 78.8099 268.655 75.1741 267.811C71.539 266.966 69.509 259.326 72.6286 254.354C75.4925 249.788 85.5579 247.805 87.5854 252.592C89.6129 257.378 89.7333 259.72 82.9077 259.907Z" fill="#314EA8"/>
<path d="M82.1406 272.697V269.077C82.1406 269.077 79.7821 268.759 78.8616 268.269C78.8616 268.269 80.0952 269.774 80.9123 270.106V272.697H82.1406Z" fill="#E5674E"/>
<path d="M84.0111 272.767C84.0111 272.767 72.4467 268.735 69.1912 277.811C65.9354 286.888 71.4682 308.646 65.5713 316.115C74.6906 320.399 85.1448 320.782 94.5492 317.175L95.8158 316.689C95.8158 316.689 91.7742 288.938 91.5806 289.902C91.4165 290.716 105.232 295.149 107.986 293.637C110.741 292.124 127.415 273.169 127.415 273.169L121.803 272.331L106.777 282.29C106.777 282.29 87.8119 273.017 84.0111 272.767Z" fill="#214A7C"/>
<path d="M127.415 273.169C127.415 273.169 133.192 270.656 133.549 269.507H125.225C124.36 269.507 123.547 269.922 123.038 270.626L121.803 272.331L127.415 273.169Z" fill="#F79576"/>
<path d="M95.8158 316.689C95.8158 316.689 92.2648 292.309 91.66 290.045C91.7287 290.116 91.8437 290.196 92.0025 290.288C91.7358 290.045 91.5806 289.902 91.5806 289.902C91.5806 289.902 82.7623 287.748 79.6234 284.014C79.6234 284.014 82.6196 290.19 86.4712 291.626C89.9108 292.908 88.6896 311.59 91.3344 318.235C92.4164 317.93 93.4904 317.582 94.5492 317.175L95.8158 316.689Z" fill="#193651"/>
<path d="M84.5695 236.711C84.5695 236.711 86.0395 231.422 88.2294 231.051L88.2303 237.956L84.5695 236.711Z" fill="#F79576"/>
<mask id="mask1_3844_3582" style="mask-type:luminance" maskUnits="userSpaceOnUse" x="98" y="229" width="38" height="38">
<path d="M135.314 247.739C135.314 237.635 127.178 229.445 117.143 229.445C107.107 229.445 98.9717 237.635 98.9717 247.739C98.9717 257.843 107.107 266.033 117.143 266.033C127.178 266.033 135.314 257.843 135.314 247.739Z" fill="white"/>
</mask>
<g mask="url(#mask1_3844_3582)">
<path d="M137.098 274.538L135.927 263.98C135.719 262.279 134.767 260.751 133.318 259.8L129.681 257.406L129.665 257.497V257.414L126.664 256.245L123.611 255.055L121.083 254.069L119.972 253.636L117.189 255.067L114.409 253.636L113.433 254.017L111.047 254.945L107.82 256.203L104.716 257.414V257.463L101.164 259.8C99.7165 260.751 98.7639 262.279 98.5561 263.98L97.3849 274.538H104.756L104.777 283.321H129.605L129.625 274.538H137.098Z" fill="#F7B829"/>
<path d="M117.307 235.09C113.212 235.09 109.892 238.432 109.892 242.555V246.115H124.72V242.555C124.72 238.432 121.401 235.09 117.307 235.09Z" fill="#214A7C"/>
<path d="M120.246 251.676V254.29C120.246 254.29 120.232 254.367 120.199 254.498C119.812 256.037 118.52 259.018 117.251 258.988C115.982 258.958 114.737 255.919 114.446 254.358L114.435 254.29V251.676H120.246Z" fill="#F79576"/>
<path d="M120.246 251.149V253.492C119.366 253.971 118.367 254.23 117.34 254.23C116.313 254.23 115.315 253.971 114.435 253.492V251.149H120.246Z" fill="#E5674E"/>
<path d="M113.415 246.147C113.415 245.147 112.61 244.337 111.617 244.337C110.623 244.337 109.818 245.147 109.818 246.147C109.818 247.147 110.623 247.958 111.617 247.958C112.61 247.958 113.415 247.147 113.415 246.147Z" fill="#F79576"/>
<path d="M124.683 246.147C124.683 245.147 123.877 244.337 122.884 244.337C121.891 244.337 121.086 245.147 121.086 246.147C121.086 247.147 121.891 247.958 122.884 247.958C123.877 247.958 124.683 247.147 124.683 246.147Z" fill="#F79576"/>
<path d="M123.233 243.076C121.107 241.88 120.247 240.924 120.247 240.924H114.41C113.94 242.254 111.495 243.076 111.495 243.076L111.445 246.01C111.445 247.716 112.161 249.792 113.307 251.39C113.774 252.038 114.383 252.55 115.075 252.901C115.77 253.252 116.543 253.44 117.339 253.44C118.932 253.44 120.441 252.687 121.373 251.39C122.521 249.792 123.235 247.716 123.235 246.01L123.233 243.076Z" fill="#F79576"/>
</g>
<path d="M285.062 279.743H156.554C152.962 279.743 150.049 282.674 150.049 286.292V318.311C150.049 321.927 152.962 324.859 156.554 324.859H285.062C288.654 324.859 291.566 321.927 291.566 318.311V286.292C291.566 282.674 288.654 279.743 285.062 279.743Z" fill="white"/>
<path d="M212.566 294.794L213.438 297.494C213.498 297.683 213.672 297.81 213.869 297.81H216.691C217.13 297.81 217.313 298.378 216.957 298.638L214.676 300.307C214.517 300.424 214.449 300.631 214.511 300.82L215.382 303.52C215.519 303.941 215.04 304.292 214.683 304.032L212.401 302.362C212.241 302.246 212.026 302.246 211.867 302.362L209.584 304.032C209.228 304.292 208.748 303.941 208.885 303.52L209.757 300.82C209.818 300.631 209.751 300.424 209.591 300.307L207.31 298.638C206.954 298.378 207.137 297.81 207.576 297.81H210.398C210.594 297.81 210.769 297.683 210.829 297.494L211.701 294.794C211.837 294.372 212.43 294.372 212.566 294.794Z" fill="#F7B829"/>
<path d="M228.217 294.794L229.09 297.494C229.149 297.683 229.324 297.81 229.521 297.81H232.342C232.782 297.81 232.965 298.378 232.609 298.638L230.327 300.307C230.168 300.424 230.1 300.631 230.162 300.82L231.033 303.52C231.17 303.941 230.691 304.292 230.334 304.032L228.051 302.362C227.892 302.246 227.678 302.246 227.518 302.362L225.235 304.032C224.879 304.292 224.4 303.941 224.536 303.52L225.408 300.82C225.469 300.631 225.402 300.424 225.242 300.307L222.96 298.638C222.605 298.378 222.788 297.81 223.227 297.81H226.048C226.246 297.81 226.42 297.683 226.481 297.494L227.352 294.794C227.489 294.372 228.082 294.372 228.217 294.794Z" fill="#F7B829"/>
<path d="M243.868 294.794L244.74 297.494C244.801 297.683 244.975 297.81 245.172 297.81H247.993C248.434 297.81 248.616 298.378 248.26 298.638L245.978 300.307C245.818 300.424 245.752 300.631 245.814 300.82L246.684 303.52C246.821 303.941 246.341 304.292 245.985 304.032L243.702 302.362C243.544 302.246 243.328 302.246 243.169 302.362L240.886 304.032C240.53 304.292 240.051 303.941 240.187 303.52L241.059 300.82C241.12 300.631 241.054 300.424 240.894 300.307L238.612 298.638C238.256 298.378 238.439 297.81 238.878 297.81H241.7C241.897 297.81 242.071 297.683 242.132 297.494L243.004 294.794C243.14 294.372 243.733 294.372 243.868 294.794Z" fill="#B4DEDD"/>
<path d="M243.363 294.499C243.209 294.525 243.063 294.611 243.004 294.794L242.132 297.494C242.071 297.682 241.897 297.81 241.7 297.81H238.878C238.439 297.81 238.256 298.378 238.612 298.638L240.894 300.307C241.054 300.424 241.12 300.631 241.059 300.82L240.187 303.52C240.051 303.941 240.53 304.292 240.886 304.032L243.169 302.362L243.363 302.299V294.499Z" fill="#F7B829"/>
<path d="M259.519 294.794L260.391 297.494C260.452 297.683 260.626 297.81 260.823 297.81H263.645C264.085 297.81 264.267 298.378 263.911 298.638L261.629 300.307C261.47 300.424 261.403 300.631 261.465 300.82L262.336 303.52C262.472 303.941 261.993 304.292 261.637 304.032L259.354 302.362C259.195 302.246 258.979 302.246 258.82 302.362L256.538 304.032C256.182 304.292 255.702 303.941 255.839 303.52L256.709 300.82C256.771 300.631 256.705 300.424 256.545 300.307L254.263 298.638C253.907 298.378 254.09 297.81 254.53 297.81H257.351C257.548 297.81 257.722 297.683 257.783 297.494L258.655 294.794C258.79 294.372 259.383 294.372 259.519 294.794Z" fill="#B4DEDD"/>
<path d="M275.171 294.794L276.042 297.494C276.103 297.683 276.278 297.81 276.475 297.81H279.296C279.735 297.81 279.918 298.378 279.563 298.638L277.281 300.307C277.121 300.424 277.054 300.631 277.115 300.82L277.987 303.52C278.123 303.941 277.644 304.292 277.288 304.032L275.005 302.362C274.846 302.246 274.631 302.246 274.472 302.362L272.189 304.032C271.833 304.292 271.353 303.941 271.49 303.52L272.361 300.82C272.423 300.631 272.355 300.424 272.196 300.307L269.914 298.638C269.558 298.378 269.741 297.81 270.181 297.81H273.002C273.199 297.81 273.374 297.683 273.434 297.494L274.306 294.794C274.441 294.372 275.034 294.372 275.171 294.794Z" fill="#B4DEDD"/>
<path d="M252.635 308.555H207.121V309.827H252.635V308.555Z" fill="#B4DEDD"/>
<path d="M252.635 287.605H207.121V290.004H252.635V287.605Z" fill="#F03F54"/>
<path d="M252.635 313.399H207.121V314.671H252.635V313.399Z" fill="#B4DEDD"/>
<path d="M227.925 317.897H207.121V319.17H227.925V317.897Z" fill="#B4DEDD"/>
<path d="M197.169 302.475C197.169 292.371 189.033 284.18 178.998 284.18C168.962 284.18 160.827 292.371 160.827 302.475C160.827 312.579 168.962 320.769 178.998 320.769C189.033 320.769 197.169 312.579 197.169 302.475Z" fill="#8FC8EE"/>
<mask id="mask2_3844_3582" style="mask-type:luminance" maskUnits="userSpaceOnUse" x="160" y="284" width="38" height="37">
<path d="M197.169 302.475C197.169 292.371 189.033 284.18 178.998 284.18C168.962 284.18 160.827 292.371 160.827 302.475C160.827 312.579 168.962 320.769 178.998 320.769C189.033 320.769 197.169 312.579 197.169 302.475Z" fill="white"/>
</mask>
<g mask="url(#mask2_3844_3582)">
<path d="M171.679 298.553C171.679 298.553 170.642 294.405 172.249 292.579C173.855 290.753 177.042 288.822 179.633 289.814C179.633 289.814 181.681 288.561 183.546 289.605C185.412 290.648 188.107 291.561 188.392 290.309C188.392 290.309 188.547 295.084 186.422 295.84L185.541 299.518H171.938L171.679 298.553Z" fill="#214A7C"/>
<path d="M193.29 314.778C190.988 310.791 181.242 308.589 181.242 308.589L178.679 309.578L176.117 308.589C176.117 308.589 166.371 310.791 164.069 314.778L161.244 336.264L165.726 336.193L168.351 318.255C168.351 318.255 170.008 324.049 169.916 327.433C169.824 330.817 168.778 336.41 168.778 336.41H178.418H178.94H188.581C188.581 336.41 187.535 330.817 187.443 327.433C187.351 324.049 189.008 318.255 189.008 318.255L191.633 336.193L196.114 336.264L193.29 314.778Z" fill="#214A7C"/>
<path d="M181.695 304.866V308.589C181.695 308.589 181.178 311.498 178.746 311.99C176.21 311.32 175.818 308.589 175.818 308.589V304.866H181.695Z" fill="#F79576"/>
<path d="M181.695 304.335V306.704C180.805 307.188 179.795 307.449 178.757 307.449C177.717 307.449 176.708 307.188 175.818 306.704V304.335H181.695Z" fill="#E5674E"/>
<path d="M184.717 296.845C182.015 296.768 180.246 294.662 180.246 294.662C178.601 296.105 172.833 296.845 172.833 296.845L172.794 299.137C172.794 300.863 173.518 302.961 174.677 304.577C175.619 305.891 177.147 306.652 178.756 306.652C180.367 306.652 181.893 305.891 182.836 304.577C183.994 302.961 184.719 300.863 184.719 299.137L184.717 296.845Z" fill="#F79576"/>
<path d="M174.347 299.414C174.347 300.322 173.617 301.057 172.715 301.057C171.813 301.057 171.083 300.322 171.083 299.414C171.083 298.506 171.813 297.77 172.715 297.77C173.617 297.77 174.347 298.506 174.347 299.414Z" fill="#F79576"/>
<path d="M186.378 299.414C186.378 300.322 185.647 301.057 184.746 301.057C183.844 301.057 183.113 300.322 183.113 299.414C183.113 298.506 183.844 297.77 184.746 297.77C185.647 297.77 186.378 298.506 186.378 299.414Z" fill="#F79576"/>
</g>
<path d="M287.825 94.2291C287.825 79.4209 275.903 67.4174 261.196 67.4174C246.488 67.4174 234.566 79.4209 234.566 94.2291C234.566 109.036 246.488 121.04 261.196 121.04C275.903 121.04 287.825 109.036 287.825 94.2291Z" fill="#F7B829"/>
<path d="M261.196 67.4174C261.034 67.4174 260.874 67.4263 260.714 67.429C268.065 71.7945 272.999 79.8439 272.999 89.0581C272.999 102.919 261.838 114.155 248.07 114.155C246.254 114.155 244.485 113.954 242.778 113.583C247.562 118.199 254.047 121.04 261.196 121.04C275.903 121.04 287.825 109.036 287.825 94.2291C287.825 79.4209 275.903 67.4174 261.196 67.4174Z" fill="#F89C2F"/>
<path d="M73.817 179.048C79.3923 179.048 79.6876 170.691 74.1237 170.334L73.9651 170.325L73.9679 170.221C73.9679 164.247 69.1584 159.405 63.2256 159.405C61.3552 159.405 59.597 159.887 58.0656 160.734C56.184 157.208 52.4875 154.811 48.2344 154.811C42.0741 154.811 37.0799 159.839 37.0799 166.041C37.0799 166.374 37.097 166.703 37.1252 167.029C35.9837 166.698 34.7792 166.517 33.5321 166.517C29.0376 166.517 25.0776 168.815 22.7459 172.307C20.827 175.18 22.9396 179.048 26.378 179.048H73.817Z" fill="#8FC8EE"/>
<path d="M245.116 110.784C252.422 110.784 252.809 99.8341 245.518 99.3662L245.311 99.3536L245.314 99.2171C245.314 91.3904 239.012 85.0456 231.238 85.0456C228.788 85.0456 226.484 85.6778 224.477 86.786C222.012 82.1664 217.168 79.0258 211.595 79.0258C203.523 79.0258 196.979 85.6141 196.979 93.7407C196.979 94.1771 197.002 94.6073 197.039 95.0339C195.543 94.6019 193.964 94.3648 192.33 94.3648C186.442 94.3648 181.252 97.3752 178.197 101.952C175.684 105.716 178.452 110.784 182.956 110.784H245.116Z" fill="#8FC8EE"/>
<path d="M333.032 136.56C326.318 136.56 325.963 126.497 332.662 126.067L332.853 126.057L332.85 125.931C332.85 118.739 338.64 112.908 345.785 112.908C348.036 112.908 350.153 113.489 351.997 114.507C354.263 110.263 358.713 107.377 363.834 107.377C371.253 107.377 377.266 113.431 377.266 120.899C377.266 121.299 377.244 121.696 377.211 122.087C378.585 121.689 380.036 121.472 381.538 121.472C386.949 121.472 391.717 124.239 394.524 128.444C396.835 131.902 394.291 136.56 390.152 136.56H333.032Z" fill="#8FC8EE"/>
<path d="M356.681 324.894L358.001 324.45C358.192 322.151 357.212 318.282 352.032 312.31C342.447 301.259 334.226 285.511 336.302 279.369C336.302 279.369 326.924 293.582 333.251 302.961C339.189 311.765 354.971 313.656 356.681 324.894Z" fill="#5E94D5"/>
<path d="M357.218 324.714L358.002 324.45C358.194 322.152 357.212 318.283 352.032 312.31C342.447 301.259 334.226 285.511 336.302 279.369C336.302 279.369 331.336 292.429 337.776 301.173C344.135 309.805 355.478 311.6 357.218 324.714Z" fill="#3468BB"/>
<path d="M360.52 315.45C360.007 317.79 359.339 319.614 358.732 320.956L359.342 321.063C362.152 317.25 366.763 309.701 367.786 300.125C369.279 286.129 371.298 268.61 371.298 268.61C371.298 268.61 357.147 280.365 360.315 296.7C361.894 304.845 361.482 311.048 360.52 315.45Z" fill="#5E94D5"/>
<path d="M365.498 290.018C364.724 301.698 362.536 314.544 359.7 319.645C360.113 319.326 360.552 318.992 361.001 318.652C363.695 314.468 366.947 307.978 367.786 300.124C369.279 286.129 371.297 268.609 371.297 268.609C371.297 268.609 366.504 274.819 365.498 290.018Z" fill="#3468BB"/>
<path d="M363.056 320.881C361.85 322.266 360.731 323.246 359.827 323.925L360.199 324.223C363.494 322.698 369.375 319.328 373.584 313.26C379.732 304.391 387.531 293.346 387.531 293.346C387.531 293.346 373.675 296.009 369.807 308.182C367.879 314.252 365.322 318.275 363.056 320.881Z" fill="#5E94D5"/>
<path d="M375.755 305.608C370.943 313.183 364.748 321.02 360.961 323.401C361.357 323.34 361.776 323.277 362.204 323.216C365.557 321.399 370.133 318.235 373.584 313.259C379.732 304.391 387.531 293.346 387.531 293.346C387.531 293.346 382.019 295.747 375.755 305.608Z" fill="#3468BB"/>
<path d="M357.75 320.45C358.618 322.941 359.255 324.653 359.628 325.839L360.129 325.724C359.315 321.347 357.907 313.788 356.579 308.826C354.624 301.518 356.147 297.972 354.573 285.253C353.001 272.534 345.511 255.742 345.511 255.742C345.511 255.742 340.673 273.466 347.588 290.368C354.503 307.27 353.92 309.466 357.75 320.45Z" fill="#5E94D5"/>
<path d="M359.66 325.832L359.755 325.81L359.811 324.022C358.978 319.569 357.747 313.191 356.579 308.826C354.624 301.518 356.147 297.972 354.573 285.253C353.001 272.534 345.511 255.742 345.511 255.742C345.511 255.742 347.864 281 351.296 292.04C354.472 302.255 359 322.815 359.66 325.832Z" fill="#3468BB"/>
<path d="M345.347 323.276L348.378 341.341C348.66 343.025 350.109 344.257 351.806 344.257H369.334C371.031 344.257 372.479 343.025 372.761 341.341L375.793 323.276C376.068 321.642 374.818 320.153 373.173 320.153H347.967C346.322 320.153 345.072 321.642 345.347 323.276Z" fill="white"/>
<path d="M375.775 322.363L375.774 322.358C375.744 322.187 375.699 322.023 375.637 321.864L375.624 321.831C375.564 321.684 375.494 321.544 375.411 321.41L375.361 321.336C375.283 321.22 375.2 321.11 375.105 321.007L374.99 320.897C374.904 320.814 374.818 320.733 374.722 320.664L374.519 320.538C374.435 320.488 374.354 320.434 374.265 320.394C374.165 320.348 374.057 320.318 373.95 320.283L373.745 320.218C373.561 320.177 373.371 320.153 373.173 320.153H365.193H347.967C346.45 320.153 345.283 321.424 345.325 322.902H367.835C367.831 323.027 367.835 323.15 367.813 323.276L364.782 341.341C364.499 343.025 363.05 344.257 361.354 344.257H369.334C371.031 344.257 372.479 343.025 372.761 341.341L375.793 323.276C375.847 322.961 375.827 322.657 375.775 322.363Z" fill="#D0F0FC"/>
<path d="M113.865 191.527H74.2856C71.447 191.527 69.1459 193.844 69.1459 196.702V217.669V228.007L79.2113 218.827C80.0292 218.082 81.0943 217.669 82.1977 217.669H113.865C115.814 217.669 117.393 216.077 117.393 214.116V195.08C117.393 193.118 115.814 191.527 113.865 191.527Z" fill="#214A7C"/>
<path d="M100.312 199.558C98.5989 197.835 95.8239 197.835 94.113 199.558L93.5305 200.144L92.9472 199.558C92.0917 198.696 90.9678 198.267 89.8466 198.267C88.7253 198.267 87.6041 198.696 86.7486 199.558C85.0351 201.281 85.0351 204.075 86.7486 205.799L87.3311 206.385L93.5305 212.627L99.729 206.385L100.312 205.799C101.167 204.937 101.594 203.809 101.594 202.68C101.594 201.548 101.167 200.419 100.312 199.558Z" fill="#F03F54"/>
<path d="M349.199 149.279H309.389C306.534 149.279 304.219 151.609 304.219 154.483V175.573V185.972L314.344 176.738C315.167 175.988 316.237 175.573 317.347 175.573H349.199C351.159 175.573 352.747 173.972 352.747 171.998V152.852C352.747 150.878 351.159 149.279 349.199 149.279Z" fill="#214A7C"/>
<path d="M339.78 163.579C340.492 163.522 341.052 162.924 341.052 162.194C341.052 161.425 340.434 160.803 339.671 160.803H336.972C336.838 160.782 336.7 160.772 336.559 160.773C335.091 160.788 335.017 160.78 334.461 160.661C333.287 160.406 334.671 158.967 333.938 156.325C333.204 153.682 330.651 153.839 330.773 155.071C330.894 156.303 331.037 159.243 330.357 160.172C328.819 162.275 326.321 162.465 326.321 162.465L326.272 169.462L329.002 169.483C330.23 170.889 332.55 171.202 332.793 171.23V171.255H335.863L336.014 171.256L336.076 171.255H337.993C338.692 171.255 339.258 170.685 339.258 169.982C339.258 169.58 339.072 169.222 338.783 168.989C339.504 168.942 340.075 168.34 340.075 167.603C340.075 166.984 339.674 166.462 339.12 166.28H339.323C340.086 166.28 340.704 165.658 340.704 164.89C340.704 164.283 340.318 163.769 339.78 163.579Z" fill="#5E94D5"/>
<path d="M318.632 170.777L323.311 170.782L323.369 160.562L318.691 160.557L318.632 170.777Z" fill="#5E94D5"/>
<path d="M258.295 263.571C257.186 261.618 256.565 259.347 256.603 256.927C256.716 249.808 262.644 244.041 269.714 244.161C276.998 244.284 282.811 250.491 282.358 257.953C281.968 264.392 276.805 269.635 270.412 270.084C268.477 270.22 266.627 269.922 264.943 269.282C264.128 268.972 263.235 268.941 262.4 269.194L257.385 270.72L258.61 266.636C258.917 265.613 258.823 264.498 258.295 263.571Z" fill="#214A7C"/>
<path d="M269.213 250.126L267.886 254.238C267.811 254.47 267.597 254.626 267.355 254.626H263.061C262.521 254.626 262.296 255.322 262.732 255.642L266.207 258.184C266.403 258.326 266.484 258.58 266.41 258.811L265.083 262.924C264.916 263.441 265.504 263.871 265.941 263.552L269.416 261.01C269.61 260.867 269.875 260.867 270.071 261.01L273.545 263.552C273.983 263.871 274.571 263.441 274.403 262.924L273.077 258.811C273.002 258.58 273.084 258.326 273.279 258.184L276.754 255.642C277.191 255.322 276.966 254.626 276.426 254.626H272.131C271.889 254.626 271.675 254.47 271.6 254.238L270.273 250.126C270.106 249.609 269.38 249.609 269.213 250.126Z" fill="#F7B829"/>
</g>
</g>
<defs>
<clipPath id="clip0_3844_3582">
<rect width="415" height="415" rx="20" fill="white"/>
</clipPath>
<clipPath id="clip1_3844_3582">
<rect x="-15" y="46" width="446" height="324" rx="20" fill="white"/>
</clipPath>
</defs>
</svg>
