<svg width="203" height="182" viewBox="0 0 203 182" fill="none" xmlns="http://www.w3.org/2000/svg">
<path d="M163.549 94.5534L150.909 101.869L163.549 109.351L176.189 101.869L163.549 94.5534Z" fill="#E8F6FD"/>
<path d="M165.272 60.4132L152.632 67.7286L165.272 75.2104L177.913 67.7286L165.272 60.4132Z" fill="#E8F6FD"/>
<path d="M163.698 99.6626C164.714 99.3143 166.174 98.8365 167.949 98.3463C168.46 98.2035 169.005 98.0612 169.566 97.9202C169.638 98.1537 170.225 100.018 170.824 100.699C171.37 101.317 172.232 101.95 173.089 101.873C173.929 101.798 174.601 101.044 174.436 100.16C174.208 98.9319 172.2 98.0156 171.119 97.878C171.05 97.8695 170.221 97.86 169.798 97.8642C170.137 97.7803 170.474 97.6963 170.829 97.6151C171.338 97.4941 171.88 97.3836 172.405 97.273C172.679 97.2261 172.956 97.1791 173.235 97.1307C173.517 97.0766 173.791 97.06 174.073 97.0215C174.488 96.975 174.917 96.9485 175.346 96.9214C175.434 97.4605 175.722 99.0377 176.155 99.7119C176.602 100.408 177.361 101.167 178.219 101.224C179.06 101.28 179.836 100.64 179.805 99.7399C179.76 98.4906 177.91 97.273 176.863 96.9693C176.829 96.9599 176.601 96.9195 176.33 96.8735C176.749 96.8602 177.168 96.845 177.593 96.846C178.8 96.8469 180.029 96.8873 181.26 96.9228C181.517 96.9295 181.774 96.9328 182.03 96.9395C182.103 97.3935 182.399 99.1046 182.853 99.8116C183.301 100.507 184.059 101.267 184.918 101.324C185.758 101.38 186.535 100.739 186.503 99.8391C186.459 98.5902 184.609 97.3727 183.561 97.069C183.524 97.0586 183.251 97.0101 182.947 96.9599C183.615 96.9689 184.283 96.9693 184.945 96.9485C186.104 96.9143 187.243 96.8161 188.339 96.631C188.363 96.7919 188.671 98.8056 189.175 99.5909C189.623 100.287 190.381 101.046 191.24 101.103C192.081 101.159 192.857 100.519 192.825 99.6185C192.781 98.3696 190.931 97.152 189.883 96.8484C189.809 96.827 188.823 96.6614 188.469 96.6139L188.508 96.6092C189.658 96.4042 190.73 96.0631 191.731 95.6891C192.731 95.3176 193.641 94.8806 194.468 94.4559C195.297 94.0341 196.03 93.5952 196.676 93.2014C197.024 92.9855 197.338 92.7814 197.63 92.5878L197.625 92.6139C197.622 92.6362 199.084 92.3976 199.174 92.3719C200.223 92.0711 202.077 90.8592 202.125 89.6104C202.159 88.7107 201.385 88.0678 200.544 88.1209C199.685 88.1755 198.924 88.9323 198.475 89.6274C198.015 90.3392 197.711 92.0811 197.641 92.5138C197.334 92.7088 197.005 92.9133 196.635 93.1316C195.983 93.5098 195.244 93.9311 194.41 94.3335C194.187 94.4408 193.944 94.548 193.711 94.6552C194.068 94.39 194.553 94.0189 194.596 93.9776C195.392 93.2156 196.492 91.264 195.973 90.1333C195.6 89.3186 194.623 89.1136 193.9 89.5582C193.163 90.0123 192.828 91.0438 192.742 91.8723C192.651 92.7373 193.183 94.4659 193.303 94.8431C192.782 95.0733 192.241 95.2977 191.664 95.4979C190.671 95.8438 189.596 96.1594 188.464 96.3349C188.401 96.3449 188.335 96.3473 188.271 96.3563C188.47 96.2562 189.522 95.6289 189.59 95.5762C190.463 94.9086 191.765 93.0927 191.371 91.9103C191.086 91.0585 190.138 90.7449 189.373 91.1055C188.59 91.4737 188.147 92.4607 187.972 93.2749C187.771 94.2135 188.21 96.2832 188.227 96.361C187.164 96.5115 186.062 96.5836 184.94 96.5916C184.125 96.5992 183.301 96.5717 182.473 96.5371C182.729 96.4009 183.706 95.8173 183.771 95.7665C184.644 95.0989 185.946 93.2835 185.552 92.101C185.268 91.2488 184.319 90.9352 183.553 91.2958C182.772 91.6645 182.328 92.6514 182.153 93.4657C181.957 94.3814 182.369 96.3667 182.405 96.5338C182.029 96.5176 181.653 96.5034 181.277 96.4839C180.048 96.4218 178.816 96.3535 177.598 96.325C177.177 96.3145 176.761 96.3207 176.344 96.325C176.721 96.1091 177.399 95.702 177.454 95.6602C178.326 94.9926 179.628 93.1767 179.234 91.9942C178.949 91.1425 178.001 90.8289 177.236 91.1895C176.454 91.5577 176.01 92.5451 175.836 93.3594C175.66 94.1769 175.972 95.8543 176.066 96.325C175.373 96.3368 174.684 96.3648 174.009 96.4251C173.718 96.4578 173.42 96.4716 173.142 96.519C172.862 96.5608 172.584 96.6021 172.309 96.6434C171.743 96.7478 171.216 96.8441 170.692 96.9556C170.426 97.0102 170.177 97.068 169.92 97.124C170.334 96.9641 170.986 96.6989 171.042 96.668C172.003 96.1432 173.559 94.5513 173.344 93.3209C173.189 92.4346 172.298 91.9776 171.488 92.2149C170.66 92.4573 170.076 93.3646 169.783 94.1418C169.46 94.9992 169.563 96.9594 169.577 97.1995C168.948 97.3409 168.337 97.4842 167.768 97.6294C165.965 98.0849 164.481 98.5338 163.446 98.8631C162.413 99.1928 161.822 99.4078 161.822 99.4078L161.818 99.4097L161.811 99.4121C161.589 99.4979 161.479 99.7518 161.563 99.9781C161.646 100.205 161.894 100.319 162.115 100.232C162.115 100.232 162.681 100.012 163.698 99.6626Z" fill="#E8F6FD"/>
<path d="M193.521 94.9279C193.521 94.9298 194.385 96.9374 195.102 97.5832C195.713 98.1336 196.64 98.6607 197.482 98.4833C198.308 98.3096 198.892 97.4811 198.629 96.6223C198.265 95.4294 196.167 94.7556 195.078 94.7471C194.984 94.7461 193.512 94.907 193.521 94.9279Z" fill="#E8F6FD"/>
<path d="M163.173 98.5077C163.833 97.6426 164.794 96.4184 166.011 95.0059C166.361 94.5973 166.738 94.1707 167.13 93.7361C167.315 93.8898 168.808 95.1126 169.675 95.3418C170.463 95.5492 171.522 95.5895 172.196 95.0405C172.856 94.5029 173.011 93.4941 172.398 92.8493C171.547 91.9544 169.378 92.3259 168.404 92.8222C168.341 92.854 167.644 93.3148 167.294 93.5582C167.532 93.2962 167.767 93.0353 168.019 92.7672C168.379 92.3786 168.772 91.9795 169.15 91.5904C169.353 91.3964 169.559 91.1999 169.766 91.0021C169.972 90.7975 170.191 90.6286 170.406 90.4369C170.727 90.1641 171.071 89.8993 171.413 89.6341C171.778 90.0336 172.866 91.1866 173.59 91.5036C174.337 91.8315 175.378 92.0355 176.126 91.5975C176.857 91.1691 177.16 90.1954 176.649 89.4628C175.94 88.4459 173.742 88.4768 172.705 88.816C172.671 88.8274 172.459 88.9223 172.209 89.0376C172.551 88.789 172.892 88.5394 173.248 88.2998C174.255 87.6184 175.301 86.957 176.347 86.2893C176.566 86.1508 176.781 86.0084 176.998 85.8685C177.303 86.2063 178.472 87.4656 179.23 87.7982C179.978 88.1261 181.019 88.3306 181.766 87.8922C182.497 87.4633 182.8 86.4901 182.289 85.7574C181.58 84.7411 179.382 84.7714 178.345 85.1107C178.308 85.123 178.055 85.2369 177.773 85.3674C178.337 84.9963 178.894 84.6191 179.435 84.2277C180.383 83.5439 181.28 82.8174 182.095 82.0435C182.201 82.1641 183.541 83.6692 184.384 84.0388C185.133 84.3662 186.174 84.5707 186.921 84.1328C187.652 83.7038 187.955 82.7306 187.444 81.998C186.735 80.9811 184.537 81.012 183.499 81.3512C183.426 81.3754 182.514 81.7949 182.194 81.9558L182.224 81.9287C183.072 81.1083 183.783 80.2177 184.417 79.3394C185.051 78.4639 185.575 77.5842 186.037 76.7629C186.501 75.9415 186.876 75.1609 187.202 74.4677C187.376 74.091 187.528 73.7427 187.667 73.4167L187.678 73.4409C187.687 73.4618 188.778 72.435 188.84 72.3624C189.553 71.5187 190.447 69.4594 189.815 68.3908C189.359 67.6207 188.368 67.5225 187.695 68.0425C187.008 68.574 186.78 69.6354 186.779 70.4691C186.779 71.3232 187.463 72.9474 187.638 73.3488C187.486 73.6843 187.322 74.0416 187.131 74.4326C186.791 75.1168 186.4 75.8865 185.921 76.6936C185.794 76.909 185.649 77.1353 185.512 77.3574C185.667 76.9341 185.871 76.35 185.885 76.2912C186.139 75.206 186.007 72.956 184.965 72.3059C184.215 71.8376 183.291 72.2191 182.927 72.9987C182.557 73.7944 182.832 74.844 183.205 75.5842C183.596 76.3567 184.97 77.4978 185.273 77.7441C184.962 78.2314 184.632 78.724 184.258 79.2174C183.616 80.0673 182.889 80.9389 182.04 81.7256C181.992 81.7693 181.938 81.8087 181.891 81.8523C182.003 81.6563 182.542 80.5384 182.57 80.4559C182.939 79.4058 183.049 77.1543 182.083 76.3913C181.387 75.8414 180.427 76.1166 179.983 76.8502C179.529 77.5999 179.691 78.6737 179.983 79.4518C180.32 80.3482 181.8 81.8257 181.855 81.8813C181.05 82.6077 180.171 83.291 179.238 83.9335C178.562 84.3999 177.86 84.8435 177.151 85.2825C177.291 85.0243 177.792 83.9847 177.82 83.9055C178.188 82.8554 178.298 80.6044 177.332 79.8409C176.636 79.291 175.677 79.5662 175.232 80.2998C174.778 81.0495 174.94 82.1237 175.232 82.9014C175.561 83.7764 176.973 85.1994 177.092 85.3185C176.77 85.5178 176.449 85.7176 176.125 85.9145C175.066 86.5574 174.003 87.1975 172.971 87.8623C172.614 88.0924 172.27 88.333 171.925 88.5721C172.123 88.1783 172.47 87.4557 172.493 87.3897C172.862 86.3396 172.971 84.0886 172.005 83.3252C171.31 82.7757 170.35 83.0504 169.905 83.7845C169.452 84.5337 169.613 85.608 169.905 86.3857C170.199 87.1672 171.361 88.3895 171.693 88.7292C171.121 89.1311 170.563 89.5434 170.032 89.9762C169.806 90.1674 169.565 90.3482 169.359 90.5446C169.147 90.7382 168.938 90.9295 168.731 91.1193C168.315 91.5273 167.928 91.9046 167.551 92.2946C167.358 92.4906 167.182 92.6789 166.997 92.872C167.256 92.5038 167.657 91.914 167.688 91.8562C168.207 90.8754 168.648 88.6671 167.806 87.7627C167.2 87.1112 166.211 87.2341 165.663 87.8903C165.104 88.5608 165.104 89.6478 165.278 90.4616C165.47 91.3593 166.611 92.9361 166.752 93.1283C166.303 93.6018 165.87 94.0668 165.474 94.5105C164.216 95.9093 163.22 97.1235 162.533 97.9833C161.849 98.8426 161.472 99.3561 161.472 99.3561L161.469 99.3599L161.465 99.366C161.327 99.5629 161.371 99.8372 161.562 99.9786C161.754 100.12 162.022 100.075 162.16 99.8785C162.16 99.8785 162.513 99.3746 163.173 98.5077Z" fill="#E8F6FD"/>
<path d="M185.499 77.6905C185.5 77.6914 187.301 78.8781 188.247 79.0115C189.052 79.1249 190.109 79.0404 190.717 78.4155C191.312 77.8039 191.353 76.7828 190.672 76.2148C189.726 75.4262 187.614 76.0506 186.701 76.6589C186.622 76.7111 185.48 77.6786 185.499 77.6905Z" fill="#E8F6FD"/>
<path d="M170.195 40.2266C164.456 51.0238 168.146 64.4374 168.146 64.4374C168.146 64.4374 181.142 60.3453 186.88 49.5486C192.62 38.7519 188.929 25.3383 188.929 25.3383C188.929 25.3383 175.934 29.4299 170.195 40.2266Z" fill="#E8F6FD"/>
<path d="M168.328 64.5399L189.111 25.4408L188.746 25.2368L167.963 64.3359" fill="white"/>
<path d="M181.737 39.1629L179.288 32.3728L178.898 32.5204L181.347 39.3104" fill="white"/>
<path d="M178.275 45.929L188.624 40.5709L188.436 40.1904L178.087 45.5484" fill="white"/>
<path d="M176.323 49.3496L172.782 39.1887L172.39 39.332L175.932 49.4929" fill="white"/>
<path d="M173.582 54.6875L183.716 52.2652L183.622 51.85L173.488 54.2723" fill="white"/>
<path d="M171.423 58.7285L168.388 51.4136L168.005 51.5807L171.041 58.8955" fill="white"/>
<path d="M155.564 53.6494C157.126 60.597 163.76 64.9604 163.76 64.9604C163.76 64.9604 167.862 58.0603 166.3 51.1127C164.739 44.1656 158.104 39.8021 158.104 39.8021C158.104 39.8021 154.002 46.7023 155.564 53.6494Z" fill="#E8F6FD"/>
<path d="M163.962 64.9128L158.306 39.7545L157.901 39.8503L163.557 65.0087" fill="white"/>
<path d="M160.213 48.5566L156.602 46.577L156.406 46.9528L160.017 48.9324" fill="white"/>
<path d="M161.289 52.969L163.768 46.5628L163.382 46.4057L160.903 52.8119" fill="white"/>
<path d="M161.688 55.1118L156.338 52.1006L156.138 52.4741L161.488 55.4852" fill="white"/>
<path d="M162.531 58.6382L166.018 53.5905L165.679 53.3442L162.192 58.3919" fill="white"/>
<path d="M163.076 61.1101L159.015 59.1338L158.837 59.5191L162.898 61.4954L163.076 61.1101Z" fill="white"/>
<path d="M180.407 58.7806C173.766 60.8959 170.016 68.0039 170.016 68.0039C170.016 68.0039 177.034 71.6827 183.676 69.5674C190.317 67.452 194.066 60.3441 194.066 60.3441C194.066 60.3441 187.048 56.6653 180.407 58.7806Z" fill="#E8F6FD"/>
<path d="M170.078 68.208L194.128 60.5482L194.004 60.1411L169.955 67.8009" fill="white"/>
<path d="M185.707 63.1533L187.363 59.3142L186.983 59.1419L185.327 62.9806" fill="white"/>
<path d="M181.496 64.5838L187.911 66.6398L188.035 66.2331L181.62 64.1771" fill="white"/>
<path d="M179.441 65.1506L181.971 59.4567L181.592 59.2802L179.063 64.9736" fill="white"/>
<path d="M176.073 66.2759L181.244 69.4645L181.458 69.0991L176.288 65.9105" fill="white"/>
<path d="M173.71 67.019L175.329 62.7192L174.941 62.5654L173.322 66.8653" fill="white"/>
<path d="M38.9208 70.7629L26.2804 78.0782L38.9208 85.5601L51.5613 78.0782L38.9208 70.7629Z" fill="#E8F6FD"/>
<path d="M28.8289 84.0285L16.1884 91.3438L28.8289 98.8257L41.4691 91.3438L28.8289 84.0285Z" fill="#E8F6FD"/>
<path d="M94.6917 81.0603L82.0513 88.3756L153.776 131.85L166.417 124.369L94.6917 81.0603Z" fill="#E8F6FD"/>
<path d="M82.7174 78.9533L75.7388 74.9149L57.9058 85.3614L64.9473 89.5294L82.7174 78.9533Z" fill="#2C4C62"/>
<path d="M140.398 164.647L126.77 157.016L108.937 167.462L122.628 175.222L140.398 164.647Z" fill="#2C4C62"/>
<path d="M7.79712 82.2474L0.661499 86.377L7.79712 90.6005L14.9329 86.377L7.79712 82.2474Z" fill="#E8F6FD"/>
<path d="M160.218 133.716L153.082 137.845L160.218 142.069L167.353 137.845L160.218 133.716Z" fill="#E8F6FD"/>
<path d="M180.144 132.654L173.008 136.784L180.144 141.008L187.279 136.784L180.144 132.654Z" fill="#E8F6FD"/>
<path d="M6.75427 122.069L84.8109 169.19L141.741 136.092L66.6025 87.5148L6.75427 122.069Z" fill="#2C4C62"/>
<path d="M180.374 113.818L165.503 122.424L180.374 131.226L195.245 122.424L180.374 113.818Z" fill="#E8F6FD"/>
<path d="M38.2796 76.2361C38.411 75.1467 38.6202 73.5899 38.9544 71.737C39.0493 71.2022 39.159 70.6371 39.277 70.0577C39.5135 70.0914 41.407 70.3528 42.2651 70.0914C43.0445 69.8541 43.9729 69.3298 44.2752 68.5037C44.5709 67.6952 44.1979 66.7476 43.3486 66.5184C42.1697 66.2 40.497 67.6624 39.9097 68.6024C39.8722 68.6627 39.5066 69.4252 39.3279 69.8186C39.4001 69.4684 39.4714 69.1206 39.5529 68.7576C39.6662 68.2342 39.8028 67.6852 39.9319 67.1524C40.0087 66.8786 40.0865 66.6019 40.1647 66.3225C40.2383 66.0392 40.342 65.7782 40.4299 65.5006C40.5678 65.0978 40.7298 64.6892 40.8909 64.2807C41.4037 64.4311 42.9153 64.8458 43.6952 64.7357C44.501 64.6223 45.4961 64.2484 45.9168 63.4788C46.3292 62.7248 46.0997 61.7307 45.2943 61.372C44.1761 60.8743 42.3067 62.0605 41.5875 62.8985C41.5643 62.9255 41.4306 63.1187 41.2732 63.3497C41.4421 62.9559 41.6092 62.5621 41.7934 62.1692C42.3155 61.0536 42.8811 59.9348 43.443 58.8102C43.5601 58.5763 43.6735 58.3405 43.7901 58.1056C44.2205 58.2347 45.8548 58.6987 46.6722 58.5834C47.4775 58.47 48.4731 58.0961 48.8938 57.326C49.3057 56.5725 49.0766 55.5784 48.2708 55.2197C47.1526 54.7219 45.2832 55.9077 44.5644 56.7457C44.5385 56.7756 44.3788 57.0071 44.203 57.2671C44.4996 56.6522 44.788 56.0349 45.0555 55.4133C45.5248 54.3272 45.9298 53.2311 46.2399 52.1378C46.3912 52.1848 48.2967 52.7684 49.2048 52.6403C50.0106 52.5269 51.0057 52.153 51.4264 51.3834C51.8383 50.6299 51.6097 49.6353 50.8039 49.2766C49.6857 48.7789 47.8158 49.9651 47.0971 50.8031C47.0462 50.8624 46.475 51.7027 46.2811 52.0102L46.2931 51.9713C46.6088 50.8202 46.7712 49.6814 46.874 48.5943C46.9781 47.5091 46.9864 46.4785 46.9693 45.5305C46.9554 44.5815 46.8855 43.7141 46.8175 42.9473C46.7772 42.5326 46.7333 42.1535 46.6884 41.8009L46.7097 41.8156C46.7282 41.8289 47.1489 40.3731 47.1651 40.2782C47.353 39.1788 47.086 36.9416 46.0075 36.3584C45.2309 35.9385 44.3312 36.3774 44.015 37.1784C43.6925 37.9964 44.0303 39.0265 44.4483 39.7416C44.8759 40.4747 46.2774 41.5067 46.6287 41.7582C46.668 42.1259 46.706 42.5188 46.7388 42.9544C46.7902 43.7212 46.842 44.5867 46.836 45.5319C46.8346 45.7834 46.8235 46.0548 46.818 46.3172C46.7384 45.8721 46.6208 45.2633 46.6032 45.2054C46.276 44.1411 45.0333 42.2816 43.8142 42.274C42.9362 42.2683 42.335 43.0825 42.4146 43.9428C42.4956 44.8211 43.2588 45.5755 43.9507 46.013C44.6727 46.4695 46.4236 46.7233 46.8073 46.7746C46.7851 47.3563 46.7495 47.9532 46.6763 48.5734C46.5528 49.6406 46.3667 50.7713 46.033 51.8944C46.0145 51.9566 45.9881 52.0187 45.9687 52.0814C45.9664 51.8546 45.8678 50.6114 45.8511 50.525C45.6396 49.4304 44.6038 47.4422 43.393 47.2975C42.5206 47.1926 41.8356 47.9347 41.8226 48.7983C41.8096 49.6809 42.4872 50.5165 43.1283 51.0294C43.8669 51.6206 45.878 52.1065 45.9539 52.125C45.628 53.1722 45.2161 54.2223 44.7389 55.2652C44.3936 56.0211 44.0146 56.7723 43.6267 57.5229C43.617 57.2273 43.5249 56.0719 43.5087 55.9893C43.2977 54.8947 42.2618 52.9065 41.0506 52.7613C40.1786 52.6569 39.4936 53.3991 39.4806 54.2626C39.4672 55.1447 40.1448 55.9808 40.7858 56.4937C41.5069 57.0702 43.4319 57.5452 43.5943 57.5846C43.418 57.9253 43.2435 58.266 43.0639 58.6062C42.4794 59.716 41.8879 60.8259 41.3375 61.9395C41.1469 62.3253 40.9728 62.713 40.796 63.1002C40.7687 62.6584 40.7035 61.8551 40.69 61.7872C40.479 60.6921 39.4432 58.7039 38.2319 58.5592C37.3595 58.4543 36.6749 59.1965 36.662 60.06C36.6486 60.9426 37.3262 61.7782 37.9672 62.2911C38.611 62.806 40.2212 63.2416 40.6766 63.3573C40.3883 64.0036 40.1157 64.6518 39.8778 65.3028C39.781 65.586 39.6639 65.8684 39.5862 66.1455C39.5019 66.4226 39.4182 66.6973 39.3358 66.9697C39.1844 67.5386 39.0414 68.0667 38.9137 68.5996C38.8475 68.8691 38.7906 69.1244 38.729 69.3863C38.7665 68.9346 38.8142 68.2176 38.8114 68.1517C38.7646 67.0366 38.0343 64.9104 36.8587 64.5792C36.0122 64.3405 35.2253 64.9673 35.0851 65.819C34.9416 66.6888 35.4878 67.6207 36.0455 68.2271C36.6606 68.8957 38.43 69.6458 38.6471 69.736C38.5004 70.3785 38.3629 71.0058 38.2453 71.5951C37.8686 73.4584 37.6238 75.0248 37.4673 76.1242C37.3113 77.2221 37.2461 77.8608 37.2461 77.8608L37.2452 77.8665L37.2447 77.8736C37.2253 78.1151 37.4002 78.3272 37.6358 78.3472C37.8714 78.3676 38.0783 78.1877 38.0977 77.9462C38.0977 77.9462 38.1477 77.328 38.2796 76.2361Z" fill="#E8F6FD"/>
<path d="M46.9756 46.6092C46.9774 46.6092 49.1167 46.677 49.9947 46.2922C50.7421 45.9648 51.6058 45.3342 51.8131 44.4782C52.0163 43.6397 51.5396 42.743 50.6704 42.6153C49.4633 42.4379 47.9656 44.0877 47.4879 45.0903C47.4467 45.1771 46.9534 46.6087 46.9756 46.6092Z" fill="#E8F6FD"/>
<path d="M37.0364 76.2217C36.5596 75.2385 35.8969 73.8222 35.1781 72.0874C34.9698 71.5878 34.7574 71.0544 34.544 70.504C34.7592 70.3991 36.4791 69.546 37.0544 68.8428C37.5765 68.2041 38.0689 67.2414 37.8764 66.3816C37.688 65.5393 36.867 64.9609 36.0352 65.2499C34.8805 65.6508 34.2723 67.8169 34.2885 68.9325C34.2899 69.0041 34.395 69.8473 34.4574 70.2762C34.3297 69.9432 34.202 69.6129 34.0747 69.2641C33.8872 68.7635 33.7058 68.2283 33.5267 67.7106C33.4434 67.4388 33.3596 67.1645 33.2749 66.8869C33.1833 66.6088 33.1296 66.3327 33.0537 66.0513C32.9517 65.6376 32.867 65.2048 32.7812 64.773C33.2897 64.6089 34.774 64.0997 35.3655 63.5668C35.976 63.0169 36.605 62.1415 36.542 61.2617C36.48 60.4001 35.7538 59.7002 34.8893 59.8568C33.6887 60.0741 32.7673 62.1206 32.6185 63.2262C32.6138 63.2622 32.6059 63.499 32.5994 63.7799C32.5285 63.3562 32.456 62.9334 32.3981 62.5016C32.2331 61.2764 32.1023 60.0228 31.9664 58.7673C31.9379 58.5054 31.9058 58.2449 31.8763 57.9834C32.3052 57.8473 33.9178 57.3101 34.5375 56.7516C35.1485 56.2017 35.7774 55.3267 35.714 54.447C35.652 53.5853 34.9263 52.8854 34.0613 53.042C32.8606 53.2589 31.9393 55.3059 31.7907 56.411C31.7854 56.4508 31.7766 56.7336 31.7695 57.0501C31.6862 56.3692 31.5947 55.6916 31.4835 55.0216C31.2904 53.8506 31.0382 52.7075 30.7088 51.62C30.8603 51.5735 32.7635 50.9827 33.4522 50.3625C34.0631 49.8121 34.6921 48.9372 34.6287 48.0574C34.5667 47.1957 33.8409 46.4963 32.976 46.6524C31.7753 46.8698 30.854 48.9163 30.7054 50.0218C30.6947 50.1001 30.6708 51.1246 30.6743 51.4904L30.6636 51.451C30.3071 50.3127 29.8298 49.2707 29.3304 48.3056C28.8336 47.3419 28.2856 46.4778 27.7618 45.6963C27.2393 44.9125 26.7143 44.2292 26.245 43.628C25.9882 43.3049 25.7478 43.0135 25.5203 42.7445L25.5462 42.745C25.5684 42.7454 25.136 41.2935 25.0984 41.2047C24.6636 40.1817 23.2371 38.4669 22.0239 38.5907C21.1498 38.6795 20.6358 39.5544 20.8032 40.4009C20.9743 41.2659 21.8108 41.9336 22.5436 42.2942C23.2949 42.6633 25.0193 42.7317 25.4477 42.7431C25.6781 43.0273 25.9213 43.3338 26.1831 43.6783C26.6385 44.2885 27.1473 44.9817 27.651 45.7732C27.7857 45.9839 27.9222 46.2159 28.0585 46.4384C27.753 46.1125 27.3274 45.6707 27.2813 45.6323C26.4357 44.93 24.3985 44.0816 23.3777 44.7644C22.6421 45.2565 22.5788 46.2762 23.1082 46.9485C23.6488 47.6351 24.691 47.8325 25.5037 47.8059C26.3516 47.7784 27.9484 47.0003 28.2961 46.8261C28.5904 47.3234 28.8818 47.8415 29.1547 48.4C29.626 49.3599 30.0792 50.4086 30.4052 51.5336C30.4233 51.5962 30.4345 51.6636 30.4522 51.7262C30.3284 51.5383 29.5768 50.5576 29.5166 50.4949C28.7515 49.7016 26.8174 48.6287 25.7295 49.1929C24.9456 49.5991 24.7735 50.605 25.2276 51.3329C25.6912 52.076 26.7062 52.3905 27.5169 52.4555C28.4509 52.5305 30.39 51.7988 30.4631 51.7708C30.7551 52.829 30.9764 53.9379 31.1395 55.0776C31.2586 55.9032 31.3463 56.7445 31.4266 57.5891C31.2598 57.3486 30.5609 56.437 30.5032 56.3773C29.7381 55.5834 27.804 54.5111 26.7161 55.0752C25.9322 55.4814 25.7603 56.4874 26.2143 57.2152C26.678 57.9583 27.693 58.2724 28.5034 58.3374C29.4154 58.411 31.2765 57.7182 31.433 57.6594C31.4692 58.0432 31.5072 58.4261 31.5405 58.811C31.6498 60.0674 31.754 61.3277 31.8943 62.568C31.9427 62.9979 32.006 63.4193 32.0674 63.8421C31.8064 63.489 31.3199 62.8565 31.2722 62.8067C30.5067 62.0129 28.5729 60.941 27.4847 61.5047C26.7009 61.9109 26.529 62.9173 26.983 63.6447C27.4467 64.3882 28.4617 64.7018 29.2722 64.7673C30.0863 64.8328 31.6636 64.2848 32.1056 64.1244C32.213 64.8266 32.3349 65.5208 32.4862 66.1989C32.5578 66.4897 32.6126 66.7911 32.6966 67.0663C32.7756 67.3453 32.8539 67.6219 32.9313 67.8952C33.1111 68.4556 33.2758 68.9771 33.4563 69.4938C33.5457 69.7562 33.6359 70.001 33.7257 70.2544C33.5137 69.8563 33.168 69.2309 33.13 69.1778C32.4907 68.2743 30.7377 66.914 29.579 67.3026C28.7439 67.582 28.4254 68.55 28.7665 69.3401C29.1151 70.1467 30.0718 70.6146 30.8636 70.8048C31.7362 71.015 33.6155 70.6397 33.8456 70.5923C34.0687 71.2115 34.2917 71.8122 34.5102 72.3702C35.1989 74.1372 35.8381 75.5826 36.2991 76.588C36.7596 77.5916 37.0489 78.1614 37.0489 78.1614L37.0512 78.1662L37.0549 78.1728C37.1683 78.3854 37.4284 78.4632 37.6357 78.3465C37.8431 78.2302 37.919 77.9636 37.8051 77.751C37.8051 77.751 37.514 77.2067 37.0364 76.2217Z" fill="#E8F6FD"/>
<path d="M28.3473 46.5932C28.3488 46.5922 30.1694 45.4387 30.6947 44.6216C31.142 43.9256 31.5234 42.9116 31.2357 42.0798C30.9538 41.2655 30.0735 40.7872 29.2797 41.1721C28.1777 41.7063 27.8161 43.9298 27.9575 45.0368C27.9698 45.1322 28.3283 46.6055 28.3473 46.5932Z" fill="#E8F6FD"/>
<path d="M108.371 153.333L106.841 153.02L106.459 152.235L108.906 150.824C108.906 150.824 109.672 150.902 110.131 152.235C110.589 153.569 108.371 153.333 108.371 153.333Z" fill="white"/>
<path d="M108.372 153.333L108.412 153.124L106.982 152.831L106.734 152.322L109.009 151.01L108.907 150.824L108.886 151.036L108.898 150.911L108.883 151.036H108.886L108.898 150.911L108.883 151.036L108.908 151.04C109.028 151.076 109.561 151.236 109.935 152.306C109.971 152.413 109.986 152.5 109.985 152.57C109.984 152.691 109.95 152.762 109.888 152.834C109.795 152.94 109.607 153.027 109.388 153.074C109.17 153.122 108.928 153.136 108.738 153.136C108.636 153.136 108.548 153.132 108.486 153.128C108.425 153.124 108.393 153.121 108.393 153.121L108.372 153.333L108.35 153.545C108.356 153.545 108.513 153.562 108.738 153.562C109.017 153.561 109.397 153.539 109.735 153.415C109.904 153.353 110.066 153.263 110.193 153.124C110.321 152.986 110.403 152.79 110.401 152.57C110.401 152.443 110.376 152.307 110.327 152.164C110.087 151.464 109.754 151.07 109.47 150.857C109.185 150.644 108.955 150.614 108.928 150.611L108.862 150.605L106.185 152.149L106.701 153.208L108.341 153.544L108.35 153.545L108.372 153.333Z" fill="#2E2D2D"/>
<path d="M66.6026 87.5146L6.75427 122.069L83.3105 166.824L142.72 131.906L66.6026 87.5146Z" fill="white"/>
<path d="M66.6023 87.5142L66.5 87.3287L6.3324 122.067L83.3106 167.069L143.139 131.905L66.6027 87.2694L66.5 87.3287L66.6023 87.5142L66.4995 87.6993L142.301 131.906L83.3097 166.579L7.17582 122.07L66.7041 87.6998L66.6023 87.5142Z" fill="#2E2D2D"/>
<path d="M24.7429 122.096L41.5968 112.121L66.8778 126.918L50.0241 136.894L24.7429 122.096Z" fill="#1262A1"/>
<path d="M64.3063 99.1616L66.9806 97.592C67.0801 97.5336 67.1148 97.4031 67.0574 97.3011C67.0005 97.1991 66.8737 97.1635 66.7737 97.2219L64.0999 98.7915C64.0004 98.8499 63.9657 98.9804 64.0226 99.0824C64.08 99.1844 64.2068 99.22 64.3063 99.1616Z" fill="#2E2D2D"/>
<path d="M50.1273 107.485L63.1117 99.8635C63.2112 99.8051 63.246 99.6746 63.189 99.5726C63.1316 99.4706 63.0048 99.435 62.9053 99.4934L49.9205 107.115C49.821 107.174 49.7862 107.304 49.8436 107.406C49.9006 107.508 50.0274 107.544 50.1273 107.485Z" fill="#2E2D2D"/>
<path d="M54.3415 110.077L71.1952 100.086C71.2947 100.027 71.3285 99.8967 71.2711 99.7947C71.2137 99.6926 71.0865 99.658 70.987 99.7169L54.1333 109.707C54.0338 109.766 54 109.897 54.0574 109.999C54.1148 110.1 54.242 110.135 54.3415 110.077Z" fill="#2E2D2D"/>
<path d="M65.0014 108.439L74.8422 102.537C74.9412 102.478 74.9746 102.347 74.9167 102.246C74.8584 102.144 74.7311 102.11 74.6321 102.169L64.7913 108.071C64.6922 108.131 64.6589 108.261 64.7172 108.363C64.7751 108.464 64.9023 108.498 65.0014 108.439Z" fill="#2E2D2D"/>
<path d="M58.5555 112.306L62.7793 109.772C62.8784 109.713 62.9122 109.582 62.8539 109.481C62.796 109.379 62.6687 109.345 62.5697 109.404L58.3458 111.938C58.2468 111.997 58.2135 112.128 58.2713 112.229C58.3292 112.331 58.4565 112.365 58.5555 112.306Z" fill="#2E2D2D"/>
<path d="M94.5681 120.725L100.69 117.112C100.789 117.053 100.823 116.923 100.766 116.821C100.709 116.719 100.582 116.684 100.482 116.743L94.3608 120.356C94.2613 120.415 94.227 120.545 94.2844 120.647C94.3418 120.749 94.4686 120.784 94.5681 120.725Z" fill="#2E2D2D"/>
<path d="M87.2837 125.025L92.3564 122.031C92.4559 121.972 92.4901 121.842 92.4332 121.74C92.3758 121.638 92.2486 121.603 92.149 121.662L87.0764 124.656C86.9768 124.715 86.9426 124.845 87 124.947C87.0574 125.049 87.1842 125.084 87.2837 125.025Z" fill="#2E2D2D"/>
<path d="M67.1341 136.919L85.3883 126.144C85.4878 126.085 85.5221 125.955 85.4647 125.853C85.4077 125.751 85.2804 125.716 85.1809 125.775L66.9267 136.55C66.8272 136.608 66.793 136.739 66.8499 136.841C66.9073 136.943 67.0346 136.978 67.1341 136.919Z" fill="#2E2D2D"/>
<path d="M58.5544 141.984L65.2202 138.049C65.3197 137.99 65.354 137.86 65.2966 137.758C65.2392 137.656 65.1123 137.621 65.0128 137.68L58.3466 141.614C58.2471 141.673 58.2129 141.803 58.2703 141.905C58.3277 142.007 58.4549 142.042 58.5544 141.984Z" fill="#2E2D2D"/>
<path d="M97.4036 124.181L104.902 119.787C105.001 119.729 105.036 119.599 104.979 119.497C104.922 119.394 104.795 119.359 104.695 119.418L97.1972 123.811C97.0977 123.869 97.063 124 97.1199 124.102C97.1768 124.204 97.3041 124.239 97.4036 124.181Z" fill="#2E2D2D"/>
<path d="M92.0582 127.313L95.3818 125.366C95.4813 125.308 95.516 125.178 95.4591 125.075C95.4022 124.973 95.2749 124.938 95.1754 124.996L91.8518 126.943C91.7522 127.002 91.7175 127.132 91.7745 127.234C91.8314 127.336 91.9587 127.372 92.0582 127.313Z" fill="#2E2D2D"/>
<path d="M86.1679 130.766L90.6167 128.159C90.7162 128.101 90.7509 127.971 90.694 127.868C90.637 127.766 90.5098 127.731 90.4102 127.789L85.9615 130.396C85.8615 130.454 85.8272 130.585 85.8842 130.687C85.9411 130.789 86.0679 130.824 86.1679 130.766Z" fill="#2E2D2D"/>
<path d="M62.7669 144.478L83.6177 132.26C83.7172 132.202 83.7519 132.071 83.695 131.969C83.638 131.867 83.5107 131.832 83.4112 131.89L62.5605 144.108C62.461 144.166 62.4263 144.296 62.4832 144.399C62.5401 144.501 62.6674 144.536 62.7669 144.478Z" fill="#2E2D2D"/>
<path d="M105.324 124.496L109.115 122.282C109.215 122.224 109.25 122.094 109.193 121.992C109.136 121.889 109.009 121.853 108.909 121.912L105.118 124.126C105.018 124.184 104.983 124.314 105.04 124.417C105.097 124.519 105.224 124.554 105.324 124.496Z" fill="#2E2D2D"/>
<path d="M75.212 142.081L103.616 125.493C103.716 125.435 103.751 125.305 103.694 125.203C103.637 125.101 103.51 125.065 103.411 125.123L75.006 141.711C74.906 141.769 74.8713 141.9 74.9283 142.002C74.9852 142.104 75.112 142.14 75.212 142.081Z" fill="#2E2D2D"/>
<path d="M66.9803 146.888L73.9978 142.79C74.0973 142.732 74.132 142.601 74.0751 142.499C74.0186 142.397 73.8914 142.361 73.7919 142.42L66.7743 146.517C66.6748 146.576 66.6397 146.706 66.6966 146.808C66.7535 146.911 66.8803 146.946 66.9803 146.888Z" fill="#2E2D2D"/>
<path d="M90.1627 138.267L113.329 124.692C113.428 124.633 113.463 124.503 113.406 124.401C113.349 124.299 113.223 124.263 113.123 124.322L89.9562 137.897C89.8567 137.955 89.822 138.085 89.879 138.188C89.9359 138.29 90.0632 138.325 90.1627 138.267Z" fill="#2E2D2D"/>
<path d="M75.0407 147.129L88.7559 139.092C88.8559 139.033 88.8906 138.903 88.8332 138.801C88.7763 138.699 88.6494 138.663 88.5499 138.722L74.8343 146.759C74.7343 146.817 74.7001 146.947 74.757 147.049C74.8139 147.151 74.9407 147.187 75.0407 147.129Z" fill="#2E2D2D"/>
<path d="M71.1943 149.382L73.5806 147.984C73.6806 147.925 73.7148 147.795 73.6579 147.693C73.601 147.591 73.4742 147.555 73.3742 147.614L70.9883 149.012C70.8883 149.07 70.8536 149.2 70.911 149.303C70.9679 149.405 71.0947 149.44 71.1943 149.382Z" fill="#2E2D2D"/>
<path d="M116.355 127.882L117.542 127.186C117.642 127.128 117.677 126.998 117.62 126.896C117.563 126.794 117.436 126.758 117.336 126.816L116.149 127.512C116.049 127.57 116.015 127.701 116.072 127.803C116.129 127.905 116.256 127.94 116.355 127.882Z" fill="#2E2D2D"/>
<path d="M103.607 135.352L114.333 129.067C114.432 129.009 114.467 128.879 114.41 128.776C114.353 128.674 114.227 128.639 114.127 128.697L103.4 134.982C103.301 135.041 103.266 135.171 103.323 135.273C103.38 135.376 103.507 135.411 103.607 135.352Z" fill="#2E2D2D"/>
<path d="M86.076 145.625L101.568 136.547C101.667 136.489 101.702 136.359 101.645 136.257C101.588 136.155 101.461 136.119 101.361 136.177L85.8696 145.255C85.7701 145.313 85.7354 145.443 85.7923 145.546C85.8492 145.648 85.976 145.683 86.076 145.625Z" fill="#2E2D2D"/>
<path d="M75.408 151.876L83.5965 147.078C83.696 147.02 83.7307 146.89 83.6738 146.787C83.6169 146.685 83.4896 146.65 83.3901 146.708L75.2016 151.506C75.1021 151.565 75.0674 151.695 75.1243 151.797C75.1812 151.899 75.3085 151.935 75.408 151.876Z" fill="#2E2D2D"/>
<path d="M67.8169 37.8025L71.4793 38.7453L72.6401 42.762L68.1085 41.2459L67.8169 37.8025Z" fill="white"/>
<path d="M67.817 37.8026L67.779 37.9577L71.3553 38.8783L72.4064 42.5158L68.2553 41.1269L67.9725 37.7888L67.817 37.8026L67.6619 37.8168L67.9535 41.2598C67.9586 41.3238 68.0007 41.3779 68.0604 41.3978L72.592 42.9139C72.6466 42.9324 72.7077 42.9177 72.7489 42.8768C72.7906 42.8356 72.8063 42.7734 72.7897 42.7165L71.6289 38.6999C71.6131 38.6458 71.571 38.604 71.5173 38.5902L67.8549 37.6479C67.8058 37.6351 67.7545 37.6474 67.7161 37.6811C67.6776 37.7148 67.6573 37.7651 67.6619 37.8168L67.817 37.8026Z" fill="#2E2D2D"/>
<path d="M122.955 12.793C123.191 11.1346 122.411 9.49762 120.991 8.66724L106.581 0.250587C105.449 -0.410858 104.022 0.302803 103.834 1.62476C103.646 2.94624 102.22 3.66035 101.088 2.9989L99.7541 2.21976L87.9578 85.1297L158.734 126.439L176.428 47.0066L124.918 16.9188C123.498 16.0893 122.719 14.4518 122.955 12.793Z" fill="#2E2D2D"/>
<path d="M87.9578 8.8409V85.1297L158.734 126.439L164.632 53.7578L87.9578 8.8409Z" fill="#1262A1"/>
<path d="M87.9581 8.84048H87.7502V85.2531L158.914 126.789L164.85 53.6397L87.7502 8.47324V8.84048H87.9581L87.8553 9.02556L164.414 53.875L158.554 126.088L88.1663 85.0054V8.84048H87.9581Z" fill="#2E2D2D"/>
<path d="M158.942 114.736V57.4566L88.1665 15.9139V13.9239L159.814 55.2777L158.942 114.736Z" fill="#6DADDF"/>
<path d="M88.1685 15.9141L88.0608 15.8514L87.8896 13.7646L88.1685 13.924V15.9141Z" fill="#1262A1"/>
<path d="M87.9582 85.1297L82.0608 12.5762L158.734 57.5804V126.439L87.9582 85.1297Z" fill="white"/>
<path d="M87.9585 85.1298L88.1658 85.1123L82.3008 12.963L158.526 57.7039V126.072L88.0617 84.9448L87.9585 85.1298L87.8557 85.3154L158.943 126.805V57.4571L81.8208 12.1901L87.7604 85.2594L87.8557 85.3154L87.9585 85.1298Z" fill="#2E2D2D"/>
<path d="M157.531 110.767L153.033 60.8524L82.9029 20.3749L82.7937 19.0278L154.499 60.4149L157.531 110.767Z" fill="#144D7B"/>
<path d="M82.9056 20.375L82.685 20.2488L82.575 18.9017L82.7955 19.0279L82.9056 20.375Z" fill="#1262A1"/>
<path d="M87.9577 85.1297L76.1624 16.7295L152.836 60.9839L158.734 126.439L87.9577 85.1297Z" fill="white"/>
<path d="M87.9576 85.1293L88.1626 85.0923L76.4432 17.1362L152.639 61.1145L158.49 126.051L88.0608 84.9443L87.9576 85.1293L87.8549 85.3149L158.977 126.826L153.033 60.8526L75.8809 16.3224L87.7702 85.265L87.8549 85.3149L87.9576 85.1293Z" fill="#2E2D2D"/>
<path d="M91.7917 87.1427L81.2312 25.9078L149.873 65.5265L156.728 124.61L91.7917 87.1427Z" fill="#1262A1"/>
<path d="M91.7919 87.1426L91.9964 87.1056L81.5128 26.3149L149.679 65.6588L156.474 124.218L91.8937 86.9566L91.7919 87.1426L91.6896 87.3282L156.984 125.002L150.067 65.3936L80.95 25.5007L91.6039 87.2788L91.6896 87.3282L91.7919 87.1426Z" fill="#2E2D2D"/>
<path d="M158.261 123.499L156.704 122.592L155.743 114.311L158.241 123.286L158.261 123.499Z" fill="#144D7B"/>
<path d="M158.306 123.526L158.26 123.499L158.24 123.286L158.306 123.526Z" fill="#1262A1"/>
<path d="M91.1051 84.3864L89.1728 83.2613L86.7452 76.8732L78.4392 28.7069L81.8466 30.7012L91.1051 84.3864Z" fill="#144D7B"/>
<path d="M86.7455 76.873L86.359 75.8562L78.2043 28.5692L78.4395 28.7068L86.7455 76.873Z" fill="#1262A1"/>
<path d="M156.255 122.33L91.5747 84.6596L82.3167 30.9759L142.321 66.0977L155.025 111.731L156.255 122.33Z" fill="#6DADDF"/>
<path d="M156.704 122.591L156.254 122.33L155.024 111.731L155.743 114.31L156.704 122.591ZM91.5743 84.6592L91.105 84.3858L81.8464 30.7007L82.3162 30.9755L91.5743 84.6592Z" fill="#1262A1"/>
<path d="M64.3667 23.0493L141.107 67.9662L158.734 126.439L87.9583 85.1297L64.3667 23.0493Z" fill="#2E2D2D"/>
<path d="M64.3663 23.0491L64.2636 23.2342L140.932 68.1093L158.38 125.987L88.125 84.9819L64.5602 22.9718L64.3663 23.0491L64.1728 23.1265L87.7913 85.2776L159.088 126.891L141.281 67.8227L63.9595 22.5656L64.1728 23.1265L64.3663 23.0491Z" fill="#2E2D2D"/>
<path d="M69.851 41.6879C69.851 41.6879 69.8441 41.6376 69.8371 41.5437C69.8297 41.4497 69.8228 41.3145 69.8228 41.1512C69.8223 40.6203 69.9006 39.7913 70.2926 39.1133C70.3217 39.0625 70.3055 38.9975 70.256 38.9676C70.2065 38.9372 70.1426 38.9543 70.1135 39.0051C69.6918 39.7387 69.6155 40.5999 69.615 41.1512C69.615 41.491 69.6446 41.7135 69.6451 41.7173C69.6529 41.7757 69.7057 41.8165 69.7622 41.8084C69.8191 41.8004 69.8589 41.7463 69.851 41.6879Z" fill="#2E2D2D"/>
<path d="M119.79 133.337C119.79 133.337 118.795 132.552 118.948 133.729C119.101 134.905 119.79 135.768 120.478 135.846C121.166 135.925 121.166 135.297 121.166 135.297L119.79 133.337Z" fill="white"/>
<path d="M119.79 133.337L119.917 133.168C119.911 133.164 119.824 133.095 119.697 133.023C119.569 132.952 119.408 132.871 119.216 132.868C119.097 132.865 118.947 132.914 118.853 133.039C118.759 133.161 118.725 133.317 118.725 133.506C118.725 133.583 118.73 133.666 118.742 133.757C118.824 134.38 119.045 134.923 119.347 135.329C119.649 135.733 120.034 136.009 120.456 136.058C120.503 136.064 120.549 136.066 120.593 136.066C120.769 136.067 120.919 136.022 121.036 135.946C121.211 135.833 121.296 135.665 121.335 135.538C121.374 135.409 121.374 135.312 121.375 135.298V135.229L119.941 133.187L119.917 133.168L119.79 133.337L119.621 133.462L120.998 135.422L121.167 135.298H120.959H120.994L120.959 135.296V135.298H120.994L120.959 135.296C120.96 135.307 120.95 135.414 120.902 135.492C120.879 135.531 120.849 135.565 120.805 135.592C120.761 135.618 120.697 135.639 120.593 135.64L120.501 135.634C120.234 135.606 119.931 135.411 119.678 135.07C119.425 134.731 119.226 134.254 119.155 133.701C119.144 133.625 119.14 133.56 119.14 133.506C119.14 133.37 119.169 133.313 119.178 133.305L119.216 133.294C119.272 133.291 119.399 133.338 119.495 133.396C119.544 133.424 119.588 133.452 119.618 133.473L119.653 133.499L119.663 133.506L119.79 133.337Z" fill="#2E2D2D"/>
<path d="M126.597 131.846C126.597 131.846 127.438 131.062 127.592 132.238C127.744 133.415 127.286 134.591 126.827 134.591C126.368 134.591 126.597 131.846 126.597 131.846Z" fill="white"/>
<path d="M126.597 131.847L126.737 132.005L126.745 131.999C126.766 131.98 126.831 131.926 126.909 131.881C126.987 131.835 127.078 131.803 127.136 131.804C127.187 131.807 127.209 131.812 127.254 131.863C127.298 131.915 127.357 132.039 127.386 132.268C127.405 132.415 127.414 132.563 127.414 132.709C127.414 133.18 127.319 133.627 127.183 133.939C127.116 134.095 127.039 134.217 126.97 134.29C126.899 134.364 126.848 134.38 126.827 134.379V134.464L126.882 134.397L126.827 134.379V134.464L126.882 134.397L126.865 134.418L126.884 134.399L126.882 134.397L126.865 134.418L126.884 134.399L126.868 134.372C126.834 134.305 126.796 134.134 126.777 133.926C126.756 133.718 126.748 133.469 126.748 133.219C126.748 132.882 126.762 132.543 126.776 132.288C126.79 132.034 126.804 131.866 126.804 131.866L126.597 131.847L126.39 131.829C126.39 131.832 126.332 132.522 126.332 133.219C126.332 133.569 126.346 133.919 126.392 134.199C126.417 134.34 126.447 134.463 126.5 134.571C126.528 134.626 126.562 134.678 126.616 134.725C126.668 134.771 126.747 134.806 126.827 134.805C127.005 134.804 127.152 134.709 127.268 134.587C127.443 134.4 127.575 134.131 127.674 133.807C127.771 133.484 127.83 133.106 127.83 132.709C127.83 132.545 127.819 132.379 127.798 132.211C127.762 131.935 127.691 131.735 127.573 131.589C127.456 131.442 127.283 131.375 127.136 131.378C126.938 131.38 126.778 131.464 126.659 131.537C126.541 131.612 126.464 131.684 126.458 131.69L126.397 131.746L126.39 131.829L126.597 131.847Z" fill="#2E2D2D"/>
<path d="M122.161 136.944L123.002 139.375C123.002 139.375 123.997 139.767 124.991 139.453C125.986 139.139 126.98 137.963 126.98 137.963L126.291 135.376L122.161 136.944Z" fill="white"/>
<path d="M122.161 136.944L121.965 137.016L122.838 139.539L122.927 139.575C122.942 139.579 123.468 139.788 124.161 139.789C124.439 139.789 124.744 139.755 125.052 139.658C125.599 139.483 126.109 139.094 126.495 138.752C126.879 138.408 127.132 138.108 127.136 138.103L127.209 138.017L126.432 135.095L121.896 136.818L121.965 137.016L122.161 136.944L122.233 137.145L126.15 135.657L126.779 138.02L126.98 137.964L126.822 137.824L126.781 137.871C126.684 137.981 126.421 138.265 126.081 138.553C125.741 138.841 125.321 139.128 124.93 139.25C124.67 139.332 124.406 139.362 124.161 139.362C123.856 139.362 123.581 139.315 123.385 139.268C123.286 139.244 123.207 139.221 123.154 139.204L123.094 139.183L123.076 139.176L123.002 139.375L123.198 139.304L122.357 136.873L122.161 136.944Z" fill="#2E2D2D"/>
<path d="M122.311 137.262C121.126 136.268 120.218 134.508 119.79 133.337C119.101 131.454 117.953 129.729 118.565 128.945C119.178 128.161 120.172 128.789 120.172 128.789C120.172 128.789 119.024 127.142 121.396 126.201C123.767 125.259 126.367 125.495 126.138 126.514C125.909 127.533 125.602 128.004 125.985 128.083C126.367 128.161 127.591 127.847 127.438 129.102C127.285 130.357 126.521 131.141 126.521 131.376C126.521 131.611 126.903 133.022 126.75 134.199C126.444 136.556 124.916 139.447 122.311 137.262Z" fill="#2E2D2D"/>
<path d="M112.416 166.679C112.416 166.679 114.918 168.199 117.605 169.624C120.293 171.049 130.941 175.808 130.941 175.808L132.053 174.383L122.146 165.254C122.146 165.254 114.64 163.544 112.416 166.679Z" fill="#2E2D2D"/>
<path d="M122.609 157.179C122.609 157.179 118.902 157.085 118.995 158.129C119.087 159.174 123.813 160.694 124.832 160.694C125.852 160.694 125.296 158.129 125.296 158.129L122.609 157.179Z" fill="white"/>
<path d="M122.609 157.179L122.614 156.966C122.613 156.966 122.523 156.964 122.373 156.964C121.966 156.964 121.114 156.98 120.349 157.106C119.966 157.169 119.604 157.258 119.318 157.398C119.175 157.469 119.049 157.554 118.95 157.666C118.852 157.778 118.784 157.928 118.785 158.091L118.788 158.149C118.809 158.36 118.928 158.531 119.084 158.691C119.362 158.969 119.791 159.231 120.303 159.486C121.071 159.866 122.02 160.218 122.867 160.477C123.29 160.607 123.688 160.714 124.025 160.788C124.363 160.863 124.635 160.906 124.832 160.907C124.995 160.908 125.147 160.855 125.262 160.76C125.437 160.618 125.528 160.413 125.583 160.196C125.637 159.977 125.655 159.736 125.655 159.495C125.654 158.796 125.5 158.091 125.499 158.083L125.473 157.966L122.646 156.967L122.614 156.966L122.609 157.179L122.541 157.381L125.228 158.33L125.296 158.129L125.093 158.175C125.093 158.175 125.102 158.215 125.115 158.289C125.157 158.509 125.24 159.018 125.239 159.495C125.24 159.786 125.206 160.064 125.131 160.241C125.095 160.329 125.051 160.389 125.006 160.425C124.961 160.46 124.914 160.48 124.832 160.481C124.621 160.483 124.133 160.391 123.556 160.234C122.686 159.999 121.583 159.619 120.7 159.206C120.259 159 119.873 158.784 119.603 158.582C119.469 158.481 119.364 158.383 119.297 158.299C119.229 158.215 119.204 158.147 119.201 158.11L119.201 158.091C119.202 158.042 119.215 158.004 119.26 157.95C119.339 157.855 119.533 157.747 119.791 157.668C120.567 157.422 121.856 157.388 122.373 157.39C122.519 157.39 122.603 157.392 122.603 157.392L122.609 157.179Z" fill="#2E2D2D"/>
<path d="M122.516 152.999C122.516 152.999 122.516 157.464 122.979 157.939C123.442 158.414 124.555 158.889 125.111 158.509C125.666 158.129 125.945 156.229 125.945 156.229C125.945 156.229 124.276 151.764 122.516 152.999Z" fill="#2E2D2D"/>
<path d="M125.018 159.649C125.018 159.649 113.528 162.214 112.787 163.164C112.045 164.114 111.582 165.539 112.416 166.679C113.25 167.819 126.686 167.154 128.725 166.964C130.763 166.774 132.246 165.729 133.636 164.305C135.025 162.88 136.045 161.264 135.674 158.794C135.371 156.772 134.562 155.565 134.562 155.565L124.991 157.568L125.018 159.649Z" fill="#2E2D2D"/>
<path d="M125.316 159.785C125.313 159.834 125.358 161.158 128.428 162.511L128.51 162.316C126.996 161.646 126.249 160.997 125.882 160.527C125.699 160.291 125.609 160.1 125.566 159.971C125.544 159.906 125.533 159.857 125.528 159.825L125.524 159.791L125.524 159.784L125.513 159.785H125.524V159.784L125.513 159.785H125.524H125.316Z" fill="white"/>
<path d="M124.97 160.276L124.968 160.338C124.969 160.627 125.023 161.892 125.964 163.05L126.123 162.914C125.229 161.814 125.176 160.6 125.176 160.338L125.177 160.287L124.97 160.276Z" fill="white"/>
<path d="M126.396 163.421C126.402 163.424 127.025 163.926 127.612 164.08L127.663 163.873C127.404 163.807 127.115 163.652 126.895 163.513C126.785 163.443 126.692 163.377 126.626 163.33C126.56 163.282 126.523 163.253 126.523 163.253L126.396 163.421Z" fill="white"/>
<path d="M123.904 167.125C123.902 167.125 123.441 167.106 122.727 167.071C121.655 167.017 120.017 166.927 118.524 166.811C117.034 166.696 115.677 166.552 115.208 166.402L115.146 166.606C115.495 166.715 116.203 166.811 117.086 166.899C119.73 167.163 123.894 167.339 123.895 167.339L123.904 167.125Z" fill="white"/>
<path d="M114.644 167.232C114.65 167.233 115.272 167.392 116.183 167.392C116.751 167.392 117.433 167.33 118.146 167.127L118.09 166.922C117.399 167.119 116.737 167.179 116.183 167.179C115.739 167.179 115.366 167.14 115.104 167.101C114.973 167.083 114.87 167.063 114.8 167.048C114.73 167.034 114.694 167.025 114.694 167.025L114.644 167.232Z" fill="white"/>
<path d="M118.03 144.472C117.801 144.785 117.495 145.569 117.495 145.569C117.495 145.569 115.612 150.618 114.437 154.049L109.922 152.235C108.392 152.235 108.163 153.332 108.163 153.332C108.163 153.332 112.829 157.254 113.9 158.195C114.971 159.135 115.659 158.822 115.659 158.822L115.685 158.786C115.854 158.752 116.025 158.689 116.194 158.587C117.495 157.802 120.937 150.745 120.937 150.745L122.279 150.625" fill="white"/>
<path d="M117.864 144.344C117.729 144.53 117.596 144.808 117.488 145.05C117.38 145.29 117.303 145.488 117.302 145.49L117.301 145.492L117.301 145.494C117.301 145.495 115.417 150.543 114.241 153.978L114.437 154.049L114.513 153.851L109.961 152.022H109.922C109.109 152.019 108.6 152.322 108.317 152.639C108.032 152.954 107.965 153.265 107.96 153.288L107.933 153.415L108.031 153.498C108.032 153.498 108.323 153.742 108.777 154.125C110.139 155.271 112.966 157.655 113.765 158.357C114.436 158.948 114.995 159.086 115.348 159.085C115.583 159.085 115.722 159.026 115.743 159.016L115.794 158.994L115.852 158.913L115.685 158.786L115.725 158.995C115.915 158.957 116.11 158.885 116.3 158.771C116.502 158.647 116.704 158.438 116.931 158.161C117.717 157.195 118.756 155.375 119.61 153.784C120.462 152.195 121.122 150.842 121.123 150.84L120.937 150.745L120.955 150.958L122.297 150.838L122.261 150.413L120.803 150.543L120.751 150.65C120.75 150.651 120.537 151.089 120.194 151.761C119.681 152.77 118.88 154.302 118.088 155.651C117.693 156.326 117.299 156.954 116.948 157.446C116.599 157.937 116.278 158.294 116.089 158.403C115.939 158.493 115.792 158.547 115.645 158.577L115.565 158.593L115.492 158.695L115.659 158.822L115.575 158.627L115.607 158.702L115.578 158.625L115.575 158.627L115.607 158.702L115.578 158.625C115.574 158.627 115.494 158.659 115.348 158.659C115.099 158.658 114.649 158.57 114.035 158.033C112.959 157.088 108.296 153.169 108.295 153.168L108.163 153.332L108.367 153.377L108.304 153.364L108.366 153.378L108.367 153.377L108.304 153.364L108.366 153.378C108.368 153.37 108.426 153.133 108.642 152.907C108.859 152.682 109.228 152.45 109.922 152.448V152.235L109.847 152.433L114.562 154.328L114.633 154.12C115.22 152.407 115.984 150.288 116.601 148.597C116.91 147.752 117.182 147.014 117.377 146.488C117.571 145.961 117.689 145.646 117.689 145.646L117.495 145.57L117.688 145.649C117.688 145.649 117.706 145.602 117.738 145.525C117.785 145.41 117.862 145.228 117.947 145.05C118.031 144.873 118.126 144.694 118.197 144.599L117.864 144.344Z" fill="#2E2D2D"/>
<path d="M113.228 153.403C113.216 153.406 112.843 153.489 112.432 153.87C112.02 154.25 111.576 154.927 111.422 156.092L111.628 156.121C111.778 154.998 112.196 154.376 112.571 154.028C112.759 153.854 112.937 153.75 113.066 153.688C113.131 153.658 113.184 153.638 113.22 153.626L113.26 153.614L113.271 153.611L113.228 153.403Z" fill="#2E2D2D"/>
<path d="M122.553 139.638C122.559 139.637 124.522 139.463 126.094 138.658C127.661 137.856 127.942 137.037 127.95 137.012L127.752 136.944L127.751 136.949C127.725 137.014 127.431 137.734 126.001 138.468C125.24 138.858 124.372 139.099 123.695 139.241C123.356 139.311 123.065 139.358 122.86 139.387C122.654 139.415 122.535 139.426 122.534 139.426L122.553 139.638Z" fill="#2E2D2D"/>
<path d="M131.144 175.715C131.144 175.715 131.676 176.886 131.596 177.629C131.516 178.372 130.952 181.345 131.435 181.757C131.918 182.17 134.414 178.042 134.898 176.804C135.381 175.565 132.052 174.383 132.052 174.383C132.052 174.383 131.256 174.874 131.144 175.715Z" fill="white"/>
<path d="M131.144 175.716L130.956 175.806L130.974 175.847C131.016 175.944 131.123 176.203 131.219 176.512C131.315 176.821 131.397 177.183 131.396 177.468C131.396 177.516 131.394 177.563 131.389 177.607C131.362 177.856 131.274 178.401 131.192 179.011C131.11 179.622 131.034 180.302 131.033 180.852C131.034 181.082 131.046 181.289 131.081 181.467C131.119 181.644 131.168 181.802 131.302 181.922C131.362 181.975 131.446 182.001 131.517 182C131.697 181.992 131.816 181.9 131.958 181.784C132.2 181.577 132.478 181.24 132.781 180.827C133.234 180.21 133.731 179.425 134.156 178.695C134.581 177.963 134.93 177.293 135.091 176.883C135.133 176.776 135.154 176.664 135.154 176.554C135.154 176.364 135.093 176.186 135 176.024C134.836 175.742 134.575 175.499 134.276 175.28C133.381 174.627 132.129 174.186 132.12 174.182L132.028 174.149L131.945 174.201C131.935 174.207 131.722 174.339 131.49 174.587C131.259 174.834 131.003 175.203 130.938 175.687L130.93 175.749L130.956 175.806L131.144 175.716L131.35 175.745C131.397 175.387 131.595 175.09 131.79 174.882C131.887 174.778 131.982 174.697 132.051 174.643L132.133 174.583L132.154 174.569L132.159 174.566L132.052 174.383L131.984 174.584C131.984 174.584 132.026 174.6 132.103 174.629C132.374 174.733 133.058 175.011 133.663 175.38C133.965 175.563 134.245 175.77 134.441 175.978C134.64 176.187 134.74 176.388 134.738 176.554C134.737 176.61 134.728 176.666 134.705 176.725C134.488 177.284 133.801 178.534 133.099 179.62C132.747 180.165 132.391 180.672 132.089 181.036C131.938 181.218 131.801 181.364 131.692 181.458C131.637 181.504 131.59 181.537 131.556 181.555L131.52 181.572L131.513 181.574L131.517 181.595V181.573L131.513 181.574L131.517 181.595V181.573V181.657L131.568 181.594L131.517 181.573V181.657L131.568 181.594C131.56 181.593 131.513 181.518 131.489 181.383C131.462 181.249 131.449 181.064 131.449 180.852C131.449 180.341 131.522 179.672 131.604 179.068C131.685 178.464 131.773 177.929 131.803 177.653C131.809 177.592 131.812 177.531 131.812 177.468C131.811 177.054 131.689 176.603 131.571 176.246C131.452 175.889 131.335 175.63 131.332 175.626L131.144 175.716Z" fill="#2E2D2D"/>
<path d="M131.526 181.809C131.527 181.808 132.442 180.081 133.138 178.442C133.482 177.63 133.827 176.995 134.084 176.563C134.213 176.348 134.32 176.183 134.395 176.072C134.47 175.961 134.511 175.906 134.511 175.906L134.346 175.776C134.342 175.781 133.645 176.713 132.948 178.357C132.602 179.17 132.201 180.009 131.886 180.643C131.572 181.277 131.344 181.706 131.344 181.707L131.526 181.809Z" fill="#2E2D2D"/>
<path d="M119.195 157.884C119.196 157.885 119.943 158.383 120.839 158.892C121.738 159.399 122.771 159.919 123.404 159.962L123.416 159.749C122.87 159.72 121.824 159.21 120.94 158.705C120.495 158.453 120.087 158.203 119.79 158.016C119.494 157.829 119.309 157.706 119.308 157.706L119.195 157.884Z" fill="#2E2D2D"/>
<path d="M130.957 136.16C130.957 136.16 132.431 135.995 132.987 137.325C133.543 138.656 137.25 143.785 137.62 144.925C137.991 146.065 137.991 147.775 136.23 148.345C134.47 148.915 133.358 146.255 133.358 146.255L130.763 137.23" fill="white"/>
<path d="M130.98 136.372L130.986 136.371C131.001 136.37 131.047 136.366 131.113 136.366C131.292 136.366 131.623 136.392 131.949 136.535C132.276 136.68 132.595 136.93 132.796 137.409C132.948 137.77 133.285 138.338 133.719 139.029C134.368 140.061 135.231 141.351 135.965 142.487C136.332 143.056 136.666 143.586 136.925 144.024C137.183 144.46 137.367 144.815 137.423 144.992C137.534 145.331 137.609 145.726 137.609 146.116C137.609 146.542 137.52 146.96 137.301 147.311C137.081 147.662 136.733 147.958 136.168 148.141C136.017 148.19 135.875 148.211 135.738 148.211C135.42 148.211 135.129 148.096 134.861 147.909C134.46 147.631 134.125 147.194 133.898 146.826C133.783 146.643 133.696 146.477 133.636 146.358C133.607 146.298 133.585 146.251 133.57 146.218L133.549 146.171L133.358 146.254L133.557 146.194L130.963 137.169L130.564 137.29L133.162 146.327L133.166 146.338C133.171 146.348 133.403 146.903 133.831 147.47C134.046 147.754 134.311 148.041 134.628 148.262C134.944 148.483 135.319 148.638 135.738 148.638C135.917 148.638 136.103 148.61 136.293 148.548C136.935 148.341 137.38 147.978 137.651 147.541C137.924 147.103 138.025 146.602 138.025 146.116C138.024 145.67 137.94 145.234 137.818 144.857C137.708 144.527 137.406 143.999 136.994 143.329C136.378 142.331 135.525 141.05 134.773 139.895C134.397 139.318 134.047 138.771 133.766 138.31C133.485 137.849 133.272 137.467 133.178 137.241C132.934 136.653 132.513 136.318 132.113 136.144C131.711 135.968 131.328 135.941 131.113 135.94C131.006 135.94 130.941 135.947 130.935 135.948L130.98 136.372Z" fill="#2E2D2D"/>
<path d="M133.88 145.692C133.889 145.695 135.209 146.642 136.475 146.647V146.433C135.893 146.434 135.269 146.206 134.795 145.976C134.558 145.861 134.358 145.746 134.218 145.659C134.078 145.573 133.999 145.517 133.999 145.517L133.88 145.692Z" fill="#2E2D2D"/>
<path d="M133.968 146.096C133.969 146.097 134.324 146.461 134.719 146.828C134.917 147.011 135.125 147.194 135.305 147.333C135.395 147.404 135.478 147.462 135.552 147.506C135.628 147.548 135.688 147.58 135.765 147.583V147.369C135.764 147.371 135.715 147.358 135.655 147.321C135.436 147.193 135.042 146.846 134.715 146.534C134.385 146.223 134.115 145.946 134.115 145.945L133.968 146.096Z" fill="#2E2D2D"/>
<path d="M127.439 137.022C127.439 137.022 123.385 138.591 122.544 139.532C121.702 140.473 119.331 142.434 118.566 143.609C117.801 144.786 117.342 145.178 117.725 146.276C118.107 147.373 124.15 155.764 124.991 157.568C125.832 159.371 126.598 159.92 129.427 159.92C132.258 159.92 134.323 157.96 134.781 156.156C135.241 154.352 133.176 140.943 133.099 139.061C133.023 137.179 132.028 136.16 130.957 136.16C129.886 136.16 127.439 137.022 127.439 137.022Z" fill="white"/>
<path d="M127.438 137.022L127.365 136.823C127.363 136.824 126.347 137.216 125.222 137.729C124.66 137.985 124.07 138.271 123.564 138.555C123.056 138.841 122.636 139.115 122.39 139.387C121.984 139.841 121.18 140.57 120.384 141.326C119.587 142.085 118.8 142.868 118.393 143.491C118.109 143.929 117.864 144.259 117.681 144.576C117.499 144.891 117.378 145.205 117.379 145.57C117.379 145.808 117.429 146.06 117.529 146.347C117.591 146.521 117.729 146.769 117.935 147.114C118.654 148.308 120.189 150.553 121.639 152.701C122.363 153.775 123.066 154.824 123.633 155.701C124.199 156.576 124.631 157.288 124.804 157.659C125.229 158.572 125.658 159.214 126.364 159.607C127.069 159.999 128.001 160.132 129.427 160.133C130.89 160.133 132.158 159.626 133.119 158.884C134.079 158.142 134.738 157.168 134.983 156.21C135.037 155.992 135.055 155.689 135.056 155.291C135.055 153.512 134.634 149.883 134.206 146.471C133.991 144.766 133.775 143.118 133.608 141.792C133.44 140.467 133.322 139.455 133.306 139.052C133.267 138.075 132.988 137.303 132.562 136.769C132.137 136.236 131.558 135.945 130.957 135.946C130.374 135.948 129.495 136.169 128.74 136.386C127.988 136.603 127.373 136.82 127.371 136.821L127.368 136.822L127.365 136.823L127.438 137.022L127.506 137.224C127.506 137.224 127.657 137.17 127.901 137.09C128.268 136.97 128.844 136.789 129.424 136.639C130.003 136.489 130.594 136.371 130.957 136.372C131.427 136.373 131.881 136.593 132.24 137.039C132.598 137.486 132.855 138.165 132.891 139.07C132.91 139.514 133.028 140.516 133.195 141.846C133.446 143.839 133.808 146.549 134.106 149.089C134.405 151.626 134.641 154 134.64 155.291C134.641 155.671 134.618 155.96 134.58 156.102C134.367 156.947 133.763 157.855 132.869 158.544C131.975 159.234 130.795 159.707 129.427 159.707C128.023 159.708 127.158 159.567 126.563 159.233C125.969 158.901 125.595 158.366 125.178 157.475C124.955 156.999 124.42 156.139 123.727 155.078C122.689 153.489 121.303 151.464 120.141 149.734C119.56 148.869 119.035 148.078 118.639 147.454C118.441 147.142 118.275 146.872 118.151 146.657C118.028 146.443 117.945 146.277 117.92 146.203C117.831 145.949 117.795 145.746 117.795 145.57C117.796 145.301 117.876 145.078 118.04 144.792C118.203 144.509 118.447 144.175 118.739 143.727C119.097 143.174 119.877 142.389 120.667 141.638C121.46 140.885 122.261 140.162 122.697 139.675C122.871 139.477 123.273 139.202 123.763 138.929C124.499 138.517 125.439 138.088 126.192 137.765C126.569 137.603 126.899 137.467 127.135 137.371C127.371 137.276 127.512 137.222 127.512 137.222L127.438 137.022Z" fill="#2E2D2D"/>
<path d="M120.867 150.824C120.887 150.842 121.635 151.529 124.587 152.155L124.63 151.946C123.165 151.636 122.254 151.312 121.712 151.067C121.441 150.944 121.262 150.842 121.152 150.771C121.097 150.736 121.06 150.709 121.037 150.691L121.012 150.671L121.007 150.666L120.867 150.824Z" fill="#2E2D2D"/>
<path d="M125.205 152.157L126.93 152.366L126.954 152.154L125.23 151.946" fill="#2E2D2D"/>
<path d="M121.492 151.399C121.498 151.405 123.129 153.076 126.689 155.056L126.788 154.869C125.018 153.884 123.729 152.977 122.884 152.318C122.461 151.988 122.149 151.719 121.944 151.534C121.84 151.442 121.764 151.37 121.714 151.321C121.663 151.273 121.64 151.248 121.639 151.248L121.492 151.399Z" fill="#2E2D2D"/>
<path d="M114.158 156.693C114.019 156.312 113.967 155.968 113.967 155.665C113.967 155.175 114.104 154.788 114.242 154.524C114.311 154.392 114.379 154.29 114.43 154.223L114.491 154.147L114.511 154.124L114.519 153.983C114.487 153.941 114.429 153.93 114.384 153.957C114.379 153.96 114.024 154.178 113.664 154.562C113.307 154.945 112.939 155.501 112.938 156.182C112.938 156.228 112.94 156.275 112.943 156.322L113.15 156.305L113.146 156.182C113.145 155.584 113.475 155.073 113.815 154.71C113.984 154.528 114.154 154.385 114.281 154.288C114.345 154.239 114.398 154.202 114.435 154.177L114.491 154.14L114.437 154.049L114.364 153.974C114.354 153.984 113.76 154.6 113.759 155.665C113.758 155.993 113.816 156.363 113.964 156.767L114.158 156.693Z" fill="#2E2D2D"/>
<path d="M129.375 140.838C129.375 140.838 129.388 140.934 129.41 141.112C129.473 141.648 129.599 142.915 129.599 144.458C129.599 145.485 129.543 146.636 129.375 147.772L129.581 147.805C129.751 146.654 129.807 145.493 129.807 144.458C129.807 142.385 129.581 140.81 129.581 140.807L129.375 140.838Z" fill="#2E2D2D"/>
<path d="M76.922 77.1492C76.922 77.1492 78.7493 78.7729 80.2114 78.398C80.9588 78.2063 78.7493 76.2747 77.8639 75.6398C77.2238 75.1805 75.8922 75.9672 76.922 77.1492Z" fill="#2E2D2D"/>
<path d="M61.7943 84.1444C61.7943 84.1444 61.0686 86.6735 61.3588 88.161C61.649 89.649 62.6649 88.012 62.8102 86.971C62.9551 85.9294 62.9695 83.7126 62.9695 83.7126L61.7943 84.1444Z" fill="#2E2D2D"/>
<path d="M64.8094 52.1592C64.8094 52.1592 62.4202 53.4123 62.7076 56.8035C62.9946 60.1948 63.7189 67.9822 63.0307 69.3849C62.342 70.7879 61.184 70.9787 61.5195 73.7891C61.8555 76.5991 61.4473 84.8241 62.273 85.1894C63.0992 85.5548 65.8725 71.2449 66.221 68.7879C66.5695 66.3305 68.9305 57.4977 68.9305 57.4977C68.9305 57.4977 72.3466 66.1402 72.6503 67.6302C72.8946 68.8302 75.6314 74.517 76.689 76.6893C76.8931 77.1078 77.436 77.1993 77.7618 76.871C77.9331 76.6988 78.002 76.4487 77.9428 76.2105C77.4536 74.2551 75.2607 65.437 75.3148 64.7912C75.3754 64.0648 73.8337 56.9046 73.1413 54.9411C72.4494 52.9777 69.8464 49.9679 69.8464 49.9679L64.8094 52.1592Z" fill="#FFD9BA"/>
<path d="M64.8094 52.1594L64.7381 52.0171C64.7261 52.0237 64.1776 52.3127 63.6268 52.986C63.0765 53.6583 62.5267 54.7212 62.5276 56.2477C62.5276 56.4308 62.5355 56.6211 62.5521 56.818C62.7521 59.1772 63.1631 63.6641 63.1626 66.6354C63.1626 67.2845 63.1432 67.861 63.0978 68.3241C63.0543 68.7853 62.9793 69.1374 62.8914 69.3134C62.603 69.9023 62.2212 70.2748 61.8903 70.7654C61.5589 71.2556 61.302 71.8662 61.3038 72.8698C61.3038 73.1493 61.3233 73.4601 61.3649 73.8088C61.5311 75.192 61.514 77.955 61.5566 80.4091C61.5783 81.6371 61.6149 82.7896 61.6991 83.6651C61.7412 84.1031 61.7945 84.4708 61.8667 84.7508C61.9028 84.8912 61.9435 85.0093 61.9949 85.1076C62.0462 85.2044 62.1087 85.2888 62.211 85.3363L62.305 85.3562C62.3855 85.3553 62.4461 85.3178 62.4924 85.2779C62.5817 85.1982 62.6488 85.0862 62.7252 84.9353C63.0025 84.373 63.3399 83.2404 63.7083 81.8003C64.8084 77.4848 66.1391 70.476 66.3756 68.8109C66.5464 67.6005 67.224 64.7734 67.8571 62.2615C68.1742 61.0045 68.4801 59.824 68.7069 58.958C68.9332 58.0916 69.0804 57.5416 69.0809 57.5402L68.9304 57.498L68.786 57.5578C68.7865 57.5592 68.9994 58.0977 69.3243 58.931C69.8117 60.1808 70.5499 62.0906 71.1942 63.8264C71.5163 64.6942 71.8153 65.5189 72.0472 66.1951C72.2791 66.8698 72.4448 67.4017 72.4975 67.6631C72.5656 67.991 72.7836 68.5685 73.0923 69.3096C74.0179 71.5246 75.7559 75.1303 76.5496 76.7607C76.6977 77.0648 76.9935 77.2304 77.2902 77.2295C77.4966 77.23 77.7077 77.1502 77.871 76.9856C78.0312 76.8243 78.1196 76.6055 78.1196 76.3806C78.1196 76.3109 78.1112 76.2406 78.0937 76.1709C77.8521 75.2058 77.1953 72.5657 76.5982 70.0641C76.3002 68.8138 76.0169 67.5972 75.8086 66.643C75.7045 66.1661 75.6189 65.7542 75.5601 65.4378C75.5004 65.1236 75.4685 64.894 75.4694 64.8185L75.4698 64.8057V64.8052L75.4722 64.7426C75.4708 64.4726 75.3764 63.8695 75.225 63.0506C74.7705 60.6026 73.8046 56.3544 73.288 54.8873C72.9289 53.8723 72.0999 52.6268 71.3585 51.6218C70.6175 50.6192 69.9644 49.8643 69.963 49.8624C69.9186 49.8111 69.8469 49.7945 69.7853 49.8211L64.7483 52.0123L64.7381 52.0171L64.8094 52.1594L64.87 52.3065L69.907 50.1153L69.8464 49.9682L69.7298 50.0745C69.7298 50.0749 69.8904 50.2605 70.144 50.5717C70.9044 51.5022 72.4947 53.5682 72.9946 54.996C73.3283 55.9407 73.8735 58.1561 74.3313 60.2425C74.5604 61.2864 74.7682 62.2999 74.9186 63.1103C75.0695 63.9175 75.1616 64.5367 75.1602 64.7426L75.1593 64.7782V64.7777L75.1579 64.8185C75.1588 64.9514 75.1935 65.1735 75.2537 65.498C75.6735 67.7452 77.3684 74.5581 77.7914 76.2501C77.8025 76.2938 77.8076 76.3374 77.8076 76.3806C77.8076 76.5201 77.7535 76.6558 77.6526 76.7574C77.5484 76.8613 77.4202 76.9097 77.2902 76.9097C77.1027 76.9092 76.9218 76.8086 76.8287 76.6179C76.3002 75.5327 75.3518 73.5687 74.5058 71.7272C74.0827 70.8067 73.6852 69.9165 73.3792 69.1839C73.0733 68.4532 72.8571 67.8696 72.803 67.5977C72.722 67.2029 72.4517 66.3877 72.0874 65.3637C70.997 62.2999 69.0753 57.4387 69.0749 57.4377C69.0499 57.3741 68.9883 57.3343 68.9212 57.3381C68.8545 57.3423 68.7976 57.3893 68.78 57.4557C68.78 57.4562 68.1894 59.665 67.5554 62.1813C66.9208 64.6999 66.2437 67.5184 66.0669 68.7649C65.8961 69.9683 65.1329 74.0731 64.3058 77.8672C63.892 79.7647 63.462 81.5863 63.083 82.9292C62.8937 83.6006 62.7164 84.1524 62.5632 84.5292C62.4869 84.7175 62.4156 84.8618 62.3582 84.9496C62.3295 84.9937 62.304 85.0226 62.2901 85.0345L62.2827 85.0402L62.2814 85.0411L62.305 85.0886V85.0364L62.2814 85.0411L62.305 85.0886V85.0364V85.1133L62.3346 85.0426L62.305 85.0364V85.1133L62.3346 85.0426C62.3337 85.043 62.3026 85.0217 62.2693 84.9567C62.205 84.8362 62.1397 84.597 62.0897 84.2819C61.9097 83.1735 61.8731 81.118 61.85 79.062C61.8255 77.0027 61.8139 74.941 61.6746 73.7699C61.6343 73.4321 61.6158 73.1341 61.6158 72.8698C61.6181 71.918 61.844 71.4022 62.1471 70.9467C62.4503 70.4921 62.8534 70.0997 63.1695 69.4572C63.2908 69.2067 63.3602 68.8361 63.4084 68.3554C63.4546 67.8762 63.4745 67.2916 63.4745 66.6354C63.4745 63.6375 63.0626 59.1497 62.8627 56.79C62.8469 56.6021 62.8395 56.4213 62.8395 56.2477C62.8405 54.8009 63.3537 53.8197 63.8661 53.1914C64.122 52.8773 64.3785 52.6534 64.5696 52.5086C64.6654 52.436 64.7446 52.3834 64.7992 52.3497L64.8612 52.3122L64.8802 52.3018L64.8094 52.1594Z" fill="#2E2D2D"/>
<path d="M59.0242 31.6606C59.0242 31.6606 55.5127 33.1572 56.5499 35.3313C57.5871 37.5055 59.6963 36.5802 59.9957 37.8561C60.2952 39.1325 57.1831 42.3301 58.0972 44.3548C59.0113 46.379 59.644 47.4571 59.394 48.8236C59.1441 50.1902 57.7514 51.6735 58.8345 53.2963C59.9175 54.919 61.3426 55.7489 63.5396 55.3869C65.7372 55.0249 67.1678 42.7918 66.0348 38.5261C64.9022 34.2608 61.4564 31.736 60.6608 31.5268C59.8657 31.318 59.0242 31.6606 59.0242 31.6606Z" fill="#2E2D2D"/>
<path d="M59.417 32.8813C59.4142 32.8822 59.0365 33.0417 58.656 33.3425C58.2765 33.6424 57.8877 34.0875 57.8864 34.6659C57.8864 34.8016 57.9081 34.9435 57.9562 35.091C58.4038 36.4709 59.422 36.5952 59.4308 36.5942L59.4424 36.4884L59.4035 36.4818C59.2179 36.4424 58.4344 36.2213 58.0548 35.0573C58.0104 34.9202 57.9905 34.7897 57.9905 34.6659C57.9896 34.1411 58.3497 33.7183 58.7195 33.4265C58.9037 33.2813 59.0883 33.1688 59.2267 33.0934C59.3656 33.0179 59.4563 32.98 59.4563 32.9795L59.417 32.8813Z" fill="white"/>
<path d="M70.1526 43.7757C70.0008 43.2576 69.0399 41.9617 69.0399 41.9617L68.859 41.6016C68.3258 39.4768 67.8167 37.8023 67.8167 37.8023L62.7643 39.2898L59.1218 42.981L64.8091 52.1592C64.8091 52.1592 68.1369 53.3302 69.8462 49.9679C70.1859 49.2994 70.0887 47.7772 69.8045 46.0296C69.9415 45.4033 70.2738 44.1909 70.1526 43.7757Z" fill="white"/>
<path d="M70.1525 43.7761L70.3015 43.7301C70.2104 43.4274 69.9303 42.9809 69.6679 42.5847C69.4064 42.1918 69.1653 41.8663 69.1644 41.8653L69.0398 41.9621L69.1787 41.8886L68.9977 41.5284L68.8589 41.602L69.0102 41.5621C68.4757 39.4335 67.9661 37.7571 67.9656 37.7552C67.9406 37.6727 67.855 37.6252 67.7735 37.6494L62.7212 39.1365L62.6546 39.1763L59.0121 42.8679C58.9598 42.9206 58.9505 43.0036 58.9898 43.0672L64.6772 52.245L64.7582 52.3104C64.7688 52.3142 65.3446 52.5164 66.1494 52.5168C66.7275 52.5168 67.4255 52.412 68.1114 52.0476C68.7978 51.6841 69.468 51.0597 69.984 50.0423C70.1557 49.7002 70.2164 49.2158 70.2178 48.6222C70.2178 47.8843 70.1164 46.978 69.9581 46.0039L69.8045 46.03L69.9563 46.0651C70.0137 45.8032 70.1076 45.4293 70.1877 45.0539C70.2673 44.6772 70.3339 44.3019 70.3344 44.012C70.3344 43.909 70.3265 43.8165 70.3015 43.7306L70.1525 43.7761L70.003 43.8222C70.0146 43.8606 70.0229 43.928 70.0224 44.012C70.0234 44.2516 69.9614 44.6193 69.8827 44.9861C69.8045 45.3543 69.7114 45.7249 69.6522 45.9949L69.6503 46.0566C69.8072 47.0203 69.9063 47.9137 69.9063 48.6222C69.9072 49.1906 69.8387 49.6409 69.7077 49.8943C69.2167 50.859 68.5983 51.4283 67.9679 51.7638C67.3375 52.0983 66.691 52.197 66.1494 52.197C65.7727 52.197 65.4473 52.1491 65.2178 52.1017C65.103 52.0775 65.0123 52.0537 64.9507 52.0362L64.8813 52.0153L64.8595 52.0082L64.8091 52.1595L64.9405 52.0737L59.3208 43.0046L62.8453 39.4326L67.8596 37.9564L67.8166 37.8027L67.668 37.8506C67.668 37.8515 67.7944 38.2672 67.9883 38.9505C68.1818 39.6333 68.4419 40.5813 68.708 41.6418L68.7205 41.6751L68.9015 42.0352L68.9158 42.0584C68.9163 42.0589 68.9751 42.1382 69.0667 42.2667C69.2042 42.4599 69.4143 42.7616 69.6027 43.0611C69.7906 43.3581 69.9581 43.6632 70.003 43.8222L70.1525 43.7761Z" fill="#2E2D2D"/>
<path d="M64.7495 40.7198C64.7495 41.5483 64.133 42.2202 63.3721 42.2202C62.6116 42.2202 61.9951 41.5483 61.9951 40.7198C61.9951 39.8914 62.6116 39.2195 63.3721 39.2195C64.133 39.2195 64.7495 39.8914 64.7495 40.7198Z" fill="#1262A1"/>
<path d="M64.7491 40.7195H64.645C64.6445 41.4939 64.0701 42.1117 63.3717 42.1131C62.6737 42.1117 62.0989 41.4939 62.0984 40.7195C62.0989 39.9451 62.6737 39.3273 63.3717 39.3259C64.0701 39.3273 64.6445 39.9451 64.645 40.7195H64.7491H64.8532C64.8514 39.837 64.1951 39.1138 63.3717 39.1129C62.5488 39.1138 61.892 39.837 61.8906 40.7195C61.892 41.6021 62.5488 42.3252 63.3717 42.3262C64.1951 42.3252 64.8514 41.6021 64.8532 40.7195H64.7491Z" fill="#2E2D2D"/>
<path d="M62.7095 67.4752C62.7095 67.4752 65.4055 68.9111 68.8703 68.2007C72.3355 67.4904 75.3148 64.792 75.3148 64.792C75.4277 64.6283 74.1447 56.4266 73.4144 53.7475C72.609 50.7957 71.4089 48.9912 70.3948 49.1648C70.3948 49.1648 69.4247 50.8697 68.0385 51.4382C66.6528 52.0066 64.8093 52.1599 64.8093 52.1599C64.8093 52.1599 64.0193 52.2908 63.0492 54.1381C62.0786 55.9853 62.4322 66.196 62.7095 67.4752Z" fill="#2E2D2D"/>
<path d="M71.6436 53.2327C71.6436 53.2332 71.5959 53.5431 71.4844 54.0508C71.1498 55.5734 70.2334 58.8598 68.3098 60.7569L68.3816 60.8333C70.9832 58.2615 71.7441 53.2531 71.7464 53.2489L71.6436 53.2327Z" fill="white"/>
<path d="M70.2128 59.398C70.2128 59.3985 70.1184 59.5921 69.9411 59.8991C69.4107 60.8196 68.1366 62.7432 66.5083 63.3943L66.5463 63.4939C68.7757 62.5952 70.3022 59.4488 70.3059 59.4455L70.2128 59.398Z" fill="white"/>
<path d="M60.8368 38.08C60.8368 38.08 61.5889 39.4835 62.341 40.8871C63.0931 42.2902 64.7376 41.6923 64.1789 39.7113C63.6198 37.7307 63.0237 36.192 63.0237 36.192L60.8368 38.08Z" fill="white"/>
<path d="M60.837 38.0803L60.7005 38.1571C60.7005 38.1571 61.4526 39.5607 62.2047 40.9643C62.5032 41.5237 62.954 41.8141 63.3914 41.8141C63.6765 41.815 63.9496 41.6864 64.1417 41.4506C64.3351 41.2148 64.4485 40.8779 64.4485 40.4637C64.4485 40.2245 64.4111 39.9583 64.3287 39.667C63.7677 37.6788 63.1702 36.1367 63.1688 36.1334C63.1508 36.0859 63.1105 36.0499 63.0623 36.0375C63.0137 36.0247 62.9619 36.0371 62.9235 36.0703L60.7366 37.9578C60.6797 38.0072 60.6644 38.0902 60.7005 38.1571L60.837 38.0803L60.9375 38.2027L63.1244 36.3147L63.0239 36.1922L62.8791 36.2515C62.8795 36.2515 62.9156 36.346 62.98 36.5201C63.173 37.043 63.6117 38.2762 64.0292 39.7562C64.1042 40.0224 64.1366 40.2587 64.1366 40.4637C64.1366 40.8195 64.0403 41.0777 63.9033 41.2452C63.7654 41.4117 63.5877 41.4938 63.3914 41.4947C63.0938 41.4947 62.7384 41.295 62.4778 40.8105C62.102 40.1087 61.7257 39.407 61.4438 38.8803C61.1615 38.354 60.974 38.0043 60.9736 38.0034L60.837 38.0803Z" fill="#2E2D2D"/>
<path d="M59.0504 34.5793C59.0504 34.5793 58.9731 38.7383 61.839 40.1015C64.7048 41.4643 65.2889 36.1006 64.7016 33.4102C64.1143 30.7202 59.2276 30.8455 59.0504 34.5793Z" fill="#FFD9BA"/>
<path d="M59.0506 34.5797L58.8947 34.5764V34.6115C58.8947 34.8146 58.9118 35.8774 59.2765 37.0646C59.6403 38.2495 60.3581 39.5728 61.7735 40.2466C62.104 40.4042 62.4136 40.4796 62.7015 40.4796C63.1375 40.4806 63.5165 40.3021 63.8192 40.0084C64.2747 39.5676 64.5783 38.8796 64.7773 38.0896C64.9749 37.2986 65.0638 36.4022 65.0638 35.5401C65.0638 34.7553 64.9902 33.9994 64.8541 33.3759C64.7134 32.7287 64.3353 32.229 63.8424 31.8993C63.3494 31.5685 62.7422 31.402 62.1234 31.402C61.3657 31.402 60.5868 31.6525 59.9795 32.1773C59.3718 32.7016 58.9442 33.5045 58.8947 34.5721V34.5764L59.0506 34.5797L59.2061 34.5873C59.2543 33.5989 59.6384 32.8924 60.1809 32.4217C60.7233 31.9519 61.4319 31.7213 62.1234 31.7213C62.6876 31.7213 63.2374 31.8751 63.6716 32.1664C64.1062 32.4592 64.4265 32.8839 64.5496 33.4457C64.6796 34.0397 64.7518 34.7761 64.7518 35.5401C64.7523 36.6594 64.5954 37.84 64.252 38.7221C64.0807 39.1629 63.8632 39.5278 63.6054 39.7759C63.3467 40.0236 63.0551 40.1589 62.7015 40.1598C62.4673 40.1598 62.203 40.0986 61.9049 39.9567C60.6007 39.3375 59.9245 38.109 59.5736 36.9688C59.2237 35.831 59.2061 34.7946 59.2061 34.6115L59.2066 34.5826L59.0506 34.5797Z" fill="#2E2D2D"/>
<path d="M60.1537 32.7324C60.1537 32.7324 61.8514 35.1035 63.0154 35.7616C64.179 36.4192 64.6479 37.2937 64.6479 37.2937C64.6479 37.2937 65.151 37.7545 65.3773 41.5239C65.6036 45.2933 68.5158 46.1047 68.5426 44.163C68.5699 42.2214 68.2973 39.0034 68.2973 39.0034C68.2973 39.0034 68.4399 35.6833 66.408 32.4496C64.3757 29.2159 59.0165 30.1331 58.3751 31.3265C57.7331 32.5198 60.1537 32.7324 60.1537 32.7324Z" fill="#2E2D2D"/>
<path d="M59.874 32.3077C59.8745 32.3077 59.987 32.3143 60.1841 32.3508C60.7761 32.4604 62.1063 32.8381 63.2513 34.096C63.9859 34.9027 64.7472 35.8664 65.5373 36.6308C66.3269 37.3943 67.1466 37.9637 68.007 37.9651C68.087 37.9651 68.168 37.9599 68.249 37.9494L68.2361 37.8436C68.1592 37.8536 68.0829 37.8583 68.007 37.8583C67.1942 37.8593 66.3912 37.3117 65.6085 36.5535C64.8259 35.7962 64.065 34.8339 63.3272 34.0234C61.7716 32.3157 59.8865 32.2018 59.88 32.2014L59.874 32.3077Z" fill="white"/>
<path d="M59.0645 31.6947L59.09 31.6653C59.2131 31.5296 59.7768 30.973 60.7636 30.973C61.0788 30.973 61.438 31.03 61.8411 31.1757C62.7533 31.5035 63.635 32.6252 64.4728 33.7256C65.3142 34.825 66.107 35.9035 66.9073 36.1422L66.936 36.0397C66.1954 35.8267 65.392 34.7614 64.5547 33.6601C63.7142 32.5598 62.8348 31.4248 61.8758 31.0751C61.462 30.9256 61.0908 30.8668 60.7636 30.8668C59.5894 30.8672 58.9886 31.6217 58.984 31.6274L59.0645 31.6947Z" fill="white"/>
<path d="M64.6276 37.3422C64.6276 37.3422 64.7243 37.3854 64.8729 37.4789C65.32 37.7612 66.2095 38.4872 66.2091 39.8139C66.2091 40.7221 66.347 41.9662 66.6377 42.9887C66.783 43.4998 66.9667 43.9558 67.1935 44.2879C67.4198 44.6191 67.6952 44.8322 68.022 44.8326V44.7259C67.7434 44.7264 67.4962 44.5446 67.2787 44.2267C66.6252 43.2753 66.3114 41.1596 66.3127 39.8139C66.31 37.9709 64.6729 37.2468 64.6688 37.2445L64.6276 37.3422Z" fill="white"/>
<path d="M59.122 42.9812C59.122 42.9812 57.247 45.1886 59.9269 47.2128C60.9622 47.9943 66.0715 50.0109 67.8474 50.7003C68.2246 50.8465 68.6485 50.7777 68.9633 50.5195L76.1048 44.6552C76.1048 44.6552 77.5586 44.733 77.9487 44.333C78.2195 44.055 79.0503 43.1349 79.5326 42.5987C79.7464 42.3606 79.789 42.0108 79.6386 41.7257C79.4738 41.412 79.1183 41.2583 78.7842 41.3565L77.5354 41.7219L77.7368 41.3091C77.8386 41.1008 77.7446 40.8479 77.5336 40.761C77.3795 40.6979 77.2027 40.7425 77.0944 40.872L76.495 41.5885L75.7146 43.1885L67.7705 47.0111L61.1677 43.6948" fill="white"/>
<path d="M59.0041 42.8765C58.9948 42.8907 58.3316 43.6627 58.3279 44.7593C58.3256 45.5441 58.6866 46.4784 59.8344 47.3415C60.1144 47.5521 60.6291 47.8231 61.2859 48.1358C63.2515 49.0691 66.4585 50.3322 67.7919 50.8499C67.941 50.9073 68.096 50.9358 68.2506 50.9358C68.5404 50.9358 68.8268 50.8357 69.0601 50.6445L76.2021 44.7801L76.1045 44.6553L76.0966 44.8152C76.0984 44.8152 76.2146 44.8214 76.3905 44.8214C76.6173 44.8214 76.9422 44.8114 77.2537 44.7635C77.5656 44.7118 77.8637 44.6383 78.0586 44.4461C78.3353 44.1623 79.1638 43.2447 79.647 42.7075C79.8025 42.5339 79.8835 42.3113 79.8835 42.0864C79.8835 41.9374 79.8479 41.787 79.7757 41.6499C79.616 41.3471 79.3101 41.1673 78.9875 41.1673C78.9055 41.1673 78.8227 41.1787 78.7408 41.2029L77.8332 41.4686L77.8757 41.3808C77.9151 41.3011 77.9336 41.2152 77.9336 41.1313C77.9336 40.9116 77.8054 40.7009 77.5911 40.6131C77.5258 40.5861 77.4569 40.5728 77.3893 40.5728C77.2338 40.5728 77.0815 40.6416 76.9755 40.7683L76.3766 41.4848L76.3553 41.5175L75.599 43.0677L67.7716 46.8342L61.2359 43.5517C61.1586 43.5128 61.0651 43.5455 61.0271 43.6247C60.9892 43.704 61.0211 43.7998 61.0984 43.8387L67.7017 47.155C67.7443 47.1764 67.7938 47.1768 67.8364 47.1559L75.7805 43.3334L75.8541 43.2603L76.6256 41.6779L77.2125 40.9761C77.2579 40.922 77.3226 40.8926 77.3893 40.8926L77.4754 40.9097C77.567 40.9471 77.6212 41.0373 77.6216 41.1313L77.5971 41.2375L77.3958 41.6508C77.3685 41.7073 77.3759 41.7756 77.4152 41.824C77.4546 41.8729 77.5189 41.8933 77.5781 41.8757L78.8269 41.5104C78.8801 41.4947 78.9342 41.4871 78.9875 41.4871C79.1976 41.4871 79.3975 41.6038 79.5012 41.8017C79.5484 41.8919 79.5716 41.9891 79.5716 42.0864C79.5716 42.233 79.5193 42.3778 79.4174 42.4907C78.9366 43.0259 78.1034 43.9479 77.8382 44.2202C77.7522 44.3161 77.4934 44.4067 77.2074 44.4475C76.9209 44.4916 76.6076 44.5016 76.3905 44.5016C76.2216 44.5016 76.1128 44.4959 76.1128 44.4959L76.0068 44.5306L68.8653 50.3949C68.688 50.5405 68.4705 50.616 68.2506 50.616C68.1335 50.616 68.0155 50.5946 67.9026 50.551C67.0153 50.2065 65.295 49.5303 63.6685 48.8437C62.8553 48.5002 62.0657 48.1538 61.4169 47.8454C60.7689 47.5384 60.257 47.2646 60.0191 47.0843C58.9328 46.2596 58.6426 45.443 58.6398 44.7593C58.6398 44.28 58.7893 43.8591 58.9411 43.5588C59.0171 43.4084 59.093 43.2888 59.149 43.2072L59.2161 43.1151L59.2341 43.0923L59.2392 43.0867C59.2957 43.0198 59.2887 42.9192 59.2239 42.8608C59.1591 42.8029 59.0606 42.81 59.0041 42.8765Z" fill="#2E2D2D"/>
<path d="M63.9495 45.1148C63.9495 45.1148 61.8704 46.1805 62.356 48.3119L63.0488 48.6669C63.0488 48.6669 62.6327 46.1805 64.6424 45.5414L63.9495 45.1148Z" fill="#1262A1"/>
<path d="M63.95 45.1151L63.9037 45.0197C63.8977 45.023 63.4723 45.2413 63.0428 45.6807C62.6147 46.1196 62.1787 46.7872 62.1787 47.6788C62.1787 47.8866 62.2023 48.1058 62.2551 48.3364L62.2662 48.3853L63.1863 48.8569L63.1516 48.6491C63.1516 48.6491 63.1433 48.6007 63.1349 48.5106C63.1261 48.4209 63.1173 48.2913 63.1173 48.1371C63.1173 47.7632 63.1692 47.2418 63.389 46.7668C63.6103 46.2918 63.9912 45.8614 64.6739 45.6432L64.8956 45.5725L63.9546 44.9936L63.9037 45.0197L63.95 45.1151L63.8968 45.2066L64.5896 45.6327L64.6428 45.5416L64.6123 45.4396C63.8732 45.6735 63.4395 46.158 63.2011 46.6757C62.9618 47.1933 62.91 47.7438 62.9095 48.1371C62.9095 48.4626 62.9461 48.6809 62.9466 48.6852L63.0493 48.6671L63.0956 48.5722L62.4027 48.2168L62.3564 48.3122L62.4573 48.288C62.4083 48.0731 62.387 47.87 62.387 47.6788C62.3865 46.8617 62.7846 46.2477 63.19 45.8315C63.3923 45.6242 63.5955 45.4676 63.7473 45.3642C63.8232 45.312 63.8861 45.2735 63.9301 45.2479C63.974 45.2223 63.9967 45.2104 63.9967 45.2104L63.95 45.1151Z" fill="#2E2D2D"/>
<path d="M61.6586 43.1537L62.569 44.2944L61.6586 43.1537Z" fill="white"/>
<path d="M61.5778 43.2219L62.4882 44.3621C62.5243 44.4077 62.59 44.4143 62.6344 44.3768C62.6789 44.3398 62.6853 44.2724 62.6488 44.2269L61.7388 43.0867C61.7023 43.0411 61.6366 43.0345 61.5921 43.0715C61.5477 43.109 61.5412 43.1759 61.5778 43.2219Z" fill="#2E2D2D"/>
<path d="M59.7446 35.7712L59.7168 35.7603L59.7441 35.7722L59.7446 35.7712L59.7168 35.7603L59.7441 35.7722C59.7455 35.7684 59.7668 35.72 59.8186 35.6754C59.8705 35.6308 59.951 35.5857 60.0935 35.5847C60.1315 35.5847 60.1741 35.588 60.2213 35.5961C60.2805 35.6018 60.3717 35.6882 60.4518 35.8495C60.5726 36.0877 60.6693 36.4554 60.7392 36.7828C60.7744 36.9465 60.8035 37.1008 60.8276 37.2265C60.8521 37.3532 60.8702 37.4462 60.8887 37.5055C60.9521 37.7019 61.1243 37.8419 61.3256 37.8419C61.4335 37.8424 61.5464 37.8002 61.6454 37.7152C61.6894 37.6777 61.6954 37.6104 61.6589 37.5653C61.6223 37.5197 61.5566 37.514 61.5126 37.5515C61.4455 37.6085 61.3821 37.6284 61.3256 37.6289C61.2215 37.6289 61.1252 37.5563 61.0863 37.4381C61.0711 37.3945 61.0419 37.2403 61.0058 37.0505C60.9498 36.7629 60.872 36.38 60.7605 36.054C60.7045 35.8913 60.6411 35.7423 60.5624 35.6232C60.4846 35.5064 60.3879 35.4101 60.2555 35.3859C60.1977 35.376 60.1435 35.3717 60.0935 35.3717C59.8922 35.3707 59.7506 35.4476 59.6673 35.5278C59.5835 35.6075 59.5534 35.6863 59.5497 35.6962C59.5298 35.7513 59.5571 35.813 59.6108 35.8334C59.6645 35.8542 59.7242 35.8262 59.7446 35.7712Z" fill="#2E2D2D"/>
<path d="M61.3647 35.1936L61.3448 35.1884L61.3642 35.1941L61.3647 35.1936L61.3448 35.1884L61.3642 35.1941C61.3656 35.1889 61.3837 35.1324 61.4313 35.0831C61.4795 35.0337 61.5522 34.9848 61.6961 34.9834C61.7854 34.9834 61.903 35.0048 62.0539 35.065C62.1076 35.0864 62.1677 35.0589 62.1885 35.0043C62.2094 34.9493 62.183 34.8876 62.1293 34.8662C61.9599 34.7988 61.8174 34.7704 61.6961 34.7704C61.4878 34.769 61.3448 34.8591 61.2666 34.9516C61.1874 35.0437 61.1657 35.1315 61.1629 35.1419C61.149 35.1989 61.1828 35.2567 61.2384 35.271C61.2939 35.2852 61.3504 35.2506 61.3647 35.1936Z" fill="#2E2D2D"/>
<path d="M61.3641 38.7732C61.3729 38.7779 61.59 38.9255 61.8844 38.9269C62.169 38.9316 62.5184 38.7661 62.7383 38.2417L62.5481 38.1558C62.3426 38.6223 62.0963 38.7091 61.8844 38.7139C61.7728 38.7139 61.6691 38.684 61.5942 38.6531L61.5062 38.6114L61.4835 38.5981L61.4775 38.5948L61.3641 38.7732Z" fill="#2E2D2D"/>
<path d="M60.3546 36.6114C60.3868 36.7525 60.3523 36.8814 60.2774 36.8989C60.2029 36.9164 60.1163 36.816 60.0842 36.6748C60.052 36.5341 60.0865 36.4053 60.1614 36.3878C60.2359 36.3702 60.3225 36.4702 60.3546 36.6114Z" fill="#2E2D2D"/>
<path d="M62.1491 36.1472C62.1812 36.2884 62.1463 36.4168 62.0718 36.4343C61.9973 36.4518 61.9107 36.3518 61.8786 36.2107C61.8465 36.0695 61.8809 35.9411 61.9554 35.9236C62.0304 35.9056 62.117 36.006 62.1491 36.1472Z" fill="#2E2D2D"/>
<path d="M79.449 41.3795L77.5727 42.3081C77.5213 42.3337 77.4995 42.3973 77.5245 42.4504C77.5495 42.5036 77.6115 42.5254 77.6634 42.4998L79.5393 41.5712C79.5911 41.5456 79.6128 41.482 79.5879 41.4293C79.5629 41.3762 79.5008 41.3539 79.449 41.3795Z" fill="#2E2D2D"/>
<path d="M79.6367 41.8474L77.8252 42.9084C77.7752 42.9378 77.7581 43.0028 77.7863 43.0536C77.815 43.1048 77.8784 43.1228 77.9284 43.0934L79.7399 42.0324C79.7894 42.003 79.807 41.938 79.7783 41.8868C79.7501 41.836 79.6867 41.818 79.6367 41.8474Z" fill="#2E2D2D"/>
<path d="M79.1888 42.7733L78.1539 43.3037C78.1025 43.3298 78.0817 43.3939 78.1076 43.4466C78.133 43.4992 78.1955 43.5206 78.2469 43.4945L79.2818 42.964C79.3332 42.9374 79.354 42.8734 79.3285 42.8207C79.3026 42.768 79.2401 42.7467 79.1888 42.7733Z" fill="#2E2D2D"/>
<path d="M77.4925 41.6246L76.7339 41.9758C76.6816 42 76.6585 42.0631 76.6821 42.1167C76.7052 42.1703 76.7668 42.194 76.8196 42.1698L77.5781 41.8192C77.6304 41.795 77.6536 41.7319 77.63 41.6783C77.6064 41.6247 77.5448 41.6004 77.4925 41.6246Z" fill="#2E2D2D"/>
</svg>
