<svg width="240" height="173" viewBox="0 0 240 173" fill="none" xmlns="http://www.w3.org/2000/svg">
<path d="M200.36 168.66H40.1652C38.8867 168.66 37.8503 169.631 37.8503 170.83C37.8503 172.028 38.8867 173 40.1652 173H200.36C201.639 173 202.675 172.028 202.675 170.83C202.675 169.631 201.639 168.66 200.36 168.66Z" fill="#73928D"/>
<path d="M166.716 131.163C166.716 131.965 166.016 132.622 165.16 132.622H159.848C158.992 132.622 158.292 131.965 158.292 131.163V129.955C158.292 129.153 158.992 128.496 159.848 128.496H165.16C166.016 128.496 166.716 129.153 166.716 129.955V131.163Z" fill="#1262A1"/>
<path d="M119.945 141.926H111.197C106.147 141.926 102.053 148.486 102.053 156.579C102.053 157.633 102.123 158.661 102.255 159.652C103.116 166.11 106.633 170.99 110.885 171.219L110.885 171.229H119.944C124.337 171.23 128.006 166.267 128.887 159.652C129.02 158.661 129.089 157.633 129.089 156.579C129.089 148.486 124.995 141.926 119.945 141.926Z" fill="#28252D"/>
<path d="M188.903 141.925H180.155C175.106 141.925 171.012 148.485 171.012 156.578C171.012 157.632 171.081 158.66 171.213 159.651C172.074 166.109 175.591 170.989 179.843 171.217L179.843 171.228H188.903C193.295 171.229 196.964 166.266 197.845 159.651C197.978 158.66 198.047 157.632 198.047 156.578C198.047 148.485 193.953 141.925 188.903 141.925Z" fill="#35323D"/>
<path d="M66.3513 126.173H48.0633L43.3164 124.586H74.1771L66.3513 126.173Z" fill="#443D50"/>
<path d="M45.436 157.605C45.436 158.199 45.9536 158.683 46.5859 158.683H91.3719C92.0043 158.683 92.5215 158.199 92.5215 157.605V139.689C92.5215 139.096 92.0043 138.612 91.3719 138.612H46.5859C45.9536 138.612 45.436 139.096 45.436 139.689V157.605Z" fill="#3C2B3F"/>
<path d="M92.3182 117.028C85.1679 117.028 84.7088 115.925 80.4517 117.399C73.7686 119.712 58.6077 130.314 58.6077 130.314L53.6179 137.717L104.399 135.785L92.3182 117.028Z" fill="#1262A1"/>
<path d="M78.6928 118.256C89.731 111.833 131.061 113.402 139.713 117.049C146.706 118.856 166.451 135.298 166.451 135.298L79.9171 132.209C79.9171 131.761 79.9716 131.037 80.1036 130.143C75.5816 128.111 70.119 123.245 78.6928 118.256Z" fill="#1262A1"/>
<path d="M88.3845 117.347C90.8248 117.049 93.6074 117.049 94.1779 117.049C103.165 117.049 133.653 117.049 137.848 117.049C143.908 117.049 165.966 135.298 165.966 135.298L75.0988 133.38C60.6113 133.345 75.2255 119.576 88.3845 117.347Z" fill="#78B4A9"/>
<path d="M159.285 132.717C158.617 132.082 157.398 130.975 155.829 129.633C158.132 130.586 159.89 131.49 161.053 132.142C161.252 132.253 161.439 132.353 161.616 132.443C149.747 123.079 140.924 117.535 137.848 117.535H137.552C136.622 117.236 135.763 117.064 135 117.05C135.17 117.049 135.301 117.049 135.384 117.049C135.226 117.049 135.064 117.049 134.899 117.049C136.025 117.049 137.359 117.049 137.848 117.049C142.401 117.049 155.985 127.351 162.459 132.474C160.724 132.534 159.923 132.627 159.285 132.717Z" fill="#7B8688"/>
<path d="M105.15 132.685C104.516 131.326 103.868 128.914 103.252 126.446L105.949 123.913C107.411 124.683 109.437 124.996 112.858 125.065C112.941 125.256 113.026 125.449 113.11 125.644C110.198 128.505 109.194 131.294 111.802 132.604L105.15 132.685ZM69.8594 128.14C69.8784 128.107 69.8985 128.075 69.92 128.041C69.9213 128.039 69.9226 128.037 69.9239 128.035C69.9231 128.037 69.9221 128.038 69.9213 128.04C69.9208 128.04 69.9205 128.041 69.92 128.042C69.8993 128.074 69.8797 128.106 69.8612 128.137C69.8607 128.138 69.8599 128.139 69.8594 128.14ZM70.0377 127.855C70.0443 127.845 70.0509 127.834 70.0573 127.824C70.9997 126.404 72.5772 124.867 74.551 123.41C74.5417 123.417 74.5324 123.424 74.5234 123.431C72.5486 124.893 70.9733 126.434 70.0377 127.855ZM78.851 120.718C80.1482 120.029 81.5169 119.402 82.9173 118.869C81.5439 119.392 80.2025 120.004 78.9274 120.677C78.9018 120.691 78.8766 120.704 78.851 120.718ZM103.445 120.514C102.925 120.514 102.354 120.514 101.742 120.514C101.56 119.888 101.387 119.359 101.224 118.97C100.818 117.999 100.225 117.415 99.5475 117.049C97.3789 117.049 95.5329 117.049 94.178 117.049C99.9097 117.049 123.8 117.049 134.899 117.049C134.933 117.049 134.966 117.049 135 117.05C134.007 117.056 131.674 117.093 129.591 117.347C129.262 117.403 128.931 117.466 128.601 117.535H103.358C103.615 118.443 103.548 119.209 103.489 119.901C103.47 120.117 103.452 120.32 103.445 120.514ZM82.9179 118.869C82.9361 118.862 82.9536 118.855 82.9719 118.848C82.9533 118.855 82.9361 118.862 82.9179 118.869ZM82.9801 118.845C82.9832 118.844 82.9846 118.843 82.9877 118.842C82.9853 118.843 82.9824 118.844 82.9801 118.845ZM83.016 118.832C83.0192 118.83 83.024 118.828 83.0272 118.827C83.0234 118.829 83.0197 118.83 83.016 118.832ZM83.0383 118.823C83.0399 118.822 83.0428 118.821 83.0443 118.821C83.0425 118.822 83.0401 118.822 83.0383 118.823ZM83.0594 118.815L83.0602 118.815C83.0597 118.815 83.06 118.815 83.0594 118.815ZM87.901 117.434C87.9018 117.434 87.9024 117.434 87.9031 117.433C87.9018 117.434 87.9021 117.434 87.901 117.434ZM87.959 117.423C87.9598 117.423 87.9606 117.422 87.9614 117.422C87.9606 117.422 87.9595 117.423 87.959 117.423ZM88.0167 117.412C88.0182 117.412 88.0185 117.412 88.0201 117.411C88.0188 117.411 88.018 117.412 88.0167 117.412ZM88.036 117.408C88.0368 117.408 88.0373 117.408 88.0381 117.408C88.0376 117.408 88.0365 117.408 88.036 117.408ZM88.0939 117.398C88.095 117.398 88.0955 117.398 88.0963 117.397C88.0955 117.398 88.0947 117.398 88.0939 117.398ZM88.1333 117.391C88.1341 117.39 88.1355 117.39 88.1362 117.39C88.1352 117.39 88.1344 117.39 88.1333 117.391ZM88.1508 117.387C88.1524 117.387 88.154 117.387 88.1556 117.387C88.1537 117.387 88.1527 117.387 88.1508 117.387ZM88.1699 117.384C88.1714 117.384 88.1722 117.384 88.1738 117.383C88.1725 117.384 88.1712 117.384 88.1699 117.384ZM88.2093 117.377C88.2109 117.377 88.2122 117.376 88.2138 117.376C88.2124 117.376 88.2106 117.377 88.2093 117.377ZM88.2289 117.374C88.2296 117.374 88.2304 117.373 88.2312 117.373C88.2302 117.373 88.2302 117.374 88.2289 117.374ZM88.249 117.37L88.2498 117.37C88.2492 117.37 88.2495 117.37 88.249 117.37ZM88.2675 117.367C88.2691 117.367 88.2709 117.366 88.2725 117.366C88.2707 117.366 88.2693 117.367 88.2675 117.367ZM88.2852 117.364C88.2868 117.364 88.2894 117.363 88.291 117.363C88.2892 117.363 88.2871 117.363 88.2852 117.364ZM88.3053 117.36C88.3061 117.36 88.3074 117.36 88.3082 117.36C88.3069 117.36 88.3064 117.36 88.3053 117.36ZM88.326 117.357C88.3268 117.357 88.3286 117.356 88.3294 117.356C88.3289 117.356 88.3268 117.357 88.326 117.357ZM88.3442 117.354C88.3458 117.353 88.3471 117.353 88.349 117.353C88.3469 117.353 88.3461 117.353 88.3442 117.354ZM88.3635 117.35C88.3654 117.35 88.3656 117.35 88.3672 117.35C88.3662 117.35 88.3662 117.35 88.3649 117.35C88.3643 117.35 88.3641 117.35 88.3635 117.35Z" fill="#5E7D7C"/>
<path d="M135 117.05C134.966 117.049 134.933 117.049 134.899 117.049C135.064 117.049 135.226 117.049 135.384 117.049C135.301 117.049 135.17 117.049 135 117.05Z" fill="#625B62"/>
<path d="M110.935 120.806C110.935 120.807 110.952 120.843 110.985 120.914C111.232 121.445 112.348 123.858 113.4 126.317C113.925 127.545 114.435 128.786 114.809 129.8C114.995 130.307 115.148 130.757 115.25 131.112C115.301 131.289 115.34 131.443 115.364 131.562C115.388 131.68 115.396 131.768 115.395 131.786V132.516H116.951V131.786C116.95 131.608 116.924 131.443 116.886 131.257C116.813 130.912 116.69 130.501 116.529 130.026C116.246 129.196 115.847 128.176 115.404 127.105C114.077 123.893 112.362 120.226 112.36 120.221L112.047 119.553L110.622 120.139L110.935 120.807V120.806Z" fill="#5E7D7C"/>
<mask id="mask0_3212_1673" style="mask-type:luminance" maskUnits="userSpaceOnUse" x="114" y="117" width="42" height="13">
<path d="M155.829 129.633C150.215 127.308 141.367 124.686 130.02 124.686C129.143 124.686 128.252 124.702 127.371 124.733L126.969 124.748C121.545 124.94 117.62 125.079 114.545 125.08C114.468 124.902 114.391 124.725 114.314 124.55C117.863 121.544 123.288 118.658 128.601 117.535H137.552C143.075 119.312 151.063 125.557 155.829 129.633Z" fill="white"/>
</mask>
<g mask="url(#mask0_3212_1673)">
<path d="M155.829 129.633C150.215 127.308 141.367 124.686 130.02 124.686C129.143 124.686 128.252 124.702 127.371 124.733L126.969 124.748C121.545 124.94 117.62 125.079 114.545 125.08C114.468 124.902 114.391 124.725 114.314 124.55C117.863 121.544 123.288 118.658 128.601 117.535H137.552C143.075 119.312 151.063 125.557 155.829 129.633Z" fill="url(#paint0_linear_3212_1673)"/>
</g>
<mask id="mask1_3212_1673" style="mask-type:luminance" maskUnits="userSpaceOnUse" x="137" y="117" width="25" height="16">
<path d="M161.616 132.443C161.439 132.353 161.252 132.253 161.053 132.142C159.889 131.49 158.132 130.586 155.829 129.633C151.063 125.557 143.075 119.312 137.552 117.535H137.848C140.924 117.535 149.747 123.079 161.616 132.443Z" fill="white"/>
</mask>
<g mask="url(#mask1_3212_1673)">
<path d="M161.616 132.443C161.439 132.353 161.252 132.253 161.053 132.142C159.889 131.49 158.132 130.586 155.829 129.633C151.063 125.557 143.075 119.312 137.552 117.535H137.848C140.924 117.535 149.747 123.079 161.616 132.443Z" fill="url(#paint1_linear_3212_1673)"/>
</g>
<mask id="mask2_3212_1673" style="mask-type:luminance" maskUnits="userSpaceOnUse" x="103" y="117" width="26" height="9">
<path d="M112.858 125.065C109.437 124.996 107.411 124.683 105.948 123.913L106.468 123.425C106.468 123.425 110.862 120.514 104.964 120.514C104.529 120.514 104.018 120.514 103.445 120.514C103.452 120.32 103.47 120.117 103.489 119.901C103.548 119.209 103.615 118.443 103.358 117.535H128.601C123.288 118.658 117.863 121.543 114.314 124.55C113.293 122.216 112.361 120.225 112.36 120.221L112.047 119.553L110.622 120.139L110.935 120.807V120.806C110.935 120.807 110.952 120.843 110.985 120.914C111.189 121.354 111.991 123.086 112.858 125.065Z" fill="white"/>
</mask>
<g mask="url(#mask2_3212_1673)">
<path d="M112.858 125.065C109.437 124.996 107.411 124.683 105.948 123.913L106.468 123.425C106.468 123.425 110.862 120.514 104.964 120.514C104.529 120.514 104.018 120.514 103.445 120.514C103.452 120.32 103.47 120.117 103.489 119.901C103.548 119.209 103.615 118.443 103.358 117.535H128.601C123.288 118.658 117.863 121.543 114.314 124.55C113.293 122.216 112.361 120.225 112.36 120.221L112.047 119.553L110.622 120.139L110.935 120.807V120.806C110.935 120.807 110.952 120.843 110.985 120.914C111.189 121.354 111.991 123.086 112.858 125.065Z" fill="url(#paint2_linear_3212_1673)"/>
</g>
<mask id="mask3_3212_1673" style="mask-type:luminance" maskUnits="userSpaceOnUse" x="110" y="119" width="5" height="7">
<path d="M114.507 125.08C113.924 125.08 113.375 125.075 112.858 125.065C111.991 123.086 111.189 121.354 110.985 120.914C110.952 120.843 110.935 120.807 110.935 120.806V120.807L110.622 120.139L112.047 119.553L112.36 120.221C112.361 120.225 113.293 122.216 114.314 124.55C114.391 124.725 114.468 124.902 114.545 125.08C114.532 125.08 114.52 125.08 114.507 125.08Z" fill="white"/>
</mask>
<g mask="url(#mask3_3212_1673)">
<path d="M114.507 125.08C113.924 125.08 113.375 125.075 112.858 125.065C111.991 123.086 111.189 121.354 110.985 120.914C110.952 120.843 110.935 120.807 110.935 120.806V120.807L110.622 120.139L112.047 119.553L112.36 120.221C112.361 120.225 113.293 122.216 114.314 124.55C114.391 124.725 114.468 124.902 114.545 125.08C114.532 125.08 114.52 125.08 114.507 125.08Z" fill="url(#paint3_linear_3212_1673)"/>
</g>
<path d="M104.4 132.694L104.294 132.533C103.714 130.422 103.162 128.614 102.664 126.999L103.252 126.446C103.868 128.914 104.516 131.326 105.15 132.685L104.4 132.694ZM92.8699 131.805C87.0374 131.805 82.4828 131.641 78.9462 131.303C72.2318 130.662 70.9473 129.541 70.7065 129.178C73.791 129.178 94.5182 129.178 97.2289 129.178C100.159 129.178 101.573 128.024 101.573 128.024L101.827 127.786C102.195 128.982 102.589 130.287 103 131.739L99.082 131.786C98.8703 131.783 98.6222 131.782 98.3414 131.782C97.8027 131.782 97.1413 131.786 96.3819 131.791C95.3471 131.797 94.174 131.805 92.8699 131.805ZM69.623 128.751C69.6574 128.557 69.7352 128.353 69.8593 128.141C69.8598 128.14 69.8606 128.138 69.8612 128.137C69.736 128.351 69.6577 128.556 69.623 128.751ZM69.9212 128.04C69.922 128.038 69.9231 128.037 69.9239 128.035C69.9472 127.999 69.9699 127.963 69.9916 127.929C69.9691 127.964 69.9458 128.001 69.9212 128.04Z" fill="#455A5C"/>
<path d="M82.9717 118.848C82.9741 118.847 82.9776 118.846 82.9799 118.845C82.9776 118.846 82.9741 118.847 82.9717 118.848ZM82.9876 118.842C82.9908 118.841 82.9932 118.84 82.9961 118.839C82.9937 118.84 82.99 118.841 82.9876 118.842ZM83.0053 118.836C83.009 118.834 83.0122 118.833 83.0159 118.832C83.012 118.833 83.0093 118.834 83.0053 118.836ZM83.027 118.827C83.0307 118.826 83.0344 118.824 83.0382 118.823C83.0342 118.825 83.031 118.826 83.027 118.827ZM83.0442 118.821C83.049 118.819 83.0543 118.817 83.0593 118.815C83.0538 118.817 83.0498 118.819 83.0442 118.821ZM83.117 118.794C84.6852 118.208 86.2917 117.741 87.8827 117.437C86.2917 117.741 84.6854 118.208 83.117 118.794ZM87.8827 117.437C87.8885 117.436 87.8954 117.435 87.9009 117.434C87.8951 117.435 87.8885 117.436 87.8827 117.437ZM87.903 117.433C87.9155 117.431 87.9279 117.429 87.9403 117.426C87.9274 117.429 87.9157 117.431 87.903 117.433ZM87.9417 117.426C87.948 117.425 87.9525 117.424 87.9589 117.423C87.953 117.424 87.9475 117.425 87.9417 117.426ZM87.9613 117.422C87.9792 117.419 87.9986 117.415 88.0165 117.412C87.998 117.415 87.9798 117.419 87.9613 117.422ZM88.02 117.411C88.0255 117.41 88.0303 117.41 88.0359 117.409C88.0311 117.409 88.0248 117.411 88.02 117.411ZM88.038 117.408C88.0504 117.406 88.0634 117.403 88.0758 117.401C88.0628 117.403 88.0509 117.406 88.038 117.408ZM88.0761 117.401C88.0824 117.4 88.0877 117.399 88.0938 117.398C88.0883 117.399 88.0816 117.4 88.0761 117.401ZM88.0962 117.397C88.1086 117.395 88.1208 117.393 88.1332 117.391C88.1203 117.393 88.1089 117.395 88.0962 117.397ZM88.1361 117.39C88.1406 117.389 88.1465 117.388 88.1507 117.387C88.1459 117.388 88.1412 117.389 88.1361 117.39ZM88.1555 117.387C88.1602 117.386 88.1647 117.385 88.1697 117.384C88.1674 117.384 88.1647 117.385 88.1623 117.385C88.16 117.386 88.1578 117.386 88.1555 117.387ZM88.1737 117.383C88.1854 117.381 88.1973 117.379 88.2092 117.377C88.2012 117.379 88.1928 117.38 88.1846 117.381H88.1843C88.1811 117.382 88.1769 117.383 88.1737 117.383ZM88.2137 117.376C88.2187 117.376 88.2237 117.375 88.2287 117.374C88.224 117.375 88.2184 117.376 88.2137 117.376ZM88.2311 117.373C88.2369 117.372 88.2433 117.371 88.2489 117.37C88.2425 117.371 88.2377 117.372 88.2311 117.373ZM88.2724 117.366L88.2727 117.366C88.2719 117.366 88.2732 117.366 88.2724 117.366ZM88.274 117.366C88.2777 117.365 88.2814 117.364 88.2851 117.364C88.2819 117.364 88.2787 117.365 88.2756 117.365C88.2748 117.366 88.275 117.366 88.274 117.366ZM88.2909 117.363C88.2954 117.362 88.3007 117.361 88.3052 117.36C88.3028 117.361 88.3004 117.361 88.2981 117.362C88.2967 117.362 88.2957 117.362 88.2944 117.362C88.2928 117.362 88.2925 117.362 88.2909 117.363ZM88.3081 117.36C88.3105 117.359 88.3139 117.359 88.3163 117.358C88.3155 117.358 88.3153 117.359 88.3145 117.359C88.3118 117.359 88.3105 117.359 88.3081 117.36ZM88.3195 117.358C88.3219 117.357 88.3235 117.357 88.3258 117.357C88.3243 117.357 88.3227 117.357 88.3211 117.357C88.3206 117.358 88.32 117.358 88.3195 117.358ZM88.3293 117.356C88.3343 117.355 88.3391 117.354 88.3441 117.354C88.3433 117.354 88.343 117.354 88.3422 117.354C88.3401 117.354 88.3383 117.355 88.3359 117.355C88.3335 117.355 88.3317 117.356 88.3293 117.356ZM88.3489 117.353C88.3526 117.352 88.3563 117.351 88.36 117.351C88.3594 117.351 88.3579 117.351 88.3576 117.351C88.3544 117.352 88.352 117.352 88.3489 117.353ZM88.3671 117.35C88.3727 117.349 88.379 117.348 88.3846 117.347C88.379 117.348 88.3729 117.349 88.3671 117.35Z" fill="#BC312B"/>
<path d="M91.7483 117.095C92.9312 117.049 93.8721 117.049 94.178 117.049C93.8724 117.049 92.9326 117.049 91.7504 117.095C91.7496 117.095 91.7491 117.095 91.7483 117.095Z" fill="#1262A1"/>
<path d="M78.9272 120.677C80.2023 120.004 81.5437 119.392 82.9172 118.869L82.9177 118.869C82.9359 118.862 82.9531 118.855 82.9717 118.848C82.974 118.847 82.9775 118.846 82.9799 118.845C82.9823 118.844 82.9852 118.843 82.9875 118.842C82.9899 118.841 82.9936 118.84 82.996 118.839C82.9992 118.838 83.0021 118.837 83.0053 118.835C83.0092 118.834 83.0119 118.833 83.0159 118.832C83.0196 118.83 83.0233 118.829 83.027 118.827C83.0309 118.826 83.0341 118.825 83.0381 118.823C83.0399 118.822 83.0423 118.822 83.0442 118.821C83.0497 118.819 83.0537 118.817 83.0592 118.815C83.0598 118.815 83.0595 118.815 83.06 118.815C83.0791 118.808 83.0979 118.801 83.1169 118.794C84.6854 118.208 86.2917 117.741 87.8826 117.437C87.8884 117.436 87.895 117.435 87.9009 117.434C87.9019 117.434 87.9016 117.434 87.903 117.433C87.9157 117.431 87.9273 117.429 87.9403 117.426L87.9416 117.426C87.9474 117.425 87.953 117.424 87.9588 117.423C87.9593 117.423 87.9604 117.422 87.9612 117.422C87.9797 117.419 87.998 117.415 88.0165 117.412C88.0178 117.412 88.0186 117.411 88.0199 117.411C88.0247 117.41 88.031 117.409 88.0358 117.408C88.0363 117.408 88.0374 117.408 88.0379 117.408C88.0509 117.406 88.0628 117.403 88.0757 117.401H88.076C88.0816 117.4 88.0882 117.399 88.0937 117.398C88.0945 117.398 88.0953 117.398 88.0961 117.397C88.1088 117.395 88.1202 117.393 88.1332 117.391C88.1342 117.39 88.135 117.39 88.1361 117.39C88.1411 117.389 88.1459 117.388 88.1506 117.387C88.1525 117.387 88.1535 117.387 88.1554 117.387C88.1578 117.386 88.1599 117.386 88.1623 117.385C85.0373 117.945 81.8406 119.146 78.9794 120.65C78.9619 120.659 78.9447 120.668 78.9272 120.677ZM101.742 120.514C101.33 120.514 100.899 120.514 100.452 120.514C99.0327 117.943 96.8866 117.073 93.7368 117.051C93.2817 117.053 92.5752 117.063 91.7503 117.095C92.9324 117.049 93.8722 117.049 94.1778 117.049C95.5328 117.049 97.3787 117.049 99.5473 117.049C100.225 117.415 100.818 117.999 101.224 118.97C101.387 119.359 101.56 119.888 101.742 120.514ZM88.1623 117.385C88.1646 117.385 88.1673 117.384 88.1697 117.384C88.171 117.384 88.1723 117.384 88.1736 117.383C88.1768 117.383 88.181 117.382 88.1842 117.381C88.1768 117.383 88.1697 117.384 88.1623 117.385ZM88.1845 117.381C88.1927 117.38 88.2012 117.378 88.2091 117.377C88.2104 117.377 88.2123 117.376 88.2136 117.376C88.2183 117.375 88.2239 117.375 88.2287 117.374C88.23 117.374 88.23 117.373 88.2311 117.373C88.2377 117.372 88.2424 117.371 88.2488 117.37C88.2493 117.37 88.249 117.37 88.2496 117.37C88.2554 117.369 88.2617 117.368 88.2673 117.367C88.2691 117.367 88.2705 117.366 88.2723 117.366C88.2731 117.366 88.2718 117.366 88.2726 117.366C88.2432 117.371 88.2139 117.376 88.1845 117.381ZM88.2755 117.365C88.2787 117.365 88.2819 117.364 88.285 117.364C88.2869 117.363 88.289 117.363 88.2908 117.363C88.2924 117.362 88.2927 117.362 88.2943 117.362C88.2882 117.363 88.2816 117.364 88.2755 117.365ZM88.298 117.362C88.3004 117.361 88.3028 117.361 88.3051 117.36C88.3062 117.36 88.3067 117.36 88.308 117.36C88.3104 117.359 88.3117 117.359 88.3144 117.359C88.3091 117.36 88.303 117.361 88.298 117.362ZM88.321 117.357C88.3226 117.357 88.3242 117.357 88.3258 117.357C88.3266 117.357 88.3287 117.356 88.3292 117.356C88.3316 117.356 88.3334 117.355 88.3358 117.355C88.3308 117.356 88.326 117.357 88.321 117.357ZM88.3422 117.354C88.343 117.354 88.3432 117.354 88.344 117.354C88.3459 117.353 88.3467 117.353 88.3488 117.353C88.352 117.352 88.3543 117.352 88.3575 117.351C88.3522 117.352 88.3475 117.353 88.3422 117.354ZM88.3647 117.35C88.366 117.35 88.366 117.35 88.367 117.35C88.3729 117.349 88.379 117.348 88.3845 117.347C88.3779 117.348 88.371 117.349 88.3647 117.35ZM88.439 117.34C88.4403 117.34 88.4414 117.34 88.4425 117.34C88.4411 117.34 88.4403 117.34 88.439 117.34ZM88.4702 117.336C88.4705 117.336 88.4705 117.336 88.4708 117.336H88.4702ZM88.4832 117.335C88.4843 117.335 88.4856 117.335 88.4866 117.334C88.4856 117.335 88.4845 117.335 88.4832 117.335ZM88.5134 117.331C88.5134 117.331 88.5134 117.331 88.5136 117.331H88.5134Z" fill="#455A5C"/>
<path d="M103.252 126.446C102.715 124.291 102.201 122.092 101.742 120.514C102.354 120.514 102.925 120.514 103.445 120.514C103.42 121.18 103.515 121.746 104.095 122.412C104.642 123.041 105.226 123.532 105.948 123.913L103.252 126.446Z" fill="#6FA39B"/>
<mask id="mask4_3212_1673" style="mask-type:luminance" maskUnits="userSpaceOnUse" x="103" y="120" width="6" height="4">
<path d="M105.948 123.913C105.226 123.533 104.642 123.041 104.095 122.412C103.515 121.746 103.42 121.18 103.445 120.514C104.018 120.514 104.529 120.514 104.964 120.514C110.862 120.514 106.468 123.425 106.468 123.425L105.948 123.913Z" fill="white"/>
</mask>
<g mask="url(#mask4_3212_1673)">
<path d="M105.948 123.913C105.226 123.533 104.642 123.041 104.095 122.412C103.515 121.746 103.42 121.18 103.445 120.514C104.018 120.514 104.529 120.514 104.964 120.514C110.862 120.514 106.468 123.425 106.468 123.425L105.948 123.913Z" fill="url(#paint4_linear_3212_1673)"/>
</g>
<path d="M74.5508 123.41C75.7454 122.502 77.1829 121.599 78.8508 120.718C77.2932 121.544 75.838 122.46 74.5508 123.41Z" fill="#9B9185"/>
<path d="M74.5234 123.431C74.5324 123.424 74.5417 123.417 74.551 123.41C75.8382 122.46 77.2934 121.544 78.851 120.718C78.8766 120.704 78.9018 120.691 78.9274 120.677C77.9469 121.195 77.0047 121.749 76.1202 122.324C76.1191 122.325 76.1178 122.326 76.1168 122.326C76.1115 122.33 76.1064 122.333 76.1014 122.336C76.0996 122.338 76.0969 122.339 76.0951 122.341C76.0924 122.342 76.0906 122.344 76.0879 122.345C75.5439 122.7 75.0206 123.063 74.5234 123.431Z" fill="#6FA39B"/>
<path d="M97.229 129.178C94.5183 129.178 73.7911 129.178 70.7066 129.178C70.7018 129.171 70.6973 129.163 70.6934 129.157C70.6495 129.084 70.5584 128.934 70.8095 128.542C70.8508 128.478 70.8889 128.417 70.9254 128.359C71.4247 127.602 72.1224 126.805 72.9791 126.002C74.5047 125.678 77.3191 125.556 82.1911 125.556C83.7323 125.556 85.3894 125.568 86.9917 125.58C88.6356 125.592 90.3352 125.604 91.9566 125.604C92.5948 125.604 93.2245 125.602 93.8407 125.598L94.023 125.597C97.0943 125.597 99.9221 126.182 101.604 127.065C101.677 127.301 101.751 127.541 101.827 127.786L101.573 128.024C101.573 128.024 100.159 129.178 97.229 129.178ZM102.664 126.999C102.229 125.589 101.833 124.325 101.493 123.134C101.201 122.111 100.856 121.244 100.453 120.514C100.9 120.514 101.33 120.514 101.742 120.514C102.202 122.092 102.715 124.291 103.252 126.446L102.664 126.999ZM76.088 122.345C76.0906 122.344 76.0925 122.342 76.0951 122.341C76.0925 122.342 76.0906 122.344 76.088 122.345ZM76.1015 122.336C76.1065 122.333 76.1115 122.33 76.1168 122.327C76.1112 122.33 76.1068 122.333 76.1015 122.336ZM76.1202 122.324C77.0047 121.749 77.9469 121.195 78.9275 120.677C78.9449 120.668 78.9621 120.659 78.9796 120.65C77.9797 121.176 77.0209 121.739 76.1202 122.324Z" fill="#689994"/>
<mask id="mask5_3212_1673" style="mask-type:luminance" maskUnits="userSpaceOnUse" x="81" y="118" width="19" height="3">
<path d="M99.2643 120.514C93.3337 120.514 85.3602 120.514 81.51 120.514C83.8815 119.453 86.2926 118.692 88.544 118.308C90.4532 118.077 92.6119 118.03 93.7364 118.023C96.1589 118.041 97.9689 118.52 99.2643 120.514Z" fill="white"/>
</mask>
<g mask="url(#mask5_3212_1673)">
<path d="M99.2643 120.514C93.3337 120.514 85.3602 120.514 81.51 120.514C83.8815 119.453 86.2926 118.692 88.544 118.308C90.4532 118.077 92.6119 118.03 93.7364 118.023C96.1589 118.041 97.9689 118.52 99.2643 120.514Z" fill="url(#paint5_linear_3212_1673)"/>
</g>
<mask id="mask6_3212_1673" style="mask-type:luminance" maskUnits="userSpaceOnUse" x="72" y="120" width="30" height="8">
<path d="M101.604 127.065C99.922 126.182 97.0942 125.597 94.0229 125.597L93.8406 125.598C93.2244 125.602 92.5947 125.604 91.9565 125.604C90.3351 125.604 88.6354 125.592 86.9916 125.58C85.3893 125.568 83.7322 125.556 82.191 125.556C77.319 125.556 74.5046 125.678 72.979 126.002C74.3011 124.762 76.0016 123.508 77.9349 122.364C79.0983 121.676 80.299 121.056 81.51 120.514C85.3602 120.514 93.3336 120.514 99.2643 120.514C99.7416 121.248 100.149 122.188 100.491 123.386C100.786 124.417 101.125 125.514 101.484 126.676C101.524 126.804 101.564 126.934 101.604 127.065Z" fill="white"/>
</mask>
<g mask="url(#mask6_3212_1673)">
<path d="M101.604 127.065C99.922 126.182 97.0942 125.597 94.0229 125.597L93.8406 125.598C93.2244 125.602 92.5947 125.604 91.9565 125.604C90.3351 125.604 88.6354 125.592 86.9916 125.58C85.3893 125.568 83.7322 125.556 82.191 125.556C77.319 125.556 74.5046 125.678 72.979 126.002C74.3011 124.762 76.0016 123.508 77.9349 122.364C79.0983 121.676 80.299 121.056 81.51 120.514C85.3602 120.514 93.3336 120.514 99.2643 120.514C99.7416 121.248 100.149 122.188 100.491 123.386C100.786 124.417 101.125 125.514 101.484 126.676C101.524 126.804 101.564 126.934 101.604 127.065Z" fill="url(#paint6_linear_3212_1673)"/>
</g>
<path d="M137.848 117.049C135.32 117.049 123.241 117.049 112.074 117.049C110.229 117.064 103.986 116.973 103 118.692C102.187 120.109 102.919 122.123 103.446 123.503C104.898 127.3 106.415 132.63 109.719 132.63H109.731L115.549 133.468C120.498 133.468 140.218 133.386 152.49 133.386C158.937 133.386 163.329 133.158 162.444 132.462C155.722 127.178 142.231 117.049 137.848 117.049ZM138.575 117.958C139.536 117.958 142.224 118.68 149.432 123.513C153.662 126.35 157.596 128.769 160.883 131.326C159.648 131.448 134.87 131.491 126.73 131.246C121.566 131.091 115.051 130.969 115.051 130.969L110.447 130.812C108.221 130.812 107.256 127.77 106.091 124.595C105.912 124.108 105.743 123.647 105.571 123.196C105.174 122.157 104.434 120.223 105.066 119.122C105.102 119.058 105.503 118.487 108.186 118.173C109.905 117.972 111.774 117.964 112.89 117.96C113.041 117.96 113.177 117.959 113.286 117.958H137.363H138.575Z" fill="#474455"/>
<path d="M115.549 132.559C118.532 132.901 122.826 132.805 128.21 132.708C132.884 132.624 138.38 132.54 144.554 132.743C165.277 133.425 153.268 132.407 167.534 132.407C181.8 132.407 195.638 136.581 198.598 141.44L200.331 145.355C200.893 146.82 200.526 149.125 200.526 150.779L197.234 157.859C197.234 159.513 197.647 160.542 196.363 160.542C196.363 160.542 197.023 161.054 195.375 161.054C193.728 161.054 193.321 160.903 193.321 157.816C193.321 157.732 193.32 157.648 193.32 157.565C193.32 157.524 193.321 157.482 193.321 157.441C193.321 148.348 188.64 140.951 182.885 140.951C177.131 140.951 172.449 148.348 172.449 157.441C172.449 157.482 172.451 157.523 172.451 157.564C172.45 157.648 172.449 157.731 172.449 157.815C172.449 160.357 172.174 161.052 170.61 161.052C162.093 161.052 124.891 161.052 122.522 161.052C119.793 161.052 119.989 160.232 119.989 158.799C119.989 158.356 120.009 157.939 120.009 157.59C120.009 151.979 118.245 147.01 115.549 143.986V132.559Z" fill="#1262A1"/>
<path d="M63.6311 163.531C63.6311 164.075 64.1055 164.519 64.6852 164.519H182.205C182.785 164.519 183.259 164.075 183.259 163.531V141.808C183.259 141.265 182.785 140.82 182.205 140.82H64.6852C64.1055 140.82 63.6311 141.265 63.6311 141.808V163.531Z" fill="#3C2B3F"/>
<path d="M56.8949 171.228H65.9542C70.3466 171.229 74.0155 166.266 74.8971 159.651C75.0291 158.66 75.0987 157.632 75.0987 156.578C75.0987 148.485 71.0048 141.925 65.9542 141.925H57.2066L56.3975 156.985L56.8949 171.228Z" fill="#28252D"/>
<path d="M125.41 171.228H134.469C138.861 171.229 142.53 166.266 143.412 159.651C143.544 158.66 143.613 157.632 143.613 156.578C143.613 148.485 139.519 141.925 134.469 141.925H125.721L124.912 156.985L125.41 171.228Z" fill="#28252D"/>
<path d="M176.018 160.542C175.945 159.996 175.907 159.43 175.907 158.849C175.907 154.392 178.162 150.78 180.943 150.78L176.018 160.542Z" fill="#28252D"/>
<path d="M180.943 150.779C183.724 150.78 185.979 154.393 185.979 158.85C185.979 159.43 185.941 159.996 185.868 160.542L180.943 150.779Z" fill="#28252D"/>
<path d="M139.82 140.687L140.874 140.693V161.549H194.504C195.356 161.549 198.147 160.198 198.147 158.544L201.048 151.695C201.048 150.04 200.875 147.505 200.312 146.04L198.263 141.067C198.024 140.442 193.523 139.867 193.194 139.389H188.866H153.515H139.82V140.687Z" fill="#1262A1"/>
<path d="M124.698 132.89C139.235 135.448 147.628 140.33 147.628 140.33C150.002 140.765 158.307 145.102 158.307 145.102L186.515 144.762L190.679 143.512C176.05 132.89 161.306 132.89 150.884 132.89H124.698Z" fill="#1262A1"/>
<path d="M185.979 138.831C185.638 139.11 183.35 139.024 183.35 139.024C183.35 139.024 184.302 139.487 185.165 139.988C186.89 140.991 188.372 143.512 183.259 143.512C178.146 143.512 187.053 145.607 187.053 145.607L189.578 145.658C189.578 145.658 196.235 140.44 195.689 140.156C195.144 139.872 190.499 137.869 190.679 137.717C192.668 136.046 185.979 138.831 185.979 138.831Z" fill="#1262A1"/>
<path d="M158.361 145.102C158.361 145.102 144.716 132.559 115.549 132.559L69.4438 133.118L117.851 137.263L150.574 145.102H158.361Z" fill="#1262A1"/>
<path d="M54.9874 130.087C48.1302 130.087 45.3262 130.881 45.3262 140.336V145.508C45.3262 147.162 45.3262 146.841 45.3262 148.495V151.827H47.659C49.1468 145.463 53.0245 140.912 57.5629 140.912C63.3826 140.912 68.1176 148.394 68.1176 157.59C68.1176 157.939 68.097 158.356 68.097 158.799C68.097 160.232 67.9009 161.052 70.6306 161.052C72.9992 161.052 105.354 161.052 113.87 161.052C115.435 161.052 115.71 160.357 115.71 157.815C115.71 157.731 115.711 157.648 115.712 157.564C115.712 157.523 115.71 157.482 115.71 157.441C115.71 148.348 120.391 140.951 126.145 140.951C131.9 140.951 137.552 148.348 137.552 157.441C137.552 157.482 139.004 157.524 139.004 157.565C139.005 157.648 137.552 157.732 137.552 157.816C137.552 160.903 141.594 158.782 143.241 158.782C144.889 158.782 140.111 161.054 140.111 161.054C141.396 161.054 144.084 159.513 144.084 157.859L143.115 151.01C143.115 149.355 141.432 143.298 138.743 143.083L146.706 143.94C143.747 139.081 125.06 134.679 110.795 134.679C96.5288 134.679 98.8418 134.334 78.1183 133.652C57.3951 132.97 58.8501 130.087 58.8501 130.087H54.9874Z" fill="#1262A1"/>
<path d="M46.4849 133.114C47.7054 130.757 49.9393 130.208 53.4021 130.108L55.5569 130.857L57.1441 131.693C56.7523 131.578 55.2481 131.442 53.4815 131.442C50.6703 131.442 47.1955 131.787 46.4849 133.114Z" fill="#1262A1"/>
<path d="M57.9116 138.612H63.1493L65.2554 139.854L64.3873 140.87L59.2552 140.43L57.9116 138.612Z" fill="#28252D"/>
<mask id="mask7_3212_1673" style="mask-type:luminance" maskUnits="userSpaceOnUse" x="46" y="138" width="25" height="14">
<path d="M47.6589 151.827H46.7905C46.7905 148.411 49.7181 138.559 58.1869 138.559C59.1582 138.559 60.203 138.689 61.3243 138.973C65.1306 140.116 68.3509 143.898 70.1961 149.063C70.4609 149.52 70.6546 150.088 70.8319 150.873C70.598 150.392 70.0011 150.164 69.3462 150.164C68.5686 150.164 67.7098 150.486 67.283 151.09C67.2828 151.09 67.2828 151.09 67.2828 151.09C66.1448 146.858 63.9305 143.515 61.186 141.925C60.2295 141.371 59.209 141.029 58.1467 140.937H58.1464C58.13 140.936 58.1136 140.935 58.0972 140.933C58.0967 140.933 58.0956 140.933 58.0951 140.933C58.0914 140.933 58.0874 140.933 58.0835 140.932C58.0713 140.931 58.0591 140.93 58.0472 140.93C58.0462 140.929 58.0454 140.929 58.0443 140.929C58.0406 140.929 58.0369 140.929 58.0332 140.929C58.0329 140.929 58.0321 140.928 58.0319 140.928C58.0237 140.928 58.016 140.927 58.0078 140.927H58.0075C58.0038 140.927 58.0004 140.926 57.9967 140.926C57.9956 140.926 57.9946 140.926 57.9935 140.926C57.9898 140.926 57.9864 140.925 57.9827 140.925C57.9824 140.925 57.9816 140.925 57.9813 140.925C57.9734 140.925 57.966 140.924 57.9581 140.924C57.9578 140.924 57.957 140.924 57.9567 140.924C57.9533 140.924 57.9498 140.923 57.9464 140.923C57.9451 140.923 57.9438 140.923 57.9424 140.923C57.939 140.923 57.9356 140.923 57.9321 140.922C57.9311 140.922 57.9305 140.922 57.9295 140.922C57.9229 140.922 57.9163 140.922 57.9096 140.921C57.9083 140.921 57.907 140.921 57.9057 140.921C57.9025 140.921 57.8996 140.921 57.8964 140.921C57.8948 140.921 57.8927 140.92 57.8911 140.92C57.8879 140.92 57.885 140.92 57.8819 140.92C57.8803 140.92 57.8787 140.92 57.8771 140.92C57.8713 140.919 57.8657 140.919 57.8599 140.919C57.8583 140.919 57.8565 140.919 57.8549 140.919C57.852 140.919 57.849 140.918 57.8461 140.918C57.844 140.918 57.8419 140.918 57.8398 140.918C57.8371 140.918 57.834 140.918 57.8313 140.918C57.8289 140.918 57.8274 140.917 57.825 140.917C57.8202 140.917 57.8152 140.917 57.8104 140.917C57.8083 140.917 57.8059 140.917 57.8038 140.917C57.8009 140.917 57.7985 140.916 57.7956 140.916C57.7935 140.916 57.7911 140.916 57.789 140.916C57.7863 140.916 57.7832 140.916 57.7805 140.916C57.7781 140.916 57.776 140.916 57.7736 140.916C57.7691 140.915 57.7652 140.915 57.7607 140.915C57.758 140.915 57.7554 140.915 57.7527 140.915C57.7504 140.915 57.7474 140.915 57.7451 140.915C57.7424 140.915 57.74 140.915 57.7374 140.915C57.735 140.915 57.7324 140.914 57.73 140.914C57.7271 140.914 57.7239 140.914 57.721 140.914C57.7178 140.914 57.7146 140.914 57.7115 140.914C57.708 140.914 57.7046 140.914 57.7011 140.914C57.699 140.914 57.6969 140.914 57.6948 140.914C57.6919 140.914 57.689 140.913 57.6861 140.913C57.6837 140.913 57.6818 140.913 57.6794 140.913C57.676 140.913 57.6723 140.913 57.6689 140.913C57.6665 140.913 57.6638 140.913 57.6615 140.913C57.6577 140.913 57.6538 140.913 57.6501 140.913C57.648 140.913 57.6461 140.913 57.644 140.913C57.6408 140.913 57.6374 140.913 57.6342 140.913C57.6324 140.913 57.6308 140.913 57.6289 140.913C57.6244 140.913 57.6202 140.913 57.6157 140.912C57.6146 140.912 57.6136 140.912 57.6125 140.912C57.608 140.912 57.6032 140.912 57.5985 140.912C57.5969 140.912 57.5953 140.912 57.5937 140.912C57.59 140.912 57.5863 140.912 57.5826 140.912C57.581 140.912 57.5794 140.912 57.5778 140.912C57.5728 140.912 57.5678 140.912 57.5625 140.912C53.6625 140.912 50.2502 144.273 48.4235 149.257C48.1246 150.073 47.8679 150.932 47.6589 151.827Z" fill="white"/>
</mask>
<g mask="url(#mask7_3212_1673)">
<path d="M47.6589 151.827H46.7905C46.7905 148.411 49.7181 138.559 58.1869 138.559C59.1582 138.559 60.203 138.689 61.3243 138.973C65.1306 140.116 68.3509 143.898 70.1961 149.063C70.4609 149.52 70.6546 150.088 70.8319 150.873C70.598 150.392 70.0011 150.164 69.3462 150.164C68.5686 150.164 67.7098 150.486 67.283 151.09C67.2828 151.09 67.2828 151.09 67.2828 151.09C66.1448 146.858 63.9305 143.515 61.186 141.925C60.2295 141.371 59.209 141.029 58.1467 140.937H58.1464C58.13 140.936 58.1136 140.935 58.0972 140.933C58.0967 140.933 58.0956 140.933 58.0951 140.933C58.0914 140.933 58.0874 140.933 58.0835 140.932C58.0713 140.931 58.0591 140.93 58.0472 140.93C58.0462 140.929 58.0454 140.929 58.0443 140.929C58.0406 140.929 58.0369 140.929 58.0332 140.929C58.0329 140.929 58.0321 140.928 58.0319 140.928C58.0237 140.928 58.016 140.927 58.0078 140.927H58.0075C58.0038 140.927 58.0004 140.926 57.9967 140.926C57.9956 140.926 57.9946 140.926 57.9935 140.926C57.9898 140.926 57.9864 140.925 57.9827 140.925C57.9824 140.925 57.9816 140.925 57.9813 140.925C57.9734 140.925 57.966 140.924 57.9581 140.924C57.9578 140.924 57.957 140.924 57.9567 140.924C57.9533 140.924 57.9498 140.923 57.9464 140.923C57.9451 140.923 57.9438 140.923 57.9424 140.923C57.939 140.923 57.9356 140.923 57.9321 140.922C57.9311 140.922 57.9305 140.922 57.9295 140.922C57.9229 140.922 57.9163 140.922 57.9096 140.921C57.9083 140.921 57.907 140.921 57.9057 140.921C57.9025 140.921 57.8996 140.921 57.8964 140.921C57.8948 140.921 57.8927 140.92 57.8911 140.92C57.8879 140.92 57.885 140.92 57.8819 140.92C57.8803 140.92 57.8787 140.92 57.8771 140.92C57.8713 140.919 57.8657 140.919 57.8599 140.919C57.8583 140.919 57.8565 140.919 57.8549 140.919C57.852 140.919 57.849 140.918 57.8461 140.918C57.844 140.918 57.8419 140.918 57.8398 140.918C57.8371 140.918 57.834 140.918 57.8313 140.918C57.8289 140.918 57.8274 140.917 57.825 140.917C57.8202 140.917 57.8152 140.917 57.8104 140.917C57.8083 140.917 57.8059 140.917 57.8038 140.917C57.8009 140.917 57.7985 140.916 57.7956 140.916C57.7935 140.916 57.7911 140.916 57.789 140.916C57.7863 140.916 57.7832 140.916 57.7805 140.916C57.7781 140.916 57.776 140.916 57.7736 140.916C57.7691 140.915 57.7652 140.915 57.7607 140.915C57.758 140.915 57.7554 140.915 57.7527 140.915C57.7504 140.915 57.7474 140.915 57.7451 140.915C57.7424 140.915 57.74 140.915 57.7374 140.915C57.735 140.915 57.7324 140.914 57.73 140.914C57.7271 140.914 57.7239 140.914 57.721 140.914C57.7178 140.914 57.7146 140.914 57.7115 140.914C57.708 140.914 57.7046 140.914 57.7011 140.914C57.699 140.914 57.6969 140.914 57.6948 140.914C57.6919 140.914 57.689 140.913 57.6861 140.913C57.6837 140.913 57.6818 140.913 57.6794 140.913C57.676 140.913 57.6723 140.913 57.6689 140.913C57.6665 140.913 57.6638 140.913 57.6615 140.913C57.6577 140.913 57.6538 140.913 57.6501 140.913C57.648 140.913 57.6461 140.913 57.644 140.913C57.6408 140.913 57.6374 140.913 57.6342 140.913C57.6324 140.913 57.6308 140.913 57.6289 140.913C57.6244 140.913 57.6202 140.913 57.6157 140.912C57.6146 140.912 57.6136 140.912 57.6125 140.912C57.608 140.912 57.6032 140.912 57.5985 140.912C57.5969 140.912 57.5953 140.912 57.5937 140.912C57.59 140.912 57.5863 140.912 57.5826 140.912C57.581 140.912 57.5794 140.912 57.5778 140.912C57.5728 140.912 57.5678 140.912 57.5625 140.912C53.6625 140.912 50.2502 144.273 48.4235 149.257C48.1246 150.073 47.8679 150.932 47.6589 151.827Z" fill="#1262A1"/>
</g>
<mask id="mask8_3212_1673" style="mask-type:luminance" maskUnits="userSpaceOnUse" x="69" y="141" width="48" height="19">
<path d="M85.4774 159.254C82.4685 159.254 79.0993 159.112 76.3799 158.404C76.2376 158.328 76.1011 158.25 75.9712 158.171C75.7648 150.904 73.1523 144.61 69.3643 141.237C75.5976 141.646 88.4838 142.508 99.7969 143.319C99.7956 143.331 99.7942 143.344 99.7929 143.356L99.7919 143.368V159.192C96.3213 159.192 92.8127 159.192 90.7034 159.192C89.3178 159.192 87.4774 159.254 85.4774 159.254ZM109.974 159.192C108.788 159.192 104.635 159.192 100.31 159.192V143.391C100.312 143.38 100.313 143.368 100.314 143.356C106.675 143.814 112.493 144.253 116.29 144.583C115.044 146.59 114.12 148.944 113.558 151.493C113.476 151.467 113.39 151.453 113.303 151.453H112.804C113.095 150.347 113.413 149.727 113.413 149.727H110.089C108.823 149.727 107.725 150.436 107.225 151.453H105.853C105.648 151.453 105.448 151.53 105.303 151.666C105.158 151.802 105.075 151.99 105.075 152.182C105.075 152.374 105.158 152.562 105.303 152.698C105.448 152.834 105.648 152.911 105.853 152.911H106.938V154.634H105.853C105.648 154.634 105.448 154.712 105.303 154.847C105.158 154.983 105.075 155.171 105.075 155.363C105.075 155.555 105.158 155.743 105.303 155.879C105.448 156.015 105.648 156.093 105.853 156.093H107.21C107.578 156.997 108.282 157.612 109.085 157.612C110.266 157.612 112.334 157.612 112.334 157.612C112.334 157.612 112.334 157.354 112.334 156.093H112.576C112.71 156.093 112.842 156.059 112.959 155.998C112.934 156.476 112.922 156.957 112.922 157.441C112.882 159.078 112.155 159.192 109.974 159.192ZM113.046 154.782C112.911 154.687 112.745 154.634 112.576 154.634H112.343C112.366 154.008 112.424 153.432 112.503 152.911H113.286C113.185 153.526 113.105 154.151 113.046 154.782Z" fill="white"/>
</mask>
<g mask="url(#mask8_3212_1673)">
<path d="M85.4774 159.254C82.4685 159.254 79.0993 159.112 76.3799 158.404C76.2376 158.328 76.1011 158.25 75.9712 158.171C75.7648 150.904 73.1523 144.61 69.3643 141.237C75.5976 141.646 88.4838 142.508 99.7969 143.319C99.7956 143.331 99.7942 143.344 99.7929 143.356L99.7919 143.368V159.192C96.3213 159.192 92.8127 159.192 90.7034 159.192C89.3178 159.192 87.4774 159.254 85.4774 159.254ZM109.974 159.192C108.788 159.192 104.635 159.192 100.31 159.192V143.391C100.312 143.38 100.313 143.368 100.314 143.356C106.675 143.814 112.493 144.253 116.29 144.583C115.044 146.59 114.12 148.944 113.558 151.493C113.476 151.467 113.39 151.453 113.303 151.453H112.804C113.095 150.347 113.413 149.727 113.413 149.727H110.089C108.823 149.727 107.725 150.436 107.225 151.453H105.853C105.648 151.453 105.448 151.53 105.303 151.666C105.158 151.802 105.075 151.99 105.075 152.182C105.075 152.374 105.158 152.562 105.303 152.698C105.448 152.834 105.648 152.911 105.853 152.911H106.938V154.634H105.853C105.648 154.634 105.448 154.712 105.303 154.847C105.158 154.983 105.075 155.171 105.075 155.363C105.075 155.555 105.158 155.743 105.303 155.879C105.448 156.015 105.648 156.093 105.853 156.093H107.21C107.578 156.997 108.282 157.612 109.085 157.612C110.266 157.612 112.334 157.612 112.334 157.612C112.334 157.612 112.334 157.354 112.334 156.093H112.576C112.71 156.093 112.842 156.059 112.959 155.998C112.934 156.476 112.922 156.957 112.922 157.441C112.882 159.078 112.155 159.192 109.974 159.192ZM113.046 154.782C112.911 154.687 112.745 154.634 112.576 154.634H112.343C112.366 154.008 112.424 153.432 112.503 152.911H113.286C113.185 153.526 113.105 154.151 113.046 154.782Z" fill="#1262A1"/>
</g>
<mask id="mask9_3212_1673" style="mask-type:luminance" maskUnits="userSpaceOnUse" x="119" y="144" width="1" height="2">
<path d="M119.191 145.156C119.227 145.104 119.264 145.052 119.301 145C119.369 145.062 119.287 145.118 119.191 145.156Z" fill="white"/>
</mask>
<g mask="url(#mask9_3212_1673)">
<path d="M119.191 145.156C119.227 145.104 119.264 145.052 119.301 145C119.369 145.062 119.287 145.118 119.191 145.156Z" fill="url(#paint7_linear_3212_1673)"/>
</g>
<mask id="mask10_3212_1673" style="mask-type:luminance" maskUnits="userSpaceOnUse" x="119" y="144" width="1" height="2">
<path d="M119.19 145.156C119.227 145.104 119.264 145.051 119.301 144.999C119.301 145 119.301 145 119.301 145C119.264 145.052 119.227 145.104 119.191 145.156C119.191 145.156 119.19 145.156 119.19 145.156Z" fill="white"/>
</mask>
<g mask="url(#mask10_3212_1673)">
<path d="M119.19 145.156C119.227 145.104 119.264 145.051 119.301 144.999C119.301 145 119.301 145 119.301 145C119.264 145.052 119.227 145.104 119.191 145.156C119.191 145.156 119.19 145.156 119.19 145.156Z" fill="url(#paint8_linear_3212_1673)"/>
</g>
<path d="M116.372 144.453C118.868 140.509 122.339 138.337 126.145 138.337C129.893 138.337 133.602 140.522 136.323 144.332C138.913 147.959 140.339 152.615 140.339 157.441H137.552H137.552C137.552 148.348 131.9 140.951 126.145 140.951C120.391 140.951 115.71 148.348 115.71 157.441H112.922C112.922 152.581 114.148 147.968 116.372 144.453Z" fill="#1262A1"/>
<path d="M108.664 141.464C108.664 142.008 108.19 142.452 107.61 142.452H105.324C104.745 142.452 104.271 142.008 104.271 141.464V140.445C104.271 139.901 104.745 139.457 105.324 139.457H107.61C108.19 139.457 108.664 139.901 108.664 140.445V141.464Z" fill="#F36327"/>
<path d="M78.5532 137.023C78.3535 137.722 77.2589 138.227 76.1212 138.145L73.9254 137.988C72.7877 137.906 72.0204 137.267 72.2204 136.568C72.4202 135.87 73.5148 135.365 74.6525 135.446L76.8483 135.604C77.986 135.685 78.7533 136.324 78.5532 137.023Z" fill="#28252D"/>
<path d="M125.721 141.925C130.772 141.925 134.866 148.485 134.866 156.578C134.866 157.632 134.796 158.66 134.664 159.651C133.782 166.266 130.113 171.229 125.721 171.228C121.33 171.228 117.661 166.266 116.779 159.651C116.647 158.66 116.578 157.632 116.578 156.578C116.578 148.485 120.672 141.925 125.721 141.925Z" fill="#443D50"/>
<path d="M125.614 145.959C129.274 145.96 132.241 150.713 132.241 156.578C132.241 157.342 132.191 158.086 132.095 158.805C131.456 163.598 128.797 167.194 125.614 167.194C122.432 167.194 119.774 163.598 119.135 158.804C119.039 158.086 118.989 157.341 118.989 156.577C118.989 150.713 121.956 145.959 125.614 145.959Z" fill="#8895A3"/>
<path d="M125.615 145.959V146.567C126.378 146.568 127.11 146.811 127.814 147.286C128.868 147.997 129.827 149.248 130.506 150.864C131.188 152.479 131.593 154.451 131.593 156.578C131.593 157.316 131.544 158.036 131.452 158.729C131.145 161.042 130.345 163.052 129.281 164.443C128.751 165.14 128.157 165.681 127.538 166.041C126.918 166.401 126.279 166.585 125.615 166.586C124.951 166.585 124.312 166.401 123.692 166.041C122.764 165.501 121.892 164.55 121.204 163.288C120.515 162.027 120.009 160.463 119.778 158.729C119.686 158.036 119.637 157.316 119.637 156.577C119.635 153.741 120.36 151.181 121.489 149.376C122.052 148.473 122.714 147.761 123.416 147.286C124.12 146.81 124.852 146.568 125.615 146.567V145.959V145.351C124.548 145.35 123.537 145.702 122.656 146.301C121.331 147.202 120.267 148.644 119.517 150.417C118.77 152.191 118.341 154.305 118.341 156.577C118.341 157.366 118.392 158.136 118.492 158.879C118.824 161.36 119.672 163.545 120.894 165.15C121.505 165.951 122.212 166.609 123.007 167.073C123.8 167.536 124.687 167.802 125.615 167.801C126.542 167.802 127.429 167.536 128.222 167.073C129.414 166.376 130.411 165.249 131.18 163.843C131.949 162.435 132.49 160.741 132.738 158.88C132.837 158.136 132.889 157.367 132.889 156.578C132.888 153.549 132.129 150.8 130.86 148.762C130.224 147.744 129.458 146.901 128.574 146.301C127.693 145.702 126.682 145.351 125.615 145.351V145.959Z" fill="#E1EAE9"/>
<path d="M57.2067 141.925C62.2573 141.925 66.3512 148.485 66.3512 156.578C66.3512 157.632 66.2816 158.66 66.1496 159.651C65.268 166.266 61.599 171.229 57.2067 171.228C52.8151 171.228 49.1464 166.266 48.2648 159.651C48.1328 158.66 48.0632 157.632 48.0632 156.578C48.0632 148.485 52.1574 141.925 57.2067 141.925Z" fill="#443D50"/>
<path d="M137.552 166.69V157.441L201.048 151.695L198.866 166.69H137.552Z" fill="#1262A1"/>
<path d="M199.52 166.7H195.054L178.473 169.62L173.974 166.7H150.433V164.709H199.52V166.7Z" fill="#35323D"/>
<path d="M196.595 151.448C196.946 150.242 196.143 149.256 194.81 149.256H151.422C150.089 149.256 149.299 150.239 149.666 151.44L152.096 159.393C152.464 160.594 153.855 161.577 155.188 161.577H191.22C192.553 161.577 193.931 160.591 194.282 159.385L196.595 151.448Z" fill="#28252D"/>
<path d="M196.595 151.448C196.946 150.242 196.143 149.256 194.81 149.256H151.422C150.089 149.256 149.299 150.239 149.666 151.44L152.096 159.393C152.464 160.594 153.855 161.577 155.188 161.577H191.22C192.553 161.577 193.931 160.591 194.283 159.385L196.595 151.448Z" stroke="#1262A1" stroke-width="2.61371" stroke-miterlimit="10"/>
<path d="M156.57 145.651C152.538 143.849 140.734 137.202 137.186 139.176C133.638 141.15 137.996 144.758 142.508 145.453C147.02 146.147 156.57 145.651 156.57 145.651Z" fill="#ECDBDA"/>
<path d="M104.338 132.695C104.323 132.641 104.308 132.586 104.294 132.533L104.398 132.694L104.338 132.695Z" fill="#415055"/>
<path d="M102.441 134.612C102.248 134.608 102.061 134.603 101.875 134.599C101.904 134.534 101.933 134.476 101.961 134.423C102.27 133.845 102.768 133.37 103.188 133.031C103.35 132.9 103.501 132.79 103.626 132.704L104.339 132.695L104.4 132.694L104.453 132.774L104.232 132.902L104.22 132.909L104.18 132.933C104.145 132.955 104.093 132.988 104.028 133.031C103.899 133.116 103.721 133.242 103.526 133.399C103.143 133.707 102.699 134.138 102.441 134.612Z" fill="#1262A1"/>
<path d="M100.314 143.356C100.142 143.344 99.9696 143.332 99.7969 143.319C100.075 140.706 100.823 137.639 101.423 135.804C101.588 135.299 101.74 134.89 101.875 134.599C102.061 134.603 102.249 134.608 102.441 134.612C102.436 134.621 102.431 134.63 102.426 134.64C102.297 134.88 102.115 135.345 101.919 135.946C101.722 136.549 101.507 137.293 101.298 138.112C100.885 139.735 100.496 141.653 100.314 143.356Z" fill="#1262A1"/>
<mask id="mask11_3212_1673" style="mask-type:luminance" maskUnits="userSpaceOnUse" x="99" y="143" width="2" height="17">
<path d="M100.31 159.191C100.137 159.191 99.965 159.191 99.7917 159.191V143.368L99.7928 143.356C99.7941 143.344 99.7955 143.331 99.7968 143.319C99.9695 143.332 100.142 143.344 100.314 143.356C100.313 143.368 100.312 143.38 100.31 143.391V159.191Z" fill="white"/>
</mask>
<g mask="url(#mask11_3212_1673)">
<path d="M100.31 159.191C100.137 159.191 99.965 159.191 99.7917 159.191V143.368L99.7928 143.356C99.7941 143.344 99.7955 143.331 99.7968 143.319C99.9695 143.332 100.142 143.344 100.314 143.356C100.313 143.368 100.312 143.38 100.31 143.391V159.191Z" fill="url(#paint9_linear_3212_1673)"/>
</g>
<path d="M63.0186 138.612C70.0168 138.612 75.7368 147.417 75.9765 158.384C72.4097 157.743 72.025 156.196 71.5181 154.398C71.3897 153.538 71.0325 151.882 71.0325 151.881C70.7931 150.542 70.5629 149.696 70.1962 149.063C68.351 143.898 65.1308 140.116 61.3245 138.973C62.1092 138.738 62.1912 138.612 63.0186 138.612Z" fill="#28252D"/>
<path d="M202.324 164.611C202.324 163.942 201.741 163.395 201.028 163.395H143.266C142.553 163.395 141.969 163.942 141.969 164.611V165.475C141.969 166.143 142.553 166.69 143.266 166.69H157.986C158.699 166.69 159.752 166.366 160.326 165.969L160.541 165.821C161.115 165.424 162.168 165.1 162.881 165.1H192.069C192.782 165.1 193.618 165.458 193.928 165.895C194.237 166.332 195.074 166.69 195.787 166.69H201.028C201.741 166.69 202.324 166.143 202.324 165.475V164.611Z" fill="#1262A1"/>
<path d="M99.0813 132.759C98.3998 132.75 97.3277 132.758 95.9881 132.766C87.1825 132.82 66.8223 132.874 69.9198 128.041C72.2981 124.331 66.3511 131.134 66.3511 131.134L69.4438 133.059L72.7024 133.397L96.9131 134.374L98.2212 133.4L99.0813 132.759Z" fill="#1262A1"/>
<path d="M93.6121 115.675C94.3749 115.622 95.1758 115.542 95.9658 115.458C96.1458 114.796 96.9165 114.25 97.7385 114.694C98.0314 114.852 98.323 115.015 98.6098 115.185C100.084 115.055 101.247 115.03 101.619 115.334C101.807 115.486 101.901 115.844 101.937 116.294C103.58 114.866 106.108 114.556 108.277 114.539C109.84 114.526 113.636 117.036 112.074 117.049C110.228 117.064 103.986 116.973 103 118.691C102.186 120.109 102.919 122.123 103.446 123.503C104.899 127.305 106.418 132.642 109.731 132.63C111.298 132.624 104.826 134.491 104.445 133.084C103.297 128.842 102.256 125.806 101.493 123.134C100.157 118.459 97.7327 117.049 93.6121 117.049C87.4717 117.049 90.34 115.902 93.6121 115.675Z" fill="#1262A1"/>
<path d="M58.235 131.693C55.0986 130.092 52.8698 128.719 51.5649 126.934L47.8813 126.173L51.5265 130.435C51.5265 130.435 52.0372 130.42 53.7916 130.664C54.9288 130.822 57.1444 131.693 57.1444 131.693H58.235Z" fill="#1262A1"/>
<path d="M72.1296 156.133C75.434 159.957 85.8557 159.192 90.7034 159.192C95.5513 159.192 107.792 159.192 109.973 159.192C112.155 159.192 112.882 159.078 112.922 157.441L115.72 156.815C115.715 157.023 115.71 157.231 115.71 157.441C115.71 157.482 115.711 157.523 115.712 157.564C115.711 157.648 115.71 157.732 115.71 157.815C115.71 160.357 115.435 161.052 113.87 161.052C105.354 161.052 72.999 161.052 70.6305 161.052C67.9008 161.052 68.0968 160.232 68.0968 158.799C68.0968 158.356 68.1175 157.939 68.1175 157.59C70.0855 155.528 72.1296 156.133 72.1296 156.133Z" fill="#1262A1"/>
<path d="M187.144 145.651H158.994L154.233 142.148H186.742L187.144 145.651Z" fill="#28252D"/>
<path d="M57.1445 131.693C54.0078 130.092 51.779 128.719 50.4741 126.934L46.7905 126.173L50.4357 130.435C50.4357 130.435 50.9466 130.42 52.701 130.664C54.9315 130.974 57.1445 131.693 57.1445 131.693Z" fill="#1262A1"/>
<path d="M41.3409 125.86C41.6764 127.07 43.0416 128.059 44.3746 128.059H48.859C50.192 128.059 52.2174 127.532 53.3596 126.888L55.0236 125.948C56.1658 125.304 56.0221 124.622 54.7042 124.433L42.7712 122.722C42.5712 122.693 42.3828 122.688 42.2087 122.704H40.8247V123.924L42.58 124.586L41.3409 125.86Z" fill="#1262A1"/>
<path d="M52.9934 124.409C54.4034 124.611 54.5571 125.341 53.3352 126.03L51.9615 126.806C50.7394 127.495 48.5727 128.059 47.1464 128.059H43.0009C41.5745 128.059 40.114 127.001 39.755 125.706L39.4846 124.731C39.1258 123.437 39.9857 122.544 41.3954 122.746L52.9934 124.409Z" fill="#1262A1"/>
<path d="M77.1972 122.156C77.1972 122.156 73.5764 129.899 73.5764 131.174" stroke="#3F3B4A" stroke-width="6.53427" stroke-miterlimit="10"/>
<path d="M93.7367 117.051C92.7165 117.057 90.4323 117.097 88.3845 117.347C80.8031 118.631 72.7399 123.746 70.0361 127.857C69.9996 127.916 69.9613 127.977 69.9197 128.042C67.1477 132.366 83.1624 132.777 92.8697 132.777C95.1493 132.777 97.0826 132.755 98.3412 132.755C98.6225 132.755 98.8709 132.756 99.0813 132.759L104.339 132.695C103.233 128.657 102.233 125.723 101.493 123.134C100.17 118.506 97.7809 117.079 93.7367 117.051ZM93.7362 118.023C97.0509 118.048 99.2189 118.935 100.491 123.386C100.785 124.417 101.125 125.514 101.484 126.676C101.945 128.168 102.458 129.825 103 131.739L99.0818 131.786C98.8701 131.783 98.622 131.782 98.3412 131.782C97.8025 131.782 97.1411 131.786 96.3817 131.791C95.347 131.797 94.1738 131.805 92.8697 131.805C87.0372 131.805 82.4827 131.641 78.946 131.303C72.0954 130.649 70.8971 129.495 70.6931 129.157C70.6492 129.084 70.5582 128.933 70.8093 128.542C70.8505 128.478 70.8886 128.417 70.9251 128.359C72.1946 126.434 74.7486 124.249 77.9347 122.364C81.3767 120.328 85.143 118.888 88.5437 118.308C90.453 118.077 92.6117 118.03 93.7362 118.023Z" fill="#3F3B4A"/>
<path d="M191.858 159.385L194.171 151.448C194.523 150.242 193.719 149.256 192.386 149.256H194.81C196.143 149.256 196.946 150.242 196.595 151.448L194.283 159.385C193.931 160.591 192.553 161.577 191.22 161.577H188.796C190.129 161.577 191.507 160.591 191.858 159.385Z" fill="#1262A1"/>
<path d="M118.019 131.787C119.809 132.188 118.783 132.472 122.365 132.795C125.948 133.119 136.857 133.4 143.967 133.4C151.077 133.4 163.521 133.303 162.374 132.407H153.507L127.485 131.787H118.019Z" fill="#474455"/>
<path d="M156.57 145.651C152.934 144.026 142.979 138.462 138.457 138.833C143.613 140.387 143.29 143.755 149.179 144.768C153.676 145.542 156.57 145.651 156.57 145.651Z" fill="#F4DFDC"/>
<path d="M136.078 140.193C136.078 140.192 136.079 140.192 136.079 140.191C136.079 140.192 136.079 140.192 136.078 140.193ZM136.081 140.187C136.082 140.186 136.082 140.186 136.083 140.185C136.082 140.185 136.082 140.186 136.081 140.187ZM136.084 140.181C136.085 140.18 136.086 140.178 136.087 140.177C136.086 140.178 136.085 140.18 136.084 140.181ZM136.088 140.175C136.089 140.173 136.09 140.171 136.091 140.169C136.09 140.171 136.089 140.173 136.088 140.175ZM137.125 139.21C137.128 139.209 137.131 139.207 137.135 139.205C137.131 139.207 137.128 139.208 137.125 139.21ZM137.156 139.193C137.159 139.191 137.162 139.19 137.165 139.188C137.162 139.19 137.159 139.191 137.156 139.193Z" fill="#ECABAD"/>
<path d="M141.506 145.028C141.1 145.028 140.552 144.928 139.831 144.7C137.186 143.613 135.254 141.712 136.078 140.193C136.078 140.192 136.078 140.192 136.079 140.191C136.08 140.19 136.08 140.189 136.081 140.187C136.081 140.186 136.082 140.185 136.082 140.185C136.083 140.184 136.084 140.182 136.084 140.181C136.085 140.18 136.086 140.178 136.087 140.177C136.087 140.176 136.087 140.176 136.087 140.175C136.089 140.173 136.09 140.171 136.091 140.169C136.091 140.169 136.091 140.168 136.092 140.168C136.093 140.166 136.094 140.164 136.095 140.162C136.095 140.162 136.095 140.162 136.095 140.161C136.29 139.82 136.625 139.499 137.124 139.211C137.124 139.211 137.125 139.211 137.125 139.21C137.128 139.208 137.131 139.207 137.134 139.205C137.135 139.205 137.134 139.205 137.135 139.205C137.141 139.201 137.148 139.197 137.155 139.193C137.155 139.193 137.156 139.193 137.156 139.193C137.159 139.191 137.162 139.19 137.164 139.188C137.165 139.188 137.166 139.187 137.166 139.187C137.169 139.185 137.171 139.184 137.174 139.182C137.175 139.182 137.176 139.181 137.176 139.181C137.18 139.179 137.183 139.178 137.186 139.176L137.237 139.153C138.459 139.398 138.544 139.413 139.82 140.331C141.11 141.258 144 145.028 141.506 145.028Z" fill="#F3E9E8"/>
<path d="M200.452 145.743C200.417 145.608 200.378 145.479 200.33 145.355L198.598 141.44C198.211 140.806 197.638 140.184 196.905 139.581C193.639 141.1 190.988 144.45 189.551 145.651C189.551 145.651 195.938 145.966 200.452 145.743Z" fill="#F4DFDC"/>
<path d="M151.806 145.823C151.473 145.823 151.138 145.821 150.799 145.817C151.876 145.807 152.891 145.784 153.761 145.759C153.776 145.774 153.79 145.789 153.804 145.805C153.124 145.816 152.467 145.823 151.806 145.823Z" fill="#FAC3C1"/>
<path d="M150.799 145.817C150.185 145.81 149.557 145.796 148.896 145.773C148.691 145.347 148.46 144.945 148.207 144.567C148.512 144.642 148.835 144.709 149.179 144.768C150.8 145.047 152.213 145.24 153.356 145.372C153.507 145.505 153.643 145.634 153.761 145.759C152.891 145.784 151.876 145.807 150.799 145.817ZM139.808 138.871C139.73 138.862 139.653 138.854 139.578 138.848C139.582 138.848 139.588 138.848 139.595 138.849C139.665 138.855 139.736 138.863 139.808 138.871Z" fill="#FBF6F7"/>
<path d="M153.356 145.372C152.213 145.24 150.8 145.047 149.179 144.768C148.835 144.709 148.512 144.642 148.207 144.567C145.225 140.102 139.271 138.847 139.567 138.847C139.57 138.847 139.573 138.847 139.578 138.847C139.653 138.854 139.73 138.862 139.808 138.871C140.346 138.934 140.928 139.046 141.542 139.198C145.886 140.846 151.203 143.479 153.356 145.372Z" fill="#FCF8F8"/>
<path d="M138.979 149.464C140.978 155.556 140.525 160.574 140.427 165.959L144.359 166.51C144.359 166.51 145.987 156.05 141.77 146.147L138.979 149.464Z" fill="#1262A1"/>
<path d="M137.46 166.69H146.304C146.971 166.69 147.517 166.179 147.517 165.554V164.531C147.517 163.907 146.971 163.395 146.304 163.395H137.46V166.69Z" fill="#1262A1"/>
<path d="M161.1 157.217C161.1 157.592 161.427 157.9 161.828 157.9H178.587C178.988 157.9 179.316 157.592 179.316 157.217V153.065C179.316 152.69 178.988 152.383 178.587 152.383H161.828C161.427 152.383 161.1 152.69 161.1 153.065V157.217Z" fill="#FFFEF6"/>
<path d="M161.828 157.9H163.981V152.383H161.828C161.427 152.383 161.1 152.69 161.1 153.065V157.217C161.1 157.592 161.427 157.9 161.828 157.9Z" fill="#8BC5AB"/>
<path d="M187.755 153.167H179.316V153.066C179.316 152.69 178.988 152.383 178.587 152.383H161.828C161.427 152.383 161.1 152.69 161.1 153.066V153.167H155.641V150.033H188.739L187.755 153.167Z" fill="#28252D"/>
<path d="M179.316 153.167H163.981V152.383H161.828H178.587C178.988 152.383 179.316 152.69 179.316 153.066V153.167Z" fill="#BEBBB5"/>
<path d="M163.981 153.167H161.1V153.066C161.1 152.69 161.427 152.383 161.828 152.383H163.981V153.167Z" fill="#6A9288"/>
<path d="M68.676 133.073C68.498 133.055 68.3231 133.037 68.1514 133.019C68.2204 132.803 68.29 132.591 68.3596 132.384L68.8099 132.664C68.7652 132.799 68.7205 132.935 68.676 133.073Z" fill="#1262A1"/>
<path d="M67.2744 139.745C67.1095 139.654 66.9436 139.569 66.7759 139.489C66.9748 137.209 67.5405 134.934 68.1512 133.019C68.3229 133.037 68.4978 133.055 68.6759 133.073C68.0424 135.045 67.4532 137.409 67.2744 139.745Z" fill="#1262A1"/>
<path d="M66.7028 141.416L66.7007 141.173V141.151C66.7009 140.6 66.7277 140.044 66.7761 139.489C66.9438 139.569 67.1097 139.654 67.2746 139.745C67.2383 140.216 67.219 140.685 67.2193 141.151V141.169L67.2214 141.413L66.7028 141.416Z" fill="#2A272F"/>
<path d="M68.8099 132.664L68.3596 132.384C68.815 131.034 69.2751 129.902 69.6111 129.13C69.6397 129.362 69.7349 129.579 69.8905 129.782C69.5751 130.535 69.1894 131.525 68.8099 132.664Z" fill="#1262A1"/>
<path d="M69.8905 129.782C69.7349 129.579 69.6397 129.362 69.6111 129.13C69.6973 128.932 69.7751 128.758 69.8426 128.61L69.8429 128.61L69.945 128.387L70.4215 128.579L70.3194 128.802C70.2035 129.054 70.0569 129.385 69.8905 129.782Z" fill="#3C3847"/>
<path d="M78.9345 136.122L71.9458 135.662" stroke="#1262A1" stroke-width="11.7617" stroke-miterlimit="10" stroke-linejoin="round"/>
<path d="M126.884 166.353C124.923 165.019 123.446 162.215 122.991 158.804C122.916 158.239 122.869 157.658 122.852 157.063H124.845C124.858 157.53 124.895 157.986 124.954 158.429C125.078 159.357 125.339 160.313 125.696 161.188L125.231 161.833L126.091 162.377L126.193 162.236C126.869 163.473 127.741 164.4 128.649 164.593L128.645 164.658L129.092 164.681C128.611 165.264 128.084 165.723 127.538 166.041C127.322 166.166 127.104 166.27 126.884 166.353ZM129.737 163.784L129.747 163.603C130.171 162.863 130.68 161.737 131.041 160.264L131.127 160.425C130.803 161.704 130.323 162.846 129.737 163.784Z" fill="#CCD8D7"/>
<path d="M127.542 166.736C127.317 166.626 127.098 166.498 126.884 166.353C127.104 166.27 127.322 166.166 127.538 166.041C128.084 165.723 128.611 165.264 129.092 164.681L129.681 164.712L129.737 163.784C130.323 162.846 130.803 161.704 131.127 160.425L131.302 160.752L131.765 160.534C131.022 163.497 129.467 165.799 127.542 166.736Z" fill="#E1EAE9"/>
<path d="M131.437 158.836L131.345 158.664C131.415 158.16 131.464 157.625 131.487 157.063H131.586C131.569 157.632 131.524 158.189 131.452 158.729C131.447 158.765 131.442 158.8 131.437 158.836Z" fill="#CCD8D7"/>
<path d="M131.936 159.769L131.437 158.836C131.442 158.8 131.447 158.765 131.452 158.729C131.524 158.189 131.569 157.632 131.586 157.063H132.234C132.218 157.658 132.17 158.239 132.095 158.805C132.051 159.132 131.998 159.454 131.936 159.769Z" fill="#E1EAE9"/>
<path d="M131.586 156.091H131.501C131.489 155.209 131.412 154.414 131.291 153.702L131.322 153.619C131.47 154.405 131.561 155.234 131.586 156.091Z" fill="#CCD8D7"/>
<path d="M132.234 156.091H131.586C131.56 155.234 131.47 154.405 131.322 153.619L131.74 152.52C132.026 153.628 132.198 154.831 132.234 156.091Z" fill="#E1EAE9"/>
<path d="M124.855 156.091H122.852C122.97 151.905 124.601 148.355 126.888 146.802C127.202 146.92 127.511 147.082 127.814 147.286C128.261 147.588 128.692 147.988 129.091 148.471L128.645 148.494L128.662 148.777C127.678 148.944 126.81 149.832 126.151 151.08L126.085 150.993L125.237 151.553L125.675 152.135C125.215 153.335 124.922 154.726 124.855 156.091ZM130.861 151.935C130.523 150.894 130.106 150.124 129.751 149.602L129.737 149.37C130.02 149.823 130.279 150.323 130.506 150.864C130.643 151.188 130.769 151.527 130.882 151.878L130.861 151.935Z" fill="#CCD8D7"/>
<path d="M130.882 151.878C130.769 151.527 130.643 151.188 130.506 150.864C130.279 150.323 130.02 149.823 129.736 149.37L129.681 148.44L129.091 148.471C128.692 147.987 128.261 147.588 127.814 147.286C127.511 147.082 127.202 146.92 126.888 146.802C127.102 146.657 127.322 146.529 127.547 146.42C129.264 147.258 130.686 149.182 131.5 151.694L131.014 151.532L130.882 151.878Z" fill="#E1EAE9"/>
<mask id="mask12_3212_1673" style="mask-type:luminance" maskUnits="userSpaceOnUse" x="106" y="149" width="8" height="9">
<path d="M112.334 157.612C112.334 157.612 110.266 157.612 109.085 157.612C108.282 157.612 107.578 156.997 107.21 156.093H112.334C112.334 157.354 112.334 157.612 112.334 157.612ZM112.343 154.634H106.938V152.911H112.503C112.424 153.432 112.366 154.008 112.343 154.634ZM112.804 151.453H107.225C107.725 150.436 108.823 149.726 110.089 149.726H113.413C113.413 149.726 113.095 150.347 112.804 151.453Z" fill="white"/>
</mask>
<g mask="url(#mask12_3212_1673)">
<path d="M112.334 157.612C112.334 157.612 110.266 157.612 109.085 157.612C108.282 157.612 107.578 156.997 107.21 156.093H112.334C112.334 157.354 112.334 157.612 112.334 157.612ZM112.343 154.634H106.938V152.911H112.503C112.424 153.432 112.366 154.008 112.343 154.634ZM112.804 151.453H107.225C107.725 150.436 108.823 149.726 110.089 149.726H113.413C113.413 149.726 113.095 150.347 112.804 151.453Z" fill="url(#paint10_linear_3212_1673)"/>
</g>
<mask id="mask13_3212_1673" style="mask-type:luminance" maskUnits="userSpaceOnUse" x="105" y="151" width="9" height="2">
<path d="M113.286 152.911H105.853C105.648 152.911 105.448 152.834 105.303 152.698C105.158 152.562 105.075 152.374 105.075 152.182C105.075 151.99 105.158 151.802 105.303 151.666C105.447 151.53 105.648 151.453 105.853 151.453H107.225H112.803H113.303C113.39 151.453 113.476 151.467 113.558 151.493C113.455 151.96 113.364 152.433 113.286 152.911Z" fill="white"/>
</mask>
<g mask="url(#mask13_3212_1673)">
<path d="M113.286 152.911H105.853C105.648 152.911 105.448 152.834 105.303 152.698C105.158 152.562 105.075 152.374 105.075 152.182C105.075 151.99 105.158 151.802 105.303 151.666C105.447 151.53 105.648 151.453 105.853 151.453H107.225H112.803H113.303C113.39 151.453 113.476 151.467 113.558 151.493C113.455 151.96 113.364 152.433 113.286 152.911Z" fill="url(#paint11_linear_3212_1673)"/>
</g>
<path d="M113.303 152.911H113.286C113.364 152.433 113.455 151.96 113.558 151.493C113.668 151.529 113.77 151.588 113.853 151.666C113.998 151.802 114.081 151.99 114.081 152.182C114.081 152.374 113.998 152.562 113.853 152.698C113.708 152.834 113.508 152.911 113.303 152.911Z" fill="#1262A1"/>
<mask id="mask14_3212_1673" style="mask-type:luminance" maskUnits="userSpaceOnUse" x="105" y="154" width="9" height="3">
<path d="M112.576 156.093H105.853C105.648 156.093 105.448 156.015 105.303 155.879C105.158 155.743 105.075 155.555 105.075 155.363C105.075 155.171 105.158 154.983 105.303 154.847C105.447 154.712 105.648 154.634 105.853 154.634H106.938H112.343H112.576C112.745 154.634 112.911 154.687 113.046 154.782C113.008 155.185 112.979 155.59 112.958 155.998C112.842 156.059 112.71 156.093 112.576 156.093Z" fill="white"/>
</mask>
<g mask="url(#mask14_3212_1673)">
<path d="M112.576 156.093H105.853C105.648 156.093 105.448 156.015 105.303 155.879C105.158 155.743 105.075 155.555 105.075 155.363C105.075 155.171 105.158 154.983 105.303 154.847C105.447 154.712 105.648 154.634 105.853 154.634H106.938H112.343H112.576C112.745 154.634 112.911 154.687 113.046 154.782C113.008 155.185 112.979 155.59 112.958 155.998C112.842 156.059 112.71 156.093 112.576 156.093Z" fill="url(#paint12_linear_3212_1673)"/>
</g>
<path d="M112.958 155.998C112.979 155.59 113.008 155.185 113.046 154.782C113.074 154.802 113.101 154.824 113.126 154.847C113.271 154.983 113.354 155.171 113.354 155.363C113.354 155.555 113.271 155.743 113.126 155.879C113.076 155.926 113.019 155.966 112.958 155.998Z" fill="#1262A1"/>
<path d="M129.001 148.748C129.256 148.873 131.503 151.159 131.503 156.329C131.503 161.499 129.269 164.497 128.997 164.63C127.14 164.63 125.348 161.387 124.954 158.429C124.879 157.868 124.84 157.285 124.84 156.688C124.84 152.943 126.631 148.748 129.001 148.748Z" fill="#35323D"/>
<path d="M132.241 157.063H132.234C132.238 156.902 132.241 156.74 132.241 156.578C132.241 156.414 132.238 156.252 132.234 156.091H132.241V157.063Z" fill="#E1EAE9"/>
<path d="M131.584 157.063H131.487C131.497 156.823 131.502 156.579 131.502 156.329C131.502 156.249 131.502 156.17 131.501 156.091H131.584C131.588 156.252 131.591 156.414 131.591 156.578C131.591 156.741 131.588 156.902 131.584 157.063Z" fill="#CCD8D7"/>
<path d="M132.234 157.063H131.586C131.59 156.902 131.593 156.741 131.593 156.578C131.593 156.414 131.59 156.252 131.586 156.091H132.234C132.239 156.252 132.241 156.414 132.241 156.578C132.241 156.74 132.239 156.902 132.234 157.063Z" fill="#E1EAE9"/>
<path d="M122.852 157.063H122.845V156.577C122.845 156.74 122.847 156.902 122.852 157.063ZM122.845 156.577V156.091H122.852C122.847 156.252 122.845 156.414 122.845 156.577Z" fill="#CCD8D7"/>
<path d="M124.845 157.063H122.852C122.847 156.902 122.845 156.74 122.845 156.577C122.845 156.414 122.847 156.252 122.852 156.091H124.855C124.845 156.291 124.84 156.49 124.84 156.689C124.84 156.814 124.842 156.939 124.845 157.063Z" fill="#CCD8D7"/>
<path d="M131.487 157.063H131.044C131.06 156.906 131.069 156.744 131.069 156.58C131.069 156.413 131.06 156.25 131.043 156.091H131.501C131.502 156.17 131.503 156.249 131.503 156.329C131.503 156.579 131.497 156.823 131.487 157.063ZM127.458 157.063H124.845C124.842 156.939 124.84 156.814 124.84 156.689C124.84 156.49 124.845 156.291 124.855 156.091H127.459C127.442 156.25 127.433 156.413 127.433 156.579C127.433 156.744 127.442 156.906 127.458 157.063Z" fill="#CCD8D7"/>
<path d="M129.092 164.681L128.645 164.658L128.649 164.592C128.764 164.617 128.88 164.63 128.997 164.63C129.086 164.586 129.385 164.236 129.747 163.603L129.736 163.784C129.591 164.017 129.439 164.237 129.281 164.443C129.219 164.525 129.156 164.604 129.092 164.681Z" fill="#CCD8D7"/>
<path d="M129.681 164.712L129.092 164.681C129.156 164.604 129.219 164.525 129.281 164.443C129.439 164.237 129.591 164.017 129.737 163.784L129.681 164.712Z" fill="#E1EAE9"/>
<path d="M128.997 164.63C128.881 164.63 128.765 164.617 128.649 164.592L128.957 159.454C129.052 159.479 129.151 159.492 129.251 159.492C129.251 159.492 129.251 159.492 129.251 159.492C129.522 159.492 129.778 159.397 130.009 159.227L129.747 163.603C129.385 164.236 129.086 164.586 128.997 164.63Z" fill="#CCD8D7"/>
<path d="M129.75 149.602C129.385 149.065 129.085 148.789 129.001 148.748C128.886 148.748 128.774 148.758 128.662 148.777L128.645 148.494L129.091 148.471C129.317 148.745 129.533 149.045 129.736 149.37L129.75 149.602Z" fill="#CCD8D7"/>
<path d="M129.736 149.37C129.533 149.045 129.317 148.745 129.091 148.471L129.681 148.44L129.736 149.37Z" fill="#E1EAE9"/>
<path d="M130.009 153.932C129.778 153.762 129.521 153.667 129.251 153.667C129.151 153.667 129.053 153.68 128.957 153.705L128.662 148.777C128.774 148.758 128.886 148.748 129.001 148.748C129.085 148.789 129.385 149.065 129.751 149.602L130.009 153.932Z" fill="#CCD8D7"/>
<path d="M125.237 151.553L129.018 156.583L125.231 161.832L126.091 162.377L130.278 156.572L126.085 150.993L125.237 151.553Z" fill="#CCD8D7"/>
<path d="M131.765 160.534C131.828 160.283 131.885 160.028 131.936 159.769L132.229 160.316L131.765 160.534Z" fill="#E1EAE9"/>
<path d="M131.127 160.425L131.041 160.264C131.162 159.769 131.266 159.236 131.345 158.664L131.437 158.836C131.36 159.384 131.256 159.916 131.127 160.425Z" fill="#CCD8D7"/>
<path d="M131.302 160.752L131.127 160.425C131.256 159.916 131.36 159.384 131.437 158.836L131.936 159.769C131.885 160.028 131.828 160.283 131.765 160.534L131.302 160.752Z" fill="#E1EAE9"/>
<path d="M131.041 160.264L130.326 158.928C130.568 158.643 130.765 158.263 130.895 157.823L131.345 158.664C131.266 159.236 131.162 159.769 131.041 160.264Z" fill="#CCD8D7"/>
<path d="M131.74 152.52C131.667 152.238 131.587 151.962 131.5 151.694L131.991 151.857L131.74 152.52Z" fill="#E1EAE9"/>
<path d="M131.29 153.702C131.178 153.044 131.029 152.455 130.861 151.935L130.882 151.878C131.06 152.429 131.208 153.011 131.322 153.619L131.29 153.702Z" fill="#CCD8D7"/>
<path d="M131.322 153.619C131.208 153.011 131.06 152.429 130.882 151.878L131.014 151.532L131.5 151.694C131.587 151.962 131.667 152.238 131.74 152.52L131.322 153.619Z" fill="#E1EAE9"/>
<path d="M130.788 155.025C130.615 154.586 130.371 154.226 130.081 153.988L130.861 151.935C131.03 152.455 131.179 153.044 131.29 153.702L130.788 155.025Z" fill="#CCD8D7"/>
<path d="M128.957 159.454C128.762 159.403 128.578 159.303 128.41 159.162L129.025 158.309L128.957 159.454ZM130.009 159.227L130.057 158.426L130.326 158.928C130.227 159.044 130.121 159.145 130.009 159.227ZM127.783 158.296C127.635 157.972 127.528 157.596 127.474 157.19C127.468 157.148 127.463 157.106 127.458 157.063H128.672L127.783 158.296ZM128.648 156.091H127.459C127.505 155.657 127.61 155.257 127.761 154.911L128.648 156.091ZM129.029 154.909L128.369 154.032C128.549 153.872 128.747 153.759 128.957 153.705L129.029 154.909ZM130.022 154.143L130.009 153.932C130.034 153.949 130.057 153.968 130.081 153.988L130.022 154.143Z" fill="#CCD8D7"/>
<path d="M128.672 157.063H127.458C127.442 156.906 127.433 156.744 127.433 156.579C127.433 156.413 127.442 156.25 127.459 156.091H128.648L129.018 156.583L128.672 157.063Z" fill="#CCD8D7"/>
<path d="M129.251 159.492C129.251 159.492 129.251 159.492 129.251 159.492C129.151 159.492 129.052 159.479 128.957 159.454L129.025 158.309L129.581 157.538L130.057 158.426L130.009 159.227C129.778 159.397 129.522 159.492 129.251 159.492Z" fill="#CCD8D7"/>
<path d="M129.495 155.53L129.029 154.909L128.957 153.705C129.053 153.68 129.151 153.667 129.251 153.667C129.521 153.667 129.778 153.762 130.009 153.932L130.022 154.143L129.495 155.53Z" fill="#CCD8D7"/>
<path d="M128.41 159.162C128.162 158.954 127.947 158.656 127.783 158.296L128.672 157.063L129.018 156.583L128.648 156.091L127.761 154.911C127.919 154.549 128.127 154.247 128.369 154.032L129.029 154.909L129.495 155.53L129.085 156.61L129.582 157.538L129.025 158.309L128.41 159.162Z" fill="#CCD8D7"/>
<path d="M130.895 157.823L130.488 157.063H131.044C131.039 157.106 131.034 157.148 131.029 157.191C130.999 157.412 130.954 157.624 130.895 157.823ZM131.043 156.091H130.384L130.788 155.025C130.914 155.344 131.002 155.704 131.043 156.091Z" fill="#CCD8D7"/>
<path d="M131.044 157.063H130.488L130.248 156.614L130.278 156.572L130.227 156.503L130.383 156.091H131.043C131.06 156.25 131.069 156.413 131.069 156.58C131.069 156.744 131.06 156.906 131.044 157.063Z" fill="#CCD8D7"/>
<path d="M130.246 156.614L130.211 156.546L130.226 156.505L130.275 156.572L130.246 156.614Z" fill="#CCD8D7"/>
<path d="M130.326 158.928L130.057 158.426L130.138 157.063H130.488L130.895 157.823C130.765 158.263 130.568 158.643 130.326 158.928ZM130.383 156.091H130.138L130.022 154.143L130.081 153.988C130.37 154.226 130.615 154.586 130.788 155.025L130.383 156.091Z" fill="#CCD8D7"/>
<path d="M130.488 157.063H130.138L130.158 156.739L130.248 156.614L130.488 157.063ZM130.227 156.503L130.157 156.411L130.138 156.091H130.383L130.227 156.503Z" fill="#CCD8D7"/>
<path d="M130.057 158.426L129.581 157.538L129.924 157.063H130.138L130.057 158.426Z" fill="#CCD8D7"/>
<path d="M130.134 157.063H129.924L130.153 156.739L130.134 157.063Z" fill="#CCD8D7"/>
<path d="M130.139 156.091H129.917L129.495 155.53L130.022 154.143L130.139 156.091Z" fill="#CCD8D7"/>
<path d="M130.158 156.411L129.917 156.091H130.138L130.158 156.411Z" fill="#CCD8D7"/>
<path d="M129.582 157.537L129.085 156.61L129.495 155.53L129.917 156.091L130.158 156.411L130.227 156.503L130.211 156.545L130.248 156.614L130.158 156.739L129.924 157.063L129.582 157.537Z" fill="#CCD8D7"/>
<path d="M57.0297 145.861C60.6897 145.861 63.6562 150.615 63.6562 156.479C63.6562 157.243 63.606 157.987 63.5102 158.706C62.8712 163.5 60.2127 167.095 57.0297 167.095C53.8473 167.095 51.1888 163.499 50.5501 158.705C50.4543 157.987 50.4041 157.242 50.4041 156.478C50.4041 150.614 53.3708 145.86 57.0297 145.861Z" fill="#8895A3"/>
<path d="M57.03 145.861V146.468C57.7931 146.469 58.5254 146.712 59.2295 147.188C60.2833 147.898 61.2424 149.149 61.9219 150.765C62.6032 152.38 63.0085 154.352 63.0083 156.479C63.0083 157.218 62.9596 157.937 62.867 158.63C62.5603 160.943 61.7605 162.953 60.6969 164.344C60.1661 165.041 59.5721 165.582 58.9533 165.942C58.3328 166.303 57.6941 166.486 57.03 166.487C56.3659 166.486 55.7275 166.303 55.1073 165.942C54.1791 165.403 53.3073 164.452 52.6192 163.189C51.9302 161.929 51.4243 160.364 51.1936 158.63C51.1012 157.937 51.0526 157.217 51.0526 156.478C51.051 153.642 51.7757 151.082 52.9046 149.277C53.4677 148.374 54.1291 147.662 54.8308 147.187C55.5349 146.712 56.2672 146.469 57.03 146.468V145.861V145.253C55.9632 145.252 54.9525 145.603 54.0712 146.202C52.7467 147.103 51.6825 148.545 50.933 150.318C50.1855 152.093 49.7564 154.207 49.7561 156.478C49.7561 157.267 49.808 158.037 49.9069 158.78C50.2392 161.262 51.088 163.446 52.3088 165.051C52.9203 165.853 53.6277 166.51 54.4226 166.974C55.2155 167.438 56.1027 167.703 57.03 167.703C57.9574 167.703 58.8445 167.438 59.6378 166.974C60.83 166.277 61.8261 165.15 62.5955 163.744C63.3641 162.336 63.9052 160.642 64.1537 158.781C64.2529 158.037 64.305 157.268 64.305 156.479C64.3031 153.45 63.5446 150.701 62.2754 148.664C61.6393 147.645 60.8728 146.802 59.9894 146.202C59.1078 145.603 58.0971 145.252 57.03 145.253V145.861Z" fill="#E1EAE9"/>
<path d="M58.2991 166.254C56.3385 164.92 54.8611 162.116 54.4065 158.705C54.3314 158.14 54.284 157.559 54.2673 156.964H56.2607C56.2737 157.431 56.3104 157.887 56.3697 158.331C56.4933 159.258 56.7544 160.214 57.1119 161.089L56.647 161.734L57.5061 162.278L57.6082 162.137C58.2848 163.375 59.1566 164.301 60.0646 164.494L60.0609 164.559L60.5078 164.583C60.0265 165.165 59.4995 165.624 58.9531 165.942C58.7375 166.068 58.5194 166.172 58.2991 166.254ZM61.1521 163.685L61.1629 163.504C61.5862 162.764 62.0956 161.638 62.4562 160.165L62.5422 160.326C62.2181 161.605 61.7384 162.748 61.1521 163.685ZM62.8523 158.737L62.7605 158.565C62.8298 158.061 62.8792 157.527 62.9028 156.964H63.001C62.9846 157.534 62.939 158.09 62.8668 158.63C62.862 158.666 62.8573 158.702 62.8523 158.737Z" fill="#CCD8D7"/>
<path d="M58.9576 166.637C58.7327 166.528 58.5131 166.399 58.2991 166.254C58.5195 166.172 58.7375 166.068 58.9531 165.942C59.4995 165.624 60.0265 165.165 60.5078 164.583L61.0965 164.614L61.1521 163.685C61.7384 162.748 62.2181 161.605 62.5422 160.326L62.7171 160.653L63.1809 160.435C62.4372 163.399 60.8827 165.7 58.9576 166.637ZM63.3518 159.67L62.8523 158.737C62.8573 158.702 62.8621 158.666 62.8668 158.631C62.9391 158.09 62.9846 157.534 63.001 156.964H63.6495C63.6328 157.559 63.5857 158.141 63.5103 158.706C63.4666 159.033 63.4137 159.355 63.3518 159.67Z" fill="#E1EAE9"/>
<path d="M63.001 155.992H62.9163C62.9044 155.111 62.8269 154.316 62.7059 153.604L62.7377 153.52C62.8853 154.306 62.9761 155.135 63.001 155.992ZM56.2705 155.992H54.2673C54.3851 151.806 56.016 148.256 58.3038 146.704C58.6176 146.821 58.9261 146.983 59.2293 147.188C59.677 147.49 60.1072 147.889 60.5065 148.372L60.0609 148.396L60.0776 148.678C59.0939 148.846 58.2252 149.733 57.5659 150.981L57.5005 150.894L56.6526 151.454L57.0902 152.037C56.6298 153.236 56.3377 154.627 56.2705 155.992ZM62.276 151.836C61.9381 150.795 61.5214 150.026 61.1658 149.503L61.1521 149.271C61.4354 149.724 61.6942 150.224 61.9217 150.765C62.0585 151.089 62.1842 151.428 62.2977 151.779L62.276 151.836Z" fill="#CCD8D7"/>
<path d="M63.6493 155.992H63.0009C62.976 155.135 62.8852 154.306 62.7376 153.52L63.1551 152.421C63.4414 153.529 63.6139 154.732 63.6493 155.992ZM62.2976 151.779C62.1841 151.428 62.0584 151.089 61.9216 150.765C61.6941 150.224 61.4353 149.724 61.152 149.271L61.0964 148.341L60.5064 148.372C60.1071 147.889 59.6769 147.49 59.2292 147.188C58.926 146.983 58.6175 146.821 58.3037 146.704C58.5178 146.558 58.7376 146.43 58.9628 146.321C60.6799 147.159 62.1013 149.083 62.9149 151.595L62.4294 151.433L62.2976 151.779Z" fill="#E1EAE9"/>
<path d="M60.4164 148.649C60.6718 148.774 62.9181 151.06 62.9181 156.23C62.9181 161.4 60.685 164.398 60.4122 164.531C58.5551 164.531 56.7639 161.288 56.3699 158.33C56.295 157.769 56.2559 157.187 56.2559 156.59C56.2559 152.844 58.0463 148.649 60.4164 148.649Z" fill="#35323D"/>
<path d="M63.6558 156.964H63.6494C63.6536 156.803 63.6558 156.642 63.6558 156.479C63.6558 156.316 63.6536 156.153 63.6494 155.992H63.6558V156.964Z" fill="#E1EAE9"/>
<path d="M62.9991 156.964H62.9028C62.9124 156.725 62.9176 156.48 62.9176 156.23C62.9176 156.15 62.9171 156.071 62.9161 155.992H62.9991C63.0038 156.153 63.0061 156.316 63.0061 156.479C63.0061 156.642 63.0038 156.803 62.9991 156.964Z" fill="#CCD8D7"/>
<path d="M63.6495 156.964H63.001C63.0057 156.803 63.0081 156.642 63.0081 156.479C63.0081 156.316 63.0057 156.153 63.001 155.992H63.6495C63.654 156.153 63.6563 156.316 63.6563 156.479C63.6563 156.642 63.654 156.803 63.6495 156.964Z" fill="#E1EAE9"/>
<path d="M62.9027 156.964H62.459C62.4754 156.807 62.4839 156.645 62.4839 156.481C62.4839 156.314 62.4752 156.151 62.4585 155.992H62.9162C62.9173 156.071 62.9178 156.15 62.9178 156.23C62.9178 156.48 62.9125 156.725 62.9027 156.964Z" fill="#CCD8D7"/>
<path d="M54.2669 156.964H54.2605V156.478C54.2605 156.641 54.2627 156.803 54.2669 156.964ZM54.2605 156.478V155.992H54.2669C54.2627 156.153 54.2605 156.315 54.2605 156.478Z" fill="#CCD8D7"/>
<path d="M56.2607 156.964H54.2674C54.2629 156.803 54.2605 156.641 54.2605 156.478C54.2605 156.315 54.2629 156.153 54.2674 155.992H56.2705C56.2607 156.192 56.2557 156.391 56.2557 156.59C56.2557 156.715 56.2573 156.84 56.2607 156.964Z" fill="#CCD8D7"/>
<path d="M58.8739 156.964H56.2609C56.2574 156.84 56.2559 156.715 56.2559 156.59C56.2559 156.391 56.2609 156.192 56.2707 155.992H58.8744C58.8578 156.151 58.849 156.314 58.849 156.481C58.849 156.645 58.8575 156.807 58.8739 156.964Z" fill="#CCD8D7"/>
<path d="M60.5077 164.583L60.0608 164.559L60.0645 164.494C60.1799 164.518 60.2957 164.531 60.4119 164.531C60.5013 164.488 60.8006 164.137 61.1628 163.504L61.1519 163.685C61.0064 163.918 60.8543 164.138 60.6966 164.345C60.6344 164.426 60.5714 164.505 60.5077 164.583Z" fill="#CCD8D7"/>
<path d="M61.0965 164.614L60.5078 164.583C60.5716 164.505 60.6346 164.426 60.6967 164.345C60.8544 164.138 61.0066 163.918 61.1521 163.685L61.0965 164.614Z" fill="#E1EAE9"/>
<path d="M60.4121 164.531C60.2959 164.531 60.1801 164.518 60.0647 164.494L60.3721 159.355C60.4679 159.38 60.5663 159.393 60.6666 159.393C60.937 159.393 61.1939 159.298 61.4244 159.128L61.163 163.504C60.8008 164.137 60.5015 164.487 60.4121 164.531Z" fill="#CCD8D7"/>
<path d="M61.1657 149.503C60.8008 148.967 60.5003 148.69 60.4161 148.65C60.3018 148.65 60.1891 148.659 60.0775 148.678L60.0608 148.396L60.5063 148.372C60.7326 148.646 60.9485 148.946 61.1519 149.271L61.1657 149.503Z" fill="#CCD8D7"/>
<path d="M61.1522 149.271C60.9487 148.946 60.7328 148.646 60.5066 148.372L61.0966 148.341L61.1522 149.271Z" fill="#E1EAE9"/>
<path d="M61.4249 153.833C61.1939 153.663 60.937 153.568 60.6663 153.568C60.6663 153.568 60.6663 153.568 60.6661 153.568C60.5661 153.568 60.4679 153.581 60.3724 153.606L60.0776 148.678C60.1893 148.659 60.302 148.649 60.4163 148.649C60.5004 148.69 60.801 148.966 61.1659 149.503L61.4249 153.833Z" fill="#CCD8D7"/>
<path d="M56.6525 151.454L60.4332 156.485L56.647 161.734L57.5061 162.278L61.6936 156.473L57.5005 150.894L56.6525 151.454Z" fill="#CCD8D7"/>
<path d="M63.1809 160.435C63.2436 160.185 63.3008 159.929 63.3518 159.67L63.6445 160.217L63.1809 160.435Z" fill="#E1EAE9"/>
<path d="M62.5423 160.326L62.4563 160.165C62.5775 159.671 62.6817 159.137 62.7606 158.565L62.8524 158.737C62.7759 159.286 62.6714 159.817 62.5423 160.326Z" fill="#CCD8D7"/>
<path d="M62.7171 160.653L62.5422 160.326C62.6714 159.817 62.7759 159.286 62.8523 158.737L63.3519 159.67C63.3008 159.929 63.2436 160.185 63.1809 160.435L62.7171 160.653Z" fill="#E1EAE9"/>
<path d="M62.4564 160.165L61.7415 158.83C61.9841 158.544 62.1807 158.165 62.3106 157.725L62.7606 158.566C62.6818 159.137 62.5775 159.671 62.4564 160.165Z" fill="#CCD8D7"/>
<path d="M63.1553 152.421C63.0825 152.139 63.0021 151.864 62.915 151.595L63.4066 151.759L63.1553 152.421Z" fill="#E1EAE9"/>
<path d="M62.7061 153.604C62.5942 152.945 62.4449 152.357 62.2761 151.836L62.2978 151.779C62.4759 152.33 62.6238 152.912 62.7378 153.52L62.7061 153.604Z" fill="#CCD8D7"/>
<path d="M62.7376 153.52C62.6236 152.912 62.4757 152.33 62.2976 151.779L62.4294 151.433L62.9149 151.595C63.0019 151.863 63.0824 152.139 63.1551 152.421L62.7376 153.52Z" fill="#E1EAE9"/>
<path d="M62.2038 154.926C62.0305 154.487 61.786 154.128 61.4966 153.889L62.276 151.836C62.4448 152.357 62.5941 152.945 62.706 153.604L62.2038 154.926Z" fill="#CCD8D7"/>
<path d="M60.3721 159.355C60.1776 159.304 59.994 159.204 59.8254 159.063L60.4403 158.21L60.3721 159.355ZM61.4243 159.129L61.4725 158.327L61.7413 158.83C61.6429 158.945 61.5368 159.046 61.4243 159.129Z" fill="#CCD8D7"/>
<path d="M60.6665 159.393C60.5663 159.393 60.4678 159.38 60.3721 159.355L60.4403 158.21L60.997 157.439L61.4725 158.327L61.4243 159.128C61.1939 159.298 60.937 159.393 60.6665 159.393Z" fill="#CCD8D7"/>
<path d="M59.1982 158.197C59.0503 157.873 58.9431 157.498 58.8889 157.092C58.8833 157.05 58.8783 157.007 58.8738 156.964H60.0872L59.1982 158.197ZM60.0631 155.992H58.8743C58.9201 155.559 59.0254 155.158 59.1765 154.812L60.0631 155.992Z" fill="#CCD8D7"/>
<path d="M60.0871 156.964H58.8737C58.8573 156.807 58.8489 156.645 58.8489 156.481C58.8489 156.314 58.8576 156.151 58.8743 155.992H60.063L60.4332 156.485L60.0871 156.964Z" fill="#CCD8D7"/>
<path d="M60.4443 154.811L59.7847 153.933C59.9641 153.773 60.162 153.661 60.3723 153.606L60.4443 154.811ZM61.4373 154.044L61.4248 153.833C61.4489 153.851 61.4727 153.869 61.4965 153.889L61.4373 154.044Z" fill="#CCD8D7"/>
<path d="M60.9107 155.431L60.4443 154.811L60.3723 153.606C60.4678 153.581 60.566 153.568 60.666 153.568C60.6663 153.568 60.6663 153.568 60.6663 153.568C60.9369 153.568 61.1938 153.663 61.4248 153.833L61.4373 154.045L60.9107 155.431Z" fill="#CCD8D7"/>
<path d="M59.8255 159.063C59.5771 158.855 59.3625 158.557 59.1982 158.197L60.0872 156.964L60.4333 156.485L60.0631 155.992L59.1765 154.812C59.3345 154.45 59.5427 154.149 59.7848 153.933L60.4444 154.811L60.9109 155.431L60.5005 156.511L60.9971 157.439L60.4404 158.21L59.8255 159.063Z" fill="#CCD8D7"/>
<path d="M62.3103 157.724L61.9034 156.964H62.459C62.4545 157.007 62.4495 157.05 62.4439 157.092C62.4145 157.313 62.3693 157.525 62.3103 157.724ZM62.4585 155.992H61.7986L62.2037 154.926C62.3293 155.245 62.4177 155.605 62.4585 155.992Z" fill="#CCD8D7"/>
<path d="M62.4591 156.964H61.9035L61.6633 156.515L61.6937 156.473L61.6421 156.405L61.7987 155.992H62.4586C62.4753 156.151 62.484 156.314 62.484 156.481C62.484 156.645 62.4755 156.807 62.4591 156.964Z" fill="#CCD8D7"/>
<path d="M61.6618 156.515L61.6262 156.448L61.6415 156.407L61.691 156.474L61.6618 156.515Z" fill="#CCD8D7"/>
<path d="M61.7412 158.83L61.4724 158.327L61.5539 156.964H61.9034L62.3104 157.725C62.1804 158.165 61.9839 158.544 61.7412 158.83Z" fill="#CCD8D7"/>
<path d="M61.9035 156.964H61.554L61.5733 156.64L61.6632 156.515L61.9035 156.964Z" fill="#CCD8D7"/>
<path d="M61.4725 158.327L60.9971 157.439L61.3392 156.964H61.554L61.4725 158.327Z" fill="#CCD8D7"/>
<path d="M61.5498 156.964H61.3391L61.5687 156.64L61.5498 156.964Z" fill="#CCD8D7"/>
<path d="M61.7987 155.992H61.5537L61.4373 154.045L61.4965 153.889C61.786 154.128 62.0305 154.487 62.2038 154.926L61.7987 155.992Z" fill="#CCD8D7"/>
<path d="M61.6421 156.405L61.573 156.312L61.5537 155.992H61.7987L61.6421 156.405Z" fill="#CCD8D7"/>
<path d="M61.5538 155.992H61.3321L60.9109 155.431L61.4374 154.045L61.5538 155.992Z" fill="#CCD8D7"/>
<path d="M61.5731 156.312L61.332 155.992H61.5538L61.5731 156.312Z" fill="#CCD8D7"/>
<path d="M60.9971 157.439L60.5005 156.511L60.9109 155.431L61.3321 155.992L61.5731 156.312L61.6422 156.405L61.6263 156.446L61.6633 156.515L61.5734 156.64L61.3392 156.964L60.9971 157.439Z" fill="#CCD8D7"/>
<path d="M127.831 158.52C127.697 158.519 127.217 158.083 127.083 157.07C127.061 156.909 127.05 156.745 127.05 156.579C127.05 155.327 127.636 154.639 127.83 154.639C128.024 154.639 128.611 155.327 128.611 156.58C128.611 156.745 128.6 156.91 128.579 157.071C128.444 158.083 127.965 158.519 127.831 158.52Z" fill="#E2EFEF"/>
<path d="M59.2461 158.421C59.1122 158.421 58.6328 157.985 58.4978 156.971C58.4764 156.812 58.4658 156.647 58.4658 156.481C58.4658 155.229 59.0516 154.541 59.2455 154.541C59.4398 154.541 60.0261 155.229 60.0261 156.481C60.0261 156.647 60.0155 156.812 59.9943 156.971C59.8591 157.985 59.38 158.421 59.2461 158.421Z" fill="#E2EFEF"/>
<path d="M101.65 133.4C101.407 133.9 100.416 134.511 98.1134 134.939C95.8107 135.366 91.1448 134.374 91.1448 134.374C91.1448 134.374 93.4784 133.094 99.8101 133.094L101.65 133.4Z" fill="#1262A1"/>
<path d="M101.187 131.786L97.56 130.804L96.8999 131.498C96.8999 131.498 99.2269 133.385 99.719 133.861C100.689 134.798 103.316 132.491 101.187 131.786Z" fill="#1262A1"/>
<path d="M97.9112 131.664C97.9112 131.664 98.7595 132.374 99.4487 132.593C100.138 132.812 101.143 132.071 100.736 131.664L101.187 131.786C103.316 132.491 100.689 134.798 99.7189 133.861C99.3154 133.471 97.6803 132.133 97.104 131.664H97.9112Z" fill="#1262A1"/>
<path d="M88.5388 130.481C88.5388 131.283 89.2392 131.94 90.0948 131.94H97.8312C98.6869 131.94 99.3873 131.283 99.3873 130.481V129.273C99.3873 128.471 98.6869 127.814 97.8312 127.814H90.0948C89.2392 127.814 88.5388 128.471 88.5388 129.273V130.481Z" fill="#1262A1"/>
<path d="M91.6294 128.855C91.6294 129.177 91.9794 129.44 92.4073 129.44H98.1244C98.5522 129.44 98.9023 129.177 98.9023 128.855C98.9023 128.532 98.5522 128.269 98.1244 128.269H92.4073C91.9794 128.269 91.6294 128.532 91.6294 128.855Z" fill="#1262A1"/>
<path d="M199.267 145.788L195.46 140.391C194.522 140.998 193.651 141.717 192.863 142.439L196.206 145.821C197.228 145.825 198.272 145.817 199.267 145.788Z" fill="white"/>
<path d="M162.436 65.8299C150.241 64.4299 147.445 73.9738 134.049 76.7544C134.049 76.7544 117.345 77.1639 120.07 82.0018C120.779 83.2616 122.893 84.2578 124.609 84.5755C120.973 85.0369 118.305 85.5293 118.305 85.5293C98.856 75.6992 94.6936 80.7164 94.6936 80.7164L118.958 91.1718C118.958 91.1718 150.59 90.1921 151.219 90.1539C151.847 90.1159 161.555 76.8397 161.555 76.8397L223.884 97.9644L228.23 83.3532C228.23 83.3532 166.113 66.2521 162.436 65.8299Z" fill="#F5785E"/>
<path d="M90.6285 80.7457C93.4373 78.8744 100.95 77.909 114.302 87.528C114.302 87.528 124.901 85.9959 134.618 90.4148C134.618 90.4148 159.872 67.6211 166.587 67.2671C173.302 66.9136 228.23 83.3532 228.23 83.3532L232.408 101.627L214.297 105.266L172.534 83.9914C172.534 83.9914 146.498 100.422 142.831 102.702C138.099 105.643 123.123 96.2154 113.427 94.673C110.117 94.1467 95.3958 85.85 90.751 83.1976C89.7948 82.6517 89.7162 81.3537 90.6285 80.7457Z" fill="#F8A478"/>
<path d="M174.962 97.4799L185.126 70.4811L233.04 83.7091L239.062 104.602L212.655 109.606L174.962 97.4799Z" fill="white"/>
<path d="M174.962 97.4799L190.016 71.8312L239.062 104.602L212.655 109.606L174.962 97.4799Z" fill="#8DB0AC"/>
<path d="M179.053 100.953L190.463 70.6445L239.062 85.2857V124.145L179.053 100.953Z" fill="#B83721"/>
<path d="M188.957 97.8617C189.133 98.9948 188.288 100.097 187.069 100.323C185.851 100.549 184.721 99.8134 184.546 98.68C184.37 97.5467 185.215 96.4449 186.433 96.2189C187.652 95.9927 188.782 96.7284 188.957 97.8617Z" fill="#1262A1"/>
<path d="M195.808 100.296C195.984 101.43 195.139 102.532 193.92 102.757C192.702 102.984 191.572 102.248 191.396 101.115C191.221 99.9812 192.066 98.8794 193.284 98.6534C194.503 98.4274 195.633 99.1629 195.808 100.296Z" fill="#1262A1"/>
<path d="M82.5522 21.7588C82.5522 21.7588 102.852 27.9617 111.555 18.3288L123.12 19.6511C123.12 19.6511 129.842 35.7784 136.679 33.8292C139.618 32.9913 136.033 29.7208 128.012 15.4897C128.012 15.4897 116.952 7.87511 99.2033 7.21754L82.5522 21.7588Z" fill="#F5785E"/>
<path d="M0.9375 45.0331L46.1791 17.7115C47.2655 17.0555 48.2873 16.3135 49.271 15.5282C51.3718 13.8507 53.9573 12.5817 56.8214 11.8341C69.8201 8.44105 102.744 0.465858 106.812 0.432121C108.828 0.415253 122.563 14.3009 126 18.2575C126.618 18.9689 127.019 19.7773 127.177 20.6286C127.975 24.9128 130.397 38.477 129.286 39.4295C127.965 40.5619 122.158 40.9771 118.188 21.6089L103.824 16.6688L99.5272 22.8228C99.5272 22.8228 83.8343 36.7295 63.7823 28.4477L0.9375 84.1062V45.0331Z" fill="#F8A478"/>
<path d="M47.6578 16.9451C47.6578 16.9451 53.7384 25.913 63.196 28.9672L58.607 33.3301L45.9062 18.4957L47.6578 16.9451Z" fill="#F5785E"/>
<path d="M67.4911 43.0299L47.414 16.7697L5.62793 43.4608L6.37125 72.6335L30.5585 69.5908L67.4911 43.0299Z" fill="white"/>
<path d="M67.4912 43.0301L42.5476 19.9697L3.30151 73.0199L30.5586 69.5909L67.4912 43.0301Z" fill="#8DB0AC"/>
<path d="M64.8161 48.078L42.2781 18.5991L0.9375 43.1463V93.373L64.8161 48.078Z" fill="#344655"/>
<path d="M54.8866 48.3146C55.0136 49.2039 55.8854 49.828 56.834 49.7086C57.7822 49.5893 58.4482 48.7718 58.3212 47.8825C58.1942 46.9933 57.3224 46.3692 56.3738 46.4885C55.4256 46.6078 54.7596 47.4254 54.8866 48.3146Z" fill="#29373F"/>
<path d="M50.3915 51.7571C50.5185 52.6463 51.3903 53.2707 52.3386 53.1511C53.2871 53.032 53.9531 52.2142 53.8261 51.325C53.6991 50.4357 52.8273 49.8117 51.8787 49.931C50.9305 50.0503 50.2645 50.8678 50.3915 51.7571Z" fill="#29373F"/>
<path d="M100.894 23.082L98.5114 19.8544C98.3476 19.7138 98.3484 18.8987 99.0397 19.1736C100.577 19.7845 100.441 21.7614 103.824 16.9168L100.894 23.082Z" fill="#F5785E"/>
<path d="M130.651 44.2328C130.684 43.0087 130.342 41.7628 129.588 40.6535C127.577 37.6978 123.399 36.8341 120.255 38.7242C117.111 40.6143 116.192 44.5426 118.203 47.4984C119.638 49.6078 122.177 50.6515 124.656 50.3894" stroke="#E2F1EE" stroke-width="4.09544" stroke-miterlimit="10"/>
<path d="M123.655 49.6132C125.445 49.8333 125.307 51.9781 123.518 51.7578C121.729 51.5381 121.867 49.3932 123.655 49.6132ZM117.541 52.402L117.404 54.5484C117.244 57.0368 119.322 59.3253 122.045 59.6601L123.761 59.8712C126.484 60.2061 128.821 58.4606 128.981 55.9724L129.119 53.8256C129.279 51.3374 127.201 49.0489 124.477 48.7138L122.71 47.7688C119.987 47.4336 117.701 49.9136 117.541 52.402Z" fill="#18222D"/>
<path d="M125.94 54.7206L125.259 65.3263L126.767 65.4836L126.328 66.3155L125.15 67.0284L125.134 67.276L126.587 67.367L126.203 68.2652L125.025 68.9781L125.009 69.2259L126.462 69.3167L126.078 70.2151L125.252 70.7129L124.86 71.5419L122.038 73.6416L119.63 70.8987L120.408 58.7796L120.999 57.8569L125.94 54.7206Z" fill="#7D9CA3"/>
<path d="M125.317 70.0619L125.276 70.6778L122.453 72.7758L120.046 70.0334L120.432 64.0353L120.526 62.5513L121.126 53.2128L126.356 53.8538L125.806 62.4444L125.71 63.9269L125.677 64.4607L126.743 65.4492L125.565 66.1626L125.55 66.4099L126.618 67.3998L125.44 68.1132L125.425 68.3605L126.494 69.3505L125.317 70.0619Z" fill="#CADAD5"/>
<path d="M125.71 63.9409C123.948 64.244 122.191 64.5303 120.432 64.8029L120.526 63.3052C122.286 63.0326 124.047 62.7453 125.806 62.4444L125.71 63.9409Z" fill="#D7EDE7"/>
<path d="M122.2 71.2699L121.229 69.6449L122.247 53.7953L123.314 53.9265L122.2 71.2699Z" fill="#7D9CA3"/>
<path d="M124.096 51.6032C122.305 51.3845 122.468 48.8502 124.258 49.069C126.047 49.2897 125.885 51.824 124.096 51.6032ZM129.612 54.9856L129.749 52.8393C129.91 50.3511 127.832 48.0641 125.108 47.7268L123.392 47.5154C120.761 47.1925 118.489 48.8127 118.196 51.1694C118.185 51.25 118.177 51.3321 118.171 51.416L118.034 53.5623C117.954 54.7832 118.415 55.9572 119.229 56.8735C120.07 57.8257 121.288 58.5037 122.675 58.6746L124.391 58.8861C127.114 59.2198 129.451 57.4738 129.612 54.9856Z" fill="#212E3D"/>
<path d="M124.123 51.9068C125.062 52.0224 125.867 51.4206 125.923 50.5626C125.978 49.7049 125.261 48.9156 124.322 48.8003" stroke="#18222D" stroke-width="3.86004" stroke-miterlimit="10"/>
<path d="M119.76 57.5546C120.557 58.1301 121.569 58.5381 122.686 58.6755L124.401 58.8864C125.442 59.0144 126.422 58.8891 127.245 58.5704" stroke="#18222D" stroke-width="1.56901" stroke-miterlimit="10"/>
<path d="M124.322 48.8003C123.383 48.6847 122.578 49.2867 122.523 50.1445C122.467 51.0025 123.184 51.7915 124.123 51.9069" stroke="#18222D" stroke-width="3.86004" stroke-miterlimit="10"/>
<path d="M128.079 48.554C129.866 48.3166 130.346 50.4175 128.56 50.6549C126.773 50.8923 126.293 48.7913 128.079 48.554ZM122.986 52.7762L123.467 54.8789C124.024 57.3165 126.68 58.9994 129.399 58.638L131.112 58.4103C133.832 58.0492 136.173 55.6119 135.577 52.6353L134.547 51.2401C133.99 48.8027 131.333 47.1197 128.614 47.4812L126.642 47.0141C123.922 47.3755 122.429 50.3389 122.986 52.7762Z" fill="#18222D"/>
<path d="M131.916 52.7356L134.291 63.1248L135.789 62.8976L135.603 63.8094L134.672 64.7919L134.728 65.0347L136.153 64.7574L136.04 65.7193L135.109 66.7018L135.164 66.9447L136.59 66.6674L136.476 67.6293L135.824 68.3164L135.683 69.2133L133.564 71.9451L130.46 69.9074L127.746 58.0359L128.052 56.9983L131.916 52.7356Z" fill="#7D9CA3"/>
<path d="M135.7 67.6726L135.836 68.2761L133.716 71.0066L130.613 68.9689L129.271 63.0934L128.938 61.6396L126.848 52.4916L132.069 51.7956L133.994 60.2106L134.325 61.6634L134.446 62.1858L135.756 62.8704L134.825 63.8534L134.881 64.0955L136.193 64.7809L135.262 65.7641L135.318 66.0062L136.63 66.6916L135.7 67.6726Z" fill="#CADAD5"/>
<path d="M134.325 61.6635C132.643 62.1554 130.96 62.6309 129.271 63.0935L128.938 61.6397C130.627 61.1773 132.313 60.7006 133.994 60.2107L134.325 61.6635Z" fill="#D7EDE7"/>
<path d="M133.042 69.6194L131.642 68.2978L128.094 52.7716L129.159 52.6302L133.042 69.6194Z" fill="#7D9CA3"/>
<path d="M129.623 50.044C127.974 50.7346 126.7 48.4942 128.348 47.8037C129.996 47.1156 131.271 49.3557 129.623 50.044ZM135.529 52.0686L135.048 49.9662C134.492 47.5286 131.836 45.8473 129.116 46.2065L127.402 46.4337C124.775 46.7832 123.049 48.9152 123.44 51.2592C123.453 51.3396 123.469 51.421 123.487 51.5031L123.968 53.6055C124.24 54.8018 125.02 55.8168 126.065 56.4955C127.148 57.2017 128.516 57.5487 129.9 57.3651L131.614 57.1379C134.333 56.7755 136.085 54.5062 135.529 52.0686Z" fill="#2B3F51"/>
<path d="M129.361 50.481C130.299 50.3564 130.903 49.5744 130.711 48.734C130.519 47.8936 129.603 47.3132 128.666 47.4377" stroke="#18222D" stroke-width="3.86004" stroke-miterlimit="10"/>
<path d="M126.772 57.0178C127.704 57.3728 128.795 57.5114 129.911 57.3634L131.624 57.1357C132.663 56.9975 133.572 56.6306 134.273 56.1172" stroke="#18222D" stroke-width="1.56901" stroke-miterlimit="10"/>
<path d="M127.198 49.3488C129.273 48.8217 130.602 46.0339 130.651 44.2328" stroke="#E2F1EE" stroke-width="4.09544" stroke-miterlimit="10"/>
<path d="M128.666 47.4378C127.728 47.5625 127.124 48.3449 127.316 49.185C127.508 50.0256 128.423 50.6058 129.361 50.481" stroke="#18222D" stroke-width="3.86004" stroke-miterlimit="10"/>
<path d="M59.9272 27.6648C59.9272 27.6648 71.7454 31.7166 85.7 32.3295C93.5589 32.6746 101.247 34.4528 108.335 37.4167C110.094 38.1519 111.786 38.8618 113.221 39.4681C119.545 42.14 123.534 47.224 126.231 42.8097C128.927 38.3955 119.237 32.3489 110.898 29.513C102.56 26.6768 97.9537 14.4005 97.9537 14.4005L59.9272 27.6648Z" fill="#F8A478"/>
<defs>
<linearGradient id="paint0_linear_3212_1673" x1="134.88" y1="104.205" x2="131.86" y2="134.049" gradientUnits="userSpaceOnUse">
<stop stop-color="white"/>
<stop offset="0.210202" stop-color="white"/>
<stop offset="1" stop-color="#8BBEB3"/>
</linearGradient>
<linearGradient id="paint1_linear_3212_1673" x1="134.88" y1="104.205" x2="131.86" y2="134.049" gradientUnits="userSpaceOnUse">
<stop stop-color="white"/>
<stop offset="0.210202" stop-color="white"/>
<stop offset="1" stop-color="#8E9497"/>
</linearGradient>
<linearGradient id="paint2_linear_3212_1673" x1="134.88" y1="104.205" x2="131.86" y2="134.049" gradientUnits="userSpaceOnUse">
<stop stop-color="white"/>
<stop offset="0.210202" stop-color="white"/>
<stop offset="1" stop-color="#738D8C"/>
</linearGradient>
<linearGradient id="paint3_linear_3212_1673" x1="134.88" y1="104.205" x2="131.86" y2="134.049" gradientUnits="userSpaceOnUse">
<stop stop-color="white"/>
<stop offset="0.210202" stop-color="white"/>
<stop offset="1" stop-color="#738D8C"/>
</linearGradient>
<linearGradient id="paint4_linear_3212_1673" x1="134.88" y1="104.205" x2="131.86" y2="134.049" gradientUnits="userSpaceOnUse">
<stop stop-color="#A2CDC2"/>
<stop offset="0.210202" stop-color="#A2CDC2"/>
<stop offset="1" stop-color="#77A89F"/>
</linearGradient>
<linearGradient id="paint5_linear_3212_1673" x1="92.4077" y1="106.006" x2="87.8288" y2="127.318" gradientUnits="userSpaceOnUse">
<stop stop-color="#DDE2E0"/>
<stop offset="1" stop-color="#57696D"/>
</linearGradient>
<linearGradient id="paint6_linear_3212_1673" x1="92.4076" y1="106.006" x2="87.8287" y2="127.318" gradientUnits="userSpaceOnUse">
<stop stop-color="#E4EDEA"/>
<stop offset="1" stop-color="#78A29C"/>
</linearGradient>
<linearGradient id="paint7_linear_3212_1673" x1="95.7248" y1="137.741" x2="94.9512" y2="156.128" gradientUnits="userSpaceOnUse">
<stop stop-color="#342330"/>
<stop offset="0.784297" stop-color="#3B2A3C"/>
<stop offset="1" stop-color="#3B2A3C"/>
</linearGradient>
<linearGradient id="paint8_linear_3212_1673" x1="95.7251" y1="137.741" x2="94.9515" y2="156.128" gradientUnits="userSpaceOnUse">
<stop stop-color="#B92424"/>
<stop offset="0.784297" stop-color="#D42927"/>
<stop offset="1" stop-color="#D42927"/>
</linearGradient>
<linearGradient id="paint9_linear_3212_1673" x1="95.2618" y1="137.741" x2="94.5032" y2="156.129" gradientUnits="userSpaceOnUse">
<stop stop-color="#9E2228"/>
<stop offset="0.784297" stop-color="#B3272C"/>
<stop offset="1" stop-color="#B3272C"/>
</linearGradient>
<linearGradient id="paint10_linear_3212_1673" x1="95.2619" y1="137.741" x2="94.5033" y2="156.129" gradientUnits="userSpaceOnUse">
<stop stop-color="#28231F"/>
<stop offset="0.784297" stop-color="#282425"/>
<stop offset="1" stop-color="#282425"/>
</linearGradient>
<linearGradient id="paint11_linear_3212_1673" x1="95.2618" y1="137.741" x2="94.5032" y2="156.13" gradientUnits="userSpaceOnUse">
<stop stop-color="#B92424"/>
<stop offset="0.784297" stop-color="#D42927"/>
<stop offset="1" stop-color="#D42927"/>
</linearGradient>
<linearGradient id="paint12_linear_3212_1673" x1="95.2618" y1="137.741" x2="94.5032" y2="156.13" gradientUnits="userSpaceOnUse">
<stop stop-color="#B92424"/>
<stop offset="0.784297" stop-color="#D42927"/>
<stop offset="1" stop-color="#D42927"/>
</linearGradient>
</defs>
</svg>
