<svg width="436" height="423" viewBox="0 0 436 423" fill="none" xmlns="http://www.w3.org/2000/svg">
<path d="M34.0717 63.641C25.7905 63.641 19.0771 56.9162 19.0771 48.6194C19.0771 40.3227 25.7905 33.5978 34.0717 33.5978C42.3533 33.5978 49.0667 40.3227 49.0667 48.6194C49.0667 56.9162 42.3533 63.641 34.0717 63.641ZM68.1438 48.7791C68.1438 27.764 49.1861 11.1836 27.4679 15.268C13.8078 17.8365 2.92148 29.0128 0.52879 42.7287C-0.96692 51.3019 0.799379 59.368 4.70308 66.0237H4.68414L4.78138 66.1525C6.08772 68.3577 7.72473 69.9353 9.37814 72.2525L29.161 98.5055C31.623 101.772 36.5209 101.772 38.9824 98.5046L58.4357 72.685C58.4357 72.685 62.0667 68.3475 63.3842 66.1171L63.4541 66.0237H63.4407C66.411 60.9586 68.1438 55.079 68.1438 48.7791Z" fill="#F3F2F1"/>
<path d="M420.638 262.361C416.987 262.361 414.028 259.395 414.028 255.739C414.028 252.081 416.987 249.116 420.638 249.116C424.289 249.116 427.248 252.081 427.248 255.739C427.248 259.395 424.289 262.361 420.638 262.361ZM435.659 255.809C435.659 246.544 427.301 239.235 417.726 241.036C411.704 242.168 406.906 247.095 405.85 253.142C405.191 256.921 405.97 260.476 407.691 263.412H407.682L407.725 263.468C408.301 264.44 409.023 265.136 409.751 266.157L418.473 277.731C419.558 279.171 421.718 279.171 422.803 277.731L431.379 266.347C431.379 266.347 432.979 264.435 433.561 263.453L433.591 263.412H433.586C434.895 261.178 435.659 258.587 435.659 255.809Z" fill="#F3F2F1"/>
<path d="M394.883 347.855C394.883 368.663 378.045 385.533 357.273 385.533C336.502 385.533 319.664 368.663 319.664 347.855C319.664 327.046 336.502 310.177 357.273 310.177C378.045 310.177 394.883 327.046 394.883 347.855Z" fill="#F3F2F1"/>
<path d="M357.272 321.863C342.967 321.863 331.327 333.523 331.327 347.856C331.327 362.188 342.967 373.848 357.272 373.848C371.579 373.848 383.218 362.188 383.218 347.856C383.218 333.523 371.579 321.863 357.272 321.863ZM357.272 379.215C340.012 379.215 325.97 365.148 325.97 347.856C325.97 330.564 340.012 316.496 357.272 316.496C374.533 316.496 388.576 330.564 388.576 347.856C388.576 365.148 374.533 379.215 357.272 379.215Z" fill="white"/>
<path d="M357.063 340.844C353.66 340.844 350.892 343.618 350.892 347.028C350.892 350.437 353.66 353.21 357.063 353.21C360.466 353.21 363.235 350.437 363.235 347.028C363.235 343.618 360.466 340.844 357.063 340.844ZM357.063 358.577C350.706 358.577 345.535 353.396 345.535 347.028C345.535 340.659 350.706 335.478 357.063 335.478C363.42 335.478 368.592 340.659 368.592 347.028C368.592 353.396 363.42 358.577 357.063 358.577Z" fill="white"/>
<path d="M357.063 347.027H342.49L345.031 351.531L310.732 367.279L311.89 369.211L346.303 353.645L348.662 358.119L357.063 347.027Z" fill="#DADBD8"/>
<path d="M310.732 367.28L310.368 366.925C308.57 365.17 305.969 364.52 303.558 365.223L289.876 369.212L297.495 372.566L294.435 380.72L307.271 376.134C310.165 375.1 312.043 372.287 311.89 369.212L310.732 367.28Z" fill="#DADBD8"/>
<path d="M144.76 375.183C144.763 375.177 144.858 375.146 145.042 375.09C145.243 375.031 145.511 374.952 145.85 374.853C146.582 374.644 147.625 374.345 148.969 373.962C151.697 373.195 155.645 372.084 160.627 370.683L160.522 370.871C159.926 368.869 159.256 366.626 158.538 364.219L158.506 364.109L158.599 364.031C161.52 361.59 164.394 358.378 166.727 354.446C167.89 352.477 168.815 350.274 169.449 347.918C170.113 345.56 170.202 342.997 169.89 340.445C169.096 335.355 166.511 330.174 162.227 326.436C157.999 322.671 152.353 320.175 146.357 319.592C141.886 319.156 137.434 320.186 133.61 322.148C129.735 324.025 126.483 326.866 124.116 330.151C121.726 333.444 120.468 337.297 120.032 341.024C119.976 341.964 119.829 342.892 119.851 343.814C119.876 344.736 119.903 345.648 119.928 346.55C120.099 348.342 120.386 350.082 120.861 351.726C121.352 353.363 121.989 354.905 122.758 356.321C123.541 357.73 124.46 359.001 125.447 360.14C127.433 362.415 129.717 364.116 131.938 365.389C136.417 367.926 140.561 368.954 143.503 369.394L143.57 369.405L143.582 369.466C143.971 371.317 144.267 372.731 144.472 373.708C144.566 374.174 144.639 374.534 144.693 374.801C144.741 375.047 144.764 375.176 144.76 375.183C144.756 375.19 144.725 375.076 144.666 374.84C144.603 374.582 144.518 374.23 144.408 373.778C144.177 372.794 143.843 371.37 143.404 369.505L143.484 369.577C140.504 369.178 136.332 368.191 131.784 365.663C129.527 364.394 127.2 362.687 125.169 360.386C124.159 359.233 123.218 357.945 122.412 356.514C121.622 355.075 120.966 353.509 120.46 351.844C119.969 350.173 119.67 348.405 119.491 346.585C119.462 345.67 119.432 344.745 119.403 343.809C119.377 342.872 119.524 341.928 119.578 340.973C120.01 337.178 121.286 333.239 123.719 329.87C126.13 326.51 129.443 323.611 133.386 321.695C137.268 319.697 141.834 318.637 146.403 319.083C152.516 319.679 158.25 322.218 162.56 326.064C164.719 327.981 166.514 330.242 167.792 332.707C168.163 333.297 168.404 333.945 168.682 334.573C168.956 335.201 169.241 335.821 169.414 336.479C169.61 337.127 169.823 337.766 170.002 338.411C170.12 339.072 170.236 339.728 170.353 340.38C170.668 342.998 170.563 345.626 169.879 348.029C169.224 350.431 168.274 352.665 167.087 354.658C164.701 358.634 161.798 361.845 158.814 364.308L158.875 364.12C159.575 366.531 160.228 368.78 160.81 370.786L160.854 370.934L160.706 370.974C155.668 372.315 151.675 373.379 148.915 374.114C147.577 374.463 146.54 374.735 145.812 374.925C145.479 375.009 145.218 375.076 145.021 375.126C144.844 375.169 144.757 375.189 144.76 375.183Z" fill="#DADBD8"/>
<path d="M162.104 375.194C162.142 375.331 158.513 376.444 154.002 377.682C149.487 378.92 145.799 379.813 145.762 379.676C145.725 379.54 149.353 378.426 153.866 377.188C158.379 375.952 162.067 375.059 162.104 375.194Z" fill="#DADBD8"/>
<path d="M158.502 382.832C158.554 382.958 157.332 383.576 155.7 383.966C154.069 384.361 152.7 384.366 152.69 384.23C152.677 384.085 153.991 383.854 155.581 383.469C157.172 383.09 158.449 382.698 158.502 382.832Z" fill="#DADBD8"/>
<path d="M148.092 374.27C148.083 374.272 148.052 374.182 148.001 374.004C147.944 373.798 147.873 373.537 147.785 373.211C147.596 372.477 147.334 371.455 147.001 370.154C146.332 367.456 145.38 363.616 144.209 358.887C143.627 356.504 142.99 353.897 142.306 351.102C142.139 350.423 141.9 349.732 141.487 349.174C141.105 348.602 140.382 348.305 139.787 348.609C139.2 348.897 138.918 349.674 138.91 350.389C138.893 351.12 139.246 351.824 139.742 352.4C140.754 353.556 142.466 354.052 144.057 353.834C145.674 353.638 147.099 352.491 147.839 350.965C148.603 349.449 148.782 347.609 148.379 345.898C148.175 345.047 147.839 344.19 147.22 343.615C146.634 343.047 145.63 342.841 144.985 343.304C144.338 343.768 144.23 344.789 144.564 345.532C144.903 346.314 145.592 346.915 146.304 347.444C147.73 348.501 149.374 349.287 151.072 349.414C151.916 349.474 152.767 349.368 153.518 349.048C154.267 348.714 154.933 348.2 155.424 347.56C155.919 346.929 156.247 346.163 156.286 345.392C156.333 344.62 156.092 343.848 155.58 343.299C155.088 342.743 154.337 342.43 153.669 342.639C152.997 342.837 152.492 343.455 152.252 344.117C151.789 345.493 152.197 347.022 152.362 348.428C152.813 351.267 153.322 353.904 153.786 356.308C154.748 361.082 155.53 364.958 156.079 367.683C156.344 368.998 156.553 370.033 156.703 370.776C156.766 371.107 156.816 371.373 156.855 371.583C156.887 371.767 156.898 371.86 156.891 371.862C156.881 371.864 156.853 371.773 156.804 371.595C156.752 371.387 156.686 371.125 156.604 370.798C156.43 370.059 156.191 369.032 155.885 367.725C155.279 365.052 154.415 361.181 153.432 356.378C152.944 353.976 152.416 351.342 151.944 348.494C151.84 347.776 151.716 347.057 151.641 346.304C151.57 345.553 151.556 344.747 151.83 343.964C152.106 343.204 152.674 342.465 153.537 342.198C154.411 341.922 155.359 342.337 155.927 342.981C156.53 343.623 156.818 344.537 156.764 345.418C156.722 346.306 156.352 347.161 155.809 347.859C155.269 348.565 154.543 349.13 153.714 349.502C152.872 349.863 151.945 349.977 151.037 349.914C149.204 349.777 147.484 348.948 146.002 347.851C145.269 347.306 144.506 346.666 144.097 345.734C143.699 344.828 143.778 343.575 144.687 342.889C145.621 342.248 146.841 342.553 147.565 343.24C148.306 343.938 148.654 344.879 148.872 345.78C149.3 347.608 149.111 349.556 148.285 351.19C147.496 352.828 145.904 354.109 144.125 354.317C142.386 354.546 140.533 354.017 139.389 352.711C138.837 352.075 138.429 351.249 138.451 350.385C138.471 349.563 138.763 348.631 139.59 348.205C139.993 348 140.463 347.998 140.871 348.146C141.286 348.292 141.601 348.594 141.836 348.912C142.306 349.559 142.543 350.289 142.718 351.004C143.379 353.806 143.996 356.417 144.561 358.805C145.666 363.55 146.564 367.403 147.194 370.109C147.487 371.417 147.719 372.448 147.885 373.189C147.954 373.519 148.009 373.783 148.052 373.992C148.087 374.174 148.1 374.268 148.092 374.27Z" fill="#DADBD8"/>
<path d="M161.51 378.685C161.547 378.822 158.608 379.746 154.947 380.747C151.285 381.749 148.286 382.451 148.249 382.315C148.213 382.179 151.15 381.257 154.813 380.254C158.474 379.252 161.473 378.549 161.51 378.685Z" fill="#DADBD8"/>
<path d="M414.942 421.813C414.942 421.947 325.965 422.056 216.235 422.056C106.465 422.056 17.5087 421.947 17.5087 421.813C17.5087 421.678 106.465 421.569 216.235 421.569C325.965 421.569 414.942 421.678 414.942 421.813Z" fill="#17282F"/>
<path d="M398.522 69.4927H34.126V46.1071H398.522V69.4927Z" fill="#DADBD8"/>
<path d="M34.0718 295.709H398.47V90.9757H34.0718V295.709Z" fill="white"/>
<path d="M34.126 69.3182H84.1585L89.1169 54.8542H170.221L175.179 69.3182H398.522V91.4644H34.126V69.3182Z" fill="#E7E8E5"/>
<path d="M46.152 55.4302C46.152 56.9461 44.9262 58.1743 43.4133 58.1743C41.9013 58.1743 40.675 56.9461 40.675 55.4302C40.675 53.9153 41.9013 52.687 43.4133 52.687C44.9262 52.687 46.152 53.9153 46.152 55.4302Z" fill="#17282F"/>
<path d="M54.6276 55.4302C54.6276 56.9461 53.4013 58.1743 51.8889 58.1743C50.3764 58.1743 49.1506 56.9461 49.1506 55.4302C49.1506 53.9153 50.3764 52.687 51.8889 52.687C53.4013 52.687 54.6276 53.9153 54.6276 55.4302Z" fill="#17282F"/>
<path d="M63.1023 55.4302C63.1023 56.9461 61.8765 58.1743 60.3637 58.1743C58.8512 58.1743 57.625 56.9461 57.625 55.4302C57.625 53.9153 58.8512 52.687 60.3637 52.687C61.8765 52.687 63.1023 53.9153 63.1023 55.4302Z" fill="#17282F"/>
<path d="M358.245 87.0605H108.244C104.413 87.0605 101.306 83.9485 101.306 80.1106C101.306 76.2709 104.413 73.1588 108.244 73.1588H358.245C362.078 73.1588 365.184 76.2709 365.184 80.1106C365.184 83.9485 362.078 87.0605 358.245 87.0605Z" fill="#FAFAF9"/>
<path d="M114.229 81.0362V83.3843H113.041V81.2183C113.041 80.5552 112.737 80.2507 112.212 80.2507C111.641 80.2507 111.231 80.6009 111.231 81.3566V83.3843H110.043V77.727H111.231V79.709C111.55 79.3886 112.006 79.2214 112.532 79.2214C113.498 79.2214 114.229 79.7846 114.229 81.0362Z" fill="#DADBD8"/>
<path d="M117.944 83.1861C117.701 83.3608 117.343 83.4448 116.978 83.4448C116.012 83.4448 115.449 82.9489 115.449 81.9728V80.2879H114.816V79.3735H115.449V78.3741H116.635V79.3735H117.655V80.2879H116.635V81.9579C116.635 82.3091 116.826 82.4996 117.145 82.4996C117.321 82.4996 117.496 82.4464 117.625 82.3464L117.944 83.1861Z" fill="#DADBD8"/>
<path d="M121.165 83.1861C120.921 83.3608 120.563 83.4448 120.199 83.4448C119.232 83.4448 118.669 82.9489 118.669 81.9728V80.2879H118.037V79.3735H118.669V78.3741H119.856V79.3735H120.876V80.2879H119.856V81.9579C119.856 82.3091 120.046 82.4996 120.366 82.4996C120.541 82.4996 120.716 82.4464 120.846 82.3464L121.165 83.1861Z" fill="#DADBD8"/>
<path d="M125.093 81.3332C125.093 80.6243 124.644 80.1974 124.051 80.1974C123.457 80.1974 123.008 80.6243 123.008 81.3332C123.008 82.0421 123.457 82.469 124.051 82.469C124.644 82.469 125.093 82.0421 125.093 81.3332ZM126.296 81.3332C126.296 82.6212 125.406 83.445 124.256 83.445C123.746 83.445 123.328 83.2853 123.023 82.949V84.8628H121.836V79.2821H122.97V79.7547C123.267 79.3961 123.708 79.2214 124.256 79.2214C125.406 79.2214 126.296 80.0443 126.296 81.3332Z" fill="#DADBD8"/>
<path d="M126.799 82.6976C126.799 82.2558 127.127 81.9654 127.538 81.9654C127.949 81.9654 128.277 82.2558 128.277 82.6976C128.277 83.1319 127.949 83.4448 127.538 83.4448C127.127 83.4448 126.799 83.1319 126.799 82.6976ZM126.799 79.96C126.799 79.5183 127.127 79.2278 127.538 79.2278C127.949 79.2278 128.277 79.5183 128.277 79.96C128.277 80.3953 127.949 80.7073 127.538 80.7073C127.127 80.7073 126.799 80.3953 126.799 79.96Z" fill="#DADBD8"/>
<path d="M131.199 76.9635H132.256L129.744 84.146H128.687L131.199 76.9635Z" fill="#DADBD8"/>
<path d="M133.628 76.9635H134.685L132.173 84.146H131.116L133.628 76.9635Z" fill="#DADBD8"/>
<path d="M358.02 127.793H140.207C133.414 127.793 127.909 122.277 127.909 115.474C127.909 108.67 133.414 103.154 140.207 103.154H358.02C364.812 103.154 370.318 108.67 370.318 115.474C370.318 122.277 364.812 127.793 358.02 127.793Z" fill="#FAFAF9"/>
<path d="M358.02 127.793C357.988 127.69 359.902 128.017 363.054 126.652C364.579 125.935 366.411 124.744 367.867 122.711C368.593 121.707 369.244 120.517 369.671 119.149C370.09 117.782 370.294 116.247 370.181 114.639C370.071 113.032 369.63 111.352 368.798 109.768C367.971 108.183 366.711 106.73 365.132 105.578C363.56 104.41 361.598 103.649 359.498 103.378C358.449 103.26 357.357 103.28 356.244 103.284C355.131 103.286 354 103.288 352.847 103.289C343.63 103.3 333.135 103.312 321.534 103.325C275.121 103.343 211.019 103.369 140.219 103.397C138.055 103.431 135.88 103.968 134.042 105.109C132.175 106.2 130.663 107.833 129.616 109.702C127.559 113.476 127.69 118.328 130.008 121.895C131.114 123.701 132.742 125.156 134.581 126.153C136.445 127.122 138.528 127.613 140.629 127.553C144.874 127.554 149.086 127.554 153.259 127.555C169.954 127.561 186.059 127.565 201.4 127.569C232.081 127.589 259.71 127.606 282.915 127.621C306.112 127.654 324.886 127.681 337.87 127.699C344.352 127.719 349.387 127.734 352.81 127.745C354.513 127.755 355.812 127.763 356.696 127.769C357.572 127.777 358.02 127.793 358.02 127.793C358.02 127.793 357.572 127.81 356.696 127.818C355.812 127.824 354.513 127.832 352.81 127.843C349.387 127.853 344.352 127.868 337.87 127.889C324.886 127.906 306.112 127.933 282.915 127.965C259.71 127.98 232.081 127.998 201.4 128.017C186.059 128.022 169.954 128.027 153.259 128.032C149.086 128.032 144.874 128.033 140.629 128.033C138.48 128.097 136.288 127.587 134.356 126.579C132.443 125.543 130.752 124.031 129.6 122.153C127.188 118.441 127.049 113.397 129.19 109.469C130.279 107.523 131.852 105.828 133.793 104.692C135.705 103.505 137.97 102.944 140.219 102.91C211.019 102.938 275.121 102.963 321.534 102.981C333.135 102.995 343.63 103.007 352.847 103.017C354 103.019 355.131 103.021 356.244 103.023C357.352 103.022 358.45 103.003 359.528 103.127C361.671 103.41 363.669 104.196 365.267 105.39C366.872 106.569 368.149 108.053 368.983 109.67C369.825 111.284 370.265 112.994 370.369 114.626C370.477 116.26 370.262 117.815 369.831 119.199C369.39 120.585 368.725 121.786 367.984 122.797C366.497 124.844 364.638 126.033 363.094 126.742C361.523 127.445 360.209 127.632 359.344 127.745C358.469 127.794 358.02 127.793 358.02 127.793Z" fill="#17282F"/>
<path d="M145.198 118.098L145.662 117.065C146.161 117.429 146.904 117.683 147.614 117.683C148.425 117.683 148.755 117.412 148.755 117.048C148.755 115.939 145.316 116.7 145.316 114.5C145.316 113.492 146.127 112.654 147.808 112.654C148.552 112.654 149.313 112.832 149.862 113.179L149.439 114.221C148.891 113.907 148.324 113.755 147.8 113.755C146.989 113.755 146.676 114.06 146.676 114.432C146.676 115.524 150.116 114.771 150.116 116.946C150.116 117.936 149.296 118.783 147.606 118.783C146.668 118.783 145.722 118.504 145.198 118.098Z" fill="#DADBD8"/>
<path d="M151.935 116.006H154.174C154.081 115.431 153.65 115.058 153.059 115.058C152.459 115.058 152.028 115.423 151.935 116.006ZM155.391 116.777H151.951C152.079 117.344 152.56 117.691 153.253 117.691C153.735 117.691 154.081 117.547 154.394 117.251L155.095 118.013C154.673 118.495 154.039 118.75 153.219 118.75C151.648 118.75 150.625 117.759 150.625 116.404C150.625 115.042 151.664 114.06 153.051 114.06C154.386 114.06 155.417 114.957 155.417 116.421C155.417 116.523 155.4 116.667 155.391 116.777Z" fill="#DADBD8"/>
<path d="M158.876 117.242V116.777H157.971C157.354 116.777 157.16 117.006 157.16 117.31C157.16 117.641 157.439 117.86 157.904 117.86C158.343 117.86 158.723 117.658 158.876 117.242ZM160.194 116.083V118.681H158.96V118.114C158.715 118.529 158.242 118.75 157.574 118.75C156.509 118.75 155.875 118.156 155.875 117.369C155.875 116.565 156.441 116.006 157.828 116.006H158.876C158.876 115.439 158.537 115.11 157.828 115.11C157.346 115.11 156.848 115.269 156.518 115.533L156.044 114.609C156.543 114.254 157.279 114.06 158.005 114.06C159.391 114.06 160.194 114.703 160.194 116.083Z" fill="#DADBD8"/>
<path d="M164.21 114.059V115.278C164.1 115.269 164.015 115.261 163.915 115.261C163.188 115.261 162.706 115.658 162.706 116.531V118.681H161.388V114.126H162.647V114.727C162.968 114.287 163.509 114.059 164.21 114.059Z" fill="#DADBD8"/>
<path d="M164.618 116.404C164.618 115.033 165.674 114.06 167.153 114.06C168.107 114.06 168.86 114.474 169.19 115.219L168.167 115.769C167.922 115.338 167.559 115.143 167.144 115.143C166.477 115.143 165.953 115.608 165.953 116.404C165.953 117.2 166.477 117.665 167.144 117.665C167.559 117.665 167.922 117.479 168.167 117.039L169.19 117.598C168.86 118.325 168.107 118.75 167.153 118.75C165.674 118.75 164.618 117.776 164.618 116.404Z" fill="#DADBD8"/>
<path d="M174.567 116.074V118.681H173.248V116.277C173.248 115.54 172.911 115.201 172.327 115.201C171.694 115.201 171.237 115.591 171.237 116.429V118.681H169.919V112.399H171.237V114.601C171.592 114.245 172.1 114.059 172.682 114.059C173.755 114.059 174.567 114.685 174.567 116.074Z" fill="#DADBD8"/>
<path d="M177.833 117.919C177.833 117.428 178.196 117.106 178.652 117.106C179.11 117.106 179.472 117.428 179.472 117.919C179.472 118.402 179.11 118.75 178.652 118.75C178.196 118.75 177.833 118.402 177.833 117.919Z" fill="#DADBD8"/>
<path d="M180.048 117.919C180.048 117.428 180.411 117.106 180.868 117.106C181.325 117.106 181.687 117.428 181.687 117.919C181.687 118.402 181.325 118.75 180.868 118.75C180.411 118.75 180.048 118.402 180.048 117.919Z" fill="#DADBD8"/>
<path d="M182.263 117.919C182.263 117.428 182.626 117.106 183.083 117.106C183.54 117.106 183.903 117.428 183.903 117.919C183.903 118.402 183.54 118.75 183.083 118.75C182.626 118.75 182.263 118.402 182.263 117.919Z" fill="#DADBD8"/>
<path d="M102.547 149.24C102.547 149.373 93.8058 149.483 83.0238 149.483C72.2387 149.483 63.4983 149.373 63.4983 149.24C63.4983 149.105 72.2387 148.996 83.0238 148.996C93.8058 148.996 102.547 149.105 102.547 149.24Z" fill="#040606"/>
<path d="M104.071 201.062H63.4983V160.416H104.071V201.062Z" fill="#1262A1"/>
<path d="M350.623 169.997C350.623 170.131 300.258 170.24 238.146 170.24C176.011 170.24 125.658 170.131 125.658 169.997C125.658 169.862 176.011 169.753 238.146 169.753C300.258 169.753 350.623 169.862 350.623 169.997Z" fill="#040606"/>
<path d="M187.188 185.3C187.188 185.435 173.917 185.544 157.55 185.544C141.178 185.544 127.909 185.435 127.909 185.3C127.909 185.167 141.178 185.057 157.55 185.057C173.917 185.057 187.188 185.167 187.188 185.3Z" fill="#040606"/>
<path d="M314.665 199.49C314.665 199.625 272.854 199.733 221.291 199.733C169.71 199.733 127.909 199.625 127.909 199.49C127.909 199.355 169.71 199.247 221.291 199.247C272.854 199.247 314.665 199.355 314.665 199.49Z" fill="#DADBD8"/>
<path d="M102.547 222.041C102.547 222.175 93.8058 222.286 83.0238 222.286C72.2387 222.286 63.4983 222.175 63.4983 222.041C63.4983 221.907 72.2387 221.797 83.0238 221.797C93.8058 221.797 102.547 221.907 102.547 222.041Z" fill="#040606"/>
<path d="M104.071 273.864H63.4983V233.219H104.071V273.864Z" fill="#1262A1"/>
<path d="M363.988 242.798C363.988 242.933 310.631 243.042 244.828 243.042C179.002 243.042 125.658 242.933 125.658 242.798C125.658 242.664 179.002 242.556 244.828 242.556C310.631 242.556 363.988 242.664 363.988 242.798Z" fill="#040606"/>
<path d="M187.188 258.102C187.188 258.237 173.917 258.345 157.55 258.345C141.178 258.345 127.909 258.237 127.909 258.102C127.909 257.967 141.178 257.858 157.55 257.858C173.917 257.858 187.188 257.967 187.188 258.102Z" fill="#040606"/>
<path d="M347.189 272.293C347.189 272.427 298.098 272.535 237.555 272.535C176.99 272.535 127.909 272.427 127.909 272.293C127.909 272.157 176.99 272.049 237.555 272.049C298.098 272.049 347.189 272.157 347.189 272.293Z" fill="#DADBD8"/>
<path d="M398.523 296.197C398.522 294.596 398.447 198.32 398.329 46.1068L398.522 46.302C297.659 46.3151 171.141 46.3319 34.1556 46.3496H34.1264L34.369 46.1068C34.3614 135.373 34.3544 220.192 34.3482 296.197L34.1264 295.974C249.073 296.106 396.546 296.196 398.523 296.197C396.547 296.198 249.073 296.288 34.1264 296.42H33.9042V296.197C33.8981 220.192 33.8912 135.373 33.8835 46.1068V45.863H34.1264H34.1556C171.141 45.8808 297.659 45.8985 398.522 45.9116H398.718V46.1068C398.599 198.32 398.524 294.597 398.523 296.197Z" fill="#17282F"/>
<path d="M160.383 64.2266C160.383 64.3613 147.516 64.4707 131.648 64.4707C115.776 64.4707 102.912 64.3613 102.912 64.2266C102.912 64.0928 115.776 63.9833 131.648 63.9833C147.516 63.9833 160.383 64.0928 160.383 64.2266Z" fill="#040606"/>
<path d="M108.541 125.601H57.5049V110.198H108.541V125.601Z" fill="#33535F"/>
<path d="M198.912 150.537C198.912 150.671 183.042 150.78 163.471 150.78C143.892 150.78 128.026 150.671 128.026 150.537C128.026 150.402 143.892 150.292 163.471 150.292C183.042 150.292 198.912 150.402 198.912 150.537Z" fill="#1262A1"/>
<path d="M198.912 222.041C198.912 222.175 183.042 222.286 163.471 222.286C143.892 222.286 128.026 222.175 128.026 222.041C128.026 221.907 143.892 221.797 163.471 221.797C183.042 221.797 198.912 221.907 198.912 222.041Z" fill="#1262A1"/>
<path d="M353.331 108.637C350.579 108.637 348.339 110.88 348.339 113.639C348.339 116.396 350.579 118.639 353.331 118.639C356.084 118.639 358.323 116.396 358.323 113.639C358.323 110.88 356.084 108.637 353.331 108.637ZM353.331 119.573C350.065 119.573 347.406 116.91 347.406 113.639C347.406 110.366 350.065 107.703 353.331 107.703C356.598 107.703 359.255 110.366 359.255 113.639C359.255 116.91 356.598 119.573 353.331 119.573Z" fill="#1262A1"/>
<path d="M360.608 122.206C360.491 122.206 360.371 122.16 360.28 122.071L356.419 118.23C356.237 118.049 356.236 117.753 356.417 117.57C356.599 117.388 356.894 117.386 357.077 117.567L360.937 121.407C361.119 121.59 361.121 121.885 360.939 122.068C360.848 122.159 360.728 122.206 360.608 122.206Z" fill="#1262A1"/>
<path d="M262.73 184.249C262.73 184.384 247.461 184.493 228.632 184.493C209.797 184.493 194.532 184.384 194.532 184.249C194.532 184.114 209.797 184.006 228.632 184.006C247.461 184.006 262.73 184.114 262.73 184.249Z" fill="#040606"/>
<path d="M306.796 183.198C306.796 183.333 298.81 183.441 288.961 183.441C279.108 183.441 271.124 183.333 271.124 183.198C271.124 183.064 279.108 182.954 288.961 182.954C298.81 182.954 306.796 183.064 306.796 183.198Z" fill="#040606"/>
<path d="M262.406 258.102C262.406 258.237 247.139 258.345 228.31 258.345C209.474 258.345 194.209 258.237 194.209 258.102C194.209 257.967 209.474 257.858 228.31 257.858C247.139 257.858 262.406 257.967 262.406 258.102Z" fill="#040606"/>
<path d="M79.376 277.325C71.8119 281.25 66.0119 288.009 61.8413 295.45C57.6705 302.891 54.9829 311.057 52.3204 319.162L49.9902 360.97C58.7919 345.97 65.8556 328.336 67.7643 311.043C65.8123 310.868 63.8599 310.695 61.9075 310.52C65.8345 309.919 69.1304 307.069 71.2277 303.69C73.325 300.309 74.4048 296.412 75.4588 292.574C73.0763 292.929 70.6946 293.284 68.3128 293.639C73.9085 289.897 77.9652 283.915 79.376 277.325Z" fill="#33535F"/>
<path d="M49.9902 360.97L52.3204 319.162C54.9829 311.057 57.6705 302.891 61.8413 295.45C66.0119 288.009 71.8119 281.25 79.376 277.325C77.9652 283.915 73.9085 289.897 68.3128 293.639C70.6946 293.284 73.0763 292.929 75.4588 292.574C75.1719 293.619 74.883 294.668 74.5724 295.709C73.7417 298.495 72.754 301.229 71.2277 303.69C69.1304 307.069 65.8345 309.919 61.9075 310.52C63.8599 310.695 65.8123 310.868 67.7643 311.043C65.8556 328.336 58.7919 345.97 49.9902 360.97Z" fill="#20353D"/>
<path d="M48.6875 370.766C48.6875 370.766 29.5837 347.86 29.8045 325.993H37.5212C37.5212 325.993 29.1391 320.471 29.8023 317.379C30.4658 314.286 30.6866 302.578 30.6866 302.578L37.7415 304.346C37.7415 304.346 32.4503 301.696 31.7886 297.499C31.1272 293.303 33.3323 273.864 33.3323 273.864C33.3323 273.864 41.9311 282.921 44.5769 292.198C47.2227 301.475 54.1674 312.298 52.1283 340.571C50.0889 368.844 48.6875 370.766 48.6875 370.766Z" fill="#33535F"/>
<path d="M58.3721 372.93C58.3721 372.93 79.0687 359.117 83.6669 341.488L77.463 339.796C77.463 339.796 85.4077 337.194 85.5497 334.563C85.6918 331.931 88.0714 322.47 88.0714 322.47L82.0132 322.345C82.0132 322.345 86.8463 321.373 88.2946 318.144C89.743 314.915 92.2155 298.804 92.2155 298.804C92.2155 298.804 83.3242 304.201 79.1711 311.08C75.0183 317.958 67.0706 325.138 62.5358 348.315C58.0006 371.493 58.3721 372.93 58.3721 372.93Z" fill="#33535F"/>
<path d="M38.5509 293.836C38.5589 293.835 38.5844 293.915 38.6259 294.073C38.6714 294.259 38.7282 294.49 38.7985 294.777C38.9482 295.435 39.1551 296.342 39.4162 297.492C39.9501 299.851 40.6574 303.28 41.4669 307.529C43.0974 316.025 45.0228 327.828 46.5418 340.942C48.0507 354.062 48.8631 365.995 49.211 374.639C49.3898 378.961 49.4826 382.46 49.5002 384.88C49.5074 386.058 49.5128 386.988 49.5169 387.664C49.5136 387.959 49.5114 388.196 49.5092 388.387C49.5045 388.551 49.4983 388.635 49.4899 388.635C49.4811 388.635 49.4714 388.552 49.4597 388.389C49.4492 388.197 49.4356 387.96 49.4189 387.665C49.393 386.991 49.357 386.062 49.3111 384.883C49.2358 382.467 49.0908 378.971 48.8675 374.654C48.433 366.021 47.5666 354.105 46.0593 340.997C44.5421 327.896 42.672 316.097 41.1293 307.592C40.3631 303.338 39.7083 299.901 39.2316 297.531C39.0076 296.373 38.8306 295.459 38.7028 294.797C38.6518 294.507 38.6106 294.273 38.5771 294.084C38.5516 293.922 38.5425 293.838 38.5509 293.836Z" fill="#17282F"/>
<path d="M46.0375 384.794C46.0375 384.794 28.5558 364.921 23.128 352.91L27.2255 351.156C24.2552 351.647 21.2121 350.368 18.9089 348.426C16.6058 346.483 14.9142 343.929 13.2561 341.412L18.6544 340.498C13.7459 339.117 9.42046 335.762 6.85986 331.346C13.2298 332.395 18.9927 335.9 23.7416 340.281C27.5878 343.828 30.8444 347.948 33.9716 352.155C35.4976 354.209 36.8324 356.397 37.9445 358.7C40.8821 364.784 46.0476 377.496 46.0375 384.794Z" fill="#33535F"/>
<path d="M83.9417 310.371C83.9491 310.375 83.9243 310.444 83.8672 310.577C83.7957 310.733 83.709 310.924 83.6042 311.157C83.3456 311.699 82.9941 312.436 82.5506 313.366C81.6201 315.277 80.2992 318.056 78.6978 321.502C75.4916 328.391 71.2623 338.005 67.0829 348.82C62.9104 359.643 59.584 369.609 57.3297 376.867C56.2 380.495 55.3124 383.441 54.7177 385.481C54.4209 386.468 54.186 387.251 54.0131 387.826C53.9347 388.07 53.871 388.269 53.8178 388.432C53.7716 388.569 53.7435 388.637 53.7355 388.635C53.7271 388.633 53.7391 388.56 53.7701 388.42C53.8106 388.252 53.8593 388.048 53.9191 387.8C54.0706 387.218 54.2763 386.428 54.5356 385.43C55.075 383.372 55.9134 380.41 57.0012 376.766C59.1731 369.475 62.4526 359.481 66.6299 348.646C70.8148 337.817 75.099 328.212 78.3872 321.355C80.0297 317.924 81.3983 315.168 82.3812 313.282C82.8594 312.369 83.2382 311.645 83.5168 311.113C83.6391 310.889 83.7396 310.705 83.8227 310.553C83.8941 310.43 83.9345 310.367 83.9417 310.371Z" fill="#17282F"/>
<path d="M47.5207 393.31C47.4876 393.314 47.3896 392.808 47.2418 391.892C47.1008 390.976 46.8666 389.656 46.5411 388.034C45.8947 384.787 44.7653 380.345 42.9899 375.619C41.2032 370.893 39.1204 366.812 37.4638 363.948C36.6378 362.515 35.9422 361.368 35.4432 360.588C34.9509 359.803 34.6909 359.358 34.7186 359.34C34.7459 359.32 35.0583 359.728 35.6006 360.483C36.149 361.232 36.8912 362.355 37.7591 363.773C39.4992 366.604 41.6457 370.69 43.444 375.447C45.2314 380.205 46.3156 384.692 46.8783 387.969C47.162 389.607 47.3452 390.941 47.4286 391.868C47.5196 392.792 47.5539 393.305 47.5207 393.31Z" fill="#17282F"/>
<path d="M70.5886 396.453H32.3269V388.635H70.5886V396.453Z" fill="#1262A1"/>
<path d="M35.9729 396.454L40.1114 422.753H63.2314L67.0889 396.454H35.9729Z" fill="#1262A1"/>
<path d="M68.2414 396.452C68.2414 396.588 61.0032 396.696 52.0767 396.696C43.1472 396.696 35.9109 396.588 35.9109 396.452C35.9109 396.318 43.1472 396.209 52.0767 396.209C61.0032 396.209 68.2414 396.318 68.2414 396.452Z" fill="#17282F"/>
<path d="M234.89 403.346V422.745L273.936 422.555C273.652 418.622 252.223 410.774 252.223 410.774L252.649 403.346H234.89Z" fill="#33535F"/>
<path d="M241.6 412.146C240.946 412.146 240.295 411.641 240.136 410.957C239.962 410.203 240.396 409.362 241.067 409.07C241.216 408.983 241.384 408.943 241.556 408.943C242.169 408.943 242.849 409.437 243.059 410.041C243.329 410.818 242.69 411.884 241.937 412.099C241.826 412.131 241.713 412.146 241.6 412.146Z" fill="#A6B7B9"/>
<path d="M234.89 422.745V419.645L272.169 420.087C272.169 420.087 274.113 421.26 273.936 422.555L234.89 422.745Z" fill="#17282F"/>
<path d="M252.222 411.148C252.219 411.349 251.272 411.456 250.347 412.117C249.407 412.752 248.938 413.632 248.763 413.555C248.587 413.518 248.852 412.311 249.984 411.531C251.11 410.74 252.261 410.962 252.222 411.148Z" fill="#17282F"/>
<path d="M257.337 412.942C257.384 413.137 256.567 413.491 255.935 414.353C255.279 415.195 255.13 416.118 254.941 416.112C254.762 416.146 254.615 414.969 255.42 413.914C256.216 412.852 257.33 412.751 257.337 412.942Z" fill="#17282F"/>
<path d="M259.64 417.886C259.467 417.933 259.188 416.93 259.66 415.821C260.125 414.707 261.013 414.259 261.096 414.425C261.205 414.589 260.638 415.19 260.264 416.107C259.87 417.015 259.827 417.865 259.64 417.886Z" fill="#17282F"/>
<path d="M251.842 405.633C251.765 405.818 250.891 405.552 249.82 405.647C248.748 405.717 247.918 406.112 247.817 405.94C247.706 405.797 248.509 405.039 249.773 404.948C251.034 404.847 251.934 405.473 251.842 405.633Z" fill="#17282F"/>
<path d="M252.06 412.018C252.088 412.021 252.187 411.604 252.144 410.832C252.088 410.071 251.856 408.935 251.109 407.774C250.732 407.203 250.239 406.631 249.583 406.164C249.265 405.941 248.77 405.698 248.264 405.933C247.79 406.161 247.522 406.692 247.495 407.21C247.545 409.206 248.976 411.048 250.926 411.748C252.927 412.449 255.042 411.583 256.199 410.179C256.484 409.822 256.757 409.459 256.899 408.981C256.966 408.749 256.998 408.473 256.905 408.206C256.816 407.943 256.609 407.731 256.375 407.646C255.904 407.484 255.503 407.625 255.158 407.765C254.818 407.928 254.527 408.097 254.249 408.283C253.141 409.023 252.435 409.877 252.017 410.497C251.597 411.122 251.451 411.521 251.479 411.537C251.566 411.625 252.286 410.005 254.451 408.641C254.974 408.341 255.658 407.91 256.21 408.102C256.453 408.201 256.549 408.487 256.433 408.827C256.332 409.162 256.081 409.501 255.82 409.815C254.763 411.057 252.852 411.81 251.099 411.187C249.365 410.603 248.058 408.839 248.006 407.245C248.015 406.875 248.206 406.536 248.466 406.404C248.716 406.272 249.044 406.384 249.336 406.578C249.936 406.979 250.42 407.5 250.79 408.017C251.528 409.074 251.81 410.135 251.928 410.86C252.035 411.594 252.012 412.014 252.06 412.018Z" fill="#17282F"/>
<path d="M220.62 406.156L221.281 411.147L220.839 422.405L206.201 422.762L205.679 411.147L207.344 404.247L220.62 406.156Z" fill="#33535F"/>
<path d="M213.602 421.557C213.513 421.561 213.724 418.117 214.073 413.865C214.422 409.612 214.777 406.162 214.866 406.157C214.955 406.153 214.744 409.595 214.396 413.849C214.046 418.101 213.691 421.552 213.602 421.557Z" fill="#17282F"/>
<path d="M220.898 420.531L206.108 420.702V422.762L220.908 422.745L220.898 420.531Z" fill="#17282F"/>
<path d="M206.145 414.058C206.123 414.04 206.247 413.825 206.52 413.463C206.791 413.103 207.222 412.608 207.824 412.065C208.427 411.525 209.21 410.938 210.188 410.476C211.156 410.004 212.337 409.671 213.6 409.682C216.132 409.686 218.262 410.928 219.31 412.165C219.855 412.777 220.19 413.351 220.382 413.76C220.57 414.173 220.641 414.415 220.615 414.424C220.535 414.469 220.182 413.509 219.083 412.382C218.018 411.25 215.998 410.133 213.595 410.126C211.2 410.113 209.226 411.326 208.026 412.304C206.802 413.305 206.206 414.11 206.145 414.058Z" fill="#17282F"/>
<path d="M213.539 91.9963L213.384 142.7L235.097 143.737L235.726 131.405C235.726 131.405 243.438 132.939 245.428 125.763C246.699 121.18 246.381 85.7562 246.381 85.7562L213.539 91.9963Z" fill="#C0776A"/>
<path d="M249.238 89.3269C245.818 90.3076 245.076 95.907 245.076 95.907L239.711 107.777C236.978 105.634 233.308 105.756 232.614 110.568C232.112 114.044 236.427 114.747 236.427 114.747C233.915 119.029 232.212 122.492 228.554 126.566C224.597 130.973 222.38 131.419 218.086 131.49H213.353C213.353 131.49 211.035 123.955 206.745 105.112C201.984 84.2067 226.661 86.8994 231.235 81.5635C238.685 72.8735 260.02 86.2354 249.238 89.3269Z" fill="#17282F"/>
<path d="M255.264 84.7853C254.911 82.5586 252.783 80.6971 250.537 80.8391C251.342 79.7089 250.958 78.01 249.924 77.0863C248.888 76.1635 247.383 75.9244 246.013 76.1308C244.644 76.3391 243.37 76.9415 242.117 77.5355C241.892 76.4754 240.551 74.7176 239.601 74.2002C237.692 73.1588 236.494 73.1588 235.411 73.1588C228.749 73.1578 225.236 77.7326 221.662 82.3886C221.048 83.1881 220.44 84.0801 219.502 84.4434C218.868 84.6881 218.167 84.6564 217.489 84.6694C212.413 84.7684 207.503 87.8273 205.169 92.3442C202.835 96.8601 201.095 107.312 207.131 113.792L210.77 121.93L245.576 94.3018C245.823 94.4307 248.004 95.4964 249.683 94.6119C253.851 92.4142 252.103 88.7492 252.103 88.7492C252.435 88.5755 255.618 87.011 255.264 84.7853Z" fill="#17282F"/>
<path d="M223.051 111.959C223.191 111.944 223.405 113.704 222.926 115.809C222.458 117.917 221.511 119.413 221.39 119.34C221.245 119.267 221.942 117.714 222.389 115.687C222.852 113.665 222.887 111.963 223.051 111.959Z" fill="#33535F"/>
<path d="M225.676 109.47C225.822 109.477 225.854 111.153 225.473 113.176C225.1 115.202 224.466 116.754 224.328 116.707C224.178 116.659 224.567 115.061 224.932 113.076C225.307 111.092 225.519 109.461 225.676 109.47Z" fill="#33535F"/>
<path d="M233.195 101.101C233.248 101.174 232.633 101.623 231.853 102.54C231.065 103.447 230.168 104.866 229.513 106.586C228.855 108.307 228.494 109.956 228.216 111.145C227.943 112.338 227.754 113.077 227.677 113.064C227.604 113.051 227.656 112.291 227.832 111.073C228.016 109.859 228.321 108.167 228.999 106.388C229.678 104.606 230.672 103.148 231.566 102.275C232.456 101.39 233.164 101.048 233.195 101.101Z" fill="#33535F"/>
<path d="M236.236 95.4044C236.3 95.3867 236.523 95.8948 236.658 96.7765C236.796 97.6535 236.799 98.9107 236.469 100.238C236.135 101.566 235.539 102.671 235.006 103.38C234.471 104.093 234.036 104.436 233.988 104.39C233.851 104.287 235.322 102.649 235.936 100.104C236.592 97.5704 236.068 95.4325 236.236 95.4044Z" fill="#33535F"/>
<path d="M210.322 108.068C210.247 108.202 209.582 107.97 208.837 107.552C208.091 107.135 207.545 106.688 207.62 106.556C207.694 106.423 208.358 106.654 209.105 107.071C209.851 107.489 210.395 107.935 210.322 108.068Z" fill="#33535F"/>
<path d="M220.812 102.654C220.955 102.676 220.867 103.75 220.192 104.86C219.525 105.975 218.617 106.554 218.532 106.436C218.429 106.316 219.111 105.6 219.72 104.575C220.342 103.558 220.657 102.619 220.812 102.654Z" fill="#33535F"/>
<path d="M224.038 100.92C224.179 100.95 223.95 102.238 223.072 103.555C222.201 104.879 221.107 105.589 221.023 105.472C220.92 105.349 221.799 104.494 222.613 103.251C223.44 102.016 223.885 100.873 224.038 100.92Z" fill="#33535F"/>
<path d="M240.071 79.6847C240.033 79.7286 239.664 79.3746 238.881 78.9282C238.097 78.4976 236.846 78.0259 235.243 77.9858C233.655 77.9363 231.703 78.3155 229.905 79.4232C228.106 80.529 226.514 82.3298 225.359 84.4958C224.517 86.0696 223.934 87.7087 223.514 89.2498L223.427 89.5693L223.135 89.4152C221.523 88.5671 219.816 88.1944 218.29 88.1748C216.759 88.1318 215.413 88.413 214.347 88.7707C212.201 89.5058 211.183 90.4715 211.127 90.3847C211.111 90.3641 211.352 90.1222 211.854 89.7393C212.359 89.3638 213.15 88.8744 214.236 88.4578C215.318 88.0459 216.703 87.7125 218.296 87.7228C219.882 87.7106 221.675 88.0693 223.383 88.9491L223.005 89.1153C223.419 87.5397 224.006 85.8575 224.875 84.2352C226.067 82.001 227.735 80.1274 229.643 78.9879C231.556 77.8457 233.603 77.4954 235.259 77.5972C236.932 77.6897 238.218 78.2426 238.99 78.7442C239.372 79.0113 239.658 79.2261 239.825 79.4064C239.999 79.5764 240.084 79.6707 240.071 79.6847Z" fill="#33535F"/>
<path d="M251.489 82.4431C251.451 82.4329 252.094 82.2806 252.735 83.0082C253.029 83.3594 253.299 83.9132 253.236 84.596C253.169 85.2788 252.698 85.9821 251.974 86.4033C251.259 86.8414 250.282 86.988 249.335 86.7666C248.384 86.5593 247.47 86.054 246.614 85.445C245.751 84.8398 244.922 84.1365 243.952 83.6172C242.984 83.0913 241.894 82.7075 240.744 82.488C238.434 82.0565 236.137 82.3161 234.198 82.9363C232.248 83.5639 230.628 84.5045 229.359 85.4011C226.824 87.2271 225.573 88.7551 225.496 88.6758C225.47 88.6533 225.76 88.2592 226.355 87.6045C226.954 86.9572 227.861 86.0428 229.129 85.0864C230.394 84.1327 232.033 83.1296 234.042 82.4543C236.041 81.7847 238.427 81.4951 240.846 81.9462C242.05 82.1751 243.195 82.5823 244.211 83.1436C245.238 83.704 246.077 84.4335 246.908 85.0313C247.733 85.6356 248.578 86.1138 249.437 86.3211C250.292 86.5369 251.135 86.4295 251.78 86.0643C252.429 85.7168 252.848 85.1228 252.929 84.5587C253.012 83.9861 252.807 83.4733 252.568 83.1418C252.051 82.4497 251.461 82.5039 251.489 82.4431Z" fill="#33535F"/>
<path d="M352.651 121.345C351.831 120.616 340.774 125.264 340.774 125.264C340.774 125.264 332.523 131.747 329.128 135.577L327.031 137.324L295.652 161.77L257.053 145.685L248.679 167.258C248.679 167.258 292.01 184.539 298.612 181.58C305.788 178.365 332.498 150.359 332.56 150.262L332.561 150.261L336.418 146.539C336.418 146.539 338.459 146.499 340.006 146.408C341.552 146.316 346.082 143.3 346.082 143.3C346.082 143.3 346.738 142.121 346.962 140.656C347.185 139.191 346.124 138.735 346.124 138.735C346.124 138.735 346.378 137.787 346.202 136.554C346.026 135.32 344.379 133.888 344.379 133.888C344.379 133.888 345.03 133.357 345.411 131.935C345.793 130.513 343.954 129.17 343.954 129.17C343.954 129.17 350.371 124.799 351.93 124.032C353.489 123.265 353.47 122.074 352.651 121.345Z" fill="#C0776A"/>
<path d="M262.729 342.269C262.858 340.849 262.929 339.757 262.929 339.075L267.287 269.367C267.287 269.367 263.623 249.01 261.891 243.608L246.309 237.566L225.552 245.666C225.415 243.987 225.33 242.958 225.33 242.958L194.756 253.544C194.756 253.544 193.964 274.441 194.756 280.801C195.01 282.843 195.81 288.123 196.779 294.342C196.779 294.342 197.763 307.859 197.966 308.614C198.707 311.369 198.879 318.118 198.879 324.881C198.879 333.475 199.344 343.703 199.879 348.565C200.414 353.427 200.674 406.882 200.674 406.882H223.233L226.13 321.734C226.617 312.61 227.347 298.654 227.815 288.56L233.113 319.999C233.113 321.152 236.337 339.126 236.337 339.126C236.337 339.126 235.158 347.56 234.954 356.183C234.582 372.03 232.723 406.882 232.723 406.882H254.807C254.807 406.882 261.439 356.552 262.729 342.269Z" fill="#17282F"/>
<path d="M266.529 265.188C266.501 265.24 265.699 264.867 264.495 264.102C263.29 263.34 261.701 262.155 260.132 260.637C258.564 259.116 257.331 257.563 256.53 256.381C255.727 255.201 255.33 254.411 255.379 254.381C255.442 254.342 255.939 255.065 256.802 256.183C257.665 257.301 258.92 258.795 260.463 260.294C262.008 261.788 263.539 262.996 264.684 263.823C265.827 264.65 266.566 265.126 266.529 265.188Z" fill="#33535F"/>
<path d="M227.151 277.857C227.122 277.871 226.97 277.624 226.718 277.161C226.464 276.701 226.136 276.015 225.769 275.149C225.034 273.419 224.211 270.934 223.715 268.098C223.224 265.262 223.159 262.645 223.268 260.767C223.321 259.828 223.397 259.07 223.481 258.552C223.562 258.032 223.621 257.747 223.654 257.751C223.731 257.76 223.624 258.913 223.605 260.777C223.583 262.64 223.701 265.217 224.184 268.016C224.675 270.814 225.433 273.279 226.083 275.025C226.731 276.772 227.221 277.822 227.151 277.857Z" fill="#33535F"/>
<path d="M230.434 304.103C230.4 304.109 230.299 303.676 230.144 302.89C229.982 302.003 229.776 300.886 229.533 299.554C229.042 296.628 228.397 292.779 227.682 288.524C226.434 280.703 225.585 275.38 225.189 272.904C225.294 272.865 225.732 274.61 226.257 277.418C226.794 280.232 227.472 284.129 228.176 288.443C228.879 292.754 229.476 296.664 229.883 299.498C230.064 300.84 230.216 301.966 230.336 302.86C230.433 303.656 230.469 304.097 230.434 304.103Z" fill="#33535F"/>
<path d="M177.193 187.835C177.193 187.835 174.212 208.845 173.656 216.207C173.321 220.639 177.814 226.523 181.244 226.953C184.728 227.39 196.237 228.072 196.237 228.072L197.197 214.895L196.897 212.275L193.308 211.598L194.389 190.701L177.193 187.835Z" fill="#C0776A"/>
<path d="M193.917 191.408C193.952 191.406 193.998 191.812 194.051 192.549C194.107 193.285 194.152 194.353 194.18 195.672C194.239 198.312 194.179 201.961 193.953 205.981C193.727 210.002 193.407 213.632 193.146 216.257C193.014 217.568 192.897 218.629 192.805 219.362C192.712 220.093 192.644 220.496 192.61 220.494C192.576 220.491 192.578 220.081 192.611 219.344C192.66 218.503 192.721 217.462 192.793 216.227C192.969 213.487 193.199 209.91 193.453 205.953C193.679 201.942 193.795 198.306 193.826 195.673C193.838 194.44 193.848 193.396 193.857 192.555C193.863 191.818 193.883 191.409 193.917 191.408Z" fill="#B85549"/>
<path d="M194.892 253.497L194.873 253.446C200.307 250.864 206.025 248.919 211.891 247.611L194.892 253.497Z" fill="#A7A9A8"/>
<path d="M207.998 256.007C203.578 256.007 199.174 255.46 195.048 253.924L194.892 253.497L211.891 247.611C217.872 246.279 224.003 245.61 230.135 245.61C241.017 245.61 251.901 247.715 261.935 251.943C262.907 252.353 264.048 253.082 263.886 254.126C263.783 254.79 263.134 255.26 262.473 255.378C262.312 255.407 262.151 255.419 261.989 255.419C261.485 255.419 260.978 255.301 260.483 255.188C253.982 253.706 247.316 252.959 240.65 252.959C237.844 252.959 235.036 253.091 232.242 253.357C226.004 253.95 219.842 255.199 213.6 255.747C211.743 255.909 209.869 256.007 207.998 256.007Z" fill="#0F191D"/>
<path d="M284.979 155.235L251.868 138.718C243.166 137.7 236.13 138.028 236.13 138.028H214.214C214.214 138.028 187.654 145.877 183.271 153.109L171.888 187.296L194.389 190.701L197.197 215.261C197.197 215.261 194.404 243.701 194.404 247.834C194.404 251.967 194.756 253.544 194.756 253.544C194.756 253.544 239.78 246.687 250.867 250.303C261.954 253.92 264.951 253.544 264.951 253.544C264.951 253.544 264.024 241.741 263.202 234.892L260.631 200.621L258.733 174.453L279.57 180.842L284.979 155.235Z" fill="#1262A1"/>
<path d="M194.184 190.968C194.101 190.978 193.88 189.554 193.38 187.283C192.879 185.011 192.05 181.897 190.775 178.562C189.5 175.225 188.041 172.31 186.912 170.234C186.378 169.269 185.924 168.451 185.553 167.783C185.229 167.205 185.063 166.877 185.093 166.862C185.124 166.845 185.348 167.142 185.727 167.694C186.109 168.243 186.627 169.058 187.234 170.083C188.449 172.128 189.971 175.044 191.257 178.408C192.543 181.77 193.323 184.924 193.735 187.222C193.94 188.373 194.075 189.308 194.134 189.956C194.198 190.605 194.218 190.964 194.184 190.968Z" fill="#17282F"/>
<path d="M236.65 200.676C236.666 200.681 236.625 200.836 236.534 201.127C236.42 201.468 236.281 201.885 236.112 202.39C235.929 202.94 235.691 203.606 235.382 204.368C235.076 205.131 234.75 206.01 234.32 206.951C233.51 208.856 232.432 211.076 231.13 213.484C229.805 215.879 228.241 218.455 226.439 221.052C224.621 223.639 222.741 225.993 220.948 228.061C219.136 230.113 217.423 231.888 215.915 233.303C215.179 234.031 214.467 234.639 213.855 235.187C213.247 235.74 212.703 236.191 212.252 236.552C211.835 236.883 211.492 237.158 211.211 237.382C210.97 237.568 210.838 237.659 210.828 237.646C210.817 237.633 210.929 237.517 211.15 237.308C211.414 237.066 211.738 236.769 212.13 236.411C212.563 236.029 213.088 235.559 213.676 234.989C214.269 234.424 214.963 233.801 215.681 233.061C217.153 231.621 218.832 229.83 220.616 227.774C222.381 225.699 224.241 223.349 226.048 220.778C227.84 218.197 229.406 215.642 230.746 213.271C232.063 210.886 233.166 208.693 234.013 206.814C234.461 205.884 234.807 205.018 235.134 204.268C235.467 203.518 235.728 202.862 235.939 202.324C236.141 201.833 236.307 201.426 236.444 201.094C236.564 200.815 236.635 200.67 236.65 200.676Z" fill="#17282F"/>
<path d="M251.95 140.982C252.046 141.027 250.711 142.352 250.205 145.144C249.946 146.522 249.94 148.21 250.235 150.047C250.518 151.887 251.072 153.877 251.634 155.97C252.777 160.151 253.987 163.884 254.905 166.572C255.342 167.842 255.711 168.907 256.002 169.754C256.262 170.506 256.392 170.927 256.36 170.94C256.329 170.953 256.137 170.556 255.821 169.824C255.508 169.092 255.074 168.025 254.572 166.693C253.567 164.029 252.299 160.298 251.152 156.102C250.59 154.006 250.045 152.001 249.779 150.115C249.503 148.236 249.546 146.487 249.857 145.076C250.16 143.658 250.694 142.594 251.138 141.928C251.594 141.262 251.93 140.965 251.95 140.982Z" fill="#17282F"/>
<path d="M189.465 176.97C189.498 177.007 188.908 177.601 187.7 178.17C186.509 178.74 184.642 179.208 182.606 178.899C180.569 178.588 178.925 177.583 177.957 176.685C176.974 175.782 176.587 175.038 176.63 175.013C176.695 174.962 177.176 175.621 178.18 176.422C179.17 177.223 180.753 178.124 182.679 178.419C184.603 178.711 186.383 178.323 187.566 177.853C188.762 177.386 189.417 176.9 189.465 176.97Z" fill="white"/>
<path d="M252.934 161.546C252.95 161.552 252.853 161.799 252.654 162.264C252.456 162.727 252.135 163.402 251.678 164.246C250.75 165.918 249.24 168.3 246.755 170.697C244.289 173.07 240.731 175.432 236.247 176.426C234.021 176.924 231.588 177.099 229.119 176.734C226.642 176.397 224.203 175.432 221.908 174.165C217.33 171.603 213.466 168.362 209.231 166.813C205.033 165.198 200.811 165.385 197.543 166.167C194.233 166.963 191.819 168.404 190.28 169.502C188.751 170.638 188.035 171.427 187.992 171.384C187.992 171.384 188.657 170.545 190.166 169.35C191.685 168.195 194.106 166.686 197.46 165.834C200.77 164.996 205.078 164.763 209.388 166.393C213.723 167.958 217.624 171.216 222.142 173.739C224.407 174.988 226.779 175.928 229.189 176.262C231.591 176.624 233.968 176.464 236.15 175.989C240.546 175.038 244.055 172.758 246.519 170.447C249.002 168.116 250.542 165.785 251.514 164.153C251.993 163.328 252.339 162.67 252.567 162.222C252.792 161.773 252.919 161.539 252.934 161.546Z" fill="white"/>
<path d="M273.662 149.568C273.687 149.558 273.863 149.932 274.094 150.643C274.316 151.355 274.556 152.419 274.631 153.759C274.695 155.095 274.602 156.715 274.111 158.428C273.638 160.14 272.789 161.948 271.492 163.549C270.188 165.159 268.608 166.31 267.337 167.487C266.035 168.64 265.052 169.857 264.515 171.046C263.962 172.224 263.839 173.297 263.897 174.018C263.953 174.744 264.107 175.132 264.063 175.147C264.047 175.152 264 175.061 263.924 174.878C263.85 174.695 263.763 174.413 263.71 174.038C263.59 173.295 263.665 172.154 264.202 170.905C264.719 169.649 265.729 168.343 267.032 167.157C268.311 165.944 269.867 164.79 271.114 163.243C273.648 160.129 274.362 156.355 274.288 153.771C274.224 151.14 273.556 149.594 273.662 149.568Z" fill="white"/>
<path d="M219.808 228.312C219.816 228.342 219.473 228.47 218.837 228.65C218.201 228.827 217.273 229.07 216.094 229.238C214.922 229.379 213.456 229.485 211.909 228.992C211.142 228.75 210.378 228.333 209.714 227.755C209.055 227.174 208.503 226.47 207.925 225.792C207.351 225.108 206.734 224.526 206.052 224.061C205.365 223.604 204.635 223.272 203.914 223.034C202.466 222.557 201.06 222.519 199.917 222.65C198.767 222.784 197.873 223.12 197.286 223.392C196.693 223.662 196.384 223.859 196.358 223.821C196.345 223.804 196.619 223.553 197.2 223.223C197.775 222.892 198.68 222.493 199.869 222.31C201.05 222.129 202.52 222.13 204.049 222.606C204.809 222.844 205.585 223.184 206.315 223.664C207.04 224.148 207.712 224.78 208.293 225.476C208.881 226.166 209.417 226.851 210.029 227.398C210.641 227.937 211.336 228.328 212.049 228.567C213.484 229.052 214.902 228.992 216.054 228.896C218.373 228.628 219.789 228.22 219.808 228.312Z" fill="white"/>
<path d="M262.682 226.315C262.692 226.329 262.591 226.415 262.388 226.568C262.18 226.713 261.892 226.957 261.469 227.19C260.652 227.702 259.378 228.326 257.7 228.769C256.025 229.182 253.932 229.448 251.65 229.119C249.37 228.844 246.919 227.926 244.773 226.356C242.633 224.778 240.944 222.914 239.273 221.401C237.624 219.864 235.949 218.702 234.392 218.031C232.842 217.339 231.456 217.158 230.513 217.172C229.566 217.188 229.048 217.33 229.038 217.281C229.034 217.265 229.159 217.222 229.406 217.156C229.651 217.084 230.023 217.017 230.507 216.982C231.471 216.909 232.915 217.043 234.525 217.714C236.141 218.36 237.89 219.53 239.573 221.069C241.279 222.581 242.974 224.427 245.059 225.963C247.143 227.485 249.496 228.382 251.712 228.675C253.926 229.02 255.969 228.797 257.618 228.436C259.269 228.044 260.54 227.48 261.375 227.025C262.216 226.578 262.656 226.276 262.682 226.315Z" fill="white"/>
<path d="M381.662 9.97193C369.153 4.00271 354.049 3.9401 341.017 11.1347C330.612 16.8798 323.061 26.3403 319.759 37.7726C316.455 49.2066 317.795 61.2441 323.529 71.6676C329.263 82.0929 338.706 89.6556 350.12 92.9647C361.532 96.2739 373.548 94.9317 383.953 89.1867C394.359 83.4426 401.908 73.982 405.21 62.5489C408.514 51.1157 407.175 39.0783 401.44 28.6548C396.786 20.1927 389.768 13.8415 381.662 9.97193ZM341.932 93.2347C333.242 89.0868 325.723 82.2825 320.733 73.2115C314.587 62.0389 313.152 49.1384 316.692 36.8843C320.232 24.6302 328.323 14.4906 339.475 8.33368C362.496 -4.37625 391.548 4.04661 404.237 27.1109C410.382 38.2835 411.817 51.1849 408.277 63.4381C404.737 75.6922 396.647 85.8317 385.494 91.9887C371.526 99.6989 355.337 99.6317 341.932 93.2347Z" fill="#17282F"/>
<path d="M422.366 145.433C419.58 147.154 415.931 146.288 414.213 143.499L383.039 92.8915C382.745 92.4124 382.893 91.7847 383.371 91.4886L390.021 87.3781C390.488 87.0895 391.099 87.224 391.403 87.6807L424.19 137.095C426.045 139.892 425.218 143.671 422.366 145.433Z" fill="#17282F"/>
<path d="M382.806 7.56256C370.299 1.59241 355.196 1.52889 342.162 8.72446C331.758 14.4686 324.208 23.93 320.905 35.3622C317.601 46.7954 318.94 58.8328 324.675 69.2573C330.409 79.6817 339.853 87.2453 351.266 90.5535C362.677 93.8627 374.693 92.5214 385.099 86.7764C395.504 81.0323 403.054 71.5708 406.357 60.1386C409.661 48.7054 408.32 36.668 402.586 26.2436C397.932 17.7815 390.914 11.4312 382.806 7.56256ZM343.079 90.8234C334.388 86.6765 326.869 79.8713 321.878 70.8012C315.733 59.6295 314.298 46.7272 317.838 34.474C321.377 22.2189 329.469 12.0803 340.621 5.92336C363.642 -6.78751 392.695 1.63628 405.382 24.7006C411.528 35.8731 412.963 48.7746 409.423 61.0278C405.884 73.281 397.792 83.4205 386.639 89.5784C372.672 97.2877 356.483 97.2204 343.079 90.8234Z" fill="#33535F"/>
<path d="M423.648 144.643L423.166 144.941C420.992 146.284 418.143 145.608 416.801 143.431L383.651 89.6143L392.003 84.4502L425.155 138.267C426.496 140.445 425.821 143.299 423.648 144.643Z" fill="#33535F"/>
<path d="M328.044 36.4077C328.013 36.4011 328.108 35.8781 328.309 34.9329C328.401 34.4584 328.533 33.8821 328.749 33.2302C328.957 32.5764 329.151 31.8161 329.493 31.0203C329.653 30.6168 329.82 30.1946 329.993 29.7575C330.171 29.3204 330.405 28.888 330.62 28.4266C331.037 27.4963 331.605 26.5679 332.177 25.5769C333.396 23.6417 334.911 21.6205 336.742 19.7123C338.596 17.8275 340.572 16.2546 342.471 14.9806C343.444 14.3801 344.356 13.7861 345.272 13.3443C345.726 13.1154 346.152 12.8698 346.584 12.6802C347.015 12.4943 347.431 12.3159 347.83 12.145C348.614 11.7808 349.368 11.5659 350.014 11.3389C350.659 11.1045 351.231 10.9569 351.701 10.8523C352.639 10.6263 353.159 10.5161 353.165 10.5469C353.173 10.5777 352.666 10.7459 351.75 11.0233C351.288 11.154 350.729 11.325 350.097 11.5809C349.463 11.8284 348.725 12.0619 347.956 12.442C347.565 12.6195 347.158 12.8054 346.735 12.9978C346.312 13.1939 345.895 13.4452 345.45 13.6787C344.551 14.1298 343.658 14.7285 342.703 15.3309C340.841 16.6096 338.898 18.1703 337.068 20.0308C335.262 21.9137 333.758 23.9013 332.533 25.8001C331.958 26.7724 331.384 27.6831 330.958 28.5965C330.737 29.0477 330.499 29.4727 330.314 29.9014C330.133 30.3291 329.959 30.7429 329.793 31.1389C329.435 31.9188 329.221 32.6651 328.991 33.3067C328.753 33.9456 328.598 34.5107 328.481 34.9758C328.229 35.9023 328.074 36.4142 328.044 36.4077Z" fill="#DADBD8"/>
</svg>
