<svg width="35" height="28" viewBox="0 0 35 28" fill="none" xmlns="http://www.w3.org/2000/svg">
<circle cx="14" cy="14" r="14" fill="#1262A1"/>
<circle cx="25.5" cy="9.5" r="9.5" fill="#A5C4DD"/>
<path d="M27.4564 5.22912C27.5942 5.32382 27.7115 5.44401 27.8016 5.58285C27.8917 5.72168 27.9528 5.87642 27.9814 6.03824C28.01 6.20006 28.0056 6.36579 27.9684 6.52595C27.9312 6.68611 27.862 6.83757 27.7646 6.97167L20.4879 16.997C20.0256 17.632 19.6339 18.172 19.2807 18.5833C18.9122 19.0083 18.4973 19.4058 17.9477 19.6583C17.1331 20.0346 16.2039 20.1028 15.3406 19.8495C14.755 19.6783 14.2875 19.342 13.865 18.972C13.4604 18.6158 13.002 18.137 12.4651 17.577L10.3653 15.3857C10.2458 15.2665 10.152 15.1253 10.0893 14.9703C10.0266 14.8154 9.99636 14.6498 10.0003 14.4833C10.0043 14.3168 10.0425 14.1527 10.1125 14.0008C10.1825 13.8488 10.2831 13.712 10.4082 13.5984C10.5333 13.4848 10.6805 13.3966 10.841 13.3392C11.0016 13.2817 11.1724 13.256 11.3433 13.2637C11.5143 13.2713 11.6819 13.3122 11.8364 13.3838C11.9909 13.4554 12.1291 13.5563 12.2429 13.6806L14.3055 15.8332C14.8898 16.4419 15.2738 16.8407 15.5872 17.117C15.8954 17.387 16.029 17.4407 16.0816 17.4557C16.3333 17.5307 16.6018 17.512 16.8496 17.3982C16.9087 17.3707 17.041 17.292 17.312 16.9757C17.5894 16.6545 17.9194 16.2007 18.4203 15.5119L25.6661 5.52913C25.7634 5.39499 25.8869 5.28081 26.0295 5.19313C26.1722 5.10545 26.3311 5.04598 26.4974 5.01812C26.6636 4.99026 26.8339 4.99456 26.9985 5.03076C27.163 5.06697 27.3186 5.13437 27.4564 5.22912Z" fill="white"/>
</svg>
