<svg width="480" height="411" viewBox="0 0 480 411" fill="none" xmlns="http://www.w3.org/2000/svg">
<path d="M252.647 0.242279C249.677 0.242279 247.26 2.67191 247.26 5.65732V259.69C247.26 262.676 249.677 265.105 252.647 265.105H426.163C429.134 265.105 431.552 262.676 431.552 259.69V5.65732C431.552 2.67191 429.134 0.242279 426.163 0.242279H252.647ZM426.163 265.346H252.647C249.544 265.346 247.02 262.809 247.02 259.69V5.65732C247.02 2.53778 249.544 0.0010376 252.647 0.0010376H426.163C429.267 0.0010376 431.792 2.53778 431.792 5.65732V259.69C431.792 262.809 429.267 265.346 426.163 265.346Z" fill="#DADBD8"/>
<path d="M52.5562 0.242279C49.5859 0.242279 47.169 2.67191 47.169 5.65732V259.69C47.169 262.676 49.5859 265.105 52.5562 265.105H226.073C229.043 265.105 231.461 262.676 231.461 259.69V5.65732C231.461 2.67191 229.043 0.242279 226.073 0.242279H52.5562ZM226.073 265.346H52.5562C49.4531 265.346 46.929 262.809 46.929 259.69V5.65732C46.929 2.53778 49.4531 0.0010376 52.5562 0.0010376H226.073C229.176 0.0010376 231.701 2.53778 231.701 5.65732V259.69C231.701 262.809 229.176 265.346 226.073 265.346Z" fill="#DADBD8"/>
<path d="M0 324.514H480V324.272H0V324.514Z" fill="#DADBD8"/>
<path d="M49.6055 338.036H65.0232V338.277H49.6055V338.036Z" fill="#DADBD8"/>
<path d="M163.538 335.662H214.927V335.42H163.538V335.662Z" fill="#DADBD8"/>
<path d="M65.9832 346.999H100.783V347.241H65.9832V346.999Z" fill="#DADBD8"/>
<path d="M363.218 335.295H404.68V335.537H363.218V335.295Z" fill="#DADBD8"/>
<path d="M413.234 335.295H419.311V335.537H413.234V335.295Z" fill="#DADBD8"/>
<path d="M303.563 341.307H355.298V341.548H303.563V341.307Z" fill="#DADBD8"/>
<path d="M74.2192 130.979H136.404V13.1466H74.2192V130.979Z" fill="#E2E2E0"/>
<path d="M60.3063 130.979H133.354V13.1466H60.3063V130.979Z" fill="#EDEDEB"/>
<path d="M71.4091 120.512H122.216V23.6129H71.4091V120.512Z" fill="white"/>
<path d="M94.4978 46.0511C91.9414 49.326 89.9321 52.9386 88.584 56.8802C87.2287 60.8421 86.3535 65.2951 87.0153 69.476C87.5797 73.0404 89.6842 76.4928 93.0881 77.9238C96.7478 79.4628 100.589 77.9942 103.525 75.6417C106.249 73.4611 109.769 69.6536 108.857 65.8306C107.905 61.8456 103.17 61.0573 99.9033 62.3946C92.4011 65.4649 88.8416 74.1269 88.2712 81.71C87.6678 89.7284 88.9627 102.946 98.8185 104.728C100.631 105.055 101.409 102.266 99.5846 101.936C92.554 100.666 91.3376 92.0364 91.09 86.1669C90.8144 79.6374 92.1423 72.6428 96.9398 67.8859C98.807 66.0333 102.175 63.484 104.882 65.0712C108.013 66.9074 104.429 70.8568 102.806 72.4344C100.743 74.4414 97.799 76.3153 94.8131 75.4806C92.0018 74.6942 90.36 71.8564 89.865 69.1325C89.19 65.4176 90.1125 61.3622 91.2948 57.8432C92.4739 54.3348 94.2588 51.0126 96.5337 48.0986C97.6656 46.6484 95.6411 44.5864 94.4978 46.0511Z" fill="#EDEDEB"/>
<path d="M363.354 92.0786H416.416V23.652H363.354V92.0786Z" fill="#E2E2E0"/>
<path d="M351.483 92.0786H413.813V23.652H351.483V92.0786Z" fill="#EDEDEB"/>
<path d="M357.229 86.001H407.795V29.7298H357.229V86.001Z" fill="white"/>
<path d="M373.839 68.0215H392.092V47.7088H373.839V68.0215Z" fill="#EDEDEB"/>
<path d="M416.416 187.509H363.354V119.083H416.416V187.509Z" fill="#E2E2E0"/>
<path d="M413.813 187.509H351.483V119.083H413.813V187.509Z" fill="#EDEDEB"/>
<path d="M407.795 125.161V181.432H357.229V125.161H407.795Z" fill="white"/>
<path d="M392.092 143.14V163.453H373.839V143.14H392.092Z" fill="#EDEDEB"/>
<path d="M46.929 312.02H173.959V252.053H46.929V312.02Z" fill="#E7E8E5"/>
<path d="M57.3141 309.183L46.929 405.127H53.6126L73.6034 309.336L57.3141 309.183Z" fill="#E7E8E5"/>
<path d="M166.49 309.183L176.876 405.127H170.193L150.201 309.336L166.49 309.183Z" fill="#E7E8E5"/>
<path d="M79.0072 235.408L84.5827 252.054H74.2773L79.0072 235.408Z" fill="#DADBD8"/>
<path d="M59.5624 252.054H79.0073L84.5828 224.87H65.151L59.5624 252.054Z" fill="#E2E2E0"/>
<path d="M76.9692 249.451L81.4812 227.472H67.1764L62.6644 249.451H76.9692Z" fill="white"/>
<path d="M114.368 234.22C112.315 229.216 112.5 223.569 114.874 218.711C118.946 211.084 120.135 209.202 117.403 207.627C114.671 206.05 113.634 213.779 113.634 213.779C112.339 210.289 112.207 206.471 113.255 202.898C115.05 197.329 116.189 188.253 113.71 187.287C111.231 186.321 113.255 198.601 111.18 202.795C110.092 199.849 109.386 196.772 109.081 193.643C108.803 189.168 109.259 182.05 107.311 180.219C105.363 178.388 104.124 179.634 106.02 189.499C107.17 195.364 107.804 201.319 107.917 207.296C107.917 207.296 103.693 194.355 100.86 193.973C98.0275 193.592 98.0275 197.787 100.455 201.422C102.884 205.058 107.563 211.592 108.348 214.923C108.348 214.923 103.693 205.185 99.5443 208.185C95.3967 211.185 103.162 217.033 106.627 219.169C110.093 221.304 112.521 234.626 112.521 234.626L114.368 234.22Z" fill="#DADBD8"/>
<path d="M111.56 237.296C113.546 232.275 113.297 226.638 110.877 221.813C106.703 214.186 105.515 212.381 108.094 210.779C110.675 209.177 111.939 216.881 111.939 216.881C113.184 213.366 113.272 209.543 112.192 205.974C110.32 200.431 109.081 191.381 111.535 190.389C113.988 189.397 112.141 201.677 114.317 205.846C115.374 202.886 116.045 199.801 116.315 196.668C116.543 192.194 116.012 185.075 117.934 183.219C119.857 181.363 121.121 182.584 119.325 192.499C118.252 198.371 117.684 204.326 117.631 210.296C117.631 210.296 121.703 197.304 124.536 196.872C127.369 196.44 127.42 200.66 125.017 204.321C122.614 207.983 118.036 214.491 117.428 217.948C117.428 217.948 121.931 208.135 126.13 211.059C130.329 213.982 122.614 219.982 119.173 222.144C115.734 224.305 113.458 237.703 113.458 237.703L111.56 237.296Z" fill="#E7E8E5"/>
<path d="M127.547 231.703H98.9126L101.24 252.297H125.244L127.547 231.703Z" fill="#DADBD8"/>
<path d="M164.6 247.659V251.652H165.241V252.297H135.541C134.091 252.297 132.914 251.114 132.914 249.656C132.914 248.197 134.091 247.014 135.541 247.014H165.241V247.659H164.6Z" fill="#DADBD8"/>
<path d="M165.241 252.297H162.903C162.926 252.269 162.949 252.241 162.972 252.213C163.126 252.029 163.283 251.841 163.445 251.652H164.6H165.241V252.297Z" fill="#E5E5E3"/>
<path d="M164.6 247.659V251.652H150.244C149.14 251.674 148.228 250.792 148.207 249.682L148.206 249.656C148.199 248.56 149.076 247.665 150.167 247.659H150.193H164.6Z" fill="white"/>
<path d="M167.792 242.377V246.371H168.433V247.014H138.733C137.282 247.014 136.106 245.832 136.106 244.373C136.106 242.915 137.282 241.732 138.733 241.732H168.433V242.377H167.792Z" fill="#DADBD8"/>
<path d="M167.792 242.377V246.371H168.433V247.014H153.436C151.984 247.014 150.808 245.832 150.808 244.373C150.808 242.915 151.984 241.732 153.436 241.732H168.433V242.377H167.792Z" fill="#E2E2E0"/>
<path d="M167.792 242.376V246.37H153.436C152.341 246.363 151.456 245.473 151.449 244.373C151.442 243.278 152.319 242.383 153.41 242.376H153.436H167.792Z" fill="white"/>
<path d="M163.78 237.094V241.088H164.421V241.732H134.722C133.27 241.732 132.094 240.55 132.094 239.091C132.094 237.632 133.27 236.45 134.722 236.45H164.421V237.094H163.78Z" fill="#DADBD8"/>
<path d="M163.78 237.094V241.088H164.421V241.732H149.487C148.037 241.732 146.86 240.55 146.86 239.091C146.86 237.632 148.037 236.45 149.487 236.45H164.484V237.094H163.78Z" fill="#E2E2E0"/>
<path d="M163.78 237.094V241.088H149.487C148.384 241.116 147.466 240.24 147.438 239.13L147.437 239.103C147.421 238.008 148.293 237.108 149.384 237.093L149.487 237.094H163.78Z" fill="white"/>
<path d="M167.051 290.624V290.142H54.8243V260.419H166.571V290.624H167.051H167.531V259.454H53.8643V291.107H167.531V290.624H167.051Z" fill="#DADBD8"/>
<path d="M116.502 275.281C116.502 277.098 115.037 278.57 113.229 278.57C111.422 278.57 109.957 277.098 109.957 275.281C109.957 273.465 111.422 271.993 113.229 271.993C115.037 271.993 116.502 273.465 116.502 275.281Z" fill="#DADBD8"/>
<path d="M439.005 405.128C439.005 408.371 349.908 411 240 411C130.092 411 40.995 408.371 40.995 405.128C40.995 401.885 130.092 399.255 240 399.255C349.908 399.255 439.005 401.885 439.005 405.128Z" fill="#F3F2F1"/>
<path d="M133.48 362.64C126.545 362.64 120.491 360.287 115.319 355.578C110.147 350.87 107.56 344.288 107.56 335.823C107.56 328.314 110.061 321.997 115.064 316.871C120.065 311.748 126.204 309.184 133.48 309.184C140.642 309.184 146.667 311.748 151.555 316.871C156.443 321.997 158.888 328.314 158.888 335.823C158.888 344.166 156.33 350.724 151.214 355.489C146.099 360.254 140.187 362.64 133.48 362.64Z" fill="#406FBF"/>
<path d="M53.6123 173.597C53.6123 162.57 56.9896 151.397 63.7429 140.079C70.4967 128.761 80.3505 119.387 93.3042 111.958C106.258 104.532 121.371 100.815 138.642 100.815C154.696 100.815 168.868 103.922 181.158 110.13C193.448 116.34 202.941 124.785 209.64 135.464C216.338 146.147 219.687 157.752 219.687 170.289C219.687 180.156 217.777 188.806 213.958 196.233C210.138 203.662 205.598 210.076 200.34 215.473C195.081 220.871 185.642 229.954 172.023 242.723C168.259 246.322 165.242 249.487 162.973 252.213C160.703 254.941 159.014 257.437 157.908 259.7C156.801 261.964 155.942 264.227 155.333 266.49C154.724 268.754 153.811 272.732 152.593 278.418C150.49 290.493 143.902 296.527 132.83 296.527C127.073 296.527 122.229 294.554 118.299 290.606C114.368 286.663 112.403 280.798 112.403 273.02C112.403 263.27 113.843 254.825 116.721 247.685C119.6 240.547 123.42 234.278 128.18 228.88C132.941 223.483 139.362 217.069 147.445 209.64C154.53 203.14 159.651 198.235 162.806 194.927C165.962 191.619 168.619 187.936 170.778 183.871C172.937 179.807 174.016 175.399 174.016 170.637C174.016 161.351 170.723 153.515 164.135 147.131C157.548 140.749 149.05 137.554 138.642 137.554C126.464 137.554 117.496 140.775 111.738 147.218C105.981 153.661 101.11 163.15 97.1242 175.686C93.3597 188.806 86.2185 195.363 75.7006 195.363C69.5003 195.363 64.2691 193.072 60.0064 188.485C55.7438 183.9 53.6123 178.937 53.6123 173.597Z" fill="#406FBF"/>
<path d="M133.48 362.64C126.545 362.64 120.491 360.287 115.319 355.578C110.147 350.87 107.56 344.288 107.56 335.823C107.56 328.314 110.061 321.997 115.064 316.871C120.065 311.748 126.204 309.184 133.48 309.184C140.642 309.184 146.667 311.748 151.555 316.871C156.443 321.997 158.888 328.314 158.888 335.823C158.888 339.177 158.475 342.242 157.648 345.019C156.418 349.149 154.274 352.64 151.214 355.489C146.099 360.254 140.187 362.64 133.48 362.64Z" fill="#2D5BB2"/>
<path d="M132.83 296.527C127.073 296.527 122.229 294.554 118.299 290.606C114.368 286.663 112.403 280.798 112.403 273.02C112.403 271.595 112.433 270.198 112.495 268.827C112.926 275.212 114.86 280.133 118.299 283.584C122.229 287.53 127.073 289.503 132.83 289.503C143.902 289.503 150.49 283.47 152.593 271.395C153.811 265.71 154.724 261.732 155.333 259.468C155.942 257.204 156.801 254.941 157.908 252.677C159.014 250.413 160.703 247.918 162.973 245.19C165.242 242.464 168.259 239.299 172.023 235.7C180.33 227.912 187.082 221.494 192.278 216.448C192.182 218.754 192.084 221.193 191.981 223.761C186.825 228.762 180.173 235.083 172.023 242.723C170.696 243.993 169.46 245.209 168.319 246.37C168.106 246.586 167.895 246.802 167.689 247.014C166.563 248.175 165.534 249.278 164.6 250.326C164.197 250.779 163.812 251.221 163.445 251.652C163.284 251.841 163.126 252.028 162.973 252.213C162.949 252.241 162.926 252.269 162.903 252.297C160.75 254.894 159.125 257.279 158.029 259.454C157.988 259.536 157.947 259.618 157.908 259.7C157.79 259.94 157.675 260.18 157.564 260.419C156.621 262.444 155.877 264.467 155.333 266.49C154.724 268.754 153.811 272.732 152.593 278.418C151.739 283.323 150.144 287.231 147.81 290.142C147.542 290.477 147.264 290.798 146.976 291.107C143.603 294.721 138.888 296.527 132.83 296.527Z" fill="#2D5BB2"/>
<path d="M75.7006 195.363C69.5003 195.363 64.2691 193.072 60.0064 188.485C55.7438 183.9 53.6123 178.937 53.6123 173.598C53.6123 172.139 53.6715 170.676 53.7901 169.212C54.3818 173.557 56.4537 177.64 60.0064 181.461C64.2691 186.05 69.5003 188.339 75.7006 188.339C86.2185 188.339 93.3597 181.784 97.1242 168.664C101.11 156.127 105.981 146.637 111.738 140.195C117.496 133.753 126.464 130.531 138.642 130.531C149.05 130.531 157.548 133.726 164.135 140.108C170.723 146.492 174.016 154.328 174.016 163.615C174.016 164.743 173.956 165.85 173.835 166.939C173.063 159.252 169.83 152.649 164.135 147.131C157.548 140.749 149.05 137.555 138.642 137.555C126.464 137.555 117.496 140.775 111.738 147.218C105.981 153.661 101.11 163.151 97.1242 175.687C93.3597 188.806 86.2185 195.363 75.7006 195.363Z" fill="#2D5BB2"/>
<path d="M133.48 355.618C126.545 355.618 120.491 353.263 115.319 348.555C110.147 343.848 107.56 337.264 107.56 328.799C107.56 321.29 110.061 314.973 115.064 309.848C120.065 304.726 126.204 302.16 133.48 302.16C140.642 302.16 146.667 304.726 151.555 309.848C156.443 314.973 158.888 321.29 158.888 328.799C158.888 337.143 156.33 343.701 151.214 348.466C146.099 353.231 140.187 355.618 133.48 355.618Z" fill="#406FBF"/>
<path d="M53.6123 166.575C53.6123 155.547 56.9896 144.374 63.7429 133.056C70.4967 121.738 80.3505 112.365 93.3042 104.936C106.258 97.5092 121.371 93.7924 138.642 93.7924C154.696 93.7924 168.868 96.8994 181.158 103.108C193.448 109.318 202.941 117.762 209.64 128.442C216.338 139.123 219.687 150.729 219.687 163.266C219.687 173.133 217.777 181.784 213.958 189.211C210.138 196.639 205.598 203.053 200.34 208.451C195.081 213.848 185.642 222.932 172.023 235.7C168.259 239.299 165.242 242.464 162.973 245.19C160.703 247.918 159.014 250.413 157.908 252.677C156.801 254.941 155.942 257.204 155.333 259.468C154.724 261.732 153.811 265.71 152.593 271.395C150.49 283.47 143.902 289.503 132.83 289.503C127.073 289.503 122.229 287.53 118.299 283.584C114.368 279.639 112.403 273.775 112.403 265.997C112.403 256.247 113.843 247.802 116.721 240.663C119.6 233.524 123.42 227.256 128.18 221.858C132.941 216.46 139.362 210.047 147.445 202.618C154.53 196.117 159.651 191.213 162.806 187.904C165.962 184.596 168.619 180.912 170.778 176.847C172.937 172.785 174.016 168.376 174.016 163.615C174.016 154.328 170.723 146.492 164.135 140.108C157.548 133.726 149.05 130.531 138.642 130.531C126.464 130.531 117.496 133.753 111.738 140.195C105.981 146.637 101.11 156.127 97.1242 168.664C93.3597 181.784 86.2185 188.339 75.7006 188.339C69.5003 188.339 64.2691 186.05 60.0064 181.461C55.7438 176.876 53.6123 171.915 53.6123 166.575Z" fill="#406FBF"/>
<path d="M367.73 40.0644C357.291 32.3221 342.583 34.551 334.88 45.0443C328.932 53.1447 328.922 63.7904 334.019 71.7914L332.121 78.621L339.533 77.8143C339.636 77.8934 339.729 77.9841 339.834 78.0623C350.273 85.8047 364.981 83.5757 372.684 73.0824C380.387 62.5891 378.17 47.8068 367.73 40.0644Z" fill="#406FBF"/>
<path d="M353.763 82.6768C348.919 82.6768 344.031 81.1754 339.834 78.0626C339.729 77.9844 339.636 77.8937 339.533 77.8146L332.121 78.6213L334.019 71.7917C331.57 67.9475 330.3 63.4926 330.301 59.0029C330.302 54.1485 331.79 49.2526 334.88 45.0446C339.486 38.7699 346.595 35.4506 353.8 35.4506C358.645 35.4506 363.533 36.952 367.73 40.0648C373.969 44.6924 377.272 51.8337 377.275 59.0724C377.276 62.0973 376.701 65.1387 375.523 68.0218C374.804 69.7818 373.859 71.4819 372.684 73.0827C368.82 78.3453 363.196 81.5295 357.229 82.4191C356.083 82.5909 354.924 82.6768 353.763 82.6768Z" fill="#B8D2EF"/>
<path d="M370.119 38.7371C376.19 42.8891 380.007 50.1934 380.005 57.57C380.005 57.7785 380.002 57.9878 379.996 58.1972C379.992 58.3304 380.097 58.4413 380.229 58.4452C380.361 58.4491 380.472 58.3439 380.476 58.2117C380.482 57.9975 380.485 57.7833 380.485 57.57C380.483 50.0274 376.597 42.588 370.389 38.3376C370.28 38.2633 370.13 38.2913 370.056 38.4013C369.981 38.5113 370.01 38.6618 370.119 38.7371Z" fill="#406FBF"/>
<path d="M379.769 61.7296C379.774 61.8521 379.777 61.9737 379.777 62.0953C379.777 63.1113 379.59 64.1274 379.226 65.0749C379.179 65.1994 379.24 65.3383 379.364 65.3866C379.488 65.4348 379.626 65.3721 379.674 65.2476C380.059 64.2451 380.257 63.1712 380.257 62.0953C380.257 61.967 380.254 61.8377 380.248 61.7084C380.243 61.5752 380.13 61.4729 379.998 61.4777C379.865 61.4845 379.763 61.5964 379.769 61.7296Z" fill="#406FBF"/>
<path d="M351.854 69.2576C351.392 68.7867 351.159 68.2126 351.159 67.5362C351.159 66.8607 351.387 66.2953 351.841 65.8418C352.295 65.3893 352.877 65.1615 353.582 65.1615C354.29 65.1615 354.87 65.3893 355.324 65.8418C355.779 66.2953 356.005 66.8607 356.005 67.5362C356.005 68.2126 355.775 68.7867 355.312 69.2576C354.849 69.7294 354.273 69.9639 353.582 69.9639C352.893 69.9639 352.317 69.7294 351.854 69.2576ZM352.258 60.2222C352.653 59.5468 353.23 58.8019 353.987 57.9865C354.542 57.3902 354.95 56.8885 355.211 56.4813C355.473 56.0741 355.602 55.6129 355.602 55.0947C355.602 54.3604 355.355 53.7796 354.857 53.3511C354.361 52.9237 353.7 52.7104 352.877 52.7104C352.085 52.7104 351.382 52.9044 350.769 53.2923C350.154 53.6792 349.638 54.2215 349.216 54.9162L346.162 52.8002C346.869 51.5284 347.823 50.5443 349.027 49.8486C350.23 49.1529 351.657 48.8055 353.305 48.8055C355.24 48.8055 356.793 49.2928 357.962 50.2663C359.131 51.2399 359.716 52.5908 359.716 54.3199C359.716 55.1352 359.603 55.8502 359.375 56.4668C359.148 57.0824 358.871 57.6044 358.543 58.0309C358.215 58.4584 357.79 58.9505 357.269 59.5072C356.646 60.1633 356.192 60.7143 355.906 61.1611C355.62 61.6088 355.476 62.1501 355.476 62.7859H351.665C351.665 61.7525 351.862 60.8986 352.258 60.2222Z" fill="#406FBF"/>
<path d="M146.892 35.9727C140.032 47.0411 143.397 61.6033 154.409 68.4985C162.91 73.8219 173.47 72.9969 181.006 67.2615L187.93 68.6278L186.547 61.2647C186.618 61.1547 186.7 61.0553 186.769 60.9434C193.63 49.875 190.264 35.3127 179.252 28.4175C168.241 21.5223 153.753 24.9052 146.892 35.9727Z" fill="#406FBF"/>
<path d="M166.775 72.063C162.546 72.063 158.266 70.9128 154.409 68.4986C147.258 64.0205 143.332 56.309 143.337 48.421C143.339 44.1628 144.487 39.8526 146.893 35.9728C151.345 28.7891 159.01 24.8436 166.853 24.8436C171.094 24.8436 175.388 25.9976 179.252 28.4176C186.404 32.8957 190.331 40.6072 190.326 48.4953C190.323 52.7534 189.175 57.0626 186.769 60.9435C186.7 61.0554 186.618 61.1548 186.547 61.2648L187.93 68.6279L181.006 67.2616C176.889 70.3956 171.869 72.063 166.775 72.063Z" fill="#B8D2EF"/>
<path d="M145.388 33.6829C149.133 27.0916 156.371 22.629 163.914 22.2594C164.047 22.2526 164.148 22.1398 164.143 22.0066C164.136 21.8735 164.024 21.7702 163.891 21.7769C156.177 22.159 148.806 26.7047 144.971 33.4436C144.905 33.5594 144.946 33.706 145.061 33.7726C145.175 33.8392 145.322 33.7987 145.388 33.6829Z" fill="#406FBF"/>
<path d="M167.436 22.2102C167.771 22.1678 168.108 22.1475 168.444 22.1475C169.239 22.1475 170.035 22.2633 170.796 22.491C170.924 22.5287 171.058 22.4563 171.095 22.3289C171.133 22.2006 171.06 22.0665 170.934 22.0288C170.126 21.7866 169.285 21.6651 168.444 21.6651C168.087 21.6651 167.731 21.6863 167.378 21.7307C167.246 21.7471 167.153 21.8677 167.169 21.9999C167.185 22.1321 167.305 22.2257 167.436 22.2102Z" fill="#406FBF"/>
<path d="M165.746 58.3254C165.283 57.8546 165.052 57.2804 165.052 56.604C165.052 55.9286 165.278 55.3642 165.732 54.9097C166.188 54.4572 166.768 54.2294 167.475 54.2294C168.181 54.2294 168.761 54.4572 169.216 54.9097C169.67 55.3642 169.898 55.9286 169.898 56.604C169.898 57.2804 169.667 57.8546 169.204 58.3254C168.741 58.7973 168.165 59.0327 167.475 59.0327C166.785 59.0327 166.209 58.7973 165.746 58.3254ZM166.149 49.2911C166.545 48.6156 167.122 47.8707 167.879 47.0554C168.434 46.4591 168.842 45.9573 169.102 45.5501C169.364 45.143 169.495 44.6808 169.495 44.1636C169.495 43.4283 169.246 42.8474 168.75 42.42C168.252 41.9925 167.593 41.7793 166.768 41.7793C165.977 41.7793 165.275 41.9732 164.66 42.3602C164.046 42.7471 163.529 43.2894 163.108 43.9841L160.054 41.8681C160.761 40.5963 161.715 39.6131 162.919 38.9164C164.122 38.2217 165.548 37.8734 167.197 37.8734C169.133 37.8734 170.685 38.3616 171.854 39.3342C173.024 40.3078 173.608 41.6596 173.608 43.3887C173.608 44.2041 173.494 44.9191 173.268 45.5347C173.04 46.1503 172.763 46.6733 172.434 47.0988C172.107 47.5263 171.682 48.0193 171.16 48.5761C170.537 49.2312 170.083 49.7832 169.797 50.2299C169.511 50.6767 169.368 51.218 169.368 51.8548H165.557C165.557 50.8214 165.755 49.9665 166.149 49.2911Z" fill="#406FBF"/>
<path d="M385.09 366.154C385.072 365.617 383.274 312.275 374.642 303.838C366.246 295.635 356.609 303.533 356.204 303.873L355.339 302.831C355.448 302.738 366.323 293.816 375.584 302.865C384.604 311.682 386.368 363.892 386.439 366.111L385.09 366.154Z" fill="#17282F"/>
<path d="M385.831 376.637C385.768 375.999 379.931 312.6 402.966 286.029L403.985 286.92C381.331 313.051 387.114 375.874 387.175 376.504L385.831 376.637Z" fill="#17282F"/>
<path d="M384.979 369.931L383.63 369.84C383.678 369.122 388.139 297.765 371.242 282.144L372.157 281.145C389.527 297.204 385.172 366.969 384.979 369.931Z" fill="#17282F"/>
<path d="M387.179 369.892L385.827 369.88C385.843 367.915 386.385 321.682 399.45 314.156C402.355 312.481 405.2 312.203 407.905 313.327C415.805 316.612 419.721 330.744 419.884 331.345L418.58 331.703C418.542 331.562 414.676 317.61 407.387 314.581C405.089 313.628 402.645 313.88 400.122 315.334C387.724 322.475 387.182 369.418 387.179 369.892Z" fill="#17282F"/>
<path d="M382.089 369.924L380.742 369.847C380.762 369.482 382.713 333.312 373 320.568C370.647 317.481 368.093 316.008 365.394 316.198C359.03 316.645 353.695 326.005 353.641 326.099L352.465 325.431C352.696 325.019 358.209 315.343 365.297 314.844C368.469 314.617 371.425 316.268 374.073 319.743C384.09 332.886 382.176 368.419 382.089 369.924Z" fill="#17282F"/>
<path d="M384.22 374.844C383.955 371.335 377.87 288.746 388.576 274.193L389.662 274.999C379.253 289.15 385.502 373.887 385.567 374.741L384.22 374.844Z" fill="#17282F"/>
<path d="M412.755 317.887C412.755 317.887 405.923 320.425 408.242 325.885C414.777 341.27 430.355 342.911 430.355 342.911C430.355 342.911 437.664 331.28 431.673 322.247C423.412 309.793 412.928 313.866 412.755 317.887Z" fill="#406FBF"/>
<path d="M382.896 311.002C382.896 311.002 389.735 310.715 390.124 316.638C390.513 322.563 375.308 338.953 375.308 338.953C375.308 338.953 364.458 335.01 366.788 320.226C369.119 305.444 381.197 307.359 382.896 311.002Z" fill="#406FBF"/>
<path d="M386.212 276.478C386.212 276.478 383.34 276.123 382.26 273.526C379.038 265.775 390.11 257.419 404.916 261.835C404.916 261.835 405.307 274.929 397.34 280.094C389.373 285.258 386.212 276.478 386.212 276.478Z" fill="#406FBF"/>
<path d="M360.841 317.087C360.841 317.087 363.225 313.803 359.623 313.481C356.022 313.159 340.433 320.181 344.532 336.253C344.532 336.253 364.583 329.679 365.278 322.95C365.974 316.221 360.841 317.087 360.841 317.087Z" fill="#406FBF"/>
<path d="M403.591 282.228C403.591 282.228 404.491 279.246 407.887 278C411.283 276.753 423.898 277.536 424.072 294.126C424.072 294.126 404.665 297.368 402.263 291.048C399.861 284.729 403.591 282.228 403.591 282.228Z" fill="#406FBF"/>
<path d="M393.115 296.015C393.115 296.015 394.419 293.741 396.913 294.958C399.406 296.175 406.758 303.777 399.748 312.956C399.748 312.956 386.722 305.084 387.786 299.559C388.767 294.466 393.115 296.015 393.115 296.015Z" fill="#406FBF"/>
<path d="M361.202 300.017C361.202 300.017 363.083 297.539 360.327 297.232C357.573 296.926 345.227 300.238 348.102 312.625C348.102 312.625 363.143 311.489 363.787 306.343C364.432 301.197 361.202 300.017 361.202 300.017Z" fill="#406FBF"/>
<path d="M404.209 403.027H367.446L363.48 364.792H408.175L404.209 403.027Z" fill="#17282F"/>
<path d="M357.298 370.03H414.357V359.554H357.298V370.03Z" fill="#17282F"/>
<path d="M382.897 311.002C382.863 310.931 382.825 310.859 382.784 310.789C382.819 310.77 382.858 310.761 382.897 310.761C382.963 310.761 383.028 310.788 383.076 310.84C383.118 310.886 383.138 310.943 383.138 311.001C383.106 311.001 383.076 311.001 383.049 311.001C382.951 311.001 382.897 311.002 382.897 311.002Z" fill="#0F191D"/>
<path d="M373.964 333.732C373.847 333.732 373.744 333.646 373.727 333.525C373.598 332.605 373.537 331.675 373.537 330.739C373.54 323.373 377.363 315.717 382.736 310.824C382.75 310.81 382.766 310.799 382.784 310.789C382.825 310.86 382.862 310.931 382.896 311.002C382.896 311.002 382.95 311 383.048 311C383.075 311 383.104 311 383.136 311C383.137 311.067 383.11 311.134 383.057 311.181C377.78 315.98 374.013 323.541 374.017 330.739C374.017 331.654 374.077 332.562 374.202 333.458C374.221 333.59 374.129 333.712 373.998 333.73C373.987 333.732 373.976 333.732 373.964 333.732Z" fill="#2D5BB2"/>
<path d="M399.245 308.186C399.132 308.186 399.033 308.107 399.01 307.992C398.162 303.72 396.02 299.711 392.945 296.64C392.851 296.546 392.851 296.394 392.944 296.299C392.991 296.252 393.053 296.228 393.115 296.228C393.176 296.228 393.237 296.251 393.284 296.298C396.427 299.438 398.613 303.529 399.48 307.898C399.506 308.028 399.421 308.155 399.292 308.181C399.275 308.184 399.26 308.186 399.245 308.186Z" fill="#2D5BB2"/>
<path d="M412.532 317.978C412.508 317.919 412.507 317.852 412.535 317.789C412.575 317.699 412.664 317.645 412.756 317.645C412.763 317.645 412.771 317.645 412.779 317.645C412.767 317.726 412.759 317.806 412.756 317.887C412.756 317.887 412.674 317.916 412.532 317.978Z" fill="#0F191D"/>
<path d="M427.765 332.887C427.676 332.887 427.591 332.838 427.549 332.752C424.609 326.674 418.798 320.845 412.657 318.108C412.598 318.082 412.554 318.033 412.532 317.978C412.673 317.917 412.755 317.887 412.755 317.887C412.758 317.806 412.765 317.727 412.777 317.646C412.802 317.649 412.828 317.656 412.852 317.667C419.116 320.466 424.98 326.353 427.981 332.541C428.039 332.66 427.989 332.805 427.87 332.863C427.836 332.879 427.801 332.887 427.765 332.887Z" fill="#2D5BB2"/>
<path d="M403.401 282.376C403.383 282.353 403.368 282.325 403.359 282.294C403.323 282.167 403.397 282.033 403.526 281.996C403.583 281.98 403.64 281.964 403.697 281.949C403.623 282.126 403.592 282.228 403.592 282.228C403.592 282.228 403.52 282.276 403.401 282.376Z" fill="#A7A9A8"/>
<path d="M420.449 290.006C420.37 290.006 420.292 289.966 420.247 289.893C418.492 287.097 415.813 284.892 412.74 283.714C410.484 282.847 408.366 282.104 406.19 282.104C406.189 282.104 406.188 282.104 406.187 282.104C405.358 282.105 404.52 282.211 403.656 282.46C403.634 282.466 403.612 282.47 403.59 282.47C403.516 282.47 403.446 282.434 403.401 282.376C403.519 282.276 403.591 282.228 403.591 282.228C403.591 282.228 403.621 282.126 403.694 281.949C404.542 281.721 405.37 281.622 406.185 281.622C406.186 281.622 406.186 281.622 406.187 281.622C408.474 281.623 410.647 282.396 412.911 283.263C416.084 284.48 418.84 286.749 420.653 289.635C420.723 289.748 420.689 289.898 420.578 289.968C420.538 289.993 420.493 290.006 420.449 290.006Z" fill="#2D5BB2"/>
<path d="M376.369 285.023C376.369 285.023 380.923 285.571 381.187 282.768C381.451 279.965 366.134 269.055 353.565 278.074C353.565 278.074 357.434 290.584 366.64 292.861C375.846 295.139 376.369 285.023 376.369 285.023Z" fill="#406FBF"/>
<path d="M376.327 285.472C376.355 285.239 376.365 285.085 376.368 285.039C376.387 285.062 376.404 285.085 376.421 285.108C376.502 285.216 376.479 285.366 376.372 285.446C376.358 285.457 376.342 285.465 376.327 285.472Z" fill="#A7A9A8"/>
<path d="M376.229 285.493C376.155 285.493 376.083 285.46 376.036 285.397C372.3 280.328 364.076 277.939 358.927 277.939C358.918 277.939 358.909 277.939 358.9 277.939C358.897 277.939 358.894 277.939 358.891 277.939C357.609 277.939 356.522 278.089 355.764 278.365C355.737 278.375 355.709 278.38 355.682 278.38C355.584 278.38 355.492 278.319 355.456 278.221C355.411 278.096 355.476 277.957 355.6 277.912C356.443 277.606 357.577 277.457 358.9 277.456C364.154 277.465 372.428 279.816 376.368 285.039C376.365 285.085 376.355 285.238 376.327 285.472C376.295 285.486 376.261 285.493 376.229 285.493Z" fill="#2D5BB2"/>
<path d="M361.579 300.207C361.405 300.103 361.276 300.046 361.225 300.025C361.235 300.022 361.245 300.017 361.256 300.015C361.284 300.004 361.312 299.999 361.34 299.999C361.438 299.999 361.53 300.059 361.566 300.157C361.573 300.173 361.576 300.191 361.579 300.207Z" fill="#0F191D"/>
<path d="M351.089 308.038C351.046 308.038 351.003 308.027 350.965 308.002C350.851 307.933 350.815 307.784 350.884 307.671C353.097 304.029 357.296 301.501 361.225 300.026C361.276 300.047 361.404 300.103 361.577 300.207C361.593 300.317 361.53 300.427 361.423 300.466C357.545 301.912 353.414 304.418 351.294 307.922C351.249 307.997 351.17 308.038 351.089 308.038Z" fill="#2D5BB2"/>
<path d="M360.841 317.087C360.841 317.087 360.95 316.938 361.086 316.699C361.121 316.724 361.149 316.758 361.167 316.801C361.205 316.89 361.185 316.991 361.122 317.059C360.945 317.07 360.841 317.087 360.841 317.087Z" fill="#0F191D"/>
<path d="M346.674 330.393C346.637 330.393 346.599 330.384 346.564 330.366C346.446 330.304 346.401 330.159 346.462 330.04C349.544 324.102 354.718 319.294 360.85 316.673C360.881 316.661 360.913 316.654 360.945 316.654C360.994 316.654 361.044 316.67 361.085 316.7C360.949 316.938 360.841 317.087 360.841 317.087C360.841 317.087 360.945 317.07 361.12 317.059C361.098 317.083 361.07 317.103 361.038 317.117C355.011 319.692 349.915 324.426 346.887 330.264C346.845 330.346 346.761 330.393 346.674 330.393Z" fill="#2D5BB2"/>
<path d="M386.815 276.408C386.781 276.408 386.745 276.4 386.713 276.385C386.593 276.329 386.541 276.185 386.598 276.064C389.066 270.769 393.797 266.599 399.342 264.83C399.366 264.822 399.391 264.818 399.415 264.818C399.516 264.818 399.61 264.884 399.643 264.987C399.683 265.115 399.613 265.25 399.488 265.29C394.074 267.014 389.44 271.1 387.033 276.269C386.991 276.357 386.905 276.408 386.815 276.408Z" fill="#2D5BB2"/>
<path d="M406.919 376.894H364.735L364.473 374.37L364.022 370.03H407.631L406.919 376.894Z" fill="#0F191D"/>
<path d="M407.631 370.03H364.022L407.632 370.022L407.631 370.03Z" fill="#0F191D"/>
<path d="M241.308 366.837L245.051 394.435L254 394.89L256.897 368.284L241.308 366.837Z" fill="#17282F"/>
<path d="M261.618 407.25H241.602C241.602 407.25 241.165 406.404 241.665 404.155C241.741 403.804 241.84 403.419 241.97 402.999L241.988 402.936C242.175 402.314 242.39 401.548 242.619 400.722C243.536 397.354 244.614 392.953 244.614 392.953C244.614 392.953 247.944 385.787 251.841 387.576C255.258 389.146 254.448 393.638 254.448 393.638C254.448 393.638 254.783 396.275 257.374 398.6C258.976 400.037 260.57 401.15 261.337 402.936C261.48 403.27 261.593 403.626 261.674 404.011L261.7 404.155C261.859 405.016 261.85 406.026 261.618 407.25Z" fill="#17282F"/>
<path d="M261.618 407.25H241.602C241.602 407.25 241.426 406.907 241.426 406.077C241.426 405.604 241.483 404.973 241.665 404.155H261.7C261.771 404.538 261.808 404.951 261.807 405.4C261.806 405.957 261.747 406.571 261.618 407.25Z" fill="#57666B"/>
<path d="M253.642 394.765C252.516 393.883 251.039 393.998 250.026 394.99C249.754 395.257 249.336 394.838 249.609 394.57C250.872 393.332 252.677 393.262 254.059 394.345C254.359 394.58 253.938 394.998 253.642 394.765Z" fill="#406FBF"/>
<path d="M254.207 396.644C253.081 395.762 251.604 395.877 250.592 396.87C250.319 397.136 249.901 396.717 250.174 396.45C251.437 395.21 253.242 395.142 254.625 396.224C254.924 396.459 254.504 396.876 254.207 396.644Z" fill="#406FBF"/>
<path d="M254.774 398.371C253.648 397.49 252.172 397.604 251.159 398.597C250.886 398.864 250.469 398.444 250.741 398.177C252.005 396.938 253.81 396.869 255.192 397.951C255.492 398.186 255.071 398.604 254.774 398.371Z" fill="#406FBF"/>
<path d="M203.74 365.11L199.997 392.709L191.049 393.163L188.15 366.558L203.74 365.11Z" fill="#17282F"/>
<path d="M183.429 405.522H203.445C203.445 405.522 203.882 404.677 203.383 402.428C203.307 402.077 203.207 401.692 203.078 401.272L203.06 401.209C202.873 400.587 202.658 399.821 202.429 398.994C201.513 395.626 200.434 391.225 200.434 391.225C200.434 391.225 197.103 384.059 193.208 385.849C189.789 387.418 190.6 391.909 190.6 391.909C190.6 391.909 190.265 394.547 187.674 396.873C186.071 398.31 184.477 399.421 183.711 401.209C183.567 401.543 183.455 401.898 183.373 402.283L183.348 402.428C183.189 403.288 183.198 404.299 183.429 405.522Z" fill="#17282F"/>
<path d="M203.445 405.522H183.429C183.301 404.843 183.241 404.23 183.24 403.673C183.24 403.224 183.277 402.811 183.348 402.428H203.383C203.564 403.244 203.622 403.876 203.622 404.35C203.623 405.18 203.445 405.522 203.445 405.522Z" fill="#57666B"/>
<path d="M191.406 393.038C192.532 392.156 194.009 392.27 195.022 393.263C195.294 393.53 195.712 393.11 195.44 392.843C194.175 391.604 192.371 391.535 190.988 392.617C190.689 392.852 191.109 393.27 191.406 393.038Z" fill="#406FBF"/>
<path d="M190.841 394.917C191.966 394.035 193.444 394.149 194.457 395.141C194.729 395.409 195.147 394.989 194.874 394.722C193.61 393.483 191.806 393.413 190.423 394.497C190.123 394.731 190.545 395.148 190.841 394.917Z" fill="#406FBF"/>
<path d="M190.274 396.644C191.399 395.762 192.876 395.877 193.889 396.87C194.161 397.136 194.579 396.717 194.307 396.45C193.042 395.21 191.239 395.142 189.856 396.224C189.556 396.459 189.977 396.877 190.274 396.644Z" fill="#406FBF"/>
<path d="M260.91 185.661L219.283 188.154L193.818 183.734C193.818 183.734 192.089 212.964 189.914 282.42C189.439 297.566 185.457 387.604 185.457 387.604L207.842 389.896C207.842 389.896 218.961 296.512 220.66 288.357C221.681 283.452 225.497 246.625 228.531 229.02C230 243.701 231.213 279.136 232.324 288.669C232.324 288.669 237.88 365.304 238.668 387.043L259.533 386.002C262.108 356.157 262.981 247.443 262.981 247.443L262.979 247.442C264.422 224.674 260.91 185.661 260.91 185.661Z" fill="#17282F"/>
<path d="M207.842 389.896L199.143 389.006L190.99 388.17L185.457 387.604C185.457 387.604 189.439 297.566 189.914 282.42C191.315 237.675 192.531 209.626 193.219 195.331C201.482 200.26 212.984 202.79 225.569 202.789C237.266 202.789 249.901 200.602 261.732 196.126C261.889 198.334 262.056 200.811 262.22 203.478C259.33 211.657 256.702 219.92 254.517 228.317C253.501 232.222 252.628 236.578 254.539 240.129C256.222 243.257 259.555 244.854 263.073 245.805C263.044 246.359 263.012 246.906 262.979 247.442L262.981 247.443C262.981 247.443 262.927 254.326 262.803 265.105C262.802 265.184 262.801 265.268 262.8 265.346C262.628 280.254 262.327 302.487 261.861 324.273C261.859 324.354 261.857 324.433 261.855 324.514C261.317 349.622 260.56 374.092 259.533 386.002L254.942 386.231L244.012 386.776L238.668 387.043C237.88 365.304 232.324 288.669 232.324 288.669C231.803 284.193 231.258 274.007 230.676 262.942C230.669 262.806 230.662 262.672 230.654 262.537C230.003 250.145 229.302 236.724 228.531 229.02C226.944 238.228 225.143 252.697 223.641 265.105C223.63 265.187 223.621 265.266 223.611 265.346C222.254 276.554 221.144 286.035 220.66 288.357C220.02 291.427 218.046 306.574 215.832 324.273C215.821 324.353 215.812 324.434 215.801 324.514C215.357 328.073 214.902 331.736 214.447 335.421C214.436 335.502 214.427 335.582 214.417 335.662C211.139 362.204 207.842 389.896 207.842 389.896Z" fill="#6C7A7F"/>
<path d="M210.475 87.2975C214.341 87.0563 224.277 85.0117 238.561 86.5401C245.994 87.3361 252.066 87.1615 259.693 90.6824L263.464 182.696C263.521 190.3 262.307 191.364 262.307 191.364C262.307 191.364 262.525 195.682 262.541 195.815C237.439 205.567 208.529 204.93 192.54 194.915C192.917 194.979 192.54 191.796 192.54 191.796C192.54 191.796 190.129 189.341 190.955 181.526C193.708 155.453 199.742 113.429 204.023 89.9809C204.137 89.402 209.889 87.3342 210.475 87.2975Z" fill="#406FBF"/>
<path d="M225.569 202.789C212.634 202.79 200.845 200.118 192.54 194.915C192.543 194.916 192.547 194.916 192.55 194.916C192.667 194.916 192.707 194.584 192.708 194.137C192.708 193.213 192.54 191.796 192.54 191.796C192.54 191.796 190.784 190.007 190.783 184.624C190.782 183.701 190.834 182.671 190.955 181.526C191.354 177.742 191.822 173.623 192.346 169.273C195.098 170.083 197.233 170.656 197.233 170.656V158.775V172.541C197.233 172.541 197.703 172.574 198.562 172.628L198.329 174.568C198.329 174.568 216.943 176.282 233.348 176.282C244.57 176.282 254.757 175.48 257.25 172.78C260.775 168.965 261.725 166.917 262.315 163.631C262.433 163.405 262.547 163.177 262.655 162.95L263.464 182.696C263.465 182.874 263.466 183.049 263.466 183.22C263.465 190.349 262.307 191.364 262.307 191.364C262.307 191.364 262.525 195.682 262.541 195.815C250.479 200.501 237.534 202.789 225.569 202.789ZM200.496 155.811C200.531 155.753 200.565 155.693 200.599 155.633L200.579 155.801L200.496 155.811ZM200.607 155.616C201.384 154.214 201.88 152.37 202.115 149.896C202.757 143.126 206.977 108.086 205.023 100.73C204.999 99.7313 204.897 99.1388 204.695 99.0558C204.394 98.9323 203.799 98.7722 203.018 98.5927C204.727 96.8781 206.43 93.058 206.43 93.058L208.269 92.782C207.694 93.609 205.855 95.8697 207.752 96.714C207.939 96.797 208.121 96.8346 208.3 96.8346C209.056 96.8346 209.729 96.1659 210.265 95.4973C210.8 94.8296 211.198 94.1619 211.405 94.1619C211.438 94.1619 211.466 94.1792 211.489 94.2159C211.692 94.5401 212.155 94.9222 212.703 94.9222C213.086 94.9222 213.511 94.7369 213.919 94.2159C214.91 92.948 213.25 91.0732 213.25 91.0732C213.688 90.0253 212.581 88.3715 212.581 88.3715C212.581 88.3715 213.214 88.2065 213.732 87.4924C213.832 87.3535 213.886 87.1576 213.907 86.9318C216.177 86.6597 219.148 86.3114 222.745 86.1204C222.481 86.9097 222.053 87.7182 221.398 88.5722C221.398 88.5722 227.989 95.7182 230.511 95.7182C230.604 95.7182 230.693 95.7086 230.774 95.6883C232.476 95.2638 238.996 89.7021 238.996 89.7021L238.561 86.5401C238.56 86.5401 238.562 86.5401 238.561 86.5401C245.887 87.3245 251.89 87.1663 259.362 90.5309C259.36 90.5309 259.359 90.5309 259.358 90.5309C258.987 90.5309 257.986 91.9667 256.741 94.3635C253.452 96.2171 250.871 99.3279 249.823 103.032C249.747 103.302 249.969 103.479 250.185 103.479C250.327 103.479 250.467 103.403 250.518 103.224C251.405 100.087 253.465 97.3788 256.131 95.5793C254.152 99.6377 251.767 105.707 250.31 112.151C250.02 113.435 249.695 114.918 249.347 116.54C246.767 127.942 240.151 149.347 240.151 149.347L200.607 155.616Z" fill="#2D5BB2"/>
<path d="M233.348 176.282C216.943 176.282 198.329 174.568 198.329 174.568L198.562 172.628C202.629 172.884 215.408 173.622 228.115 173.622C241.583 173.622 254.971 172.795 257.837 169.692C259.908 167.449 261.298 165.579 262.315 163.631C261.725 166.917 260.775 168.965 257.25 172.78C254.757 175.48 244.57 176.282 233.348 176.282ZM200.579 155.801L200.599 155.633C200.602 155.627 200.604 155.622 200.607 155.616L240.151 149.347C240.151 149.347 246.767 127.942 249.347 116.54C246.599 129.318 242.388 150.702 242.388 150.702L200.579 155.801Z" fill="#24437F"/>
<path d="M182.861 155.617C182.861 155.617 177.787 163.333 181.169 165.294C184.552 167.256 197.233 170.656 197.233 170.656V156.209L182.861 155.617Z" fill="#F8A45D"/>
<path d="M259.358 90.5309C258.369 90.5309 252.885 100.757 250.31 112.151C247.736 123.546 242.388 150.702 242.388 150.702L197.233 156.209V172.541C197.233 172.541 251.697 176.339 257.837 169.692C263.976 163.045 264.125 159.668 266.353 147.853C268.339 137.317 269.392 110.859 269.08 103.835C268.635 93.8145 260.725 90.5579 259.358 90.5309Z" fill="#406FBF"/>
<path d="M228.115 173.622C212.725 173.622 197.233 172.541 197.233 172.541V158.775C198.612 158.097 199.694 157.17 200.496 155.811L242.388 150.702C242.388 150.702 247.736 123.546 250.31 112.152C251.767 105.707 254.152 99.6377 256.131 95.5793C258.024 94.3008 260.222 93.4816 262.523 93.2925C262.97 93.2559 262.985 92.5679 262.557 92.5679C262.546 92.5679 262.535 92.5688 262.523 92.5688C260.477 92.7367 258.507 93.3697 256.741 94.3635C257.986 91.9667 258.987 90.531 259.358 90.531C260.725 90.558 268.635 93.8145 269.08 103.835C269.117 104.651 269.134 105.73 269.135 107.015C269.135 108.514 269.111 110.293 269.064 112.266C267.175 113.389 265.654 114.599 264.808 115.867C262.7 117.916 261.972 121.78 261.973 126.143C261.974 135.894 265.616 148.133 265.616 148.133L266.336 147.943C264.124 159.685 263.961 163.063 257.837 169.692C254.971 172.795 241.583 173.622 228.115 173.622Z" fill="#2D5BB2"/>
<path d="M250.185 103.479C249.969 103.479 249.747 103.302 249.823 103.032C250.871 99.328 253.451 96.2172 256.741 94.3636C256.544 94.7447 256.339 95.1509 256.131 95.5794C253.465 97.3789 251.405 100.087 250.518 103.224C250.467 103.403 250.327 103.479 250.185 103.479Z" fill="#24437F"/>
<path d="M256.131 95.5796C256.339 95.1512 256.544 94.7449 256.741 94.3638C258.507 93.37 260.477 92.737 262.523 92.5691C262.535 92.5691 262.547 92.5681 262.557 92.5681C262.985 92.5681 262.97 93.2561 262.523 93.2928C260.222 93.4819 258.024 94.3011 256.131 95.5796Z" fill="#24437F"/>
<path d="M213.529 84.5715C213.529 84.5715 214.249 86.7792 213.732 87.4923C213.214 88.2063 212.581 88.3713 212.581 88.3713C212.581 88.3713 213.688 90.0251 213.25 91.073C213.25 91.073 214.91 92.9478 213.919 94.2157C212.926 95.4836 211.834 94.7667 211.489 94.2157C211.322 93.9484 210.885 94.7232 210.265 95.4971C209.603 96.323 208.731 97.149 207.752 96.7138C205.855 95.8695 207.694 93.6088 208.269 92.7819L206.43 93.0578C206.43 93.0578 203.727 99.1222 201.714 99.3972C199.702 99.6732 194.193 99.102 193.699 96.7138C193.699 96.7138 202.3 80.9058 202.897 80.5623C203.337 80.3095 208.433 79.1883 211.095 78.6132C212.086 78.4 213.099 78.8274 213.612 79.6688C214.459 81.0612 215.483 83.074 214.724 83.6548C213.529 84.5715 213.529 84.5715 213.529 84.5715Z" fill="#F8A45D"/>
<path d="M197.233 156.209L196.404 156.175C198.334 154.685 199.453 152.309 199.844 148.185C200.453 141.767 205.028 109.878 205.029 101.219C205.029 101.046 205.027 100.883 205.023 100.73C206.977 108.086 202.757 143.126 202.115 149.895C201.88 152.369 201.384 154.214 200.607 155.616L200.601 155.617L200.599 155.633C200.565 155.693 200.53 155.752 200.496 155.811L197.233 156.209Z" fill="#24437F"/>
<path d="M200.599 155.633L200.601 155.617L200.608 155.616C200.605 155.622 200.602 155.627 200.599 155.633Z" fill="#1D2D51"/>
<path d="M190.303 160.407C188.046 160.406 186.195 159.624 184.658 157.968C185.67 158.458 186.789 158.695 188.032 158.695C188.743 158.695 189.493 158.618 190.287 158.466C192.856 157.973 194.882 157.349 196.405 156.175L197.233 156.209V158.775C195.941 159.41 194.388 159.826 192.559 160.177C191.764 160.329 191.013 160.407 190.303 160.407Z" fill="#A66F42"/>
<path d="M197.233 158.774V156.209L200.496 155.811C199.694 157.17 198.612 158.097 197.233 158.774Z" fill="#24437F"/>
<path d="M190.783 96.3176C190.316 96.9882 176.303 140.585 178.633 148.632C180.965 156.677 184.46 159.583 190.287 158.466C196.115 157.348 199.145 155.56 199.844 148.185C200.544 140.809 206.483 99.7903 204.695 99.056C202.908 98.3217 190.783 96.3176 190.783 96.3176Z" fill="#406FBF"/>
<path d="M188.032 158.695C183.53 158.694 180.646 155.58 178.633 148.631C178.454 148.015 178.372 147.189 178.372 146.189C178.372 134.153 190.352 96.9368 190.783 96.3173C190.783 96.3173 202.907 98.3214 204.695 99.0557C204.927 99.1512 205.029 99.926 205.029 101.219C205.028 109.878 200.453 141.767 199.844 148.185C199.145 155.559 196.115 157.347 190.287 158.466C189.493 158.618 188.743 158.695 188.032 158.695Z" fill="#2D5BB2"/>
<path d="M238.996 89.7019C238.996 89.7019 232.476 95.2636 230.774 95.6881C228.487 96.2574 221.398 88.572 221.398 88.572C224.212 84.8996 222.848 82.0792 222.218 77.8539L240.151 60.446H238.272C237.814 61.959 237.707 71.1295 238.036 82.7276L238.996 89.7019Z" fill="#F8A45D"/>
<path d="M222.993 82.2471C222.982 82.1882 222.973 82.1313 222.967 82.0792C222.907 81.5948 222.724 80.8769 222.627 80.3752C222.513 79.8059 222.372 79.1941 222.203 78.6133C222.25 78.6171 222.296 78.62 222.343 78.6239C222.57 79.9381 222.842 81.1201 222.993 82.2471Z" fill="#C3C5C2"/>
<path d="M223.153 83.1494C223.131 82.8889 223.045 82.5357 222.993 82.2472C222.842 81.1202 222.57 79.9382 222.343 78.624C222.691 78.6482 223.04 78.6607 223.39 78.6607C226.286 78.6607 229.192 77.8058 231.74 75.959C231.635 76.3054 231.497 76.6547 231.325 76.9972C229.819 79.9508 226.494 82.2347 223.153 83.1494Z" fill="#C4824C"/>
<path d="M238.864 48.4499C238.576 36.8604 226.578 29.1315 215.906 34.6141C205.073 40.1777 204.981 57.4273 208.336 67.5713C212.064 78.8404 226.676 82.8891 234.624 73.2295C239.907 66.809 239.152 60.0403 238.864 48.4499Z" fill="#F8A45D"/>
<path d="M222.78 55.5321C222.964 56.7015 222.493 57.7417 221.73 57.8546C220.968 57.9685 220.2 57.1116 220.017 55.9422C219.832 54.7717 220.303 53.7325 221.066 53.6187C221.829 53.5058 222.596 54.3616 222.78 55.5321Z" fill="#17282F"/>
<path d="M210.945 56.7303C211.128 57.8998 210.659 58.9399 209.895 59.0528C209.132 59.1667 208.365 58.3099 208.181 57.1404C207.997 55.9709 208.467 54.9308 209.23 54.8169C209.993 54.704 210.761 55.5599 210.945 56.7303Z" fill="#17282F"/>
<path d="M215.375 54.6654C215.375 54.6654 212.603 61.0617 211.793 63.6158C213.644 64.8296 216.328 63.7094 216.328 63.7094L215.375 54.6654Z" fill="#DE4752"/>
<path d="M224.003 49.3877C223.853 49.5074 223.643 49.545 223.451 49.4668C221.211 48.5646 219.621 49.5855 219.456 49.6955C219.205 49.8692 218.86 49.8084 218.685 49.5585C218.509 49.3086 218.572 48.9641 218.82 48.7914C218.909 48.7296 221.02 47.2987 223.863 48.445C224.147 48.5598 224.285 48.8811 224.171 49.1638C224.134 49.2545 224.075 49.3308 224.003 49.3877Z" fill="#17282F"/>
<path d="M207.443 53.9951C207.349 53.9479 207.268 53.8726 207.212 53.7742C207.06 53.5069 207.15 53.1663 207.413 53.0148C210.047 51.4864 212.304 52.6481 212.412 52.6867C212.681 52.8276 212.79 53.1634 212.652 53.4365C212.515 53.7086 212.188 53.8166 211.918 53.6796C211.826 53.6275 210.077 52.7543 207.962 53.9816C207.797 54.0772 207.602 54.0762 207.443 53.9951Z" fill="#17282F"/>
<path d="M235.46 55.4568C235.46 55.4568 233.725 35.8298 227.624 35.0858C221.522 34.3428 220.589 40.055 216.593 40.2075C212.598 40.36 212.655 37.389 212.655 37.389C210.329 39.0593 208.762 43.8433 207.138 47.5379C207.138 47.5379 207.965 36.757 212.204 33.4686C220.453 27.0684 232.041 28.2437 237.284 33.1145C242.435 37.9004 242.494 48.2751 242.494 48.2751C241.975 56.2413 241.389 60.7126 238.316 65.8228L235.46 55.4568Z" fill="#17282F"/>
<path d="M243.895 55.667C243.431 58.8676 241.532 61.5413 239.376 63.0803C236.134 65.3942 234.215 61.7362 233.963 57.949C233.736 54.541 234.069 50.2935 237.878 49.482C241.632 48.684 244.425 52.0081 243.895 55.667Z" fill="#F8A45D"/>
<path d="M235.861 57.4619C235.734 57.4619 235.627 57.3606 235.621 57.2313C235.618 57.1425 235.616 57.0528 235.616 56.964C235.616 55.9731 235.855 54.986 236.307 54.105C236.72 53.3061 237.342 52.5583 238.207 52.1906C238.528 52.0556 238.878 51.9861 239.227 51.9861C239.829 51.9861 240.437 52.1935 240.864 52.6528C240.954 52.7503 240.949 52.9027 240.852 52.9934C240.805 53.0369 240.747 53.0591 240.688 53.0591C240.624 53.0591 240.56 53.033 240.513 52.9819C240.197 52.6403 239.723 52.4685 239.227 52.4685H239.226C238.941 52.4685 238.652 52.5264 238.393 52.6355C237.673 52.9375 237.111 53.5917 236.733 54.3269C236.317 55.1375 236.096 56.0512 236.096 56.964L236.101 57.2101C236.107 57.3432 236.005 57.4552 235.872 57.4619C235.868 57.4619 235.864 57.4619 235.861 57.4619Z" fill="#C4824C"/>
<path d="M232.578 39.3499C231.705 36.68 229.951 34.1693 227.388 33.0471C226.176 32.5164 224.847 32.3186 223.531 32.2077C220.027 31.9124 222.348 30.7314 218.844 31.017L215.573 31.8371C213.085 32.8329 208.497 35.4642 206.38 37.1123C203.018 39.7291 199.169 41.7129 195.089 42.9161C194.399 43.1207 193.577 43.4324 193.453 44.1445C193.328 44.8652 194.019 45.448 194.657 45.8012C198.756 48.0697 204.086 47.8825 208.019 45.3332C207.128 47.9568 202.032 49.2353 203.912 49.4312C209.665 50.6884 216.032 48.4904 219.802 43.9438C219.796 44.7099 219.796 45.5021 220.098 46.2055C220.4 46.9099 221.088 47.5062 221.848 47.4473C222.463 47.4 222.971 46.9533 223.364 46.4757C224.747 44.7967 225.251 42.5784 225.712 40.4489C228.173 43.0599 231.851 52.8479 234.682 55.0479C239.534 48.5386 233.452 42.0198 232.578 39.3499Z" fill="#17282F"/>
<path d="M218.424 67.6308C219.634 66.9419 221.158 66.8541 222.428 67.433C222.606 67.5131 222.816 67.4832 222.922 67.3027C223.012 67.1474 222.97 66.8888 222.792 66.8077C221.28 66.1188 219.511 66.1796 218.061 67.0056C217.658 67.2352 218.02 67.8605 218.424 67.6308Z" fill="#17282F"/>
<path d="M232.645 30.3512C232.371 29.149 231.889 27.9795 231.241 26.9307C230.943 26.4492 230.263 26.2176 229.763 26.5418C229.283 26.8525 229.057 27.5106 229.376 28.0268C229.662 28.4899 229.911 28.9733 230.123 29.4751L230.014 29.2155C230.245 29.7704 230.429 30.3426 230.563 30.9292C230.69 31.4831 231.353 31.8623 231.892 31.6866C232.468 31.4995 232.782 30.9456 232.645 30.3512Z" fill="#17282F"/>
<path d="M233.744 32.8472C233.745 32.7353 233.747 32.6233 233.754 32.5114L233.784 32.1775C233.764 32.1949 233.747 32.4139 233.776 32.2441L233.801 32.0974C233.821 31.9875 233.845 31.8775 233.871 31.7694C233.924 31.5523 233.989 31.3371 234.065 31.1268L234.118 30.9878C234.179 30.8305 234.175 30.9299 234.109 31.0062L234.252 30.7022C234.348 30.514 234.453 30.3307 234.567 30.1532C234.628 30.0586 234.691 29.966 234.756 29.8753C234.774 29.8512 234.877 29.7132 234.783 29.8367C234.682 29.9698 234.816 29.7981 234.838 29.772C234.972 29.6099 235.116 29.4546 235.267 29.3079L235.514 29.0812L235.656 28.9625C235.766 28.8679 235.445 29.1207 235.643 28.9731C235.878 28.7985 236.06 28.6171 236.14 28.3237C236.212 28.0642 236.179 27.7187 236.031 27.4872C235.742 27.0375 235.039 26.7365 234.554 27.0983C232.736 28.453 231.603 30.5546 231.584 32.8472C231.579 33.4145 232.084 33.9587 232.664 33.9327C233.253 33.9057 233.738 33.456 233.744 32.8472Z" fill="#17282F"/>
<path d="M317.941 110.194C317.941 110.194 323.867 110.718 327.801 117.542C331.735 124.365 335.593 129.949 335.593 129.949L322.866 138.479L317.941 110.194Z" fill="#17282F"/>
<path d="M324.844 137.153C325.151 133.857 325.27 130.937 325.269 128.388C325.268 119.427 323.79 115.049 323.79 115.049C322.906 112.981 321.328 111.586 318.834 110.359C320.637 110.796 324.799 112.334 327.801 117.542C331.735 124.365 335.593 129.949 335.593 129.949L324.844 137.153Z" fill="#B1BABA"/>
<path d="M325.337 169.091C323.919 168.137 322.107 168.065 320.399 168.047C307.626 167.918 294.841 169.108 282.309 171.591L280.11 172.681C278.374 171.668 276.055 172.352 274.594 173.736C273.134 175.121 272.338 177.051 271.587 178.922C265.091 195.096 258.908 211.442 254.517 228.317C253.5 232.222 252.628 236.578 254.539 240.129C256.769 244.273 261.893 245.732 266.508 246.556C281.583 249.25 296.98 249.416 312.291 249.448C316.013 249.456 319.991 249.38 323.057 247.261C327.351 244.293 328.37 238.45 328.87 233.237C330.698 214.189 330.526 194.944 328.288 175.94C327.987 173.386 327.464 170.522 325.337 169.091Z" fill="#17282F"/>
<path d="M310.884 395.438L321.475 396.481L329.303 369.528L313.19 367.765L310.884 395.438Z" fill="#C8685A"/>
<path d="M323.009 391.78H319.228C318.372 391.78 317.58 392.215 317.075 392.909C314.894 395.902 313.256 394.771 310.883 391.957C309.375 391.78 308.969 393.52 308.846 393.987L306.02 404.322C305.774 405.185 306.272 406.084 307.13 406.332C307.282 406.376 307.441 406.397 307.6 406.394C312.192 406.394 314.364 406.394 320.08 406.394H337.56C342.325 406.394 343.313 401.568 341.35 401.121C332.524 399.161 326.273 396.55 323.546 393.969C323.04 393.518 323.559 393.179 323.009 391.78Z" fill="#17282F"/>
<path d="M331.252 393.167C331.349 393.227 331.398 393.341 331.376 393.453C331.356 393.809 331.185 394.139 330.906 394.359C329.833 395.166 327.24 394.817 325.845 394.557C327.808 393.688 330.598 392.709 331.252 393.167ZM331.215 394.719C331.613 394.431 331.851 393.97 331.857 393.478C331.89 393.214 331.771 392.953 331.549 392.808C330.364 391.964 325.636 394.185 325.105 394.446L324.978 394.573C324.939 394.682 324.996 394.803 325.105 394.843C326.267 395.119 327.454 395.273 328.647 395.302C329.543 395.388 330.443 395.183 331.215 394.719Z" fill="#406FBF"/>
<path d="M328.561 390.438C329.043 390.488 329.043 390.662 329.043 390.724C329.178 391.48 327.018 393.428 325.474 394.247C325.796 393.156 326.746 390.426 328.388 390.426L328.561 390.438ZM325.265 394.893C326.685 394.298 329.66 391.952 329.499 390.711C329.475 390.451 329.29 390.141 328.647 390.054C326.055 389.756 324.944 394.434 324.944 394.633L325.006 394.855H325.154L325.265 394.893Z" fill="#406FBF"/>
<path d="M325.602 394.474C324.227 394.664 322.961 395.483 322.22 396.663C322.149 396.776 322.183 396.925 322.295 396.996C322.407 397.068 322.556 397.034 322.626 396.921C323.287 395.865 324.438 395.119 325.667 394.952C325.798 394.934 325.89 394.813 325.872 394.681C325.855 394.548 325.734 394.456 325.602 394.474Z" fill="#406FBF"/>
<path d="M327.952 396.252C326.577 396.442 325.311 397.262 324.57 398.442C324.499 398.555 324.534 398.703 324.645 398.775C324.757 398.845 324.906 398.811 324.976 398.698C325.637 397.643 326.788 396.898 328.018 396.73C328.148 396.712 328.24 396.59 328.222 396.459C328.205 396.327 328.084 396.234 327.952 396.252Z" fill="#406FBF"/>
<path d="M330.876 397.747C329.501 397.937 328.236 398.756 327.494 399.936C327.423 400.049 327.457 400.199 327.569 400.269C327.682 400.341 327.829 400.307 327.9 400.194C328.561 399.137 329.712 398.392 330.941 398.225C331.072 398.207 331.164 398.086 331.146 397.953C331.129 397.821 331.008 397.729 330.876 397.747Z" fill="#406FBF"/>
<path d="M324.206 387.078L311.741 385.154L311.76 384.92L324.462 386.198L324.206 387.078Z" fill="#82443D"/>
<path d="M274.18 396.293L284.772 397.335L292.599 370.383L276.487 368.62L274.18 396.293Z" fill="#C8685A"/>
<path d="M286.306 392.635H282.524C281.669 392.635 280.877 393.069 280.372 393.764C278.191 396.757 276.552 395.625 274.18 392.812C272.673 392.635 272.267 394.374 272.144 394.842L269.316 405.177C269.071 406.04 269.568 406.94 270.426 407.187C270.579 407.23 270.737 407.251 270.897 407.249C275.488 407.249 277.662 407.249 283.377 407.249H300.857C305.622 407.249 306.61 402.423 304.646 401.976C295.82 400.016 289.571 397.404 286.842 394.824C286.336 394.372 286.856 394.034 286.306 392.635Z" fill="#17282F"/>
<path d="M294.549 394.023C294.645 394.082 294.694 394.196 294.672 394.308C294.653 394.663 294.482 394.993 294.203 395.213C293.129 396.02 290.537 395.672 289.141 395.412C291.105 394.544 293.894 393.563 294.549 394.023ZM294.512 395.573C294.91 395.286 295.148 394.826 295.154 394.332C295.187 394.068 295.067 393.808 294.845 393.663C293.66 392.819 288.932 395.04 288.401 395.3L288.274 395.427C288.235 395.538 288.292 395.658 288.401 395.698C289.563 395.974 290.75 396.128 291.944 396.157C292.84 396.242 293.74 396.038 294.512 395.573Z" fill="#406FBF"/>
<path d="M291.857 391.293C292.339 391.342 292.339 391.516 292.339 391.578C292.475 392.335 290.315 394.283 288.772 395.102C289.092 394.01 290.043 391.28 291.684 391.28L291.857 391.293ZM288.562 395.747C289.981 395.151 292.956 392.807 292.796 391.566C292.771 391.305 292.586 390.994 291.944 390.908C289.352 390.611 288.241 395.287 288.241 395.486L288.302 395.71H288.45L288.562 395.747Z" fill="#406FBF"/>
<path d="M288.899 395.329C287.523 395.518 286.258 396.337 285.516 397.519C285.446 397.631 285.48 397.78 285.592 397.851C285.704 397.922 285.852 397.888 285.923 397.775C286.583 396.72 287.734 395.975 288.964 395.807C289.095 395.788 289.186 395.667 289.169 395.535C289.151 395.403 289.03 395.311 288.899 395.329Z" fill="#406FBF"/>
<path d="M291.249 397.106C289.873 397.296 288.608 398.116 287.867 399.297C287.797 399.409 287.83 399.558 287.942 399.628C288.054 399.7 288.203 399.666 288.273 399.553C288.933 398.498 290.084 397.752 291.314 397.585C291.446 397.567 291.537 397.445 291.519 397.313C291.501 397.181 291.38 397.089 291.249 397.106Z" fill="#406FBF"/>
<path d="M294.173 398.602C292.797 398.792 291.532 399.611 290.791 400.791C290.721 400.904 290.754 401.053 290.867 401.124C290.978 401.194 291.127 401.161 291.197 401.048C291.857 399.992 293.008 399.247 294.238 399.079C294.369 399.061 294.461 398.939 294.444 398.808C294.425 398.676 294.304 398.583 294.173 398.602Z" fill="#406FBF"/>
<path d="M331.017 190.891C330.889 190.496 330.762 190.122 330.638 189.767C330.661 189.753 330.684 189.737 330.706 189.722L331.06 190.846C331.06 190.846 331.046 190.862 331.017 190.891Z" fill="#C3C5C2"/>
<path d="M332.392 195.581C332.392 195.581 341.656 233.724 345.84 267.664C347.116 278.009 347.359 291.841 345.106 302.025L328.186 386.574L306.893 384.429C310.239 347.966 314.902 302.993 316.237 283.858L291.762 207.299L332.392 195.581Z" fill="#406FBF"/>
<path d="M307.62 257.779L307.46 257.238C307.48 257.022 307.501 256.805 307.52 256.589L307.807 257.478C307.745 257.58 307.682 257.68 307.62 257.779Z" fill="#C3C5C2"/>
<path d="M307.805 257.479L307.52 256.589C308.014 251.183 308.466 245.616 308.762 240.014L309.732 228.614C310.281 226.361 310.835 224.086 311.372 221.879C312.919 221.252 314.375 220.415 315.744 219.424C315.501 231.15 313.941 247.432 307.805 257.479Z" fill="#3563B7"/>
<path d="M273.838 294.51C274.039 292.356 274.238 288.008 274.432 282.283L274.342 282.274C274.047 274.777 270.765 240.258 270.193 218.036C270.135 203.84 272.434 193.921 275.393 188.819C275.547 188.556 275.686 188.318 275.815 188.106C276.309 187.281 276.615 186.822 276.615 186.822C277.317 186.902 278.013 186.971 278.705 187.029C278.964 187.051 279.221 187.072 279.476 187.091C305.407 189.017 324.428 178.737 324.428 178.737C327.514 184.191 329.009 183.06 332.392 195.581C330.139 198.845 323.223 218.004 310.269 222.284L308.762 240.014C308.184 250.958 307.011 261.774 306.086 271.495L305.183 282.129C305.134 282.824 305.088 283.514 305.048 284.191C304.681 290.282 289.925 389.621 289.925 389.621L270.192 389.331C270.192 389.331 271.125 323.68 273.838 294.51Z" fill="#406FBF"/>
<path d="M328.186 386.574L324.462 386.198L311.76 384.92L306.893 384.429L307.446 378.457L329.286 381.073L328.186 386.574Z" fill="#3563B7"/>
<path d="M289.925 389.621C289.925 389.621 289.925 389.619 289.926 389.617L289.925 389.621Z" fill="#C3C5C2"/>
<path d="M270.192 389.331V383.762L270.284 383.763C270.222 387.278 270.192 389.32 270.192 389.331ZM290.73 384.186C290.74 384.126 290.748 384.069 290.757 384.01L290.73 384.186Z" fill="#C3C5C2"/>
<path d="M289.925 389.621L287.025 389.578L274.755 389.399L270.192 389.331C270.192 389.321 270.222 387.278 270.284 383.763L290.757 384.01C290.748 384.069 290.74 384.126 290.73 384.186L289.926 389.616V389.617C289.925 389.619 289.925 389.621 289.925 389.621Z" fill="#3563B7"/>
<path d="M271.429 138.561L264.808 115.867C268.997 109.585 289.722 104.756 289.722 104.756L303.376 105.507C303.376 105.507 308.625 106.683 313.117 108.157C319.116 110.122 322.36 111.704 323.79 115.049C323.79 115.049 326.292 122.461 324.788 137.735C324.374 141.935 323.428 164.101 324.594 171.313L333.078 187.995C308.128 207.523 276.188 188.003 276.188 188.003C277.309 184.555 279.774 176.918 280.281 173.547C279.915 169.248 278.714 166.424 276.902 158.896C276.553 157.443 272.037 139.972 271.429 138.561Z" fill="#17282F"/>
<path d="M307.233 196.676C290.378 196.676 276.188 188.003 276.188 188.003C277.309 184.555 279.774 176.917 280.281 173.547C280.149 171.995 279.908 170.635 279.568 169.176C281.114 170.368 283.216 170.861 285.658 170.861C293.61 170.861 305.162 165.636 312.813 162.278C317.7 160.133 321.463 158.54 324.04 157.473C324.035 158.144 324.033 158.811 324.033 159.472C324.034 164.321 324.181 168.756 324.594 171.313L333.078 187.995C324.76 194.505 315.661 196.676 307.233 196.676ZM289.067 152.014L284.871 143.034L287.391 142.367C287.391 142.367 282.218 123.052 277.014 118.183C274.242 115.603 271.611 113.868 269.109 113.868C267.632 113.868 266.198 114.473 264.808 115.867C267.962 111.137 280.486 107.232 286.485 105.59C286.067 106.134 285.591 106.617 285.048 107.026L302.426 121.142V109.325C302.579 109.324 302.742 109.313 302.914 109.288C302.914 109.288 306.25 114.911 308.959 115.128L309.783 115.285L317.552 131.645L310.781 107.432C311.561 107.662 312.35 107.905 313.117 108.157C319.116 110.122 322.36 111.704 323.79 115.049C323.79 115.049 325.268 119.427 325.269 128.388C325.27 131.086 325.137 134.199 324.788 137.735C324.656 139.081 324.468 142.269 324.313 146.22L321.756 146.002C321.756 146.002 321.93 146.458 322.245 147.154L289.067 152.014Z" fill="#B1BABA"/>
<path d="M300.219 177.701C294.04 173.437 286.353 171.433 278.89 172.14L275.239 181.781C285.454 191.039 297.947 192.281 311.697 191.85C313.632 184.7 306.397 181.964 300.219 177.701Z" fill="#17282F"/>
<path d="M328.965 171.494C327.956 169.598 325.9 168.09 323.787 168.419C322.212 168.664 320.955 169.832 319.867 171.002C315.549 175.649 312.224 181.222 310.18 187.239L310.984 191.851C312.406 191.264 313.828 190.677 315.249 190.091C319.279 188.427 323.435 186.68 326.445 183.516C329.456 180.351 331.019 175.356 328.965 171.494Z" fill="#17282F"/>
<path d="M317.789 188.02C317.789 191.224 315.205 193.823 312.016 193.823C308.827 193.823 306.243 191.224 306.243 188.02C306.243 184.815 308.827 182.217 312.016 182.217C315.205 182.217 317.789 184.815 317.789 188.02Z" fill="#17282F"/>
<path d="M314.521 210.813C314.043 203.924 313.566 197.033 313.088 190.144L310.404 191.896C301.997 204.241 298.313 219.751 300.265 234.58C303.849 235.203 307.5 235.439 311.133 235.284C310.109 233.11 309.085 230.935 308.061 228.76C311.23 227.516 313.323 224.333 314.155 221.018C314.988 217.702 314.758 214.224 314.521 210.813Z" fill="#17282F"/>
<path d="M326.186 218.085C327.719 215.984 328.004 213.211 327.841 210.61C327.323 202.342 322.562 194.457 315.505 190.176L314.358 189.27C318.457 201.699 317.659 215.149 316.816 228.216C319.572 227.655 322.327 227.095 325.082 226.534C324.232 224.82 323.365 222.853 324.037 221.061C324.469 219.909 325.461 219.078 326.186 218.085Z" fill="#17282F"/>
<path d="M304.53 65.0624C304.53 65.0624 306.794 90.2801 308.044 97.5255C311.982 102.261 327.558 98.8407 321.461 82.1691C318.245 73.374 317.968 62.2516 311.892 57.7224C303.358 51.3588 304.53 65.0624 304.53 65.0624Z" fill="#17282F"/>
<path d="M302.426 106.747C300.997 105.313 300.353 103.824 300.623 101.736C300.811 100.133 301.327 98.4654 301.94 96.8415L299.809 94.5132L288.726 84.0566C289.254 91.2904 290.538 102.89 285.048 107.026L302.426 121.143V106.747Z" fill="#C8685A"/>
<path d="M300.588 102.062C300.597 101.954 300.609 101.846 300.623 101.736C300.707 101.021 300.856 100.293 301.05 99.5624C300.881 100.239 300.752 100.968 300.588 102.062Z" fill="#C3C5C2"/>
<path d="M300.564 102.22C297.715 100.657 294.566 97.9443 294.473 94.6887C296.67 96.4979 299.074 97.6326 301.474 98.1517C301.473 98.1536 301.472 98.1556 301.472 98.1565C301.297 98.667 301.164 99.1031 301.05 99.5624C300.856 100.293 300.708 101.021 300.623 101.736C300.609 101.846 300.597 101.954 300.588 102.061C300.581 102.114 300.572 102.166 300.564 102.22Z" fill="#995147"/>
<path d="M285.819 72.5318C287.223 83.5375 287.586 88.2125 293.464 93.7963C302.306 102.195 315.32 98.7868 317.183 87.7589C318.861 77.834 316.282 61.5039 305.329 57.2564C294.538 53.0717 284.413 61.5261 285.819 72.5318Z" fill="#C8685A"/>
<path d="M304.582 98.7656C304.491 98.7656 304.454 98.7502 304.488 98.7154C304.503 98.699 304.314 98.5302 304.006 98.4752C304.189 98.4819 304.372 98.4858 304.554 98.4858C305.889 98.4858 307.192 98.2957 308.427 97.9271C308.432 97.9319 308.436 97.9358 308.441 97.9406C307.049 98.3343 305.061 98.7656 304.582 98.7656Z" fill="#C3C5C2"/>
<path d="M308.441 97.9404C308.436 97.9356 308.432 97.9317 308.427 97.9269C308.908 97.7831 309.377 97.6124 309.835 97.4155C309.744 97.5342 309.176 97.732 308.441 97.9404Z" fill="#111D23"/>
<path d="M304.554 98.4854C304.372 98.4854 304.189 98.4815 304.006 98.4748C303.97 98.468 303.932 98.4632 303.893 98.4603C303.479 98.4304 302.602 98.3474 302.602 98.3474C302.602 98.3474 298.693 97.725 298.404 96.7225C298.076 95.5887 298.82 94.7531 300.805 94.7531C302.672 94.7531 305.635 95.4922 309.835 97.4143V97.4153C309.377 97.6121 308.908 97.7829 308.427 97.9267C307.192 98.2953 305.889 98.4854 304.554 98.4854Z" fill="#995147"/>
<path d="M311.75 96.3813C311.854 96.3128 311.956 96.2443 312.058 96.1719C311.865 96.309 311.75 96.3813 311.75 96.3813ZM312.667 95.7136C313.272 95.2273 313.832 94.6821 314.34 94.0771C314.101 94.3772 313.851 94.6696 313.639 94.8703C313.291 95.2003 312.956 95.484 312.667 95.7136ZM315.226 92.8836C315.233 92.872 315.24 92.8604 315.248 92.8498L315.249 92.8508C315.249 92.8508 315.24 92.8614 315.226 92.8836Z" fill="#0F191D"/>
<path d="M311.75 96.3813C311.76 94.1331 313.421 92.8131 314.125 92.5632C314.259 92.5159 314.382 92.4967 314.494 92.4967C314.959 92.4967 315.231 92.8286 315.248 92.8498C315.24 92.8604 315.233 92.872 315.226 92.8836C315.131 93.0196 314.752 93.56 314.34 94.0771C313.832 94.6821 313.272 95.2273 312.667 95.7136C312.425 95.9056 312.215 96.06 312.058 96.1719C311.956 96.2443 311.854 96.3128 311.75 96.3813Z" fill="#82443D"/>
<path d="M300.718 76.4117C300.727 77.4471 301.319 78.3271 302.041 78.3763C302.762 78.4255 303.34 77.6256 303.331 76.5902C303.323 75.5539 302.73 74.6739 302.008 74.6247C301.287 74.5755 300.709 75.3754 300.718 76.4117Z" fill="#17282F"/>
<path d="M311.895 75.4458C311.846 76.4483 312.387 77.337 313.102 77.4287C313.817 77.5213 314.436 76.7822 314.484 75.7797C314.533 74.7771 313.993 73.8894 313.278 73.7968C312.563 73.7051 311.944 74.4433 311.895 75.4458Z" fill="#17282F"/>
<path d="M299.073 74.7094C299.214 74.7181 299.353 74.6708 299.458 74.5647C301.077 72.9118 303.007 73.3769 303.03 73.3817C303.316 73.4512 303.594 73.2775 303.645 72.9851C303.696 72.6928 303.502 72.3975 303.213 72.3232C303.111 72.2991 300.689 71.7134 298.68 73.7658C298.479 73.9703 298.491 74.3148 298.705 74.5358C298.809 74.6419 298.941 74.7008 299.073 74.7094Z" fill="#17282F"/>
<path d="M316.371 69.3504C316.499 69.3089 316.607 69.2211 316.668 69.0967C316.793 68.839 316.67 68.5206 316.394 68.3865C313.621 67.0424 311.46 68.208 311.369 68.2601C311.113 68.4019 311.037 68.7223 311.2 68.9751C311.364 69.2279 311.703 69.3176 311.96 69.1767C312.043 69.1304 313.734 68.2495 315.938 69.3195C316.081 69.388 316.236 69.3958 316.371 69.3504Z" fill="#17282F"/>
<path d="M294.471 54.539C290.698 55.1624 288.324 55.7056 285.352 57.5756C282.379 59.4446 279.202 63.9951 277.468 67.4658C274.998 72.411 274.816 78.4898 274.704 84.2677C274.63 88.0675 274.642 92.2021 276.563 95.2068C277.855 97.2253 279.861 98.4315 281.919 98.9863C283.977 99.5411 286.109 99.5054 288.216 99.4437C289.955 99.3925 292.072 99.023 292.716 97.0652C293.73 93.9881 289.907 91.132 290.42 87.8783L294.471 54.539Z" fill="#17282F"/>
<path d="M282.82 81.6519C284.198 83.8692 286.358 85.2143 288.31 85.6312C291.244 86.2583 292.576 81.5043 291.478 78.6125C290.489 76.0091 287.569 74.3679 284.759 75.0462C281.991 75.7139 281.243 79.1171 282.82 81.6519Z" fill="#C8685A"/>
<path d="M308.044 74.7489C308.044 74.7489 309.912 78.8189 311.944 81.3257C312.299 81.7628 312.113 82.4286 311.593 82.6418C310.255 83.1937 308.651 82.7972 308.651 82.7972L308.044 74.7489Z" fill="#B5413C"/>
<path d="M301.789 74.5889L304.338 74.1093C304.338 74.1093 302.871 75.934 301.789 74.5889Z" fill="#17282F"/>
<path d="M313.018 73.7946L315.589 73.4684C315.589 73.4684 314.018 75.2014 313.018 73.7946Z" fill="#17282F"/>
<path d="M282.852 66.5008C281.362 68.6642 284.329 74.9524 284.329 74.9524C284.329 74.9524 289.598 73.3767 289.886 81.3545C291.829 81.6787 294.011 74.2287 293.694 66.7411C293.304 62.51 285.484 62.6808 282.852 66.5008Z" fill="#17282F"/>
<path d="M287.651 82.8608C287.632 82.8608 287.613 82.8589 287.595 82.8541C285.17 82.28 284.304 80.6184 284.31 79.4461C284.31 79.1836 284.351 78.9443 284.433 78.7388C284.718 78.0296 285.451 77.4555 286.3 77.4487C286.512 77.4487 286.731 77.4873 286.945 77.5703C287.069 77.6176 287.131 77.7575 287.083 77.881C287.047 77.9775 286.955 78.0363 286.859 78.0363C286.831 78.0363 286.801 78.0315 286.773 78.0199C286.614 77.9591 286.456 77.9311 286.3 77.9311C286.296 77.9311 286.292 77.9311 286.288 77.9311C285.674 77.9311 285.081 78.3933 284.878 78.9173C284.824 79.0533 284.79 79.2367 284.79 79.4461C284.795 80.3946 285.465 81.8438 287.706 82.3851C287.835 82.416 287.915 82.5463 287.884 82.6756C287.858 82.7865 287.759 82.8608 287.651 82.8608Z" fill="#995147"/>
<path d="M313.915 60.3595C311.591 55.5031 302.123 50.9913 291.236 55.6797C281.4 59.9021 277.22 74.4104 284.329 74.9527C291.438 75.494 302.889 66.8427 302.889 66.8427L313.915 60.3595Z" fill="#17282F"/>
<path d="M328.177 146.735L339.252 146.991L341.723 152.652L336.029 159.901C336.029 159.901 334.667 159.818 335.115 157.907C335.461 156.427 336.259 155.27 336.259 155.27L328.695 157.557C327.262 157.99 325.807 156.947 325.747 155.444L325.4 146.692L328.177 146.735Z" fill="#C8685A"/>
<path d="M263.381 126.409C263.381 126.409 262.974 131.883 265.211 138.786C267.447 145.69 272.992 164.106 279.568 169.176C286.144 174.247 302.812 166.668 312.813 162.278C322.716 157.932 327.997 155.851 328.177 155.821L325.4 146.692L289.068 152.015L273.482 118.665C273.482 118.665 262.29 118.571 263.381 126.409Z" fill="#C8685A"/>
<path d="M339.768 148.173L339.48 147.515L339.845 147.546C339.825 147.761 339.799 147.971 339.768 148.173ZM324.289 146.855C324.297 146.642 324.305 146.43 324.313 146.22L331.144 146.803L328.177 146.735L325.4 146.692L324.289 146.855Z" fill="#C3C5C2"/>
<path d="M322.245 147.154C321.93 146.459 321.756 146.002 321.756 146.002L324.313 146.22C324.305 146.43 324.297 146.642 324.289 146.855L322.245 147.154Z" fill="#899193"/>
<path d="M331.495 154.521C329.973 154.521 328.565 154.258 327.6 153.923L325.4 146.692L328.177 146.735L331.144 146.803L339.48 147.515L339.768 148.173C339.005 153.159 334.955 154.521 331.495 154.521Z" fill="#995147"/>
<path d="M327.6 153.923C325.19 153.089 323.144 149.144 322.245 147.154L324.289 146.855L325.4 146.692L327.6 153.923Z" fill="#995147"/>
<path d="M264.808 115.867C257.988 122.493 265.616 148.133 265.616 148.133L287.391 142.368C287.391 142.368 282.218 123.052 277.014 118.183C272.605 114.079 268.552 112.113 264.808 115.867Z" fill="#17282F"/>
<path d="M265.616 148.133C265.616 148.133 261.974 135.894 261.973 126.143C261.972 121.78 262.7 117.916 264.808 115.867C266.198 114.473 267.632 113.868 269.109 113.868C271.611 113.868 274.242 115.603 277.014 118.183C282.218 123.052 287.391 142.368 287.391 142.368L284.871 143.034L268.071 147.482L265.616 148.133Z" fill="#B1BABA"/>
<path d="M306.842 86.4719C307.687 86.4468 308.532 86.4758 309.372 86.5665C309.786 86.6109 310.198 86.6717 310.607 86.746C310.85 86.7894 311.345 86.7932 311.493 87.0316C311.738 87.4252 312.361 87.0624 312.114 86.6659C311.908 86.333 311.592 86.2075 311.224 86.1303C310.738 86.029 310.247 85.9509 309.754 85.8882C308.788 85.7637 307.814 85.7193 306.842 85.7482C306.379 85.7627 306.377 86.4864 306.842 86.4719Z" fill="#17282F"/>
<path d="M310.781 107.432C306.986 106.316 303.376 105.507 303.376 105.507L301.335 105.394C300.854 104.613 300.592 103.773 300.565 102.801C300.565 102.8 300.565 102.8 300.565 102.8L309.323 102.22L310.781 107.432Z" fill="#C3C5C2"/>
<path d="M317.552 131.646L309.783 115.286L308.959 115.128C306.251 114.911 302.914 109.289 302.914 109.289C302.742 109.313 302.579 109.324 302.426 109.325V106.747C301.987 106.307 301.622 105.861 301.335 105.394L303.376 105.507C303.376 105.507 306.986 106.316 310.781 107.432L317.552 131.646Z" fill="#899193"/>
<path d="M302.406 109.325C301.189 109.325 300.565 108.678 300.565 108.678C299.14 107.178 300.402 105.817 300.402 105.817C300.402 105.817 299.97 105.66 299.696 104.417C299.424 103.189 300.539 102.826 300.565 102.801C300.592 103.773 300.854 104.613 301.335 105.394C301.622 105.861 301.987 106.307 302.426 106.747V109.325C302.419 109.325 302.413 109.325 302.406 109.325Z" fill="#995147"/>
<path d="M317.306 107.807C317.306 107.807 317.114 99.8248 316.5 98.5039C315.887 97.1839 315.143 96.7873 315.143 95.3351C315.143 93.8829 315.406 92.7386 314.574 92.9151C313.742 93.0907 312.954 94.6307 312.735 95.7751C312.516 96.9195 312.997 99.956 312.997 99.956C312.997 99.956 306.736 96.1717 304.24 95.5995C302.16 95.1228 299.685 94.7677 298.893 95.7326C298.555 96.1437 298.74 96.7844 299.201 97.0459C299.574 97.2572 300.193 97.5062 301.219 97.7561C304.677 98.5965 305.817 99.2526 305.817 99.2526C305.817 99.2526 302.489 99.076 301.613 99.6926C300.737 100.308 300.781 100.743 301 101.45C301.219 102.157 301.788 102.641 301.788 102.641C301.788 102.641 300.694 102.289 300.3 103.697C299.906 105.106 301 105.59 301 105.59C301 105.59 299.949 106.602 300.563 107.878C301.175 109.154 302.97 108.714 302.97 108.714C302.97 108.714 307.656 114.435 309.451 114.568C311.246 114.7 313.567 113.423 313.392 113.423C313.216 113.423 317.552 108.362 317.552 108.362L317.306 107.807Z" fill="#C8685A"/>
<path d="M310.036 114.202C310.036 114.202 318.805 140.901 322.128 146.692C325.451 152.483 331.045 154.36 336.458 151.918C337.751 151.334 338.782 149.881 339.591 148.133C342.036 142.852 340.314 139.41 337.573 134.278C335.338 130.092 335.338 130.092 335.338 130.092L330.793 133.086L317.023 107.296L310.036 114.202Z" fill="#C8685A"/>
</svg>
