<svg width="214" height="77" viewBox="0 0 214 77" fill="none" xmlns="http://www.w3.org/2000/svg">
<g clip-path="url(#clip0_4685_281)">
<path d="M68.74 6.99999C68.0932 6.98815 67.4519 7.12115 66.8634 7.38924C66.2748 7.65732 65.7539 8.05366 65.339 8.54913C64.6976 9.3521 64.3846 10.5398 64.3846 12.1819V12.7809H62.6466V16.0031H64.3846V26.1344H68.0624V16.0031H70.9513V12.7912H68.0624V12.0631C68.0624 10.4133 68.4788 10.1086 69.3038 10.1086C69.7051 10.1201 70.1029 10.187 70.4858 10.3074L71.2384 10.5656L71.497 7.50863L71.0729 7.33564C70.9901 7.30208 70.2271 7.00774 68.7452 7.00774" fill="#003A63"/>
<path d="M77.3214 12.7679H73.6178V26.1344H77.3214V12.7679Z" fill="#003A63"/>
<path d="M75.4697 7.28144C74.1946 7.28144 73.2351 8.19543 73.2351 9.40892C73.2351 10.6224 74.1946 11.539 75.4697 11.539C75.756 11.5489 76.0413 11.5012 76.3088 11.3987C76.5762 11.2962 76.8202 11.141 77.0262 10.9424C77.2323 10.7437 77.3962 10.5057 77.5081 10.2425C77.62 9.97922 77.6777 9.69618 77.6777 9.41021C77.6777 9.12425 77.62 8.84121 77.5081 8.57798C77.3962 8.31474 77.2323 8.0767 77.0262 7.87804C76.8202 7.67938 76.5762 7.52418 76.3088 7.42168C76.0413 7.31918 75.756 7.27149 75.4697 7.28144Z" fill="#003A63"/>
<path d="M87.1003 12.5382C85.9587 12.5239 84.8483 12.9105 83.9631 13.6304L83.976 12.768H80.2776V26.1345H83.9786V19.4216C83.9786 17.7743 84.4131 15.8069 86.4744 15.8069C87.9176 15.8069 88.3805 16.5247 88.3805 18.758V26.1422H92.0712V18.3397C92.0712 14.4359 90.4444 12.5382 87.1003 12.5382Z" fill="#003A63"/>
<path d="M99.9803 12.5356C98.2742 12.5509 96.6004 13.0016 95.118 13.8447L94.6266 14.1261L95.8964 16.9249L96.5016 16.5531C97.5088 15.955 98.6536 15.6268 99.8251 15.6004C100.699 15.6004 102.153 15.8585 102.215 17.6194L99.5664 17.7227C96.2042 17.875 94.2153 19.4913 94.2153 22.0448C94.2153 24.5983 96.243 26.434 99.0337 26.434C100.204 26.4536 101.348 26.0909 102.292 25.4012V26.1758H105.913V18.4688C105.913 16.4524 105.484 15.1872 104.426 14.0977C103.368 13.0081 101.943 12.5486 99.9725 12.5486M102.236 22.1016C101.899 22.5482 101.067 23.439 99.7656 23.439C98.625 23.439 97.8853 22.8606 97.8853 21.9699C97.8853 21.6342 97.8853 20.6118 100.06 20.4982L102.236 20.3614V22.1016Z" fill="#003A63"/>
<path d="M115.397 12.5382C114.256 12.5239 113.147 12.9105 112.263 13.6304V12.768H108.562V26.1345H112.265V19.4216C112.265 17.7743 112.697 15.8069 114.758 15.8069C116.202 15.8069 116.665 16.5247 116.665 18.758V26.1422H120.366V18.3397C120.366 14.4359 118.741 12.5382 115.395 12.5382" fill="#003A63"/>
<path d="M132.558 21.7607C132.14 22.1853 131.641 22.5207 131.089 22.7466C130.538 22.9725 129.946 23.0842 129.351 23.0749C127.354 23.0749 126.014 21.5928 126.014 19.3879C126.014 17.3224 127.406 15.8249 129.325 15.8249C129.918 15.8001 130.509 15.9025 131.059 16.1252C131.609 16.3479 132.105 16.6857 132.514 17.1158L133.134 17.7329L134.562 14.7973L134.303 14.4875C134.029 14.1622 132.493 12.5304 129.131 12.5304C125.818 12.5304 122.295 14.9574 122.295 19.455C122.295 23.4182 125.202 26.4081 129.053 26.4081C132.389 26.4081 133.822 24.9338 134.293 24.4484L134.665 24.074L133.189 21.0403L132.568 21.7529" fill="#003A63"/>
<path d="M142.82 12.5356C138.889 12.5356 136.036 15.4403 136.036 19.437C136.036 23.612 138.731 26.4082 142.745 26.4082C145.073 26.4082 147.113 25.6826 148.466 24.3685L148.934 23.976L147.225 21.6265L146.728 21.9415L146.576 22.0448C145.56 22.8153 144.326 23.2431 143.05 23.266C141.32 23.266 140.159 22.3055 139.841 20.6609H149.045L149.115 20.1161C149.115 20.0877 149.195 19.4577 149.195 18.9646C149.195 15.2492 146.516 12.5486 142.82 12.5486M139.898 17.7821C140.185 16.7235 141.051 15.5565 142.743 15.5565C144.434 15.5565 145.264 16.8087 145.523 17.7821H139.898Z" fill="#003A63"/>
<path d="M48.0029 70.5171H42V34.9154H48.1891L73.3126 61.638V34.9154H79.3621V70.5171H73.3126L48.0029 43.699V70.5171Z" fill="#003A63"/>
<path d="M171.197 14.0925C168.383 14.2449 166.058 15.6004 165.249 17.9654C165.249 17.9654 165.233 17.9447 165.231 17.9447L156.437 41.6801L153.923 34.9233H147.556L156.447 58.8109L173 14.0977H171.19" fill="#42C4DD"/>
<path d="M101.905 32.819C98.1235 32.8185 94.4272 33.9371 91.2828 36.0334C88.1385 38.1297 85.6873 41.1096 84.2392 44.5963C82.7911 48.0831 82.411 51.9202 83.147 55.6226C83.883 59.3249 85.7021 62.7264 88.3743 65.3968C91.0464 68.0673 94.4517 69.8869 98.1597 70.6257C101.868 71.3645 105.712 70.9892 109.206 69.5473C112.7 68.1054 115.688 65.6617 117.791 62.525C119.895 59.3883 121.019 55.6996 121.023 51.925C121.025 49.4169 120.533 46.9329 119.573 44.615C118.614 42.2971 117.206 40.1907 115.43 38.4162C113.655 36.6418 111.546 35.2342 109.226 34.2737C106.905 33.3133 104.417 32.819 101.905 32.819ZM101.905 64.9997C99.3091 65.0002 96.7718 64.2321 94.6138 62.7925C92.4558 61.353 90.7741 59.3067 89.7814 56.9127C88.7888 54.5187 88.5298 51.8845 89.0374 49.3435C89.5449 46.8025 90.7961 44.469 92.6327 42.6381C94.4692 40.8073 96.8085 39.5614 99.3545 39.0583C101.901 38.5551 104.539 38.8172 106.936 39.8115C109.332 40.8057 111.38 42.4874 112.819 44.6437C114.258 46.8 115.024 49.334 115.02 51.925C115.017 55.3956 113.634 58.7232 111.175 61.1763C108.715 63.6294 105.381 65.0074 101.905 65.0074V64.9997Z" fill="#003A63"/>
<path d="M171.805 34.9181H171.787L167.933 45.3309L171.805 34.9181Z" fill="#003A63"/>
<path d="M171.787 34.9154H169.801L169.793 34.918H171.787V34.9154Z" fill="#003A63"/>
<path d="M158.025 54.4604L156.435 58.7619L156.45 58.8058L158.025 54.4604Z" fill="#003A63"/>
<path d="M169.793 34.918C166.982 35.0729 164.659 36.4284 163.844 38.7908L163.829 38.7702L158.015 54.4681L156.44 58.8134L156.424 58.7695L147.545 34.9258H144.209L135.268 58.9529L126.604 34.9258H119.957L133.021 70.5146H137.653L145.81 47.7242L154.065 70.5146H158.561L167.931 45.3256L171.787 34.9128H169.793" fill="#003A63"/>
</g>
<defs>
<clipPath id="clip0_4685_281">
<rect width="131" height="64" fill="white" transform="translate(42 7)"/>
</clipPath>
</defs>
</svg>
